<svg id="Layer_1" data-name="Layer 1" xmlns="http://www.w3.org/2000/svg" viewBox="0 0 1336.51 667.7">
  <defs>
    <style>
      .cls-1 {
        fill: #fff;
        stroke: transparent;
      }
    </style>
  </defs>
  <title>alex-wilding</title>
  <text x="-11.97" y="-40.79"/>  <text x="-11.97" y="-40.79"/>  <g>
    <path class="cls-1" d="M90.92,230.8l39.89,143.3H89L80.52,343H37.38L28.24,374.1H12L54.38,230.8ZM41.47,328.64H76.64l-16.9-63.51Z" transform="translate(-11.97 -40.79)"/>
    <path class="cls-1" d="M183.61,230.8V359.71h58.9V374.1H142V230.8Z" transform="translate(-11.97 -40.79)"/>
    <path class="cls-1" d="M344.13,230.8v14.38H292.79v43.36h43.15v14.38H292.79v56.79h60V374.1H251.22V230.8Z" transform="translate(-11.97 -40.79)"/>
    <path class="cls-1" d="M469.79,230.8l-37.58,61.31,45.66,82H431.68l-27.5-50.39L373.63,374.1H354.94l40.42-65.51L352.11,230.8h46.08l25.62,46.71,27.71-46.71Z" transform="translate(-11.97 -40.79)"/>
    <path class="cls-1" d="M710.3,230.8l-39,143.3H644.16l-19.94-78.21L604,374.1H576.87l-37-143.3H581.7l21.73,86.92,21.73-86.92h24.46L671,318l22.88-87.24Z" transform="translate(-11.97 -40.79)"/>
    <path class="cls-1" d="M762.89,230.8V374.1H721.32V230.8Z" transform="translate(-11.97 -40.79)"/>
    <path class="cls-1" d="M829.35,230.8V359.71h58.89V374.1H787.78V230.8Z" transform="translate(-11.97 -40.79)"/>
    <path class="cls-1" d="M897.06,374.1V230.8h59.42q63.3,0,63.3,71.8,0,71.5-65.61,71.5Zm41.57-11.87h10.92q15,0,20.79-13t5.77-46.88q0-33.9-5.72-46.82t-20.84-12.91H938.63Z" transform="translate(-11.97 -40.79)"/>
    <path class="cls-1" d="M1079.83,230.8V374.1h-41.57V230.8Z" transform="translate(-11.97 -40.79)"/>
    <path class="cls-1" d="M1209.48,230.8V374.1h-31.81l-59.84-90.71V374.1h-14V230.8h26.35l65.3,97.94V230.8Z" transform="translate(-11.97 -40.79)"/>
    <path class="cls-1" d="M1289.48,296.73h59V374.1h-13.23l-4.52-9.87q-17.31,12.28-36.63,12.28-31.81,0-49.4-19.05t-17.58-53.7q0-33.7,18.63-54.54t48.77-20.84q39.68,0,48.29,40.53l-19.53,8.92v-3.47l-.32-7.76q-2-25.31-23.41-25.3-15.73,0-21.52,13.43t-5.77,50.08q0,34.23,4.67,46.5t17.8,12.29q15.42,0,15.43-17.22V311.11h-20.68Z" transform="translate(-11.97 -40.79)"/>
    <path class="cls-1" d="M45.19,509.71h28.6v7.39h-43V453.79H72.68v7.39H45.19v19.51H67.94v7.38H45.19Z" transform="translate(-11.97 -40.79)"/>
    <path class="cls-1" d="M118,509.71h24.49v7.39H103.8V453.79H118Z" transform="translate(-11.97 -40.79)"/>
    <path class="cls-1" d="M184.54,509.71h28.6v7.39h-43V453.79H212v7.39H184.54v19.51h22.75v7.38H184.54Z" transform="translate(-11.97 -40.79)"/>
    <path class="cls-1" d="M288.66,473.61H274.13v-9.7a2.67,2.67,0,0,0-.87-2.38,8,8,0,0,0-3.72-.56h-8.05a8.58,8.58,0,0,0-3.8.56c-.63.37-.94,1.16-.94,2.38v43.17c0,1.22.31,2,.94,2.38a8.58,8.58,0,0,0,3.8.56h8.05a8,8,0,0,0,3.72-.56,2.67,2.67,0,0,0,.87-2.38v-9.6h14.53V508.2q0,9-14.85,9H257.06q-14.69,0-14.69-9V462.69q0-8.9,14.69-8.9h16.75q14.85,0,14.85,8.9Z" transform="translate(-11.97 -40.79)"/>
    <path class="cls-1" d="M361.5,453.79v7.39H344.91V517.1H330.69V461.18H314.1v-7.39Z" transform="translate(-11.97 -40.79)"/>
    <path class="cls-1" d="M403.53,491.51V517.1H389.31V453.79H421.7q14.69,0,14.69,8.9v19.82q0,7.69-10.59,8.8l15.65,25.79H426.12l-14.85-25.59Zm0-30.33v23.05h13.9a8.53,8.53,0,0,0,3.79-.55,2.56,2.56,0,0,0,.95-2.38V464.11a2.56,2.56,0,0,0-.95-2.38,8.53,8.53,0,0,0-3.79-.55Z" transform="translate(-11.97 -40.79)"/>
    <path class="cls-1" d="M471.94,453.79h14.22V517.1H471.94Z" transform="translate(-11.97 -40.79)"/>
    <path class="cls-1" d="M568.16,473.61H553.63v-9.7a2.67,2.67,0,0,0-.87-2.38A8,8,0,0,0,549,461h-8a8.58,8.58,0,0,0-3.8.56c-.63.37-.94,1.16-.94,2.38v43.17c0,1.22.31,2,.94,2.38a8.58,8.58,0,0,0,3.8.56h8a8,8,0,0,0,3.72-.56,2.67,2.67,0,0,0,.87-2.38v-9.6h14.53V508.2q0,9-14.85,9H536.56q-14.68,0-14.69-9V462.69q0-8.9,14.69-8.9h16.75q14.85,0,14.85,8.9Z" transform="translate(-11.97 -40.79)"/>
    <path class="cls-1" d="M637.37,517.1l-4-14.67H612.56l-3.63,14.67H594.71l17.53-63.31h20.7l18.8,63.31ZM614.3,495.05h17.22l-9-33.37Z" transform="translate(-11.97 -40.79)"/>
    <path class="cls-1" d="M694.88,509.71h24.49v7.39H680.66V453.79h14.22Z" transform="translate(-11.97 -40.79)"/>
    <path class="cls-1" d="M817.17,506.78V491.31a2.68,2.68,0,0,0-.87-2.38,8,8,0,0,0-3.72-.55H800.89q-14.37,0-14.38-9V462.69q0-8.9,14.7-8.9h15.48q14.7,0,14.7,8.9V472H817v-7.89a2.56,2.56,0,0,0-1-2.38,8.56,8.56,0,0,0-3.79-.55h-6.64a8.56,8.56,0,0,0-3.79.55,2.56,2.56,0,0,0-1,2.38v14.05a2.54,2.54,0,0,0,1,2.38,8.52,8.52,0,0,0,3.79.56h11.54q14.54,0,14.53,8.9v18.2q0,8.9-14.85,8.9H801.52q-14.68,0-14.69-8.9v-9.31h14.38v7.89c0,1.22.31,2,.95,2.38a8.53,8.53,0,0,0,3.79.55h6.63a8,8,0,0,0,3.72-.55A2.67,2.67,0,0,0,817.17,506.78Z" transform="translate(-11.97 -40.79)"/>
    <path class="cls-1" d="M878.94,509.71h28.6v7.39h-43V453.79h41.87v7.39H878.94v19.51h22.75v7.38H878.94Z" transform="translate(-11.97 -40.79)"/>
    <path class="cls-1" d="M951.78,491.51V517.1H937.56V453.79H970q14.68,0,14.69,8.9v19.82q0,7.69-10.58,8.8L989.7,517.1H974.37l-14.85-25.59Zm0-30.33v23.05h13.9a8.53,8.53,0,0,0,3.79-.55c.64-.37.95-1.17.95-2.38V464.11c0-1.21-.31-2-.95-2.38a8.53,8.53,0,0,0-3.79-.55Z" transform="translate(-11.97 -40.79)"/>
    <path class="cls-1" d="M1052.74,453.79h14.69l-17.85,63.31h-20.23l-17.85-63.31h14.7l13.11,54.91Z" transform="translate(-11.97 -40.79)"/>
    <path class="cls-1" d="M1096.51,453.79h14.22V517.1h-14.22Z" transform="translate(-11.97 -40.79)"/>
    <path class="cls-1" d="M1192.73,473.61h-14.54v-9.7c0-1.22-.29-2-.87-2.38a8,8,0,0,0-3.71-.56h-8.06a8.49,8.49,0,0,0-3.79.56,2.54,2.54,0,0,0-1,2.38v43.17a2.54,2.54,0,0,0,1,2.38,8.49,8.49,0,0,0,3.79.56h8.06a8,8,0,0,0,3.71-.56c.58-.37.87-1.16.87-2.38v-9.6h14.54V508.2q0,9-14.86,9h-16.74q-14.7,0-14.7-9V462.69q0-8.9,14.7-8.9h16.74q14.85,0,14.86,8.9Z" transform="translate(-11.97 -40.79)"/>
    <path class="cls-1" d="M1240,509.71h28.6v7.39h-43V453.79h41.87v7.39H1240v19.51h22.75v7.38H1240Z" transform="translate(-11.97 -40.79)"/>
    <path class="cls-1" d="M1327,506.78V491.31a2.66,2.66,0,0,0-.87-2.38,8,8,0,0,0-3.71-.55h-11.69q-14.38,0-14.38-9V462.69q0-8.9,14.7-8.9h15.48q14.68,0,14.69,8.9V472h-14.37v-7.89a2.56,2.56,0,0,0-.95-2.38,8.56,8.56,0,0,0-3.79-.55h-6.64a8.53,8.53,0,0,0-3.79.55,2.56,2.56,0,0,0-1,2.38v14.05a2.54,2.54,0,0,0,1,2.38,8.49,8.49,0,0,0,3.79.56H1327q14.54,0,14.54,8.9v18.2q0,8.9-14.85,8.9h-15.33q-14.7,0-14.69-8.9v-9.31h14.38v7.89c0,1.22.31,2,.94,2.38a8.61,8.61,0,0,0,3.8.55h6.63a8,8,0,0,0,3.71-.55C1326.73,508.79,1327,508,1327,506.78Z" transform="translate(-11.97 -40.79)"/>
  </g>
  <text x="-11.97" y="-40.79"/></svg>
