<svg data-name="EDIT Bird on Branch Image" xmlns="http://www.w3.org/2000/svg" viewBox="0 0 1133.16 1113.72"><path d="M717.87 473.7l-2 1.85c0 .45-.13.93 0 1.05 2.45 2 2.23 4.32.85 6.77-.38.68-.9 1.29-1.56 2.23a12.23 12.23 0 001.35 3.18 3.47 3.47 0 01.6 3.57c-.62 1.78-1.48 3.48-2.27 5.27a15.54 15.54 0 011.81 2.53c.21.46-.22 1.21-.36 1.82l.14-.07c-.64.71-1 1.43 0 2.13l-.16-.09.25 2.59.09-.12-3.12-.35a23.24 23.24 0 011.49 2.55c.08.22-.37.65-.58 1l.14.11c-1.14-.74-2.32-1.43-3.43-2.21s-1.73-.25-2.52.28l.2-.11-2.11-2.94 1.14-.24-.9-1.68c.17-2.29.35-4.58.52-6.86h3.62c-.65 1.1-1.31 2.18-1.89 3.3-.08.16.2.52.48 1.2.78-1.1 2.18-1.33 2.33-3.07l-1-1.36c.2-1.47 1.2-2.85.54-4.3l-4 4.28-2.45-.32c1.06-.81 1.95-1.93 3.5-1.64a4.77 4.77 0 011-4 2.74 2.74 0 00.43-3.09 2.74 2.74 0 01.92-3.42 3 3 0 00.92-3.46 1.77 1.77 0 01.88-2.34l.12-.05c.11-.06-.08-.75-.17-1.13-.34-1.42-1.32-3-.92-4.2.77-2.21-.08-3.94-.68-5.82-.13-.42-.67-.8-.65-1.17.11-1.58.54-3.14-.43-4.64s.43-3 .23-4.59c-.32-2.5-.35-5-.7-7.53s.11-5.31-.86-7.84c-2-5.14-1.36-10.7-2.72-16a33.85 33.85 0 01-.57-9.42 64.18 64.18 0 00-2.05-16.09 30.64 30.64 0 00-3.87-10.21c-.95-1.44-2-3.2-1.51-5.34.2-.82-.34-1.82-.53-2.75a16.79 16.79 0 01-.61-3.22 4.3 4.3 0 00-2.81-4c-2.08-.91-3.94-2.54-6.59-2.45a10.15 10.15 0 00-1.64 1.5 1.62 1.62 0 001.1 2.8c.75.12 1.51.11 2.29.17.42 1.58.45 3.18 1.22 4.24 1.55 2.12 2.95 4.08 2.42 6.94a4.12 4.12 0 001 2.59 10.94 10.94 0 011.72 8.62 6.75 6.75 0 00.09 3.28c1 2.83.3 6.09 2.28 8.69a2.79 2.79 0 01.17 2.31c-.71 1.7-.11 3.09.61 4.53a8 8 0 01.19 7.74c-1 1.94-1.3 4.21-2 6.62l3.29 6.17-1.92 4.79a8 8 0 013 4.38 10.08 10.08 0 01.43 3.7c-.1 1.34.57 2.75 1 4.11s-.91 2.66 0 4.19c.48.85.13 2.15.18 3.25a6.56 6.56 0 00.18 2.25c1.15 2.67 1.06 5.1-.86 7.42-.2.24.33 1.51.41 1.5 2.27-.33 2.15.92 1.75 2.47-.61 2.32-1.23 4.63-1.72 7-.31 1.48-.72 3.07.75 4.59l1.56-2.23a11.78 11.78 0 010 1.68c-.56 3.25.74 5.57 3.5 7.19a1.12 1.12 0 01.29.36 5.84 5.84 0 00-1.34-.56c-2-.39-2.27-.14-2 2.18 1.14 1.9-.51 3-1.44 4.36a13.07 13.07 0 001.63 2.34c.35.33 1.1.22 1.66.31-.07.72-.15 1.43-.22 2.14a16.64 16.64 0 00-1.35 3.47 8.91 8.91 0 01-3 5.19 16.22 16.22 0 013.34.22c2.58.73 2.88 2.15 1.07 4.54a6.89 6.89 0 00-.52-.56l-.29.15.93.28a15.58 15.58 0 001.27 1.3 6.23 6.23 0 001.15.66c-.75 1.74-2.29 2.11-4 2.7v10.82l-2.34.35c.61-1.39 1.21-2.79.46-4.63-1.16 1-2.14 1.7-3 2.56a1.54 1.54 0 00-.4 2.14 1 1 0 00.13.16l3-.43c.09 2.24-1.38 3.32-3.09 4.3-1.33.78-2.9 1.47-3.77 2.64-1.24 1.67-2.83 3.22-2.38 5.87.32 1.93-.37 4 1.21 5.71 1.24 1.37.52 3 0 4.44l.14-.1-.77.34.66.73-.14-.09 3 1.86c-.54.36-.9.81-1.23.79a46.07 46.07 0 01-5.11-.52 3.57 3.57 0 01-3.19-3.08c-.48-2.49-1.26-4.93-1.72-7.43a7.84 7.84 0 00-2.35-4.58 14.28 14.28 0 01-3.39-5.13 27 27 0 00-4.79-7.07 9.48 9.48 0 00-2.51-1.55c-1.77 1.89-1.71 4.05-1.44 6a112.46 112.46 0 01.7 15.24c0 3.42.07 3.53 1.71 6.53 2.43-3.37.26-7.54 2.09-11 .83 4 1.46 7.73 2.43 11.36.61 2.27-.75 4-1 6-.86-.84-1.71-1.66-3.93-.44l3.91.38 2.36-1.15a15.93 15.93 0 012.55 8.2 4 4 0 01-1.62 3.33c-.72.59-1.46 1.16-2.46 2l2.7 3.65h-3.85c0 .56-.19 1-.06 1.12 4 4.2 6.74 9.26 9.59 14.21a14.94 14.94 0 004.83 5.49c.77 2 1.48 3.88 2.33 6.1a10.89 10.89 0 00-2.48 1.25 10.31 10.31 0 00-1.63 2.3c-1.76.16-3.32-.24-3.33-2.34 0-2.91-2.43-4.72-3-7.33-2-1.48-2.73-3.83-3.91-5.87-.88-1.51-2-2.9-2.83-4.4a29.73 29.73 0 01-1.33-3l.11.09-3-4.19a2.88 2.88 0 00-3.69 1.41 28 28 0 00-1.65 3.23c-1.29.64-1.24-.88-2.29-1-.51 2.73.34 5.17 1.67 7.56l-1.77 2.2c-1.19-.6-2.15-1.08-3.11-1.58a3.35 3.35 0 00-1-2.83c-.13-1-.27-1.93-.39-2.89.51.36.86 1.22 1.78.53l-1.77-.52c-1.64 1.47-1.62 1.59.49 2.77-.54 1.93-.54 1.93 1 2.83l-2.12 1.76.15.12c-1.13-1.1-2.22-2.24-3.41-3.26a1.5 1.5 0 00-1.34 0c-.3.16-.62.85-.5 1.09a1.46 1.46 0 01-.41 2 4.73 4.73 0 00-1.65 2.19c-.43 1.91-1.51 3.45-2.3 5.16-2.37 5.16-4.57 10.4-6.78 15.63-.79 1.87-.44 4.13-1.91 5.8-.44.07-1 .34-1.29.16a7.93 7.93 0 01-1.64-1.73 69.65 69.65 0 01-9.38-17.66c-1-2.64-1.85-5.33-2.83-8.14-.56.39-1.07.56-1.29.91-1.41 2.29-3.06 4.38-3.59 7.21-.43 2.31-1.42 4.46-4.47 4.93-1.14.17-2.36 1.63-3 2.79a125.79 125.79 0 00-6.27 11.8 32.14 32.14 0 00-1.75 7.43 8.62 8.62 0 001 5.56A30.85 30.85 0 00618 650.96a2 2 0 01-2.62-.11 84.1 84.1 0 00-7.06-6.42c-4.57-3.38-7.6-8.06-11.12-12.33-1.7-2-3.11-4.34-4.73-6.63a10.68 10.68 0 01-2.2 1.14 8.18 8.18 0 01-2.21 0c-.13 1.11-.24 2-.36 3-.31-.12-.55-.13-.6-.23-1.51-3.12-3-6.24-5-10.39.39 2.72.21 4.6 1 6 1.26 2.34.35 4.23-.43 6.61l-3.9-4.42.05.09a2.84 2.84 0 00-.32-3.06c-.09-.14-.46-.12-.77-.18v2.35a19.79 19.79 0 01-1.57-1.47 1.92 1.92 0 00-2.43-.76c-.58.32-.87 1.16-1.3 1.77l.12-.13c-1.67-1.35-2.55-3-1.86-5.18.06-.19.41-.3.62-.45l1.17 1.43a3.63 3.63 0 012.14-2.47c1.2-.49 3.09.37 3.57-1.65 1.32-.52 2.68-1 3.94-1.6.4-.2.54-.92.8-1.41-1.53-.76-2.47 2-4 .07.7-.71 1.32-1.43 2-2.05a47.56 47.56 0 008.55-10.81 7.33 7.33 0 00.88-2.66c.18-1.15-1-1.5-1.58-2.19a3.69 3.69 0 01-.46-1.25c.35-.21.61-.48.89-.51 3-.32 4.3-2.26 4.84-5 .31-1.54.69-3 1.08-4.72l-3.46-2.26c.36-1 1.5-1.65 1-3.06H588l-2.89 3.13c-.82-.38-1.6-.59-2.07.49a28.89 28.89 0 00-4.67 8.2c-1.81 4.51-5 8.08-8 11.71-.39.46-1 .75-1.65-.28 2.91-4.9 6.34-9.7 8.21-15.31 2.6-5.83 2.7-6.44 1.59-9.25-1.42.5-.06 2.62-2.17 3.09.25-1.59-.93-2.78-.54-4.49.22-1-.88-1.72-1.9-1.45a6.66 6.66 0 00-1.62 1.06c-.09-2.88-2.73-3-3.84-4.42.13-.85.6-1.93.29-2.26-1-1.07-1.63.13-2.25.78-.44.46-.8 1-1.2 1.5l.08.07a6.75 6.75 0 00-5.58-3.85c-2.11-.24-2.79-1.69-3.2-4.07a9.45 9.45 0 002.28 1.22 8.34 8.34 0 002.73 0c.26 0 .43-.64.8-1.25l-3 .21c-.62-1-1.18-2-1.74-2.86 1.71-1.21 2.45-3.22 4.61-3.67.71-.15.88-1.25.41-2a1.66 1.66 0 00-2.27-.59l-.2.14c-.76.79-1.44 1.67-2.13 2.54-1 1.28-2.27 1.28-3.74.59v2.47l.13-.11-3.06 2 .09-.1h-3.15a18.58 18.58 0 011.86-7.46 19.76 19.76 0 001.94-3.77 18.41 18.41 0 00.38-3.92c4.37-.62 4.39-.65 7.18-3.9a17.26 17.26 0 012.39-2.29c4.06-3.22 8.92-4.88 13.7-6.58a16.21 16.21 0 016.08-.51c2.52.11 5 .58 7.52.9 2.33 1.66 4.78 3.22 5.84 6.1.2 1.37-1.22 2.56-.47 4.59a9.15 9.15 0 001.51-4.25 149.06 149.06 0 00-1-30.45c-2.3-1.77-4.33-1-6.35.17-2.34 1.36-4.63 2.82-7 4s-5 2.12-7.48 3.19a35.5 35.5 0 00-11.54 7.53c-2 2-3.92 4.19-6 6.19-5 4.87-7.65 10.87-8.77 17.65a4.69 4.69 0 00-.17 2.32 3 3 0 01-1.2 4.07l-.1.05a8.71 8.71 0 00-3.53 4.92 8.15 8.15 0 01-1.78 3.36c-1.54 1.55-1.39 3.4-1.66 5.28s.64 2.54 2.18 3.18l-.87 4 1.29 2.43-2.35 1.6c.22 2 .81 4 .57 6-.26 2.19.83 4 1 6s-.22 4.13 1.63 5.56c1.21-.65.74-1.5.77-2.24 0-1 .74-1.27 1.6-1.32h-.08c.43.61 1.09 1.16 1.25 1.83.33 1.38.11 2.93.62 4.21a29.72 29.72 0 011.47 6.45 9 9 0 001.3 4 2.91 2.91 0 01.09 3.45c-.45-.14-.91-.15-1-.34a19.43 19.43 0 01-2.69-6 38.58 38.58 0 00-2.46-7.16c-.15-.36-1.09-.64-1.6-.56a.88.88 0 00-.79 1 .82.82 0 00.19.47c.23.41.61.9.54 1.28-.36 1.91-.71 3.84.38 5.59s-.16 3.65.56 5.57c1 2.57 1.18 5.44 1.71 8.14l-1.78.54c.74 4 2.36 7.69 1.67 11.74a1.32 1.32 0 00.58 1.12c1.1.51 1.12 1.47 1.2 2.41.16 1.91.2 3.83.45 5.72a9.2 9.2 0 001 3.63 4.71 4.71 0 011 3.94c-.17.68.58 1.13 1.28.92.36-.12.88-.65.85-.95a34 34 0 00-.6-3.47l.49-.28 1.64 2.63a4 4 0 00-.81-4.87 1.89 1.89 0 01.88.12c2.23 2.5 2.6 5.59 2.69 8.75-1.35.74-.73 1.82-.61 2.89.18 1.52.71 3.2-1 4.32a6.63 6.63 0 00-.16-1.1c-.05.09-.16.2-.14.26.1.25.25.49.37.73.94 1.43 3.47 1.9 2.66 4.39l-2 1.07c1.12 2.86 2.83 5.25 3 8.25.06 1 .9 2 1.49 3 2.54 4 5.36 7.89 6.92 12.5.39 1.14 1 2.72 3 2.86-.14-6.32-1.89-12.48-.44-18.66 1.4-6 2.37-12 5.49-17.84.25.75.47 1.06.43 1.33-.51 3-.91 6-1.64 9-1.73 7-2.76 14-1.77 21.31.94 7 1.72 13.91 5.77 20 .26.4.4.88.66 1.28q4.26 6.63 8.57 13.24a5.41 5.41 0 001.37 1.33q6.4 4.6 12.84 9.17c3.49 2.48 7.38 4.44 10 8a5.9 5.9 0 002.37 1.46c2.85 1.29 5.79.84 9.15.66a8.58 8.58 0 00-1-1.46 121.15 121.15 0 01-10.88-10 29.29 29.29 0 01-3-3.67 1.38 1.38 0 01.44-1.89l.22-.11a10.32 10.32 0 012.12-.62c-.93-1.92-1.73-3.82-2.74-5.61s-2.29-3.64-3.68-5.8c2.56.06 3.32 2.69 5.63 3a7.39 7.39 0 00-.5-1.66c-1.4-1.93-2.87-3.82-4.27-5.75-.14-.18 0-.55 0-.84l1.87-.64a6.23 6.23 0 00-.87-1.75c-2.62-2.47-3.74-5.89-5.47-8.89-1-1.74-1.67-3.72-2.76-5.5-1.4-2.32-2.48-4.82-4.37-6.83a2.32 2.32 0 01-.72-1.21c-.27-3.12-2.13-5.64-3.13-8.47a11.15 11.15 0 01-.14-2 22.94 22.94 0 012.92 5.23 47.1 47.1 0 005.45 9.91c.45.64 1 1.57 1.58 1.71 3.5.77 5 3.78 7.11 6.07 1 1 2 2 3.09 3 .18.17.57.11.86.15l1.54-1.69c2.29 1.89 3.59 4.41 6.09 5.6 1.44-2-1.06-3.38-.65-5.38l5.27 4.18a25.82 25.82 0 002.6-.76c1.53-.64 1.88-1.48 1.24-3-.86-2.06-1.78-4.09-2.69-6.14a3.82 3.82 0 01-.25-3.23l-.13.12a20.84 20.84 0 002.15 1.58 6.24 6.24 0 001.6.39 1.35 1.35 0 00.7 1.78l.21.07c.13 0 .6-.31.58-.4-.18-.83-.61-1.44-1.59-1.37.24-.64.47-1.29.72-2l2.78 1.77c1.38-1.07 1.18-2.13.83-3.26-.2-.63-.17-1.28.76-1.54l2.39 1.23a8.73 8.73 0 011.15-2.68 3.64 3.64 0 00.83-4c-.38-1.21-.74-2.42-1.19-3.6a38.66 38.66 0 00-4.71-8.27 22.38 22.38 0 01-1.3-2.59c1.36.4 2.22.42 2.7.85a14.08 14.08 0 012.06 2.62c6.45 9.32 12.86 18.65 19.33 28a93.49 93.49 0 017.91 14.72c2.45 5.36 4.66 10.84 7 16.25.09.2.47.28.91.52 2.55-5 3.12-10.36 3.43-16.76a52.37 52.37 0 01-.21 15.31c2.6-1.31 3.51-3.17 4.5-4.87 1.13-1.93 1.94-4 3.19-5.88a18.65 18.65 0 003.31-10.26c.18-5.74.09-11.49.3-17.22a45.25 45.25 0 00-5.27-23.12 14 14 0 00-5.28-6c-2.76-1.58-5.62-3-8.46-4.4-3.75-1.89-7.62-1-11 .49-5 2.19-6.9 6.76-7.36 12 0 .27.24.57.37.86l-1.7.54a7.77 7.77 0 01-.39-1.65c0-.91.11-1.82.16-2.74a10.58 10.58 0 01.22-3.27c1.47-3.67 3.85-6.74 7.57-8.25 6-2.42 11.81-2.22 17.25 1.62 1 .74 2 1.54 3.07 2.28.52.37 1.09.62 1.6-.27a41.49 41.49 0 00-8.9-9.14 37.91 37.91 0 01-5.66-5.08c-2.57-3.09-5.76-5.5-8.58-8.31a34.12 34.12 0 00-3.78-3.53 10.11 10.11 0 01-4.5-7l7.78 8 3-1.77a5.48 5.48 0 010 1.54c-1.28 2.66-1.32 2.93.54 4.31 2.41 1.78 4.91 3.43 7.48 5.22 4.11-5.59 10.53-8 15.2-12.55.26-1.69.53-3.4.78-5 4.84-2.89 6.28-2.66 9.37 1.43-.57 1.24-1.15 2.54-1.77 3.83-1.35 2.83-3.12 3.53-6.15 2.43-.43-.16-.84-.39-1.53-.72-4.7 4.11-10.45 7-14.67 11.85 2.2 2.1 4.15 4.12 6.29 5.92a8.19 8.19 0 002.79 1 10.77 10.77 0 00.72 2.67 11.31 11.31 0 002 2.09c3.36 3.43 6.64 6.91 8.56 11.43a7.12 7.12 0 001.22 1.46 56.59 56.59 0 014.35-5.06c1.63-1.5 3.61-2.62 5.37-4 1.12-.88 2.15-1.88 3.19-2.85.35-.32.57-.87 1-1.05 3.89-1.75 6-5.63 9.61-7.76a4.74 4.74 0 002.21-3.25l-2.94-1.15c-.47-1.83-1-3.66-1.47-5.67.75-.29 1.75-.36 2.1-.87 1.67-2.38 3.62-2.18 5.81-.94v-.09c-.41 1.63-.82 3.26-1.31 5.19l3.74 1c1-1 .77-3.29 3-2.8l-.11-.15 1.08 2.12-.14-.1a99 99 0 01-10.73 10.45 49.35 49.35 0 00-4.93 5.19c-1.73 1.85-3.28 3.75-6.13 4.23-1.61.27-3.07 1.59-4.52 2.55-2 1.31-3.92 2.72-6.07 4.22l-2 4c1.36 3.07 2.85 6.4 4.29 9.74a3.11 3.11 0 003.46 2c5.68-.75 11.34-1.52 16.12-5.21a42.11 42.11 0 017-4.14 27.66 27.66 0 005-3.59c4.19-3.4 8-7.24 12.77-10a30 30 0 008.24-7.22 4.84 4.84 0 001.12-1.53c1.18-4.4 4.49-7.66 6.27-11.78 1.24-2.88 3.65-5.25 5-8.1a35.29 35.29 0 014.7-7.7 8.28 8.28 0 001.55-2.41c2.23-6.34 6.35-11.76 8.65-18a61.32 61.32 0 001.65-5.93c.87-3.39 1.74-6.77 2.53-10.18a14.05 14.05 0 00.18-5.17c-.31-2.31.18-4.73.35-7.11a85.87 85.87 0 00-.3-16.27c-.39-3.32-.4-6.69-.66-10-.17-2.07-.42-4.12-.75-6.17-.38-2.37-.86-4.72-1.33-7.07-.66-3.26-1-6.53-2.41-9.69-1-2.42-1.2-5.28-1.5-8a28.49 28.49 0 00-1.52-7.92 4 4 0 01.89-4.42l-.12.11a9.4 9.4 0 012.06 5.26 104.36 104.36 0 002.24 11.21c1.1 4.65 2 9.34 3 14 .25 1.24.37 2.52.51 3.78.53 4.75 1.24 9.49 1.52 14.26.35 5.73.27 11.48.49 17.22a84.73 84.73 0 01-1 15.26 11.11 11.11 0 002.39 9.32c1.8 2.16 3.62 4.48 4.22 7.4l.15-.07c-2.22-2-4.93-3.2-7.43-4.49-.49.43-.86.59-.94.84a55.4 55.4 0 01-2.81 8.63c-.5 1.06-.27 2.49-.27 3.74s1 1.56 1.84 2l-.11-.16c-1.11 1.4-2.08 2.85-1.29 4.75a5.19 5.19 0 01-.23 4.14 2.39 2.39 0 00.55 2.62c2.09-.73 1.89-3.57 4-3.93-.15 1.61-.72 3.29.63 4.88 1.8-3.25 1.8-3.25-.76-4.76a19.89 19.89 0 01-.74-2.26 4.34 4.34 0 01.14-1.34c1-.62 1 .19 1.31.7 1 1.63 1.59 1.66 2.89.33.52-.54.72-1.47 2.07-1.4a16.2 16.2 0 01-.37 3.1q-4.64 14.32-9.36 28.62a8.91 8.91 0 01-.87 2.23 13 13 0 00-2.24 6.71c-.14 2.14-1 2.5-3.23 1.88-.3-.08-.62-.37-.87-.31-.41.11-1 .37-1.1.67-.13.54-.11 1.52.18 1.67a18.73 18.73 0 003.34 1.12c-.18 1-.33 2-.6 3s-.66 1.8-.9 2.73c-.9 3.48.24 4.91 3.8 4.47a24.9 24.9 0 016.16-.26 6.55 6.55 0 003.24-.56 9.23 9.23 0 014.24-.31 4.19 4.19 0 014 2.93c.93 2.2 2 4.31 3.08 6.46-1.94-.57-3-3.41-5.67-2-.25-1.31-.45-2.35-.64-3.36-1.47 0-1.86.9-1.59 1.93a4.12 4.12 0 004.08 3.32c1.27.08 2.54.06 3.81.08.8 1 1.88 1 3 1.07 2.86.21 5.73 1 8.54.77 3.85-.24 7.87.73 11.56-1.28a26.89 26.89 0 013.59-1.28 23.08 23.08 0 004.44-1.73c5-3.09 10.3-2.66 15.14-.35 4.36 2.08 8.8 2.68 13.41 2.94a92.17 92.17 0 0019.57-.73c4.59-.71 9.18-.24 13.75-.5s9.19-.6 13.79-.71a42.56 42.56 0 0013.55-2.4 28.28 28.28 0 013.28-.62 6.11 6.11 0 014.6.64c2 1.11 4 2 5.88 3.23a8.43 8.43 0 005.5 1.18c2.22-.19 4.43-.45 6.63-.68 4.61 2.89 9.08 6 13.83 8.56s8.68 6 13.75 7.84a13.5 13.5 0 013.09-2.21 15.8 15.8 0 014-.33 26.55 26.55 0 011.79 3.91 8.91 8.91 0 004.76 5.66c2.25 1.19 4.34 2.7 6.62 3.8a21.94 21.94 0 004.57 1.25 30.28 30.28 0 018.94 3.21q6.36 3.81 12.61 7.82a48.05 48.05 0 014.08 3.32c1.34 1.1 2.47 2.54 4.43 2.57a1.32 1.32 0 01.88.27c2.2 2.49 5.27 3.48 8.15 4.8 1.28.58 2.51 1.32 3.82 1.82 3.5 1.35 6.72 3 8.61 6.47a7.05 7.05 0 003.63 3c1.61.7 3.22 1.4 4.78 2.21a18.35 18.35 0 015.65 4.36c1.22 1.44 2.29 3.12 4.28 3.7a.71.71 0 01.4.25c3.89 5.22 9.59 8.94 12.28 15.17a39 39 0 005.78 8.76 38 38 0 014.21 7.46c2.09 4.34 5.49 7.62 8.64 11.11.21.23.59.33.76.57 4.29 6.17 10.11 11 15 16.58 3.44 4 6.64 8.14 10 12.16 4.62 5.48 9.32 10.9 14 16.38.81 1 1.4 2.1 2.19 3.08a32.15 32.15 0 002.22 2.35v36.39c-1.18-1-1.55-2.52-2.89-3.57a13.35 13.35 0 01-4.7-7.09c-1-4.19-3.51-7.49-6-10.81-3-4.07-5.74-8.35-9.47-11.89-1.32-1.25-1.91-3.25-3.9-3.89-.25-.08-.47-.45-.59-.73-1.45-3.58-4.63-5.54-7.44-7.81-1.58-1.27-2.77-3-4.78-3.82-.6-.24-1.05-1.16-1.35-1.86a22.76 22.76 0 00-4.36-6.53c-1.58-1.73-2.65-3.83-5-4.71a2.19 2.19 0 01-1.18-1.44c-.4-2.16-2-3.42-3.42-4.77a59.85 59.85 0 00-4.61-4 33.09 33.09 0 01-7.75-9.58 58.6 58.6 0 00-6.35-9.54 29.77 29.77 0 01-5.09-8.62 15.55 15.55 0 00-4.38-6.18c-2.85-2.54-5.56-5.25-8.3-7.91a7.45 7.45 0 01-1.48-1.87c-1.85-3.62-4.92-6.24-7.43-9.32a18.18 18.18 0 01-1.81-2.21 5.68 5.68 0 00-3.25-2.62 50.32 50.32 0 01-7-3c-1-.56-1.68-1.83-2.6-2.69s-1.84-2.1-2.9-2.27c-2.66-.41-4.73-1.9-6.93-3.14a12.65 12.65 0 00-5.34-1.93 14.63 14.63 0 01-6.61-2.61c-2.15-1.35-4.16-2.94-6.34-4.24-1.34-.8-2.91-1.81-4.34-1.75-2.24.07-4-1.58-5.88-1.47-2.25.13-3.87-1.29-5.9-1.48-.55-.05-1-.67-1.58-1 .27-1 .52-2 .8-3.09-4.5-2.62-8.82-5.24-13.25-7.65-3.2-1.75-6.38-3.55-10.23-3.79a10 10 0 01-5.94-2.88 33.58 33.58 0 00-3.83-2.77c-3.59-2.39-7.15-4.84-10.84-7.08a35.71 35.71 0 00-6.84-3.39c-2.28-.79-4.67.22-7 .39a10 10 0 00-2.79.61 5.68 5.68 0 01-4.21-.1 19.33 19.33 0 00-7-1c-5.61-.15-11.14-.06-16.46 2.19a14.17 14.17 0 01-5.18.6c-3.15 0-6.36-.83-9.41.75a2.32 2.32 0 01-1.38-.06c-1.7-.35-3.4-.74-5.14-1.12a10.66 10.66 0 00-1.65 1c-3.63 3.21-8.17 4.27-12.71 5.07a14.77 14.77 0 01-6.13-.46c-2.74-.71-5.29-2.25-8-2.79s-5.75-.13-8.58-.5c-4.43-.57-8.84-1.37-13.21-2.28a13.12 13.12 0 00-4.24-.22c-2.69.32-5.4.55-8.11.69q-9.07.45-18.16.76a7 7 0 00-4 1.3 46.15 46.15 0 01-4.82 2.67c-3-2-6.49-2-10.32-2.08 1.25 5.14 3.71 9.45 5.33 14.06.29.82 1.26 1.4 2 2.18 5.86-2 7.4-6.94 9.13-12.1.25 1.79.53 3.57.75 5.36.15 1.26.16 2.54.32 3.8.62 4.9-1 8.72-5.19 11.47-2.06 1.36-4.07 1.7-6.25.41-.54-.32-1.12-.55-1.94-1a9.87 9.87 0 01-6.45 4.51 5.86 5.86 0 01-2.22-.48l1.63-2.07c1.89-.32 1.95-1.67 1.77-3.17-1.46 1.13-1.46 1.13-1.64 3.3l-2.38-1.69c.66-1.25 1.21-2.3 1.81-3.46-3.75-.42-3.74-.42-4-3.84 0-.26-.34-.5-.53-.74-1.43-.33-3.3.59-4.15-1.4 0-1.88 2.67-2.44 2.18-4.52-3.11-1-3.35-.94-6.14.52a13.85 13.85 0 002.55 5.53c2.9 4 6 7.8 9 11.68-4.39-1.22-7.45-4.07-9.87-7.81-1.82-2.79-4.17-5.24-5.39-8.44a10.81 10.81 0 00-2-2.65c-2.16-2.63-3.17-5.49-2-8.89a21.86 21.86 0 00.51-3c-1.43-.26-2.66-.43-3.86-.7a15.52 15.52 0 01-4.12-1.11 7.45 7.45 0 00-5-.85 4.94 4.94 0 01-2.76-.41 9.33 9.33 0 00-6.55-.61 6.28 6.28 0 01-5.79-1.2c-4.19-3.06-8.91-4-13.89-4.33-2-.15-4.09-.51-6-.76-1.28 1.28-.76 2.6-.69 3.82.15 2.55.5 5.09.52 7.63a45.45 45.45 0 01-.56 5.7c-.29 2.37-.56 4.74-1 7.09a42 42 0 01-7 17.08c-1.8 2.58-3.47 5.36-6.79 6.39-.37.11-.57.73-.94 1.22 2.52 5.63 5.49 11.13 7.45 17a92.8 92.8 0 014.21 18.18c.76 6.17 1.41 12.33.73 18.52-1.36.41-1.9-.6-2.31-1.33-4.47-7.86-10.77-14.15-17.13-20.42a44.42 44.42 0 01-4.47-4.73c-3.3-4.38-7.83-6.94-12.62-9.13-4.48-2-9.24-3.38-13.65-5.63-1.8-.92-4-1.15-6-1.59-6.39-1.38-12.77-2.76-19.18-4-3-.61-5.83-1.61-8-3.91a4 4 0 00-1.11-.9c-3.81-1.77-6.84-4.62-10.19-7-4.45-3.19-8.09-7.21-12.34-10.57a5.87 5.87 0 01-1.92-2.1c-1.47-3.53-4.46-5.76-6.92-8.46-2.14-2.35-4.15-4.82-6.2-7.21.37-1.1 1-2 .86-2.77a2.65 2.65 0 00-2.24-2.2l.1.07c-.61-.91-1.19-1.86-1.85-2.73-1.54-2-3.1-4-3.75-6.55a9.1 9.1 0 00-1.58-2.92c-1.31-1.81-2.58-3.55-3-5.9-.19-1.17-1.2-2.2-1.83-3.3l-2-3.43 3.5 1.47a18.14 18.14 0 00-1.19-3.36c-2-3.24-4.07-6.41-6.11-9.61a5.35 5.35 0 01-.84-1.69c-.83-3.56-3.78-5.68-5.7-8.48a3.78 3.78 0 00-2.47-1.3c-2.38-.26-4.06-1.66-5.83-3-1.39-1.06-2.86-2-4.29-3a12.2 12.2 0 00-9-2.09 65.76 65.76 0 01-10.5.26c-2.31-.07-4.42.08-6.4 1.42a3.49 3.49 0 01-2.27.5 6.18 6.18 0 01-1.9-1c.42-.46.6-.85.81-.86 4.13-.27 8.27-.74 12.4-.66a11.23 11.23 0 008.21-2.81c-4-2.69-7.91-5.43-12-7.89-4.78-2.9-9.68-5.6-14.59-8.28a21 21 0 00-4-1.3 24.09 24.09 0 01-3.63-1c-6.9-3.33-13.8-6.67-20.62-10.17-6.44-3.3-13.41-5.07-20.19-7.42-5.1-1.76-10.42-2.81-15.2-5.63-2.63-1.54-5.76-2.71-9.13-1.84a8.47 8.47 0 01-5.14-.55c-1.93-.71-3.32-1.48-3.75-3.77-.27-1.42-.82-3.1-2.85-3.41-.43-.07-.72-1-1.12-1.43-1.41-1.7-2.78-3.47-5.16-3.91a2.93 2.93 0 01-2.65-2.35c-2.07-1.14-4.14-2.29-6.23-3.42a39.86 39.86 0 01-3.76-2c-3.06-2-6.55-3.15-9.76-4.84a41.34 41.34 0 00-5-2.78 31.61 31.61 0 01-4.66-2.13 59 59 0 00-7.44-3.21 8.73 8.73 0 00-2.83-.35c-5.86-.1-11.33 1.6-16.71 3.71-.15.06-.34.1-.42.21-2.22 3-5.77 3.21-8.91 4.21-6.81 2.18-13.61 4.43-20.53 6.17-3.54.89-7.25 1.13-10.59 2.78a25.59 25.59 0 00-2.85 2 14.69 14.69 0 00-2.48-.16c-4.75.44-9.49 1.09-14.25 1.38a38 38 0 00-9.73 2.35 93.46 93.46 0 01-11.65 2.88 44.17 44.17 0 00-7.84 2.07 35.77 35.77 0 00-6.06 3.71c-2.91 1.94-5.72 4-8.66 5.89a12.62 12.62 0 01-3.55 1.39c-7.31 2-14 5.47-20.57 9a22.18 22.18 0 00-2.09 1.79c-.49.35-1.25.87-1.64.71-1.69-.68-2.94.33-3.9 1.19a14 14 0 01-4.59 2.41c-3.7 1.45-7.55 2.63-11.07 4.43-3 1.51-5.81 2.21-9 1.37a10.13 10.13 0 00-2.06 0c.81-2.13 2.69-2.56 4-3.62s2.76-1.61 3.33-3.53c-1.79-1.07-3.55-2.15-5.34-3.17q-7.5-4.25-15-8.44c-1-.54-2-.91-3-1.47-2.77-1.61-5.54-1.14-8.28 0-5.45 2.25-10.81 4.77-16.36 6.75a33.57 33.57 0 01-18.31 1.7 8.9 8.9 0 00-2.75-.45c-5.75.66-11.4-.46-17.08-.94-2.2-.19-4.38-.32-6.59-.38a35.42 35.42 0 01-6.06-.88c-2.16-.42-4.28-1.06-6.43-1.51-4-.84-8-1.6-12.22-2.44 0 .72.27 1.7-.07 2.36a7.31 7.31 0 01-2 1.92 23.93 23.93 0 01-2.06 1.45l-1.78.13v.17l1.77-.26c-2.74 2.08-5.35 4.08-8 6.08a9.8 9.8 0 01-2.59 1.13 14.55 14.55 0 00-2.74.79c-3.58 2.1-7.6 2.16-11.52 2.71-2.81.39-5.65.57-8.45 1a15 15 0 00-4.54 1.39c-7.18 3.78-14.38 7.62-19.79 13.89-1.85 2.15-3.28 4.65-5 6.95-1 1.37-1.76 3.06-3.7 3.46v.08a16.4 16.4 0 00.86-2.7c1.13-8.31 3.67-16.38 3.61-24.91 0-5.81 2.08-11.28 4.69-16.45a28.84 28.84 0 002.06-4.78c.78-2.65 1.86-5.29 4.35-7A7.65 7.65 0 0017 591.6a7 7 0 014.65-3.12c3.79-.51 7.42-1.75 11.31-1.86a43.52 43.52 0 0113.22 1.81 24.82 24.82 0 014.82 2.11c5.46 2.93 11 5.75 15.74 9.89a15.8 15.8 0 007 3.6 130.66 130.66 0 0019.37 3 27.2 27.2 0 016.15.91c2.82.83 5.68.67 8.53 1s6 .72 9 1.09c.62.08 1.33.38 1.86.19 2.69-1 5.4-.37 8.09-.23a14.13 14.13 0 008.65-2.24 35.92 35.92 0 018.77-3.68c2-.65 3.91-1.36 5.81-2.18 1.45-.63 2.81-1.48 4.52-2.4-.74-.84-1.2-1.73-1.93-2.11a33.6 33.6 0 00-5.67-2.48c-5.76-1.75-11-4.85-16.94-6.19-.61-.13-1.19-.67-1.77-.65a7 7 0 01-4.77-1.86 5.12 5.12 0 00-4-1c-4.15.49-7.45-.93-9.35-5l1.86-1.36a12.72 12.72 0 01-2-2.15 6.69 6.69 0 01-.8-2.73 14.71 14.71 0 00-2.16-6.29 2.46 2.46 0 00-3.23-1.27c-2.06.9-4 .56-6.07.25-2.67-.39-5.4-.4-8.1-.54-.64 0-1.28.08-1.92.1-5.47.18-5.85 0-11-3.25-4.29-2.75-8.6-5.47-13-8.12a3.68 3.68 0 00-2.62-.6 2.56 2.56 0 01-3-.84 8.07 8.07 0 00-3.95-2.44 15.07 15.07 0 01-3.7-2.16 27.53 27.53 0 00-4.87-2.84c-2.42-1-4.43-3-6.62-4.59-.34-2.62-4-1.9-4.44-4.44 0-.11-.23-.22-.37-.27-1.37-.45-3.34 0-3.53-2.25L27 532.02c-1.32-.87-2.6-1.82-4-2.59-4.6-2.55-8.87-5.6-13.24-8.5-1.49-1-2.92-1.92-3.51-3.7l-.11.09c2.49 1.43 5 2.79 7.46 4.29 1.78 1.09 3.45 2.32 5.61 2.56 1.93.22 2.79 2.37 5 2.47 1.55.08 3 1.57 4.56 2.47 2.6 1.55 5.14 3.2 7.78 4.69 4 2.29 8 4.62 12.2 6.66 3.72 1.82 7.65 3.2 11.43 4.92 7.11 3.24 14.33 6.27 20.93 10.53 1.2.78 2.53 1.36 4 2.17 6-3.18 12.85-2.78 19.4-3.91a6.41 6.41 0 012.39.13 6.23 6.23 0 004.11-.59c2.32-1 3.33-.43 4.29 2 .23.59.71 1.17.71 1.76 0 2.67 1.73 4.82 2.18 7.23.68 3.64 3.32 6 4.73 9.16a4.38 4.38 0 002.49 2c8.74 2.67 16.64 7.32 25.09 10.68a10.37 10.37 0 004.15.84c2.9-.06 5.75.26 7.94 2.59a4 4 0 001.62 1c5.68 1.81 10.48 5.34 15.7 8.06a9.46 9.46 0 011.64 1c4.38 3.51 9.64 4.83 15 6a5.9 5.9 0 002.33.07c3.86-.83 7.81-1.26 11.45-3 5-2.38 10.08-4.68 15.18-6.85 3.78-1.61 7.14-4 10.87-5.65 3.18-1.41 6-3.59 9.46-4.41a33.8 33.8 0 006.2-2.54 1.72 1.72 0 001-2.24 1.82 1.82 0 00-.35-.56c-2.24-2.23-4.13-4.88-7.07-6.3a54.5 54.5 0 01-10.62-7.08c-3.83-3.13-7.41-6.56-11-9.94-2.9-2.72-5.69-5.57-8.54-8.35a16.87 16.87 0 00-1.73-1.65c-6.66-4.82-11.66-11.32-17.3-17.17-1.55-1.61-3.13-3.19-4.76-4.73a7.36 7.36 0 00-2.29-1.7 57.06 57.06 0 01-9.08-4.29 5.15 5.15 0 00-3.68-.33c-4.56 1.32-9.18 1.06-13.78.7a5.37 5.37 0 00-3.2.51c-2.73 1.5-5.7 1.75-8.76 2-7.48.5-15 0-22.45 1.18-2.59.39-5-.52-7.4-1.33a20.37 20.37 0 00-4.13-1.13 59.56 59.56 0 01-22.26-6.61 11.4 11.4 0 00-2.26-.78l-14.23-4.18a22.21 22.21 0 00-7.51-1.06c-1.1.06-2.21 0-3.26 0-.46-.79-.21-1.25.52-1.48 1.06-.33 2.13-.63 3.2-.94a61.53 61.53 0 017.75-2.23c5-.8 8.9-4.33 13.74-5.48 2.45-1.85 5.44-2.43 8.16-3.62 2.16-.93 4-2.69 6-3.81s4.3-1.85 6.45-2.78a5.32 5.32 0 001.67-.91c1.69-1.74 3.9-2.09 6.12-2.41a34.64 34.64 0 003.81-.4c4.77-1.23 9.1-.13 13.42 2 3.57 1.75 7.37 3.06 11 4.62 1.32.56 2.57 1.27 3.83 2a24.41 24.41 0 002.48 1.42c6.74 2.67 12.7 6.68 18.56 10.84a12.59 12.59 0 012.86 2.49c2.35 3.08 5.7 5 8.4 7.67s5.25 5.14 7.8 7.79c3.76 3.91 7.56 7.8 11.16 11.87a64.52 64.52 0 006.9 6.53c.94-.77.2-1.25-.1-1.67-4.09-5.71-8.33-11.31-12.25-17.13-2.5-3.69-4.48-7.74-6.8-11.56a131.71 131.71 0 00-14.17-19.83c-3.82-4.26-7.6-8.56-11.41-12.84.64-.85 1.12-.23 1.49.14q3.53 3.57 7 7.2c2 2.07 3.9 4.21 5.88 6.28.13.15.55 0 1.16 0a14.83 14.83 0 00-.81-1.59c-3-4.53-6-9-9-13.57-1.66-2.52-4-4.48-5.52-7.17-3.55-6.39-7.54-12.54-9.88-19.54a11.67 11.67 0 00-1.33-2.55c-2.3-3.62-4.69-7.2-6.95-10.85-1.34-2.16-2.49-4.43-3.73-6.66l-.09.1c.55.19 1.29.22 1.63.6a52.77 52.77 0 013.88 4.82c5.19 7.47 10.61 14.8 13.78 23.46a14.62 14.62 0 001.53 3c2.52 3.88 5.12 7.71 7.64 11.59 2.08 3.2 4.07 6.46 6.15 9.65a14.51 14.51 0 002.12 2c-.61-5.52-1.22-10.3-3.08-14.68-1.44-3.41-2.15-7-3.16-10.47a186.65 186.65 0 01-7-39.44c-.23-3.44.52-7 1.07-10.44a10.6 10.6 0 011.74-3.91 45.21 45.21 0 0112.63-13.57c2.37-1.6 4.53-3.52 6.86-5.21 1.26-.92 2.53-1.9 4.33-.87.57.33 1.54-.1 2.33-.07 2.06.08 4.12.21 6.17.36.46 0 1.06.5 1.35.33 3.36-1.88 4.85.79 6.63 2.69a57.45 57.45 0 013.76 4.35 81.86 81.86 0 0111.23 21c.51 1.33 1.26 2.58 1.78 3.91a8.7 8.7 0 010 2.39c-3.28-2.75-6.86-3.8-9.4-6.55a8.37 8.37 0 00-2.75-1.75c-1.53-.66-2.59.08-2.45 1.68.87 9.41-1.32 18.26-4.79 26.91-.89 2.21-1.26 4.63-2.67 6.62-.81 1.14-2.22 2.18-2.37 3.38-.21 1.73-1.6 1.75-2.35 2.61a22.78 22.78 0 00-4.1 5.82c-1.63 3.9-4.31 7.08-6.59 10.49s-3.07 7.28-4 11.09a13.89 13.89 0 001.11 8.88c2.8 6.63 5.79 13.14 10 19a7.5 7.5 0 011.74 4.35 8.4 8.4 0 001.31 4c1.68 2.71 3.53 5.32 5.43 7.87 3.92 5.25 7.86 10.49 11.89 15.65a85.74 85.74 0 008.32 9.14c1.11-.86.41-1.61.16-2.2-1.09-2.62-2.41-5.14-3.43-7.78a72.06 72.06 0 01-2.37-7.61c-.72-2.77-1.26-5.6-1.87-8.4-.11-.47-.18-1-.32-1.4-2.81-8.86-3.18-10.79-3.6-18.88-.07-1.27-.35-2.53.61-3.65a1.74 1.74 0 00.35-1.34c-.78-3.85 2.22-5.29 4.55-7.07a16.45 16.45 0 013.83-1.83c2.51-1 5.07-1.91 7.55-3a8.33 8.33 0 015.13-.71 37.11 37.11 0 008.08.53c4.25 0 8.25.76 11.49 3.83a5.27 5.27 0 001.48.59 16.75 16.75 0 001.61-2.9c1.65-5 3.33-10 4.69-15a27.7 27.7 0 012.49-6.66c1-1.78 1.92-3.67.82-5.82a1.36 1.36 0 01.33-1.16c2.6-2.74 2.71-6.3 3.07-9.71.16-1.51.21-2.76 1.58-3.74a4.23 4.23 0 001.63-2.26c.62-2.86 2.65-4.66 4.67-6.81 2.9.25 5.84-.48 8.82-.81 8.23-.88 16.27-.08 23.53 4.5a33.32 33.32 0 003.23 1.59c2.8-2.1 6.14-2.07 9.94-1.81-1.2-2.81-1.23-5.77-4-7.38-2.8-4.11-6.78-7.12-10-10.8a151 151 0 00-11.21-11.7c-6.11-5.54-12.14-11.2-19-15.84-2.73-3.35-6.75-3.95-10.57-4.85s-6.92-3-10.39-4.46c.62-1.54 1.48-.91 2.15-.9s1.53.12 2.22.18l-.57-4.34c2.24-1.26.23-1.39-.39-2.3-1.76-2.58-4-4.78-5.68-7.42-1.54-2.39-3.65-4.4-5.46-6.63-1.5-1.84-3-3.71-4.36-5.66-2.45-3.51-5.26-6.74-7.77-10.21-3.4-4.69-7.29-7.24-12.89-9.49-2.64-1.07-5.34-2-8-3a3.74 3.74 0 01-2.67-3.1c-.18-1.22-.2-2.46-.31-4l6.4.85c-.17-.85-.13-1.38-.37-1.71-2-2.64-4-5.27-6.07-7.87-4-5-8-10.1-12-15.11-3.53-4.4-7.27-8.73-12.12-12a72.39 72.39 0 01-10.71-9.46c-2-2-4.53-3.32-6.48-5.38s-3.95-3.69-6-5.48q-7.83-6.93-15.1-14.44a47.74 47.74 0 01-4.9-6.35c-4.86-7.07-9.82-14.07-14.78-21.06-2.12-3-3.95-6.19-5.9-9.3a30.2 30.2 0 00-6.47-7.64 199.75 199.75 0 00-16.45-12.19 4.8 4.8 0 00-5.81-.12 10.39 10.39 0 01-3.19-4.59 7.1 7.1 0 00-3.58-4.2c-1.14-.64-2.49-1.28-2.91-3.05 1.85.07 2.6 1.46 3.78 2.1s2.44 1.21 4.24 2.08c-1.18-4.36-3.29-7.75-4.49-11.47a74.75 74.75 0 01-3.39-12.37 19.27 19.27 0 012 2.14 12 12 0 011 2.15c2.15 5.5 4.22 11 6.44 16.49 1 2.54 2.4 4.85 5.12 6.05 1.45.64 2.72 1.65 4.14 2.36s1.7 2.44 2.89 3.51 2.27 2.18 3.49 3.11c3.53 2.71 7.23 5.2 10.87 7.78a6.84 6.84 0 011.15.85c5.59 6.31 11.58 12.29 15.71 19.77 2.08 3.78 4.36 7.44 6.42 11.23 1.58 2.89 4.25 4.67 6.75 7.49.39-3.43-.69-6.15-1.4-9.23.81.45 1.2.53 1.33.75a55.74 55.74 0 014.1 7.56c1.83 4.88 4.88 9 8 13a35.63 35.63 0 004.49 4.28l9.81 9.09a33.36 33.36 0 012.81 2.61c4.25 4.77 9.32 8.65 14 12.91 3.55 3.21 7.19 6.34 10.55 9.73 2 2.26 3.91 4.63 5.69 7.08a14.83 14.83 0 001.6 1.47c1.27-1.07.83-2.29.89-3.32.16-2.85-.24-5.72.5-8.58a6.74 6.74 0 00-.54-3.73 62.68 62.68 0 01-3.33-13c-.67-4.68-3-8.72-4.58-13.06a119.75 119.75 0 00-5.83-13.59 60 60 0 01-3.5-8.26 20.91 20.91 0 01-1-7.07c.2-7.34.22-14.69.79-22 .43-5.56 1.6-11.06 2.44-16.58a2.5 2.5 0 01.27-.92c2.28-3.88 2.56-8.17 2.58-12.52 0-.23.3-.46.69-1 1.18 3.84 2.22 7.48 3.42 11.06a32.79 32.79 0 002.55 6.16 123 123 0 016.81 13.7c1.89 4.39 4.17 8.6 5.82 13.12 3.24 8.86 5.95 17.85 7 27.25a33.74 33.74 0 01-1.12 12.8 90.83 90.83 0 01-7.71 19.54 18.22 18.22 0 00-2.36 9.73 8.59 8.59 0 01-.28 2.37 25.21 25.21 0 00.09 10.45 6.29 6.29 0 001.34 3c4.88 5.89 9.36 12.12 14.92 17.43 1 1 1.77 2.27 2.71 3.36s1.72 1.83 2.77 2.94a6.8 6.8 0 001.46-3.52c.19-1.25.54-2.47.73-3.71a11.27 11.27 0 00.09-2.32c0-.78-.51-1.72-.21-2.31 1.45-2.91 1.14-6.2 2.08-9.2a5 5 0 00.31-1.87c-.38-3.86 1.23-7.18 2.75-10.53 1.19-2.61 2.41-5.2 3.58-7.73 4.21-2.85 9.15-4.51 12.84-8.16a3.75 3.75 0 011.54-1.09c4.8-1.19 9.07-3.91 14.08-4.56 4.42-.58 8.77-1.64 13.16-2.43 1.18-.22 2.44-.74 3.76.54-.63.6-1.15 1.16-1.74 1.62-1.26 1-2.78 1.71-3.8 2.89-4.39 5.05-9.45 9.49-13.26 15.08a34.5 34.5 0 01-7.41 8.12c-3.88 3-8 5.65-11.35 9.29-4.29 1.68-6.42 5.53-9 9a47.85 47.85 0 00-5.54 10.43c-1.13 2.74-.89 5 1.53 6.8 3.6 2.73 5.61 6.84 8.73 10 4.59 4.63 8.82 9.58 12.93 14.63a3.4 3.4 0 001 1c3.23 1.61 5.37 4.51 7.85 6.94a130.48 130.48 0 0010.08 8.77 50.29 50.29 0 014.54 4.22 4.59 4.59 0 004.16 1.3c2.82-4.28 3.76-9.16 3.66-14.33a44.5 44.5 0 00-2.91-14 52.56 52.56 0 01-2.61-8.68 72.39 72.39 0 01-.57-9.54c-.06-1.76 0-3.52 0-5.27a49.71 49.71 0 014.51-21.78 24.6 24.6 0 001.41-4.08q1.59-6 3-12.08A39.42 39.42 0 01307.7 294c1.27-2 2.56-4.06 2.76-6.55a2.63 2.63 0 01.52-1.32c2.83-3.66 2.79-7.62 1.31-11.76a15.37 15.37 0 01-.26-2.24 16.43 16.43 0 011.97 2.83 100.42 100.42 0 015.71 19.2 52.6 52.6 0 005.4 15.29 58.73 58.73 0 014.89 15.41 21.68 21.68 0 01-.12 5.69 29.86 29.86 0 01-.59 3.77 120.11 120.11 0 00-1.37 12.82c-.43 4.83-2.5 9.23-4.61 13.52a66.93 66.93 0 01-8.7 13.73 11 11 0 00-2.08 3.18 33.18 33.18 0 01-7.34 12.76c1.88.23 3.12-.11 3.94-.91a9.13 9.13 0 015.62-2.39 4.8 4.8 0 004.56-3.57c1.56-5 5.44-7.73 9.49-10.36a7 7 0 012.63-1.09c7-1.19 13.95-1.73 20.94-.33a32.24 32.24 0 014.74 1.88 77.08 77.08 0 00-8.45.49 62.39 62.39 0 00-7.33 2.08c-4.05 1.21-7.32 3.8-10.76 6.1-1.45 1-2.76 2.39-4.35 2.89-5.34 1.67-10 4.88-15.43 6.29a6.68 6.68 0 00-3.74 2.79c-1.05 1.4-2.08 2.82-3.17 4.2a4.89 4.89 0 00-.46 6.13 9.37 9.37 0 001.87 2.15c2.29 2 4.64 3.88 7 5.82 1 .83 2 1.63 2.89 2.53 8 8 16.53 15.45 23.82 24.13 1.94 2.31 3.56 4.91 5.41 7.3 3.43 4.42 6.86 8.83 10.41 13.15a14.14 14.14 0 004.81 3.91c1.07-1.76.07-3.27.08-4.76s-.32-2.8.26-4a1.26 1.26 0 011.66.64 1.59 1.59 0 01.07.2 55.63 55.63 0 011.36 5.56c.43 2.19.67 4.42 1.13 6.6a6.45 6.45 0 001.12 2.59 125 125 0 0017.11 18c.1.08.3.05.78.12l1.89-2.39c.23.08.69.11.77.3 1.62 3.81 3.56 7.54 4.7 11.5 2.06 7.12 5.53 13.58 8.57 20.24.92 2 2.43 3.72 3.43 5.69 2.45 4.82 4.7 9.76 7.15 14.58 3.18 6.27 6.59 12.41 9.31 18.9a9.68 9.68 0 001.27 2q5.79 7.6 11.61 15.19c3.3 1.87 4.75 5.53 7.61 7.82s5.48 4.42 8.35 6.44a11.12 11.12 0 003.92 1.6c2.64.6 5.34.94 8 1.43a42.38 42.38 0 0115.42 6.25c4.93 3.18 10.48 4.52 16.06 5.83a6.21 6.21 0 001.61-.1c-1.8-3-3.48-5.65-5.08-8.38-.95-1.64-1.78-3.36-2.67-5l-.1.1c1.18-.19 1.66.74 2.24 1.45q2.88 3.48 5.71 7a48.29 48.29 0 007.77 7.62c3.37 2.65 6.54 5.54 10.24 7.73 3.41 2 6.88 4 10.3 6 1.91 1.11 3.85 2.15 4.88 4.34.37.81 1.29 1.37 2 2 2.23 2 4.43 4.12 6.73 6.07 1.3 1.11 2.79 2 4.09 2.93 3.32-2.48 3.37-2.73 1.21-4.52a3.54 3.54 0 001.42-3.36.83.83 0 00-1-.56.89.89 0 00-.41.28c-1 1.21-.29 2.4.11 3.59l-.63.53a9.42 9.42 0 01-1.22-8.42 6.48 6.48 0 00.47-1.79c0-1-.39-1.41-1.27-.55-.14-.19-.39-.38-.41-.59-.06-.61.1-1.3-.83-1.36h.09a6.38 6.38 0 001.2-6.32c-.77-2.79 0-5.77-1.28-8.46-.18-.38 0-.94 0-1.42.23-5.85.49-11.7.66-17.56a14.28 14.28 0 00-.4-3.8 37.64 37.64 0 01-.78-11c.14-2.39.2-4.79.19-7.18a37.35 37.35 0 012.07-12.16c.7-2.09 1.21-4.23 1.79-6.35 1.11-4 2.33-7.94 3.28-12 1.06-4.45 1.88-9 2.78-13.45.06-.3-.18-.67-.08-.94.68-1.85 3.1-3.23 1.55-5.7.55-2.16 1.08-4.31 1.67-6.46a6.23 6.23 0 01.84-2.1c2.12-2.72 2.85-6 4-9.14a31.46 31.46 0 012.86-6c2.89-4.56 5.81-9.08 7.81-14.15.81-2.05 2.23-3.85 3.26-5.83 2.42-4.64 4.83-9.29 7.14-14 1.94-4 3.88-7.92 6.16-11.68 1.47-2.42 1.74-5.31 3.73-7.58s3-4.84 4.42-7.34 2.63-5.1 4.1-7.55c.9-1.48 2.14-2.74 3.19-4.13 1.33-1.79 2.55-3.66 3.93-5.4 3.27-4.12 6.41-8.35 10-12.22s6-8.64 9-12.89a28.54 28.54 0 014.52-5.47c.1-.08.29-.07.55-.12.18.55.36 1.11.55 1.67 3-.72 3-.72 3-3.93l-.13.12a7.57 7.57 0 003.93-5.38c-.48.12-.86.23-1.24.31l-2 .39c1.06-1.06 1.49-1.87 2.07-2 2.94-.65 4-2.75 4.45-5.37.37.09.72.17.16 0h-.09c-.28-1.41.85-2 1.66-2.67 1.85-1.49 3.79-2.86 5.88-4.41a5.4 5.4 0 012.89-6.6 1.51 1.51 0 01.35-.2.79.79 0 01.3 0l-.7.09a13.66 13.66 0 012.91-5.37c3.68-4.17 6.83-8.81 10.52-13 2-2.24 3.56-4.88 6.11-6.64a7 7 0 002.27-3c1.6-3.48 4.36-6.1 7-8.92 1.7 3.93 1.7 3.93 5.14 1.51l-1.2-1.89v.07c1.25-1.42 2.25-3 4.42-3.42 2-.38 3-1.89 3.92-3.78 1.86-3.83 4.18-7.44 6.36-11.12.17-.29.74-.35 1.49-.68a11.38 11.38 0 01-.26 2.1c-.84 2.72-1.72 5.43-2.62 8.13a3.7 3.7 0 01-.84 1.69 6.67 6.67 0 00-2.28 4.58c-.53 2.74-2 5-3.48 7.29-1 1.51-2.12 2.91-2.16 4.71s-2.08 2.42-2.3 4c-.19 1.39.17 2.87-.13 4.23a17.19 17.19 0 01-1.62 3.99c-3 5.79-5.84 11.65-10.56 16.38-3.42 3.44-5.1 8.08-7.56 12.18-1.07 1.77-2 3.62-3.2 5.84.13.81.34 2 .54 3.21l-2.29 4.49c.75 1 1.35.76 1.81.26.76-.82 1.34-1.8 2.14-2.57 1.84-1.76 3-3.62 2.25-6.36-.49-1.79.56-3 2.21-3.75a41.7 41.7 0 005-2.83c3.2-2.15 6.48-3.45 10.32-1.7a8.19 8.19 0 001.9.37c1.77-1 3.61-1.95 5.3-3.1a8.76 8.76 0 002.22-2.4c2.51-3.79 5.63-6.83 9.54-8.26 1.94-4.13 3.6-7.89 5.47-11.55a6.16 6.16 0 012.37-2.19c4-2.33 4-2.29 5.95-6.72 1.71-1.15 4.86-.9 4.56-4.36l3.65.81c.9-1.38 1.83-2.83 2.76-4.27l-.13.12c3 2.69 4.93 6.24 6.74 9.74 2.76 5.36 5.22 10.88 7.69 16.38a53.2 53.2 0 013.7 13.79c0 .23-.24.5-.55 1.09-.94-1.87-2.12-3.38-2.06-5.39.08-2.93-1.65-5-3.19-7.18-2-2.85-4.07-5.65-6-8.56a12.17 12.17 0 01-1-3c-1.39-1.23-4.49.07-4.1-3.07-4.9-2-6.93 1.55-9.39 4.56.69 1.05 1.38 2.09 2 3.14l-.79-.26.77.27a2.59 2.59 0 012.17 1.64 15.19 15.19 0 011.4 6 4.47 4.47 0 001 2.06c.61 1 2.52.06 2.67 1.53.13 1.31 1 1.85 1.73 2.63a5 5 0 011.33 5.71c-1 2.09-.67 4-.19 6l-1.46-.34a4.4 4.4 0 00.13 1.35c.19.44-.71 1.24.73 1.39.16-.83.32-1.68.48-2.53.69.35 1.65.55 2 1.11a3.12 3.12 0 01.05 2.27 31.46 31.46 0 01-1.58 3.62c.78 1 1.6 2 2.26 3a4.69 4.69 0 003.28 2.44 2.87 2.87 0 012.49 3.22 1.91 1.91 0 01-.06.33c-.41 1.88.51 3 1.73 4.18-.87 3.67-1.74 7.31-2.75 11.59l2.72-1.66c3.09 3.31 2.21 7.43 2.08 11.3-.09 2.51-.52 5 .32 7.44.93 2.65.38 5.31.22 7.94-.34 5.55-1 11.09-1.42 16.65a26.66 26.66 0 00.36 4.72c.49 4.5-1 8.81-1.24 13.25a78.68 78.68 0 01-1 8.07c-.33 2.34-.22 4.79-1.92 6.78a2.85 2.85 0 00-.58 1.8c.22 4.6-2.15 8.63-2.77 13.05-.26 1.87-.89 3.7-1.08 5.58-.34 3.48-.41 7-2 10.24-.53 5.88-3.09 11.29-3.93 17.12a14.22 14.22 0 01-2.87 6 9.76 9.76 0 01-.11-3.19c.65-2.17 0-4.57 1.69-6.62.91-1.11.93-3 1.17-4.58.55-3.62 1-7.26 1.49-10.88.19-1.4-.15-2.87.82-4.17.32-.43.21-1.2.23-1.81.08-2.22 0-4.45.22-6.66a32.52 32.52 0 00.18-7.11 21.41 21.41 0 01.58-6.18 136 136 0 001.83-27.63 111.37 111.37 0 00-.9-12.77c-.08-.57.41-1.48.15-1.73-1.31-1.29.45-2.84-.73-4.34-2.74-3.5-3.11-7.89-3.58-12.17a13.93 13.93 0 00-.45-3.27 11.48 11.48 0 010-7.86c.29-.89.58-1.77.9-2.73l-1.82-2.1c-.52-2.18.71-4.55-.9-6.54l.12.13c-.5-1.11.55-2.48-.73-3.56-.42-.35-.22-1.48-.26-2.25s0-1.51 0-2.25c-.06-.46-.52-.91-.48-1.34a12.1 12.1 0 00-3.41-9.54 3.86 3.86 0 01-.69-1.76c-.73-3.59-1.5-7.17-2.09-10.78-.48-2.9-1.31-5.56-3.42-7.72a11.68 11.68 0 01-2.37-3c-1.22-2.65-3.57-3-6-3.2a4.36 4.36 0 00-2.66.81 45.34 45.34 0 00-4.32 3.75c-.77.73-.94 2.65-.09 3 1.82.81 2.12 3.11 4.11 3.71a3.44 3.44 0 012.15 1.75 5.11 5.11 0 003 2.92c1.36.69 2.55 1.62 2.75 3.09.24 1.8 1.44 3.68-.08 5.49a1.22 1.22 0 00-.2.67 11.23 11.23 0 011.21 3.16 2.38 2.38 0 00.83 2 4.82 4.82 0 011.66 2.2c.93 4.15 2.6 8.14 2.76 12.46a3.53 3.53 0 01-.08 1.41c-.88 2.1-.16 4 .52 6a4.85 4.85 0 01.47 1.79c-.11 1.23-.76 2.53-.54 3.66.19.94 1.38 1.63 1.43 2.85a28.45 28.45 0 01.27 4.3 3 3 0 00.46 2.18 4.17 4.17 0 01.73 1.75c.16 1.57-.41 3.58.37 4.63a20.67 20.67 0 011.93 4.22 1 1 0 01.08.47c0 1.59-2 3.12-.15 4.77-.09 1.9-.08 3.8-.29 5.68a47.76 47.76 0 01-1 5.14c-.1.46-.58.94-.48 1.31 1.15 4.47-.94 8.41-1.92 12.54a17.67 17.67 0 00-.19 2.62l3.3-2.09-.09-.1c-.83 3.94-1.4 8-4 11.23l3 4.35zM572 487.87l.3.09h-.3l.19.77zm-30.19 128.94v.78c-.06-.1-.2-.2-.18-.29a2 2 0 01.22-.38c-.07-.43-.11-.86-.2-1.28 0-.12-.2-.2-.31-.3-.14.23-.44.56-.38.65a5.07 5.07 0 00.85.82zm110.87-98.18c-.19.74-.4 1.49-.53 2.24 0 .15.3.35.52.59v-2.81a6.83 6.83 0 00-1.22-.66c-.23-.07-.55.12-.8.24a.43.43 0 000 .41c.23.17.52.42.76.39a9.36 9.36 0 001.27-.4zm-1.34-120.16c.21-.71.46-1.41.6-2.14a.92.92 0 00-.63-.48c-.21 0-.59.41-.55.56.16.73.45 1.44.67 2.15a3 3 0 00-.94-.07c-.24.06-.43.32-.65.5.11.08.22.22.33.23a.66.66 0 00.43-.15 7.88 7.88 0 00.77-.6zM591.79 615.8a1.35 1.35 0 01.08.4 1 1 0 01-.14.33l.11-.64c-.59-2.28-.59-2.28-1.86-3-.17 1.46.83 2.17 1.81 2.91zm160.89 69.92c1.66 1.32-.7 2.39-.2 3.88h2.19c.1 0 .2-.23.43-.51-.06-1.21-.14-2.58-.24-4.41l-2.29 1.2c0-1 .2-2-1-2.35-1.54.39-1.51 1.92-2.1 3-.72 1.28-1.5 2.43-3.07 2.75-.15 0-.22.42-.43.87l2.34.67c1.09-1.76 2.05-3.39 3.11-4.94.08-.26.77-.11 1.26-.16zM646.84 582.09a20 20 0 004 1.32 3.78 3.78 0 002.51-1c.83-.69 2.09-6.57 1.68-7.72-.22-.65-.93-1.5-1.5-1.56s-1.72.74-1.74 1.2c-.15 2.83-2.21 4.41-3.75 6.35-.4.5-.8 1-1.17 1.52a.75.75 0 00.09.43 2.61 2.61 0 00.17.28zm117.72 70c1.06-.1 2.29.1 3.15-.38a3 3 0 001.24-2.38 5.94 5.94 0 011.76-4.87c1.06-1.21 1.21-3.2 1.77-4.9l-1.9-1.46c.23-2.73.45-5.48.69-8.3-1.51.22-1.56 1.3-1.61 2.16-.38 5.41-2.08 10.54-3.26 15.78a38.8 38.8 0 01-1.71 4.42c.19 1.18.35 2.37.6 3.54 0 .11.58.25.8.16s.47-.56.4-.68c-.6-1-1.28-2-1.93-3.06zm-12.47 54.87l5.83-4.73c-2.58-.54-4.62 1.52-7.15.19l1.51-2.82c-.49-1.14-1-2.25-1.29-3 .36-1.53 2.36-1.42 1.56-3.32-1.16 0-2.42-.06-3.68 0-2.42.14-3.75 1.25-3.28 3.59.3 1.53-.57 2.32-.74 3.45s.16 2.4-.55 3.65a23.94 23.94 0 00-1.55 4.27c4.86 3.33 4.86 3.33 8.33 2.26a6.75 6.75 0 011.24-3.83zM638.17 498.52c-.54.56-1.34 1-1.55 1.69-.31 1 .34 1.77 1.13 2.44s2.07 1.46 2.19 2.32c.27 2 2.26.85 3.22 2.39a37.11 37.11 0 01.06 4.22c-.13 1.74.74 3 1.62 4.51a18.55 18.55 0 011.22-2.34c.5-.67.63-1.82 2.1-1.71a11.2 11.2 0 01-.26 1.83c-.25.76-.69 1.61.41 1.89.38.09 1.06-.53 1.43-1a3.38 3.38 0 00.79-3.11c-1.32-5.76-2.76-11.47-6-16.51-.15-.23-.52-.31-.9-.53l-3 1.58-1.43-1.85a12.67 12.67 0 00-1.42 2.51c-.15.46.3 1.12.49 1.69zm.15 107.44c-.76 1.1-1.51 2.2-2.29 3.32-.3-.69-.88-1.39-.85-2.07.13-3.63-.19-5.75-2.2-10.21.83 3.48-.54 7 .52 10.49a9.44 9.44 0 00.32.89c.48 1.16 1.4 1 2.36.78-1.35 2.76-.16 5.29.74 7.83.79 2.25 1.8 4.36 4 5.68 1.09-3.49 2.31-6.74 3.1-10.09.84-3.51 3-6.52 3.86-10.15l-3.45-.6c1.67-1.33 4.05-.35 4.85-2.61a6.88 6.88 0 00-3.23-4.41l-4.26.58c-.29.69-1 1.74-.82 2 1.12 1.53.12 2.85-.3 4.07a29.85 29.85 0 01-2.46 4.51zm-47-124.64v.09c-.49-2.09-1.88-.87-3-.79-.24-.72-.47-1.45-.71-2.18-1.23-.87-2.84-1.65-4-.89-1.59 1-3.82.21-5 2s-2.31 3.37-3.56 5.19a5.32 5.32 0 001.34.74c.21.05.59-.24.75-.47a3.86 3.86 0 013-2.11 38.86 38.86 0 016.09.57c.5.08 1 .76 1.32 1.29a14.34 14.34 0 01.48 1.82c.48 1.28 1.36 1 2.43.38 1 1.81 2 3.61 2.89 5.44a4.5 4.5 0 01.81 2.2c-.41 3.16 1.38 5.83 1.51 8.86 1.84.48 3.22 1.92 5.11.86-1.22-3.22-1.22-3.22-.29-6.34a14.63 14.63 0 00.75-2.76 4 4 0 00-.35-2.28c-2.57-4.34-5.5-8.46-9.59-11.61zm37-67.84c1.73-4.57 4.35-8.82 5.22-13.89a14.24 14.24 0 00-9.72-1.54 2.44 2.44 0 00-.44.19c-4.49 1.6-7.66 5-11 8.19a2.51 2.51 0 000 3.55 2.55 2.55 0 00.3.26 9 9 0 002.51 1.24 22.52 22.52 0 002.57.66c.06 4.23.06 4.23 3.85 7.77.53-.28 1.08-.81 1.59-.77s1 .66 1.57.94a1.25 1.25 0 00.79-.08l-1.2-2.48 2.83-.13 1.2-4zm26.73.46a4.58 4.58 0 00.23-4.11 1.6 1.6 0 00-2.68-.59c-1.7 1.63-3.37 3.31-5.11 4.9-2.17 2-2.34 4.33-.39 6.67a1.89 1.89 0 002.64.43 1.94 1.94 0 00.54-.6c1.64-2.31 3.3-4.62 5-6.93a7.36 7.36 0 01-2.13 6 9.6 9.6 0 00-2.78 5.74c1.25 1.93 3.13 2.49 4.84 3.32 2.29 1.11 4.51 2.34 6.8 3.43a7.62 7.62 0 014.37 5.85c.33 1.68.3 3.55 1.66 4.91s.75 3.29 1.09 4.94a.83.83 0 00.24.4c1.41 1.13 1 2.84 1.28 4.29l2.17.61v4a4.18 4.18 0 001.21.23c.71-.13 1.33 0 1.52.72s-.46 1.08-1.08 1.29-1 .31-1.82.56l4 2.1a12.67 12.67 0 00.48-2.36c0-1.42-.34-2.86-.21-4.25.49-5-.56-9.88-1.27-14.7-.82-5.48-1.45-10.95-2-16.46-.31-3.21-.51-6.27.62-8.76l-3.78-5.18c-1.29-.49-2.45-1-3.64-1.38-2.49-.86-4.91-1.28-7.1.84-1.49 1.42-3.07 2.7-4.68 4.06zm-434.71 87.2a36.15 36.15 0 00-.55 16.61c.74 3.43 1.79 6.81 2.33 10.27.82 5.26 3.22 10 4.3 15.2q3.22 5 6.46 10.07a22.29 22.29 0 012.33 3.59 14.62 14.62 0 003.92 5.35c1.74 1.62 3.58 3.13 4.75 5.3a5.81 5.81 0 002.08 1.89c2.69 1.7 5.41 3.37 8.18 4.94a28.14 28.14 0 004.36 2 4.66 4.66 0 002.34.2c3.42-.63 6.81-1.41 10.24-2a11.62 11.62 0 012.7.11c1.36-.89 2.58-2.11 4-2.53 3.67-1.06 7.4-2.24 11.16-2.49 5.32-.36 10.28-2.26 15.53-2.8 3.26-.33 6.4-1.85 9.65-2.14a54.63 54.63 0 0010.72-2.38c.61-.18 1.39-.64 1.82-.43 2.12 1.07 3.82-.33 5.27-1.18 5-2.93 10.44-4.52 15.84-6.34 1.53-.51 2.26.92 3.54.66.25-.38.52-.76.78-1.16 1.58-2.5 3.62-3.14 6.56-2.31 3.51 1 7.19 1.42 10.78 2.17a13.76 13.76 0 013.65 1.11 100.65 100.65 0 0110.48 5.76c4.56 3.08 9.71 4.76 14.66 6.93a4.18 4.18 0 004 0 6.08 6.08 0 00-.68-5.62 9.35 9.35 0 01-1.49-5 8.08 8.08 0 00-.66-2.78 97.36 97.36 0 00-3.79-9.78c-1.58-3.17-3-6.28-3-9.88 0-.58-.52-1.15-.74-1.74-1.36-3.61-3.77-6.63-5.59-10-1.06-2-2.79-3.86-3-5.91-.33-3.5-2.33-5.86-4.25-8.33-2.63-3.41-5.46-6.67-8.24-10a49.63 49.63 0 01-4.27-5c-.92-1.45-1.47-3-3-4.08-1.35-1-2.1-2.76-3.2-4.12-1.9-2.33-4.25-4.38-5.71-7-4-7-9.57-12.77-14.47-19-3.45-4.3-7.45-8.3-10.12-13.24-.14-.25-.52-.36-1-.69-3.05.9-6.3-1.36-9.65-.07a30.11 30.11 0 01-6.89 12.56 13 13 0 00-1.08 1.58 36 36 0 01-8 8.69c-5.95 4.56-11.69 9.27-18.32 12.92-3.88 2.14-7.82 4.26-11.57 6.67s-8.1 4.36-10.5 8.59c.65 1.45 2 2 3.22 2.76.76.52 1.88 1.23 1.95 1.95.35 3.42 2.87 5.59 4.4 8.32a25.87 25.87 0 004.57 5.49c3.4 3.4 7.42 6 10.86 9.35a8 8 0 011 2c-3.88-.27-7.15-.67-10.2-2.18-3.26-1.62-6.54-3.19-9.75-4.9-1.23-.66-2.18-1.9-3.44-2.41a33.63 33.63 0 00-4.65-1 12.71 12.71 0 01-2.68-1 91.77 91.77 0 00-11.6-4.82 6.61 6.61 0 01-3-1.47 3.5 3.5 0 00-2.69-1.4 8.47 8.47 0 01-3.57-1.27 5 5 0 00-3.47-1.23 3.9 3.9 0 01-1.87-.35c-2.15-1-4.29-2-6.38-3.11a5.32 5.32 0 00-5.36.1zm505 174.64a14.18 14.18 0 003.21.77c6.14 0 11.84 2.22 17.75 3.38 3.47.69 4 .6 5.48-2.7.46-1 .79-2.09 1.16-3.14a30.8 30.8 0 011.25-3.61 113.39 113.39 0 005.5-12.59c.85-2.39 2-4.7 2.83-7.09a25.55 25.55 0 001.1-4.12c.62-3.1.83-6.33 1.81-9.31 1.28-3.86 1-7.86 1.69-11.76.27-1.67 0-3.38.84-5a1.62 1.62 0 00-.38-2.26 1.79 1.79 0 00-.39-.2c-.59.93-1.22 1.82-1.72 2.78s-.79 2.07-1.33 3.07c-2.7 5.06-5.48 10.08-8.14 15.16a136.83 136.83 0 01-10.46 17.13 4.81 4.81 0 01-2.4 2.18 5.55 5.55 0 00-1.79 1.51c-5.14 5-9.86 10.4-15.54 14.82-.21.11-.24.48-.45 1zm-60.66-272l2.15-2a9.2 9.2 0 011.91 1.3 6.44 6.44 0 007.33 2.08c.21-.07.53.24 1.12.53-.16 1.25-.33 2.61-.46 3.72a22.13 22.13 0 012.69 3.42c.8 1.55 2.23 2.14 3.87 3.05.54 4.31 1.08 8.73 1.64 13.14.49 3.93.82 7.89 1.57 11.77a38.66 38.66 0 011.16 7.49c0 2.66.27 5.31.45 8 .23 3.19-.48 6.44.39 9.77.84-.12 1.46-.15 2.06-.29 2.05-.49 2-.54 1.93-2.92a18.81 18.81 0 01.58-5.39c.84-2.8-1.69-5.47-.13-8.23.1-.17-.15-.59-.31-.85-1.83-3-1.46-6.37-1.26-9.68a7.33 7.33 0 000-2.8 49.6 49.6 0 01-2.22-12.61c-.43-5.59-2.09-10.9-3.3-16.31a2.94 2.94 0 00-.49-1.34c-1.69-1.82-2-4.3-3.15-6.39s-2.37-3.78-3.44-5.73c-1.27-2.3-3.27-2.78-5.66-2.73a6 6 0 00-3.54 1.21c-3.06 2.15-4.85 5.33-6.77 8.37-1.02 1.6-.57 2.23 1.88 3.43zm-39.1 90.83c1.36-.84-.08-2.78 1.92-3.36.69.9 2.06 1.85 2.09 2.86.07 2 1.59 3.8.79 6-.93 2.51-.35 4.95.78 7.33.36-.17.55-.21.63-.32a4.81 4.81 0 00.76-1.19 29.11 29.11 0 00.4-16.44 18.94 18.94 0 00-1.36-3.56 4 4 0 00-2.37-2.21 10.47 10.47 0 00-7-.42 16 16 0 01-1.74.67 19.35 19.35 0 00-13.15 10c1.11 1.21 2.23 2.45 3.3 3.63 2.3-1 .71-3.39 1.87-4.61 2.2.11 4 .54 4.42 3.49l2.48-6.14a8.38 8.38 0 002 .12 14.52 14.52 0 002.11-.8zm38.55 18.35c-.57.13-1.23.51-1.71.35-2.11-.68-3.18.71-4.23 2a5.38 5.38 0 00-1.2 3.55c.07 3.88.09 7.77.14 11.65.19-3.56.41-7 4.21-9.13 1.22 1.56.65 4 2.6 5l2.07-1.2c-.17 1.21-.59 2.21-.36 3s1.2 1.36 1.7 2.11a4.39 4.39 0 01.64 1.78 79.3 79.3 0 01.8 9.37c.13 5.54-.45 11.11-.74 16.79-.93.58-1.9 1.12-2.79 1.77-1.45 1-1.75 2.39-.49 3.63a4.84 4.84 0 011.77 4.12c-.07.94.79 1.71 2.33 1.38.21-1.2.45-2.53.66-3.72l2.16-1a7 7 0 01-1.72-6.23c1.37-6 .8-12.06.38-18.1-.41-5.86-.46-11.78-2.86-17.32a5.59 5.59 0 01-.24-2.37c.12-2.79-1.25-5.04-3.12-7.43zm-35-127.83a3.63 3.63 0 004.57.79 6 6 0 015.91.32c1.16.71 2.68.83 4.26 1.28a26 26 0 002.27-3.13 18.16 18.16 0 001.77-4.42c.55-2.6-2.63-5.64-5.29-5.27-3.4.49-6.21 2.13-9.1 3.93-2.52 1.58-4.14 3.33-4.37 6.51zm31.09-46.09c1.86 0 3.56.51 4.59-.1 2.86-1.7 5.06-.95 7.41.89 1.42 1.12 2.88.72 3.43-1 1-3.34 1.84-6.77 2.63-10.18a3.62 3.62 0 00-.48-1.82 1.83 1.83 0 00-2.2-1.36 1.72 1.72 0 00-.49.19 79.29 79.29 0 00-8.33 4.34 50.38 50.38 0 00-5.5 4.6c-.3 1.36-.6 2.7-1 4.45zm-21.3 375.82a6.67 6.67 0 00-4.55 1.37 12 12 0 00-3.82 5.39 7.53 7.53 0 00.82 6.43 16.05 16.05 0 006.12 5.9c3.28 1.7 6.77 2.84 10.58 1.74a5.64 5.64 0 004.14-4.2c1.14-4.26-1.36-13.13-7.29-15.19a61.6 61.6 0 00-6-1.4zm21.76-355.76l-5-5.29a20.44 20.44 0 00-8.32 6.75l3.12 2.93 8.28-1zm95.19 315.27c.15 1.41.36 3.28.54 5 4 1.71 5.69 1.53 8.42-.87l-5.29-4.66c0-1.59 1-2.26 2.56-2.73 1.82-.54 2.07-2.26.68-3.59-.72-.69-1.5-1.32-2.38-2.08zm-99 75.06a11.79 11.79 0 00-1.15 1.39 1 1 0 000 .89 2.32 2.32 0 00.91 1 23.32 23.32 0 014.72 3.07 25.19 25.19 0 005 2.71c1 .43 1.85 0 2.23-1.43-1.32-2-3.17-3.77-4.24-6.17zm13-12.14l.7.59c.9-.63 1.83-1.21 2.68-1.9 4-3.28 6.3-7.9 8.94-12.23a1.73 1.73 0 00-.55-2.37 2.11 2.11 0 00-.34-.16zm-66.01-258.33a3.55 3.55 0 00-3.83 3.24.49.49 0 000 .12 3.78 3.78 0 003.2 4.27h.22a3.85 3.85 0 003.9-3.8v-.12a3.55 3.55 0 00-3.35-3.71zm32.63 97.39c1.56-2 2.67-.79 3.89-.34.89.33 1.76.75 2.67 1a8.44 8.44 0 001.88 0c-.5-1.52-.81-2.76-1.31-3.9a3.31 3.31 0 00-4.31-1.82 2.82 2.82 0 00-.49.25 4.86 4.86 0 00-2.33 4.85zm-3-160.52c1.29-1.13 2.63-2.2 3.85-3.4a2.36 2.36 0 00.38-3.06c-.44-.77-1-1.48-1.75-2.6-1.69 3-2.94 5.66-2.49 9.1zm27.73 155.72c-1.6 1-1.41 2.25-.92 3.4.68 1.62 2.71 2.53 5.64 2.67-.74-2.77-3-4.19-4.73-6zm-58.43-59.59c2.2-2.73 2.58-5.94 3.65-8.84.07-.2-.21-.75-.39-.78-.4-.07-1.1-.05-1.2.17-1.27 2.54-2.54 5.1-2.54 8a5.37 5.37 0 00.48 1.45zm90.41-43.93c-.77 2.18-3.52-.8-4 1.6-.37 1.76-.75 3.41 1.15 4.53l2.78-1.34c1-1.12-2.6-.13-.59-1.83.6-.51.45-1.94.66-2.95zm-79.92 115.93a21.16 21.16 0 000 3.56c.18.94 1.65 1.49 2.81 1.28a1.75 1.75 0 001.27-2.11v-.13c-.11-.6-.28-1.47-.7-1.68a16.88 16.88 0 00-3.38-.92zm72.85 126.3c2-4.55 2.07-6 .62-10.66-1.37 3.65-1.26 6.84-.62 10.66zM759 716.4a12.79 12.79 0 002.77-1.38 3 3 0 00.83-2c0-.44-.63-.91-.93-1.3-1.49.66-2.75 1.19-4 1.79-.21.1-.26.5-.47.94zM650.57 521.96c-.52.32-.74.38-.75.47-.32 2.75-.15 5.49-.25 8.84 1.68-2.74 1.78-3.91 1-9.31zM775 681.27c.64 1.48 2.22 1.69 3.31 2.47.33.24 1.06-.1 1.68-.19l-2-5.08zM633.68 512.96c-.49 4.17-1.88 8.47 0 13.65zM730 472.82a17.24 17.24 0 00-.59 3.42 2.09 2.09 0 001 1.4 1.46 1.46 0 001.95-.68.37.37 0 00.05-.11 1.82 1.82 0 000-1.64 18.92 18.92 0 00-2.46-2.36zm-59.89 274l-3.3 1 3.14 3.69c.48-1.57 1.28-2.81.11-4.63zm-34.96-159.33a2.63 2.63 0 00-.25-1c-.27-.35-.8-.93-1-.85-.51.2-1.22.68-1.26 1.1a4.29 4.29 0 00.58 2.16.9.9 0 001.25.24 1 1 0 00.31-.37c.16-.44.22-.9.37-1.28zm19.1-205.21c-.21-.2-.41-.55-.63-.56a2.06 2.06 0 00-2.17 1.95v.05c0 .28.6.91.82.86a2.49 2.49 0 002-2.3zm120 248.09c-.66.46-1.26.66-1.32 1a5.88 5.88 0 000 2.29 1.28 1.28 0 001 .71c.32 0 .75-.52.87-.89a4.54 4.54 0 00.14-1.87c0-.43-.4-.79-.69-1.24zm-135.17-44l1.34-2.15a5.8 5.8 0 00-1.56-.55c-.64 0-1.29.39-1.1 1.13.12.47.68.83 1.32 1.56zm13.43-42h.41a19.49 19.49 0 00.16-2.64c-.07-.92.56-1.94-.57-3.68zm111.07 173.28c-.19-.23-.49-.68-.56-.64a7 7 0 00-1.87 1.1c-.24.23-.16.83-.18 1.26a.52.52 0 00.28.34c1.06.43 2.5-.86 2.33-2.06zm-123.37-156.6c1 1.87 1.41 2.78 1.88 3.69l.38-.22c.41-2.1.41-2.1-2.26-3.47zm-58.38 64.45c-.43-2.88-.42-2.88-2.26-4a4.57 4.57 0 002.26 4zm140.58-298.14l2.14-.26c0-.42 0-1.08-.19-1.22-1.23-.77-1.36.34-1.95 1.48zM568.68 544.14c-.46-.6-.65-1-1-1.22a1.28 1.28 0 00-1.58.9 1.16 1.16 0 000 .18 1.54 1.54 0 00.65 1 11.09 11.09 0 001.93-.86zm114 86.59c.33-.36.87-.71 1.06-1.21a1.61 1.61 0 00-1-2.08 1.39 1.39 0 00-.19-.06.93.93 0 00-1.16.62 1.22 1.22 0 000 .38c0 .91 0 1.87 1.35 2.35zm-8.29 136.23c-.36-.91-.64-1.7-1-2.44-.07-.14-.61-.19-.8-.07a.84.84 0 00-.3.77c.29.86.57 1.74 2.1 1.74zm18.93-289.57c-.4-.48-.62-1-.94-1.06s-.74.3-1.12.48c.22.35.37.9.67 1s.75-.17 1.39-.38zm19 26.16l-1.5-1.33c-.25.31-.75.66-.71.91.14.77.58 1.44 1.53 1.31.24.01.36-.38.73-.85zm-91 79.11c.5-.31 1-.64 1.45-1a2.57 2.57 0 00-.31-.65 10.74 10.74 0 00-1.54.71c.17.36.3.67.45.98zm-34.14 28.3c-1.92.76-1.92.76-1.81 2.19zm181.5 114.4c.67 0 1.21.08 1.74.07 0 0 .12-.63 0-.67a3.26 3.26 0 00-1.23-.33c-.11 0-.25.42-.51.93zm-130-130.3a3.44 3.44 0 00-.68-.37.81.81 0 00-.33.24 5.82 5.82 0 00.44.66zm-13-22.42a4.94 4.94 0 00-1-.69c-.11 0-.58.54-.55.58a7.31 7.31 0 00.88.88zm20.19-1.92a5.07 5.07 0 00-.79-.88c-.11-.08-.47.18-.71.29l.87 1.25zm123.99 112.24a25.93 25.93 0 00-2.74-.78c-.23 0-.49.27-.74.42.28.25.54.66.85.7a13.63 13.63 0 002.63-.34zM571.68 563.8a.79.79 0 00.45-.08 5.36 5.36 0 00.9-1 .81.81 0 00-.03-.76.79.79 0 00-.76 0 8.92 8.92 0 00-.82 1.52zm28-14.8c0-1.13-.67-1.88-1.27-1.61a1.35 1.35 0 00-.65 1c0 1 .64 1.71 1.22 1.43.35-.17.54-.62.7-.86zM551 658.96c.85-.44 1.29-.53 1.34-.72.2-.76-1.14-1.86-1.87-1.53a.83.83 0 00-.26.77 12.45 12.45 0 00.79 1.48zm151.53-148.39a22.12 22.12 0 001.16-2 .79.79 0 00-.37-.7.86.86 0 00-.76.32c-.24.67-.98 1.3-.03 2.38zM622 498.63a7.53 7.53 0 00-1.15 1.37c0 .12.66.85.8.79a6.24 6.24 0 001.34-1c-.31-.31-.56-.62-.99-1.16zm-34.56 118.54a9.45 9.45 0 00.07-1.68c0-.2-.35-.35-.54-.52-.14.27-.45.58-.39.8a6.93 6.93 0 00.86 1.4zm97.81-139.32a6.27 6.27 0 000-1.62c-.08-.24-.49-.38-1.3-1zm-43.57-66.16c-.2.15-.56.29-.58.47s.24.44.38.67c.2-.16.56-.29.58-.47s-.22-.4-.38-.67zm31.16-40.73l-.62.5a4.76 4.76 0 00.67.43.79.79 0 00.33-.24 5.76 5.76 0 00-.38-.69zm-102.6 336.6c-1 .9-.67 1.51 0 2.07.12.1.37.22.41.18.19-.19.49-.5.44-.64a14.57 14.57 0 00-.85-1.57zm48.67-286.86a5.06 5.06 0 00-.16 1.23c0 .13.47.22.72.32a4.85 4.85 0 00.32-1.11c0-.08-.47-.18-.88-.4zm-38.54 121.75a4.23 4.23 0 00-.64 1.25c0 .63.83 1.14 1.27.74a1.34 1.34 0 00.35-1.11c-.09-.37-.56-.53-.98-.88zm-1.91 20.51c-.34.55-.76.93-.71 1.22s.55.58.86.86c.23-.32.65-.64.65-1s-.42-.52-.8-1.08zm34.74 12.34a4.14 4.14 0 00.55.38s.27-.22.25-.29a3.73 3.73 0 00-.3-.64zm151.41 83l.73.38a3.39 3.39 0 00.18-.39q-.35-.21-.72-.39a3.3 3.3 0 01-.19.42zm-81.17 114.29c-.36-.27-.66-.53-1-.74 0 0-.33.22-.31.27.16.37.35.72.54 1.07zm-13-12.6a4.89 4.89 0 00-.64-.34l-.24.23a5.84 5.84 0 00.65.35l.26-.23zM721 358.11a4.08 4.08 0 00-.44 1.11c0 .12.63.47.68.42a5.24 5.24 0 00.69-1zm-44.76 107.43l-.38-1.17c-.19.14-.55.33-.52.41a6.22 6.22 0 00.5 1.08zm-94.08 93.42c.39-.18.87-.3.87-.41a5.86 5.86 0 00-.28-1.24c-.33.17-.89.28-1 .52s.25.78.41 1.13zm-18.56 1.24c-.31.29-.67.49-.66.66a.87.87 0 00.49.67c.2.07.51-.16.77-.26zm70.56 4.43l-.74-.42c-.13.25-.36.51-.35.76a.77.77 0 00.65.33c.2-.04.28-.34.44-.63zm-57.17 4a5.34 5.34 0 001 .57c.08 0 .5-.6.44-.7a6.27 6.27 0 00-.94-.84zm56.74 4.2a1.78 1.78 0 00-.07-.39 6.82 6.82 0 00-.79.1 1.8 1.8 0 00.1.4 4.78 4.78 0 00.76-.08zm-53 2.77l-.61.54a3.71 3.71 0 00.68.43c.08 0 .36-.22.34-.25a5.17 5.17 0 00-.46-.69zm36.42 1.49l-.17-.37a2.48 2.48 0 00-.3.49s.19.16.3.23zm23 2.12a7.86 7.86 0 00-1-1.08c-.06-.05-.62.3-.62.47a4.39 4.39 0 00.34 1.12zm-98.93 32.06l-.32-.71a4 4 0 00-.54.37s.1.3.19.32a2.94 2.94 0 00.66 0zm229.22 68.29a3.46 3.46 0 00-.36.62c0 .06.21.3.23.28a4.56 4.56 0 00.59-.38c-.15-.12-.3-.31-.46-.48zm-11.76 28.17l-.25-.75a4.82 4.82 0 00-.63.35s.06.37.14.39a3.66 3.66 0 00.74.05zm-151.16 35.1a.75.75 0 00.1.37 3.45 3.45 0 00.54-.11c-.09-.11-.16-.26-.28-.31s-.28 0-.41 0zm155.89-20.32c-.08.27-.14.46-.2.65l.4-.15a2.1 2.1 0 01-.25-.5zm-7.73-12.4l-.45.56c.11.08.31.25.33.23l.47-.54zM540.12 607.76c.11 0 .29 0 .31-.1a1.14 1.14 0 000-.45l-.49.13zm92.36-14.24a.42.42 0 00-.16-.32.47.47 0 00-.36.08l.26.49zm-20.37-1.94l.07.3.3-.19zm1.43-13l-.44.55c.11.08.3.24.32.22a4.6 4.6 0 00.46-.53zm61.39-7.54c0 .11-.15.24-.12.32s.2.11.31.16c0-.11.15-.24.12-.32s-.2-.09-.31-.14zm-22.12-.53l.28-.2-.32-.16zm-2.61-2.95l-.21-.3-.14.3zm-68.8.17a.55.55 0 00-.07-.35 1.28 1.28 0 00-.37-.16v.6zm-16.51-1.44c-.11-.26-.22-.53-.32-.8-.26.12-.69.2-.74.37s.18.55.29.82a4.22 4.22 0 00.77-.37zm129.29-11.75l-.38-.51c-.09.09-.27.23-.25.26a3.87 3.87 0 00.37.53 3.45 3.45 0 00.26-.28zm-41.11-19.48h-.36l.18.52c.09-.07.24-.13.27-.22s-.06-.19-.09-.3zm48.18-9h-.42l.3.59.35-.19zm2-7.34h-.43l.28.62c.11-.09.29-.16.31-.27s-.06-.21-.12-.34zm-1.74-21.61c.08-.11.2-.21.21-.32s-.12-.22-.19-.33c-.07.11-.2.21-.21.32s.17.22.23.34zm-19.58-26.41a5.56 5.56 0 00-.7-.19s-.1.22-.14.33a4.12 4.12 0 00.69.18 2.79 2.79 0 00.19-.31zm48.86-1.89l-.2-.7c-.13.06-.36.13-.36.18a4.35 4.35 0 00.18.71zm-47.5 313.83c.11-.08.32-.16.32-.23a5.71 5.71 0 00-.11-.83c-.19.1-.54.22-.53.29a2.77 2.77 0 00.36.78zm-33.78-354.92l-.31.22.35.17zm8.89-18.59l-.65-.2a1.25 1.25 0 00.14.41zm0-20.45l.08-.4c-.23 0-.46-.06-.69-.06a.88.88 0 01-.08.37zm2.38-4.31a2 2 0 00-.06-.35q-.33 0-.66.06a2 2 0 00.06.35 4.14 4.14 0 00.7-.06zm-7-7.51l-.06.37.34-.13zm23-11.62l-.18.36c.11 0 .26.18.34.14s.13-.21.19-.33zM666 377.46l.2-.3h-.33zm69.24 10.61c-.12.08-.35.18-.34.24a5.2 5.2 0 00.25.76c.11-.09.33-.19.32-.27a4.61 4.61 0 00-.19-.73zm-8.3 4l-.31.15.3.14zm10.11 8.89c-.1.1-.31.21-.29.28a4.71 4.71 0 00.27.71c.11-.09.32-.2.31-.27a5.2 5.2 0 00-.25-.76zm-91.32 7h.27l-.12-.28zm72.08 26.54l-.11.32.37-.21zm13.4.88a.44.44 0 00.34-.15c.05-.09 0-.25 0-.38l-.51.23zm-16.11 54.58c-.11.08-.33.2-.32.27a5.41 5.41 0 00.27.77 5 5 0 00.35-.74c.02-.07-.19-.21-.3-.3zm-109.32 6.27l.07-.39-.52.12a1.09 1.09 0 00.15.35zm77 24.48l.31.21.06-.32zm-29.21 8l-.16.24h.25zm-20.83 5.25v.28l.35-.12zm-59.42 24v.27l.32-.11zm9.06 4.42a1 1 0 00-.09.33l.27.1a1 1 0 00.09-.33 2 2 0 01-.27 0zm-21.4.32l-.27.13.27.13zm33.82 2l-.39-.14c0 .11-.14.29-.1.33a2 2 0 00.37.16zm-10.8 2.15l-.51-.14c0 .09.06.25.09.25a1.51 1.51 0 00.42-.1zm-13 2.76c.11-.07.28-.11.32-.21a1.47 1.47 0 000-.42l-.51.28zm1.81-1v.35a.75.75 0 00.38.1l-.07-.56zm11.63.11c-.09.09-.23.18-.25.28s.09.23.15.34c.08-.09.22-.17.24-.27s-.09-.26-.14-.38zm11 8.48v.29l.3-.12zm57.11 14.36l.17-.24h-.27zm-1.83.53l-.21.28h.33zm36.56 102.87H687l.14.39zm-10.85 65l.15.32.16-.31zM974.37 589.79a2.64 2.64 0 001.4 2.33 96.5 96.5 0 0114.48 9.15 5.6 5.6 0 001.68.87 15.49 15.49 0 015.47 3.82c1.46 1.37 2.5 3.43 5.07 2.91.23 0 .58.24.82.44 1.63 1.29 3.18 2.66 4.67 4.1s3.57 2 4.65 4a9.34 9.34 0 002.77 2.58c3.85 2.82 7.82 5.48 11.6 8.4a80.17 80.17 0 0111.02 10.57c1.68 1.9 3.51 3.69 5.08 5.67a119 119 0 017.15 9.57c3.79 5.9 7.15 12.08 11 17.94 5 7.59 9.87 15.27 16 22a10.45 10.45 0 005 3.39c2.52.7 3.45 2.67 2.68 5.12a9.63 9.63 0 01-.63 1.29 4.9 4.9 0 00.18 5c1.61 2.74 3 5.62 4.82 8.23a72.75 72.75 0 015.71 9.91 27.23 27.23 0 002.27 3.63c.9 1.27 2.32 2.25 1.93 4.16-.08.34.39.84.68 1.21 3.3 4.35 5.59 9.27 8.07 14.09q2.4 4.67 5 9.24c1.17 2.09 2.49 4.05 3 6.48a14.47 14.47 0 001.49 3c2.07 4.31 4.11 8.63 6.19 12.94.9 1.87 1.93 3.68 2.8 5.56 1.93 4.2 3.79 8.43 5.71 12.63a12.37 12.37 0 001 1.58v37.36c-.21-.23-.55-.44-.61-.71-2.13-9.58-7-18-10.76-27-2.51-6-5.34-11.91-8.09-17.82-3.09-6.64-6.26-13.24-9.37-19.87-2.36-5-4.38-10.25-7.5-14.91-1-4.39-3.8-7.9-5.59-11.91s-4-7.57-5.86-11.41c-1.18-2.41-2.06-5-3.12-7.45a15.49 15.49 0 00-1.92-3.81 35.56 35.56 0 01-5.94-11.23 25.71 25.71 0 00-1.42-2.47c-1.38-3.14-3.7-5.85-4.18-9.43a5.58 5.58 0 00-1.43-3c-3.49-3.49-5-8.09-7.25-12.3-1.17-2.21-1.88-4.66-4-6.24a4.92 4.92 0 01-1.33-2c-2.7-6.26-7.3-11.54-9.28-18.15-1.62-1.77-2.5-4-3.72-6-2.5-.53-2.6-2.8-3.4-4.6a5.8 5.8 0 00-1.4-1.93c-2.46-2.08-4-4.9-5.82-7.44s-3.79-5.47-7-7c-2-3-5.48-4.16-8.17-6.29s-5.16-4.27-7.65-6.5c-5.71-5.09-11.21-10.4-17.09-15.28-3.77-3.13-8.08-5.63-12.12-8.45a52.57 52.57 0 01-4.55-3.43c-.85-.73-.51-1.75-.07-2.66zM987.12-.04a86.56 86.56 0 01-6.31 6.54A28.14 28.14 0 01975 9.88c-5.56 2.75-11.23 5.28-16.71 8.18-3.38 1.78-6.47 4.1-9.72 6.13a41.63 41.63 0 01-5 2.82 121 121 0 00-25.43 15.08c-5.92 4.6-12.24 8.68-18.24 13.2-4.06 3.06-7.91 6.43-11.77 9.76a91.78 91.78 0 00-7.37 6.85c-2.94 3.15-5.66 6.5-8.37 9.84-2.32 2.87-4.61 5.72-7.69 7.82a7.25 7.25 0 00-1.7 1.57c-3.33 4.43-7.4 8.17-11.34 12-.45.44-1.22.72-1.42 1.23-2 5-6.38 8.81-7.41 14.33-1.62 2.49-3.22 5-4.88 7.48-.52.78-1.39 1.36-1.83 2.18-3.14 5.8-8.22 10.06-12.07 15.29a14.23 14.23 0 00-1.38 2c-1.7 3.47-4.38 6.27-6.57 9.4s-4.49 6.13-6.67 9.09c-1.32-.11-1.51-.79-1.25-1.67a10.47 10.47 0 01.82-2.23c2.06-3.6 4.73-7 6.14-10.79 2.6-7 8.66-11.27 12.73-17.07 2.19-3.12 4.9-5.88 7.4-8.78 1.54-1.79 3.76-2.94 4.8-5.2.74-1.59 1.48-3.18 2.36-4.69 2.16-3.72 4.32-7.44 6.62-11.07a22 22 0 014.79-5.26c3.56-2.91 6.9-6.13 9.11-10.29a2.61 2.61 0 01.54-.77c6-5.49 10.69-12.26 16.8-17.65s12.12-10.4 18.6-15.09c4.27-3.1 8.41-6.37 12.59-9.57 6.47-5 12.81-10.1 19.43-14.84 4.53-3.25 9.4-6 14.21-8.89 5.21-3.09 10.63-5.85 15.76-9.06a139.71 139.71 0 0117-8.83 25.38 25.38 0 003.48-2.42z"/><path d="M46.94 422.85a26.14 26.14 0 005 .22c2.44-.16 4.73-2 7.3-.63 2.34-1.45 4.91-.49 7.37-.67 3-.22 6-.26 9.07-.4 1.57-.07 3.14 0 4.64-.81a4.8 4.8 0 012.77-.4c3.28.42 6.56 0 9.89.73 7.31 1.57 13.47 3.39 17.58 7.3a32 32 0 003.46 2.58 56.81 56.81 0 018.93 8.47 57.1 57.1 0 0014.63 12.18 23 23 0 017.24 6.16c.63.82 1.08 2 2.68 1.67a3.66 3.66 0 00-.28-1.26c-5.14-8.06-10.44-16-15.71-24a53.59 53.59 0 01-5.46-9.42c-1.11-2.73-3.19-5.07-4.79-7.6a17.54 17.54 0 01-1.33-2.54c-1.67-3.94-3.29-7.89-5-12.11 5.2-3.38 11.41-5.33 16-9.89 3.43.11 5 2.51 6.63 4.89a30.09 30.09 0 012.28 4.17 8.57 8.57 0 01.73 2.72q.41 3.81.59 7.64a34.13 34.13 0 01-.18 4.29c-.15 1.74-.39 3.48-.62 5.48l-2.87 1.55v6.92a18.89 18.89 0 002.25 7.55c2.38 5 5 10 7.42 15a10.59 10.59 0 011.46 4.9 6.41 6.41 0 003 5.19c1.43 1 2.82 2.09 4.15 3.23.54.46 1.34.94.94 1.91-.16 0-.34.17-.42.12-2.49-1.71-5-3.37-7.44-5.17a77.893 77.893 0 01-5.56-4.53 8.71 8.71 0 00-5.71-2.19 69.57 69.57 0 01-14.58-2.42c-7.25-1.8-14.55-3.55-21.51-6.41-1.32-.54-2.77-.74-4.11-1.24-5.37-2-10.73-4-16.08-6.1-3.41-1.31-7-2.34-10.17-4.07-2.65-1.44-5.48-2.4-8.15-3.76a63.58 63.58 0 00-12.2-5.1c-.84-.23-3.33-3-3.81-4.05zm31.74 4.66v.29l.34-.13zM742.6 194.45l-1.34-.57c-1.15 1.73-2.33 3.38-3.39 5.11s-1.78 3.26-3 5.63a33.69 33.69 0 011.65-10.06c.9-3 3.26-4.91 4.57-7.42 2.77.13.92 1.76 1.23 3 2-1.82 3.24-4.45 6.12-5 2.64 2.16 0 4.74.51 7.15 1.94-.17 1.87-2.28 3.16-3.41l.69 1.67c.28-.09.68-.08.81-.27 2.68-3.77 5.41-7.5 7.94-11.37 2-3.06 3.79-6.28 5.59-9.47a77.72 77.72 0 017.59-11 13.77 13.77 0 001.8-2.8 4.78 4.78 0 00-.07-2l-3.55.63c-1.1-1.8-2.48-2.76-4.72-1.79a5.09 5.09 0 01-4.84-.45c.65-3.21 2.57-5.65 4.76-7.92.3-.31 1-.69 1.22-.55 1.54 1 2.77-.84 4.11-.41a15.57 15.57 0 014.22 1.95 5.41 5.41 0 002.6.93c3.25.47 4.44.11 5.8-2.79 3.27-7 7.6-13.28 11.56-19.83a115.32 115.32 0 007-13.06c1.22-2.78 3.07-4.68 5.61-6.81a6.61 6.61 0 01-.19 1.66c-1.16 2.25-2.44 4.44-3.56 6.71a109.24 109.24 0 01-6.09 10.81q-7.71 11.89-14.39 24.24a124 124 0 01-8.34 13.38c-.19.26-.49.46-.6.74-1.89 4.83-5.86 7.88-9.56 11.15.19.74.37 1.48.52 2.05-1.21 1.58-2.28 3.12-3.5 4.54a17.62 17.62 0 01-2.78 2.61 7.39 7.39 0 00-2.9 4.28c-.68 3.1-2.61 5.4-4.33 7.85-.9 1.3-2 2.41-2 4.23a4.94 4.94 0 01-.82 2.23q-3.78 7.2-7.64 14.37c-.45.84-1.15 1.53-1.61 2.36-.62 1.08-1.62 2.25-1.58 3.35.12 2.8-1.31 5-2.55 7.11-3.66 6.37-7.87 12.42-11 19.12a8.42 8.42 0 01-1.08 1.57 48.24 48.24 0 00-7.18 12.89 14.92 14.92 0 01-2.38 4.13c-2.68 3.31-5.07 6.87-8.73 9.9-.3-1.56-.27-3-.86-4.07s-2.1-1.6-2.6-2.66a11.57 11.57 0 01-1.17-5 14.25 14.25 0 011.42-4.86 2.6 2.6 0 013-1.76 2 2 0 002.27-1.18c.93-1.54 1.61-1.46 3-.43 1.7 1.22 2 1.23 3 0 1.58-2 3.16-4 4.71-6a9.38 9.38 0 001.83-2.78c.89-3.21 3-5.59 5-8.09a33 33 0 005.5-10 72.46 72.46 0 013.61-7.8c2.77-5.57 5.63-11.1 8.35-16.7a38.27 38.27 0 001.63-4.88c-1.88-1-2.63 1.29-4.24.92-1.47-1.69-1.12-3.41.06-5.14.36 1.76.36 1.76 1.51 2a10.66 10.66 0 00-1.36-1.94zm36.84-41.65l-.14-.33-.15.33zM746.15 515.05c-2.07 1.93-2.63 4.61-3.59 7.09-.28.73-.59 1.45-.89 2.18l.11.06c-.48-1.46-.52-3.18-2.22-4-2.68 4.23-2.68 4.23-2 7.46-3 1.62-2.59 5-3.87 7.65-1.42 2.85-1 5.55-.58 8.14-.26.51-.32.9-.55 1.07-3 2.23-2.31 5.39-1.89 8.34a4.51 4.51 0 001.92 2.59 4.19 4.19 0 011.75 4.61 53 53 0 01-1.23 5.56 1.39 1.39 0 01-1.82.74 1.37 1.37 0 01-.54-.41c-.48-.58-1.25-1.77-1.3-1.74-1.69 1.07-2.68-1.87-4.39-.74-.44.3-1.2.14-1.87.19-.45 1-.64 2.07-1.3 2.64-2.84 2.45-3.24 5.62-3.12 9.06.06 1.9.4 2.54 2.27 3a11.11 11.11 0 001.73.14c.69 2.82-1.93 2.15-3 3.27-.39 1.86-.8 3.85-1.26 6 2.17 4 2 6.34-.84 8.4-.85-1.32-.39-2.74-.4-4.11 0-2.23.05-4.46-.07-6.68-.17-3-.46-6-.75-9.06-.31-3.23-1.62-6.15-2.93-9.06-.39-.86-.92-1.67-1.54-2.79a10.54 10.54 0 00-7.3 1.72 13.79 13.79 0 01-1.89 1.43 18.07 18.07 0 00-6.21 4.34c-.21.24-.86.1-1.31.13 0-.58-.24-1.25 0-1.72a3.85 3.85 0 011.36-1.24c.37-.27 1.08-.31 1.2-.62 1.38-3.57 4.55-4.55 8-5.59l2.52-6.13 3.61 2.31 2.08-.72c2-.66 2.72-.28 3.17 1.54.38 1.53.74 3.06 1.08 4.46 1.34.36 1.71-.47 2-1.14 1.48-3.46 4.34-6.27 4.5-10.39 0-1.21 1.25-2.39 2-3.63-1.57-1-3.46 1.22-4.65-1.22l3.08-.91c-.45-1.09-.84-2-1.21-2.92.94-.92 1.62-.23 2.36-.06 1.58.34 2.67-.16 3-1.54.49-2.33 1-4.7-.59-6.88a7.42 7.42 0 01-.59-1.5c.87-.47 1.71-1.31 2.51-1.27 2.39.13 2-2.09 3-3.13-.34-4.11 1.6-7.78 2.28-11.69.29-1.69-.28-3.58 1-5.06v1.07c.09-.08.26-.19.24-.23a6.41 6.41 0 00-.35-.75c1-1.62 2.94-2.6 3.13-4.88.09-1 1.42-1 2.39-.91 1.12 2.13 0 4-.77 5.84-.34.86 0 1.52 1 2.21l3.59-4 1.86 1.16.12-.15c-.71.87-1.41 1.75-2.12 2.63zm-17.92 44.27l-1.09-.62c-.11.23-.37.52-.3.68a1 1 0 00.65.54c.19.04.4-.31.74-.6zm11.55-42.36l.29.83.71-.28-.48-1zm-23.42 48.68c-.65 1.19-1 1.6-1 1.88a1.18 1.18 0 00.93.68c.26 0 .7-.54.71-.86a9 9 0 00-.64-1.75zM797.28 179.7c-1.67 2.29-3.38 4.55-5 6.87-2.28 3.24-4.56 6.48-6.74 9.79-1 1.43-1.51 3.13-2.48 4.55a38.11 38.11 0 01-4.66 6 31.13 31.13 0 00-3.24 4c-.46.63-.9 1.71-1.45 1.78-2.73.36-2.58 3-3.89 4.6-.38.66-2.62-.71-1.92 1.55.42 1.34 0 2.13-1.62 2a2.37 2.37 0 00-1.64.61 67.52 67.52 0 00-5.92 6.16c-2.45 3.11-4.59 6.46-6.85 9.72-.64.92-1.17 1.91-1.86 2.77-.23.29-.82.29-1.25.42l.09.11c1.27-3.81 3.54-7 5.58-10.47 4.59-7.68 9.59-15 14.89-22.22 3.41-4.61 6.54-9.39 9.56-14.26a3 3 0 01.57-.76c3.61-3 5.47-7.35 8.55-10.76 3.31-3.68 5.39-8.22 8.11-12.32 1.49-2.23 2.63-4.69 4-7 3.1-5 6.26-10 9.43-14.92 3.59-5.64 7.17-11.28 10.86-16.86a56.4 56.4 0 014.67-6 46.93 46.93 0 006.54-8.81c.39-.74 1.37-1.18 2.08-1.76l-.1-.11c-1.85 5-5 9.26-8.19 13.38-5.6 7.17-10.13 15-15 22.65-3.1 4.82-6.28 9.57-9.32 14.42-2.36 3.77-4.56 7.64-6.85 11.51l3.17 3.44zm-28.8 35.7c0-.12.16-.24.14-.34s-.19-.12-.3-.18l-.19.55zm21-30.56c.13.06.35.2.38.16a2 2 0 00.24-.45 1.09 1.09 0 00-.44 0c-.08.04-.12.19-.18.29zm4.56-5.74c0-.13-.08-.25-.13-.37-.26 0-.52.13-.77.2a1.63 1.63 0 00.13.37c.26-.05.51-.13.77-.2zM761.91 507.29a90 90 0 01-.88 20.41c-.67 5-1 10.13-1.62 15.18a16.4 16.4 0 01-1.57 5.91c-1.42 2.51-1.21 5.25-1.87 7.84a1.84 1.84 0 00.25 1.37 2.53 2.53 0 01.2 3.1 3.36 3.36 0 00-.32 3.19 1.81 1.81 0 01-.51 2.15 2.88 2.88 0 00-.66 2.65 7.54 7.54 0 010 2.84c-1.36 5.41-2.8 10.81-4.27 16.19-.09.36-.64.61-1.4 1.28.4-4.46-.68-8.59 1.57-12.37a7 7 0 00.8-3.16c.21-2.85.87-5.66 1.1-8.51a214.81 214.81 0 014.95-33.47c1.17-4.84.9-9.82.89-14.61l-2.65-2.79 3.09-1.9c.43-1.56.82-3.26 1.4-4.91.25-.72 1-.64 1.59-.3zM912.86 5.38c.06 1.15-.74 1.7-1.57 2.19q-7.85 4.59-15.72 9.15c-5.8 3.36-11.65 6.61-17.4 10a66.1 66.1 0 00-14.24 11.24 7.71 7.71 0 01-1.47 1.2 29.36 29.36 0 00-7.09 6.34 12.79 12.79 0 01-3.13 2.92c-4.29 2.59-7.68 6.19-11.21 9.63-.91.88-1.92 1.65-2.9 2.48-1-.86-.29-1.48.08-2a107.36 107.36 0 0114.56-17 21.13 21.13 0 017-4.93 19.47 19.47 0 004.42-2.81A176.43 176.43 0 01883 21.6c7.38-4.15 14.71-8.4 22.12-12.49 2.5-1.39 5.2-2.43 7.8-3.63zM752.16 459.45c-2.15-1.19-2.62-3.36-3.25-5.45-.49-1.66-.54-1.65-3.09-2.8a21.85 21.85 0 00-1.43 7.79c-.14 2.86-.23 5.73-.42 8.59a2.51 2.51 0 01-1 1.54 19.75 19.75 0 01-.79-5.87 43 43 0 00-.5-12.35c-.58-2.91-.89-6 .55-8.94a3.39 3.39 0 00.42-2.31c-.66-2 .12-3.65.74-5.47a6.75 6.75 0 00-.31-3.72 16.49 16.49 0 00-1.73-3.13c2-2.89 2.42-6.37 2.77-9.77.46-4.43.35-8.91.48-13.37a15.22 15.22 0 010-1.91c.24-1.52.57-3 .9-4.74.34.46.66.69.66.92a71.65 71.65 0 010 7.18 46.06 46.06 0 00-.19 8.05 18.87 18.87 0 01-.25 5.25c-.48 2.43.34 4.75.22 7.11s-.81 4.39-1 6.6c-.29 2.68-.34 5.39-.54 8.09-.14 2 0 3.66 1.81 5a10.55 10.55 0 013.78 6.47c.53 2.48 1.44 4.88 2.19 7.32zM703.15 622.15L702 623.9c.68 1.56 1.82.32 2.92 1 .75 1.41 2.91 2.64 1.45 5.18-.13.22.79 1 1.3 1.71l-5.39 1.48c-4.24-5.73-8.43-11.8-10.81-19.22 2.07-.8 4.46-.35 5.31-3.42 2.64 4.33 5.22 7.49 6.37 11.52zM743.41 253.56c-.51 2.65-2.48 4.39-4 6.37-1.09 1.37-2.4 2.57-3.47 3.95s-2.37 3-2.45 5.09a6 6 0 01-1 2.61c-3 5.23-6.15 10.43-9.23 15.65-.33.55-.67 1.09-.94 1.66-2.79 5.89-5.53 11.79-8.34 17.66a18.24 18.24 0 00-2.11 8.18c0 1.89-.69 3.59-1.53 6.12a16.29 16.29 0 01.53-10c.92-2.54 1.73-5.12 2.66-7.65a78.62 78.62 0 016.1-13.21c.32-.54.88-1 1-1.58 2.36-8.08 8-14.41 11.72-21.74 2.19-4.29 5.87-7.45 8.4-11.48a2.62 2.62 0 012.78-1.49zM748.68 594.96a4.15 4.15 0 01.11 5.87c-3 3.41-4.36 7.77-7.19 11.24a11.42 11.42 0 00-2.14 3.14c-.58 1.66-3 1.93-2.73 4.18.24 1.8-1.87 2.72-1.88 4.72 0 1.59-1.75 3-1.67 4.85a3.24 3.24 0 01-.81 1.67.89.89 0 01-.83.16c-.25-.08-.61-.4-.61-.61a7.06 7.06 0 01.23-2.33c1.08-3 2.32-5.92 3.38-8.93a101.38 101.38 0 0110.15-20.37c.99-1.47 1.7-3.15 3.99-3.59zM810.31 218.62c-.08-2.83-.24-5.66 1.26-8.26a5 5 0 00.41-1.83c.57-4.24.56-4.24 4.54-7.66.78 1.27-.67 2-.64 3.06l2.32.58q-.33 1.32-.66 2.61c.26 1 .59 2.06.76 3.1.42 2.64 0 5-2.39 6.65-1.15.8-2.17 1.77-3.5 2.87l-2.22-1.23zm5.42-8.6l-.58.47a3.09 3.09 0 00.65.34c.09 0 .23-.13.35-.19z"/><path d="M742.29 507.56c-1.57-1.59-1.55-3.4-.66-5.27.74-1.57 1.85-3.05.38-4.83a1.41 1.41 0 010-1.35c.87-1.17.27-2.45.48-3.63.73-4.15.06-8.14-.8-12.17-.46-2.16-.23-2.65.86-6 1.42.21 1.68 1.52 1.76 2.44.21 2.49 1 4.93.48 7.5a12.41 12.41 0 00-.11 3.75q.63 6.15 1.48 12.27c.4 2.88.31 3.22-2.52 4.69-1.07.56-1.9 1.19-1.37 2.57zM713 637.06c-.52-1.79-1.39-3.54-.11-5.44a4.15 4.15 0 00.49-2.29 144.55 144.55 0 01.91-15.14c.33-3.46.39-7 .89-10.42a18.53 18.53 0 01.52-2.77 7.08 7.08 0 01.89-1.56c1.16-.07 1.7.66 1.57 1.45-.85 5.17.33 10.53-1.56 15.62a9.7 9.7 0 00-.15 3.31 39.81 39.81 0 01-1.12 10.43c-.58 2.28-1.6 4.46-2.4 6.71zM690.45 562.13c3.21 2.55 3.19 2.89 0 7.11 1 2.71.69 5.7.75 8.69.09 4.3.58 8.59.88 12.88.11 1.58.54 3.23-1.26 4.65a7.32 7.32 0 01-1.27-1.66 9.59 9.59 0 01-.49-2.81c-.24-5.26-.46-10.52-.62-15.77a34.32 34.32 0 012.01-13.09zM758.58 279.58c1.09-.08 2.68.25 3.16-.33 1.74-2.12 4-1.43 6.16-1.65l2.9 2.63a9.63 9.63 0 01-5.5 7.66l.13.13-.35-.72c-.25.24-.5.48-.76.71l.13-.12-2.26 1.63.89-4.27c-1.85-1-2 1.34-3.61 1.09.14-.89.28-1.76.42-2.67-.64-.59-2.23.06-2.16-1.58l-.13.2c1.14-.61 1.77-1.4.98-2.71zM740.38 262.25c-1.91 6-4.26 11.78-8.21 16.69a4.09 4.09 0 00-1 1.61c-.57 3.09-2.53 5.49-4 8.15-1.27 2.38-2.9 4.58-3.38 7.34-.08.48-.66.86-1.54 1 1.47-4 2.46-8.23 4.51-11.88 4.4-7.77 8.16-15.87 13.62-22.91zM667.4 607.57c-.89-1.46-1.48-3-.51-4.61v-.06h.2a6 6 0 01.12-1.88c.87-2.3 2.18-2.92 4.47-2.23a8 8 0 011.31.57c.56.28 1.1.6 1.78 1a30.87 30.87 0 01.68 3.7 4.14 4.14 0 01-3.87 4.39 4.53 4.53 0 01-.64 0 22.13 22.13 0 01-3.67-1zm6.39-4.84a11.68 11.68 0 00-.66-1.06c0-.08-.4-.09-.41-.06-.14.42-.41.89-.32 1.26s.59.51.9.76c.14-.26.29-.52.49-.9zM781.58 604.79c2.26 3.88 2.17 7.73-.14 11.76a12.22 12.22 0 01-9.43-1.3l.12.16c.22-1.71.42-3.42.68-5.12a3.92 3.92 0 011.87-2.92v5.45a6.78 6.78 0 002.46-.06c1-.45 1.72-1.4 2.7-1.85a3.6 3.6 0 002.15-3.38 18.93 18.93 0 00-.25-2.81zM752.08 459.56c3.92 4.68 5 10.49 6.36 16.18.93 3.85 1.85 7.71 2.88 11.54a22.22 22.22 0 001.42 3c.36.83.81 1.7.12 2.74a18.19 18.19 0 01-2.43-3.16 8.71 8.71 0 01-1-4.06 9.53 9.53 0 00-1.74-6.29 16.51 16.51 0 01-2.32-5.68 55 55 0 00-1.92-6.38 19.11 19.11 0 01-1.29-7.95zM1007.93 601.36c3.85-.18 3.94-.16 4.69 2 .46 1.36.89 2.74 1.22 4.14a21.93 21.93 0 003.16 6.94c1 1.6 2 3.27 2.9 4.87-.89 1.06-1.71.37-2.11-.09-3-3.38-6.1-6.66-7.23-11.3a49.6 49.6 0 00-2.63-6.56zM818 89.96a6.5 6.5 0 01.36-1.74c.83-1.51 2.07-2.86 2.61-4.45 1.93-5.7 6.1-10 9-15.13.13-.24.5-.35.78-.48a6 6 0 01.71.17 26.4 26.4 0 01-3.42 8.16c-2.1 3.56-4.31 7-6.55 10.53-.84 1.32-1.72 2.71-3.57 2.82z"/><path d="M667.28 607.45a8.6 8.6 0 01-.37 2.76 60.32 60.32 0 01-4.74 8.21 29.3 29.3 0 00-4.5 8.32 18 18 0 01-1.41 2.77c-1.39-.14-1.52-1-1.4-1.75a13.07 13.07 0 011-3.18c.79-1.72 1.71-3.38 2.6-5 1.11-2.1 2-4.32 3.87-6a8.69 8.69 0 001.75-2.76 6.09 6.09 0 013.32-3.24zM690.82 641.39a22 22 0 002.18-1.66c.78-.76 1.43-1.64 2.13-2.47 1.61.17 3 .21 4.44.49a2.74 2.74 0 012.27 3.13 2.81 2.81 0 01-.6 1.31 5.6 5.6 0 01-.92 1.08c-.59.53-1.23 1-1.75 1.41-2.89-.71-5.88-.72-7.76-3.3zM784.83 253.38c-.62-.4-1.24-.79-2.09-1.35a39 39 0 002-3.64 1.88 1.88 0 00-.23-1.69c-.28-.31-1.12-.3-1.63-.15a6.21 6.21 0 00-1.58 1c-1-.82-.6-1.73-.17-2.52a30.43 30.43 0 011.89-2.75c1.71-.09 1.66-.08 2.19 1.54a12.33 12.33 0 001.06 2l3.4-1c.17 2.54-2 3-2.8 4.41s-1.34 2.85-2 4.27zM994.27 584.28c.5 2.6 2.38 4.13 4.42 5.38a24 24 0 015 4.49c-1.85 1.31-3.56.91-5.5.85a7.17 7.17 0 00-3-4.47c-.92-.65-1.37-2.08-1.85-3.23s.54-2.07 1-3.07zM1008.68 584.74c1.63 2.6 1.84 5.54 2.21 8.55a10.37 10.37 0 01-1.57 1.15c-1.47.69-2.44.15-2.62-1.4s-.39-3.11-.46-4.68a3.17 3.17 0 012.44-3.62z"/><path d="M690.81 641.38l.34 2.22a24.55 24.55 0 01-4 2.09c-4.5 1.46-8.21 4.88-13.08 5.39-.5-1.07.33-1 .81-1.3a100.75 100.75 0 019.35-4.69 25.85 25.85 0 015.32-2 1.38 1.38 0 001.27-1.48.83.83 0 000-.22zM719.74 530.77c.14.29.44.61.38.84-.71 2.77-1.35 5.56-2.24 8.28a59.5 59.5 0 01-2.42 5.56c-.43-.43-.83-.67-.8-.81.88-3.71 1.76-7.42 2.75-11.1.33-1.22.84-2.45 2.33-2.77zM738.9 556.3a21.4 21.4 0 00-2.87-2.23 18.73 18.73 0 00-3.19-1v-4c4.28.62 5.7 3.26 6.06 7.23zM798.75 174.56c2.09-3 4.71-5.34 6.33-8.43.65-1.24.92-1.17 2.66-.19a58.15 58.15 0 01-6.86 9.06c-.59.67-1.36.74-2.13-.44zM714.42 509.63c0 .59.1 1.51-.19 1.69a21.1 21.1 0 01-3.32 1.33l-.65 1.7a1.65 1.65 0 01-.79-.12 5.91 5.91 0 01-1-1c-2-2.42-2-2.8.36-5.54l-.2.11c.68.36 1.71.55 2 1.12 1 2.14 2.52 1.24 4 .8zM740.94 537.63c-.36-1-.92-1.8-.76-2.37a4.07 4.07 0 014-3.38 2.12 2.12 0 011.47.82 1.48 1.48 0 01-.11 1.31 5 5 0 01-1.29 1.33c-.85.62-1.78 1.24-3.31 2.29zM811.77 201.9c-.47-.4-.91-.84-1.41-1.2s-1-.62-1.85-1.12l3.23-3.14c2.24 2.59 2.35 3.63.73 5.65-.06.07-.53-.19-.82-.3.16-.26.36-.5.5-.78a3.13 3.13 0 00-.09-.41c-.19.14-.51.28-.52.43a2.39 2.39 0 00.23.87zM731.45 530.06a6 6 0 01-3.58-4.77c0-.32 1-.8 1.43-1.09 1.58.64 1 1.79 1.22 2.63s.48 1.72.93 3.23zM718.36 640.33c.13-2.21 2-2.92 3.46-4 .33-.26 1.08 0 2 .11-.88 2.74-2.05 4.77-4.57 5.77l.14.1c-.36-.71-.72-1.42-1.09-2.13zM705.89 582.22a20.13 20.13 0 01-1.11 2.78 27.42 27.42 0 01-2 2.64c-1.06-1.48-.42-2.65 0-3.78a3.4 3.4 0 011.14-1.41c.36-.27.9-.15 1.97-.23zM757.73 282.09c-1.89.86-1 2.64-1.31 4a1.62 1.62 0 01-.44 0c-.85-.31-1.89-.3-2.12-1.55a2.13 2.13 0 011.08-2.4l4-2.6-1.32 2.71zM700.26 581.06a7.92 7.92 0 01-1.23 2 1.91 1.91 0 01-1.67.28 1.34 1.34 0 01-.56-2c.49-1.1 1.14-1.13 3.46-.28zM728.81 578.58a1.49 1.49 0 01-.07.47c-.56.93-.92 2.13-2.35 2a.84.84 0 01-.54-.65 2.73 2.73 0 011.6-2.68 1.09 1.09 0 01.9.1 2 2 0 01.46.76zM742 365.43c.41 1.7.86 3.39 1.19 5.1.06.34-.39.78-.6 1.17-.35-.23-1-.42-1-.68-.17-1.85-.22-3.7-.31-5.56zM771.06 249.43a22 22 0 013.72-6.43c1.12.34.67 1 .44 1.48a9.53 9.53 0 01-4.28 4.85zM786.28 258.29c-.07-.13-.22-.3-.19-.39.93-2.43 1.64-3.17 2.53-2.64a1.11 1.11 0 01.47.77c-.01 1.33-.21 1.51-2.81 2.26zM748.74 240.57c.93 3.08-1.13 5-2.81 7.57.31-3.72.53-4.24 2.91-7.45zM818 89.86c-.63 3.66-.63 3.66-3.21 4.61-.24-2.49 1.85-3.25 3.31-4.48zM750 510.8c.32.29 1 .62.92.87-.18 1.49-.51 3-.83 4.63-1.4-1-1.53-2.47-2-3.72l-.12.16a3 3 0 002.16-2.07zM710.17 548.96l4-1.7c.35 2.49.18 2.58-4 1.7zM708.77 580.53a13 13 0 01-2.12-1c-.26-.17-.25-.76-.37-1.16.42 0 .93-.2 1.24 0a14 14 0 011.79 1.38zM493.93 649.46c-1.69 2.07-4 2-6.36 1.72l6.38-1.74zM760.38 155.69c-.61-1.44-1.08-2.06-1.08-2.69 0-.45.61-.91 1-1.37.37.42 1 .82 1 1.25a11.82 11.82 0 01-.92 2.81zM784.83 253.4l4.11-3.6c0 1.8-.54 2.78-1.83 3.21a13.55 13.55 0 01-2.28.37zM785.23 471.33l-.9 1.08c-.33-.28-.86-.51-.92-.83s.39-.7.62-1.05c.35.24.65.43 1.2.8zM747 538.56l-2.43 3.16c-.23-1.76-.23-1.76 2.43-3.16zM734.13 512.78c-.06.74-.12 1.48-.18 2.34-1.02-.88-1.02-.88.18-2.34zM713.16 518.66c.41-1.68.65-2.67 2.63-2.71-.97 1.01-1.59 1.64-2.63 2.71zM813.22 97.39c.41 1.63.41 2.7-1.06 3.5-.61-1.51-.31-2.48 1.06-3.5zM707.92 537.07l.21-1.85 1.18.21-.73 1.81zM699 264.52c-.4.44-.63.89-1 1.06-.55.24-1.23-.53-1-1.16a1.5 1.5 0 011-.82c.26-.02.58.53 1 .92zM695.37 271.37a18.72 18.72 0 01.24-3.17 1.2 1.2 0 011.06-.46 1.24 1.24 0 01.51 1.08 15.7 15.7 0 01-1.81 2.55zM744 377.1c-1.19-.93-1.72-1.69-.14-3 .04 1.19.08 1.99.14 3zM737.29 543.58c-.52-.51-1-.77-1-1.07s.41-.64.65-1c.22.18.59.35.62.56a5.58 5.58 0 01-.27 1.51zM727.34 570.84c.34.3.7.47.7.66a.88.88 0 01-.45.68c-.21.09-.53-.12-.79-.19zM485 590.4a4.65 4.65 0 01-1.16-.68c-.62-.65-1.15-1.38-1.83-2.21 1.22-.29 1.56.54 2 1a9.32 9.32 0 01.93 2zM1010.68 595.74a7.65 7.65 0 011.15 1.9c.07.26-.41.65-.64 1-.24-.31-.61-.59-.69-.94a7.17 7.17 0 01.18-1.96zM744.53 184.76a5.62 5.62 0 01-1.31.56c-.19 0-.63-.43-.59-.5.15-.34.43-.87.66-.86a4.77 4.77 0 011.24.8zM743.54 253.68a1.26 1.26 0 01-.13-.43c0-.7-.41-1.53.63-1.84a.46.46 0 01.38.15c.72 1.2-.33 1.5-1 2zM737.76 559.88c.08.44.16.83.23 1.22-.25 0-.59.11-.73 0a.92.92 0 01-.24-.76c.03-.17.39-.26.74-.46zM744.35 547.15c-.26 0-.62 0-.74-.16s-.07-.52-.09-.8c.26 0 .62 0 .75.17s.06.52.08.79zM709.68 526.96c.21.19.52.34.59.57s-.1.55-.16.83c-.21-.2-.52-.37-.6-.61a1.24 1.24 0 01.17-.79zM752.9 526.84a6.41 6.41 0 01-.5-1.1c0-.06.49-.4.58-.34a1 1 0 01.43.68c.01.19-.26.4-.51.76zM738.46 904.34a16.49 16.49 0 01.86 1.51s-.56.44-.62.39a3.18 3.18 0 01-.79-1c-.06-.11.25-.41.55-.9zM750.1 510.67a4.4 4.4 0 01-2.85-2.89l-.12.12a3.44 3.44 0 012.85 2.89zM64.5 507.19a5.64 5.64 0 01.53 1c0 .06-.6.46-.71.39a4.32 4.32 0 01-.75-.9zM766.27 506.96c-1.45-.63-2.24-1.56-1.36-3.73.58 1.5 1.68 2.34 1.24 3.84zM744.62 391.35l1.48 1.34-.36.54-2.26-1.15 1.11-.71zM628.24 378.19a3.33 3.33 0 01-.87-.25 3.7 3.7 0 01-.77-.76 1.31 1.31 0 01.25-.32 4 4 0 01.9.63 3 3 0 01.36.82zM797.41 179.8a6.1 6.1 0 01-.34-1.75c0-.31.57-.57.88-.86.17.37.57.85.46 1.09a7 7 0 01-1.14 1.41zM696.91 293.55a7.46 7.46 0 01-1.1.63c-.07 0-.52-.59-.46-.68a2.5 2.5 0 01.91-.73c.06-.03.36.42.65.78zM719.15 305.81c-.17-.38-.39-.65-.34-.84a1.34 1.34 0 01.56-.7c.09-.06.4.23.6.36zM723.29 320.52a3.66 3.66 0 01-1.33-.44c-.26-.23-.26-.77-.35-1.17 0 0 .29-.21.36-.17a1.75 1.75 0 01.71.55 8 8 0 01.48 1.35zM723.9 541.19c-.1-.08-.3-.22-.29-.24a5.27 5.27 0 01.43-.62c.1.09.3.23.29.25a5.16 5.16 0 01-.43.61zM700.21 550.29l-.75.19c0-.14-.09-.39 0-.4a4.68 4.68 0 01.73-.21zM539 1102.79c-.12 0-.3.13-.32.1M537.83 1108.96l.34.09-.12.35-.5-.18zM833 63.77c-.07-.11-.22-.29-.2-.31a7.17 7.17 0 01.58-.52 2.18 2.18 0 01.22.31c-.24.19-.45.35-.6.52zM18.84 247.37v-2.59l.49.06c-.16.85-.33 1.69-.5 2.56-.02.02.01-.03.01-.03zM720.92 301.27c-.1-.1-.32-.25-.3-.29a7.15 7.15 0 01.44-.76l.55.49zM717.68 473.85c.35.3.81.55 1 .94s-.07.76-.12 1.15c-.38-.14-1.08-.26-1.08-.41a7.2 7.2 0 01.29-1.78zM717 496.55l.86.44a6.57 6.57 0 01-.73 1c-.07.06-.67-.3-.65-.34a7.37 7.37 0 01.52-1.1zM747.25 507.78a6 6 0 01-.82-.36c-.12-.06-.18-.21-.27-.33.19 0 .49-.08.57 0a3.91 3.91 0 01.4.79zM746.15 515.05l-.21.17a8.22 8.22 0 01.61.57l-.15.32c-.09-.35-.17-.7-.25-1.06zM707.01 589.36l-.24.27-.12-.33.36.06zM555.68 689.37c-.3.24-.51.55-.67.53a1.1 1.1 0 01-.73-.47c-.09-.19.12-.52.19-.79zM564.86 701.63l-.55.54-.28.28a.54.54 0 01.17-.39 5.28 5.28 0 01.76-.36zM494 649.44h1.66v.23l-1.65-.22zM313.4 613l.04.35-.31-.16.27-.19zM668.5 592.24l.29.23-.35.15.06-.38zM1018.48 590.9l.24.19-.31.14.07-.33zM676.3 588.57l-.29.16.39-.08zM994.38 584.23l-1.73.1.09-.49 1.51.46zM305.27 582.27l.27.22-.33.14.06-.36zM727.71 567.63l-.03-.33.29.15-.26.18zM702.68 554.19l.2.63c0 .14-.07-.24-.18-.62z"/><path d="M702.68 554.2l-1.47.58v-.15l1.5-.44zM741.68 524.32l-.74.34c-.13.06-.24.13-.36.2.12-.15.21-.39.36-.44a3 3 0 01.84 0zM711.93 521.95l-.18.22-.11-.28.29.06zM730.45 515.89c-.07-.27-.13-.53-.19-.8s0-.27-.06-.41c.09.14.24.26.25.41s0 .55 0 .82zM716.55 506.57c.27.34.55.67.8 1 .07.1 0 .27 0 .4-.21-.07-.57-.1-.61-.23a7.42 7.42 0 01-.15-1.32zM762 507.38c-.11-.69-.23-1.37-.34-2.06h.52c-.09.65-.17 1.29-.24 1.95zM716.29 501.96c1.54 1.13 1.54 1.19 0 2l.15.1v-2.1zM160.2 470.34l-.11.38c-.1-.06-.3-.14-.3-.17a3.39 3.39 0 01.2-.53zM718.75 458.36c-.1-.54-.21-1.08-.38-1.93 1.09.8.32 1.28.27 1.82zM722.15 395.45l-.55 1.08-.47-.56 1.15-.39zM744.59 391.37v-1.61 1.61zM673.2 877.27l.2-.25.13.3-.33-.05zM682.06 309.41l-.21-.17.26-.11-.05.28zM770.94 249.31a2.72 2.72 0 010 .9c-.06.15-.43.17-.65.24 0-.15 0-.34.1-.43a7.69 7.69 0 01.7-.58zM810.2 218.5a6.84 6.84 0 010 1.28c0 .12-.42.17-.64.25 0-.13-.12-.31-.06-.38.25-.36.55-.68.82-1zM817.54 207.12l1.67-.89.18.4-1.84.48zM834.86 60.24v.41l-.33-.15.33-.26zM532.22 1113.72l-.17-.41.33-.12c-.05.15-.09.31-.16.53zM913 5.48a7 7 0 01.76-.29l.21.21h-1zM757.38 100.96c-.12 0-.3.12-.33.09a1.09 1.09 0 01-.14-.38c.12 0 .3-.13.33-.09a1.09 1.09 0 01.14.38zM833.68 114.51l.15-.8v.3a3.11 3.11 0 01-.25.38zM767.53 172.27l1.15-.14v.05l-1.12.11zM765.3 287.89c-.14.41-.29.81-.43 1.22l-.42-1.22-.13.12h1.11zM678.53 315.3v-.81a4.34 4.34 0 01-.06.87l.06-.06zM256.25 383.99l-.18.28-.12-.32.3.04zM738.11 395.2l-.36-.15.53-.23zM47 422.96l-.64.11c.1 0 .21.08.3.05a1 1 0 00.3-.24zM142.83 425.89l.11.36-.28-.05.17-.31zM145 430.29l-.08-.75a1.26 1.26 0 01.15.38 1.2 1.2 0 01-.15.45zM764.09 497.6l-.27.25c0-.11-.16-.24-.14-.34s.17-.19.26-.28zM730.41 515.96l-.81-.17.84.15zM6.33 517.17H5.5l.71.1zM707.63 524.51l.27-.09-.05.26-.22-.17zM695.19 556.78c.85.31.84.61 0 .92l.15.1v-1.12zM472.8 581.34zM472.78 581.32l.79-.28a.91.91 0 00.43-.08c-.13.09-.24.23-.38.26a7 7 0 01-.8.11zM974.4 589.83a3.91 3.91 0 00-.83.15 2.09 2.09 0 00-.41.17 1.87 1.87 0 01.39-.22c.27-.06.55-.09.82-.14zM661.25 605.13l.15.7a6.46 6.46 0 00-.16-.65.09.09 0 01.01-.05zM536.3 618.83l.24-.63c-.1.09-.25.18-.27.28s.09.26.13.4zM.05 649.38l.05.76c0-.1.12-.21.1-.29a1.65 1.65 0 00-.2-.37zM752.29 706.78a8.2 8.2 0 01-6.21.17 5.92 5.92 0 015-1.78c.92.07 1 1 1 1.84zM613.17 575.41l.49-.55a3.73 3.73 0 01.3.64c0 .07-.22.3-.25.28a4 4 0 01-.54-.37zM563.56 560.28l.61 1.06c-.27.1-.57.34-.78.27a.88.88 0 01-.48-.67c-.01-.18.35-.37.65-.66zM580.68 575.71a6.37 6.37 0 01.41.72s-.27.27-.34.24a3 3 0 01-.69-.42zM617.09 577.2l-.17.35c-.11-.08-.31-.2-.3-.23a3.12 3.12 0 01.31-.49zM541.17 611.37a2.51 2.51 0 01-.67 0c-.08 0-.2-.31-.18-.33a6.3 6.3 0 01.53-.37zM607.53 743.28a2.22 2.22 0 01-.09-.37c.12 0 .27-.1.36 0M763.12 723.24c.06-.19.12-.39.21-.66M541.77 616.83a4.89 4.89 0 01-.84-.8c-.06-.09.24-.43.38-.65.11.1.28.18.31.29.09.42.14.86.2 1.29zM66.28 611.96l-1.77.26v-.17l1.77-.13zM540.08 607.8l-.14-.42.48-.14a1.19 1.19 0 010 .46c-.05.06-.23.07-.34.1zM613.51 578.63l.33.25a4.65 4.65 0 01-.45.53l-.33-.23zM581.36 567.79l-.39.09v-.6c.13 0 .29.06.37.15s0 .24.02.36zM564.85 566.35l-.77.39c-.1-.28-.34-.59-.28-.82s.47-.25.73-.37a5.34 5.34 0 01.32.8zM706.91 502.86l.91 1.68-1.15.24.12.12c.08-.72.15-1.43.23-2.14zM645.73 352.56l.7-.09c-.1 0-.21-.07-.3 0a1.22 1.22 0 00-.35.2zM635.35 366.3zM717.77 434.61l.26.11-.36.21zM731.17 435.49l-.22-.3.51-.23c0 .13.1.28 0 .38s-.17.1-.29.15zM572 487.96h.34-.34zM572 487.96c0 .27.11.54.16.8-.07-.25-.13-.51-.19-.77zM716.44 501.96v2.14"/><path d="M695.34 556.68v1.12l-.66-.74zM573.29 558.08l.29.17-.32.11.03-.28zM582.35 562.5c.09 0 .26.06.26.1a.9.9 0 01-.09.33c-.09 0-.27-.06-.27-.09a1 1 0 01.1-.34zM560.95 562.83v.26l-.27-.13.27-.13zM594.76 564.79l-.12.34a.85.85 0 01-.37-.15s.07-.22.1-.33zM584 566.9a2.17 2.17 0 01-.42.11.46.46 0 00-.08-.26zM571 569.65l-.23-.34.51-.28c0 .14.09.3 0 .42a.66.66 0 01-.28.2zM572.76 568.62l.36-.13.07.57a.5.5 0 01-.38-.1c-.09-.1-.03-.22-.05-.34zM584.39 568.73c0 .11.16.24.14.34s-.15.19-.24.28c0-.12-.16-.24-.15-.34s.16-.19.25-.28zM595.39 577.21l.27.17-.3.12.03-.29zM585 583.22l-.11-.14-2 .5.08.14c.46-1.08 1.24-.88 2.03-.5zM646.8 582.13l.31.8a1.12 1.12 0 01-.16-.28c0-.14-.08-.29-.11-.44a.2.2 0 01-.04-.08zM591.81 615.96l-.11.63a1 1 0 00.13-.32 1.42 1.42 0 00-.08-.41zM541.82 616.96a1 1 0 00-.22.38c0 .08.12.19.19.29v-.79zM13.85 631.21l-.32.2-.26-.44a.81.81 0 01.38 0c.08-.01.13.14.2.24zM718.25 640.17c.37.71.73 1.42 1.09 2.13-.34-.71-.72-1.42-1.09-2.13zM554 662.65c-.13-.25-.27-.48-.37-.73a.84.84 0 01.14-.26c0 .36.11.72.15 1.1zM687.23 694.92l-.19.35-.13-.38.32.03zM676.4 760l.31.01-.17.3-.14-.31zM78.71 427.51l.33.16-.35.13.02-.29zM245 512.12a2.93 2.93 0 01-1.45 3.42c-.29-1.58.45-2.39 1.45-3.42zM240.68 511.14a3.55 3.55 0 011 .66c.08.1-.29.56-.45.85a8.07 8.07 0 01-1-.74c-.06-.05.24-.44.45-.77zM569.42 631.63a21.09 21.09 0 00-1.75 2.73 11 11 0 01-6.4 6.3c-.49 1.16-.9 2.13-1.3 3.06a2.37 2.37 0 01-1.76-2.85v-.15c.21-.59.74-1 .26-1.7l4.31-1.38c.4-2.58-.57-5.43 1.07-8.1.54-.87 0-2.42-.09-3.67l-.12.13 1.52-.77c.9 2.64 2.78 4.5 4.34 6.56z"/><path d="M563.84 625.96a5.39 5.39 0 00-4.5-3.71 38.46 38.46 0 01-5.07-1.19c-.75-.24-1.21-1-.41-2.13 4.06.56 8.16 2.14 12.48 1.11 2.74 2.58 3 6.35 5 9.19.47.68.32 1.8.49 3l-2.44-.52.15.13c.06-3.43-1.51-6.22-3.15-9-2.56.88-2.56.88-2.71 3.18zM545.43 595.67a5.89 5.89 0 01-2.5-5.31c.06-3.3-.15-6.54.58-9.86s.62-6.88.91-10.33c0-.25.31-.47.5-.72 1.42.11 1.44 1.35 1.18 2.09-.68 1.86-.33 3.82-.77 5.62-.77 3.17-.49 6.34-.64 9.51a39.55 39.55 0 00.41 4.73c.11 1.41.14 2.83.23 4.25z"/><path d="M552.75 623.23c.73.29 1.59.61 2.42 1a7 7 0 004.58.79 1.91 1.91 0 011.57.56 1.4 1.4 0 01-.16 2l-.14.11a4.27 4.27 0 01-1 .56c-2.57-.9-4.94-1.64-7.24-2.57-1.02-.49-1.24-1.37-.03-2.45zM557 645.96a22 22 0 01-3.52-10.13c1-.45 1.47.43 1.68 1 1.07 3 2.07 6 1.71 9.24zM622.61 690.96c-2.65-.52-2.65-.52-2.76-3.75 1.54.93 1.81 2.59 2.62 3.87zM572.34 625.96l2.37-1 1.12 3.8a27.43 27.43 0 01-3.19-1.64c-.25-.17-.13-.87-.18-1.33zM582.92 582.96l2-.49c.1 1 .21 2 .35 3.4-1.88-.42-2.01-1.71-2.35-2.91zM668.62 705.11c.92.85 1.78 1.26 1 2.51-.33-.81-.62-1.46-1-2.51zM560.22 613.64a8.58 8.58 0 011-1.46 1.86 1.86 0 01.73-.17 3.28 3.28 0 01-.27.38c-.26.25-.55.48-1.46 1.25zM547.91 566.43c-.41-.51-.86-.83-.84-1.11s.51-.57.84-.73c.1 0 .6.37.58.52a5.76 5.76 0 01-.58 1.32zM587.85 584.36l.13.34c-.12 0-.26.15-.34.11s-.09-.22-.14-.33zM556.89 646.1a13.68 13.68 0 011.28 1.12c.06.07-.19.44-.33.65 0 0-.35-.06-.38-.15-.17-.57-.29-1.16-.43-1.74zM618 651.07c.19.7.38 1.4.55 2.06-1.25-.27-.37-1.36-.57-2.08zM666.43 700.77l-.27.25a4.55 4.55 0 01-.3-.72c0-.06.13-.18.21-.26zM671 711.11h-.27v-.86h.3a8.43 8.43 0 00-.03.86zM566.34 607.56l-.39-.41c.29-.27.58-.55.88-.81a1.72 1.72 0 01.27.27c-.23.35-.49.62-.76.95zM592.94 589.05zM592.92 589.08l-.12-1.74h.2v1.71zM572.73 579.96h.38a1.09 1.09 0 010 .44h-.38a.87.87 0 010-.44zM551.31 563.36c.22.22.46.42.67.65a2.17 2.17 0 01.19.41c-.2-.08-.51-.11-.59-.25a3.5 3.5 0 01-.18-.91zM554.25 561.44c.24.17.56.3.7.53s0 .48-.08.73c-.21-.17-.53-.29-.6-.5a2.15 2.15 0 01.1-.87zM595.24 538.08c-.08.11-.15.27-.26.32s-.2-.12-.31-.2l.4-.5zM565.17 572.57l-1.16-.16c.12-.06.26-.2.35-.17a6.66 6.66 0 01.86.39zM567.79 579.45l-.36-.2.38-.14-.02.34zM576.83 587.96l-.79.13.76-.16zM578.68 627.27l.26.89c-.07-.1-.17-.19-.18-.3s0-.3 0-.48a.44.44 0 01-.08-.11zM561.23 631.55l.29.01-.14.34-.15-.35zM558.51 638.96l.18-.79a6.12 6.12 0 01-.14.82zM557.47 651.17l-.15.65c.06-.1.18-.2.18-.3M623.7 659.63l-.09-.35.26.06-.17.29zM645.87 671.25l-.18 1 .15-1zM699.98 426.53v.24l-.28-.11.28-.13zM675 447.96c-.24.08-.54.28-.71.2a.7.7 0 01-.24-.65c.11-.17.45-.21.69-.3zM682.85 412.6c-.56.2-1 .43-1 .36a16.73 16.73 0 01-.89-1.46c.35-.14.9-.48 1-.38a8 8 0 01.89 1.48zM676.53 394.4h-.34l.1-.28.24.28zM616.33 409.23l-.61.9a12.49 12.49 0 01-1.12-1.17c-.07-.1.19-.64.35-.67.6-.11 1.24-.1 1.38.94zM628.42 413.46a2.58 2.58 0 01-.92.05c-.17-.05-.26-.38-.39-.58a1.32 1.32 0 01.44.08c.26.17.49.38.75.56zM610.49 494.15l-.22.27c-.07-.1-.18-.2-.18-.29s.13-.19.21-.28zM591.27 481.41a4.3 4.3 0 01.08.88c0 .19-.18.37-.28.55a2.23 2.23 0 01.1-.43c.06-.3.11-.59.15-.89a.37.37 0 01-.05-.11zM642.57 605.29c.13-.2.27-.39.4-.58.11.1.31.2.32.31M638.19 606.11l.79-.21c-.09.06-.17.15-.26.16h-.42zM641.44 717.39c1.68 1 3.08 1.7 4.41 2.55a9 9 0 014.22 8.91 5.78 5.78 0 01-8.78 4.61 49.24 49.24 0 01-5.77-4.18 4.63 4.63 0 01-1.48-5.17 8.41 8.41 0 012.9-4.8c1.3-1 3.06-1.35 4.5-1.92zM645.17 501.96l-.17.36a2.78 2.78 0 01-.3-.53 1.24 1.24 0 01.14-.33zM638.14 498.61l-.27.77c.08-.26.17-.53.26-.81zM775.64 604.03l.17-.21.1.26-.27-.05zM84.26 254.57c2.91 0 4.72 1.39 5.88 4a12 12 0 003.86 4.77c4.9 3.67 8.71 8.45 12.8 12.92 1.71 1.87 3.07 4.11 2.69 6.92a5 5 0 00.06.95c.27 2.59.88 3.59 3.35 4a48.07 48.07 0 019.59 3c1.77.68 3.42 1.65 5.15 2.43a9.07 9.07 0 002.21.66 16.48 16.48 0 017.29 3.37c4.46 3.33 9 6.62 13.43 9.91.38.28 1 .33 1.24.67 2.66 4.37 7.45 4.27 11.77 5.88.25-2-1-3.22-1.23-4.76s-1-3.07-1.13-4.63-1.68-2.63-.87-4.25c1.59.25 1.17 1.5 1.56 2.26 2 3.88 5.24 6.78 7.84 10.18 2.78 1.1 4.46 3.51 6.6 5.38.47.41 9.66-2.39 10.25-2.18 4.15 1.55-.27 6.15 3.87 7.7 1.47.55 3.11.92 3.74 2.66 2.28 1 4.53 2.08 6.86 2.95a9.3 9.3 0 003.31.45c5.4-.08 10.8-.25 16.38-.39-.14.49-.3 1.14-.52 1.76-.3.87-.63 1.74-1 2.58s-.69 1.4-1.08 2.17c-1.78 0-3.51-.05-5.25 0-2.11.08-4.26-1.24-6.32.21a34.66 34.66 0 01-4.14-1c-2.83-1.05-5.61-2.26-8.38-3.39-6.1 2-11 .19-14.86-4.65a8.7 8.7 0 00-4.23-3l-16.7-5.47c-3.17 2.27-7.18 3.27-11.13 4.45-1.83.55-3.61 1.28-5.42 1.91a9.65 9.65 0 01-2.73.86c-5.08.21-9 3.1-13 5.58-6 3.61-10.53 8.77-15.43 13.55-1.9 1.86-2.87 4.7-4.82 6.49a21.82 21.82 0 00-4.64 5.95c-.21.42-.43.83-1 1.89a11.67 11.67 0 01-.93-2.49c-.15-2.67.3-5.32.32-8a58.89 58.89 0 01.79-7.49 35 35 0 011.46-6.79c2.12-6.11 6.38-9.73 12.76-11 4.07-.78 8.06-2 12.15-2.62 7.07-1.08 14.11-2.66 21.36-2.06a10.08 10.08 0 005.88-1.12c.27-1.12-.25-2-1-2-1.43.08-2.28-.73-3.37-1.34-2.06-1.17-4.29-2-6.43-3.09-1.58-.77-3.11-1.66-4.71-2.38-1.06-.48-1.53-1.37-2.23-2.2-2.43-2.86-4.8-6-9.09-6.31-.3 0-.76 0-.88-.23-2-3.24-5.81-3-8.73-4.39s-5.65-2.95-8.9-3.38a13.78 13.78 0 01-3.07-1.29c-3.71-1.49-7.37-3.11-11.15-4.38a13.27 13.27 0 01-6.37-4 4.72 4.72 0 00-3.14-2 3.25 3.25 0 01-1.78-.6c-1.53-1.49-3.76-1.57-5.36-2.79a20.19 20.19 0 01-3-3.06 23.7 23.7 0 00-6.08-5.34 16.68 16.68 0 01-4-3.44c-2.54-2.88-4.92-5.88-7.35-8.85-.17-.21-.15-.58-.22-.88 1.2-.79 2.24-.06 3.09.54 3 2.13 6 4.29 8.8 6.62 5.79 4.77 11.48 9.66 17.22 14.49a10.17 10.17 0 005.12 2.4c2.3.37 4.45 1.56 7.34 1.85-2-5.11-4.94-9.27-7.09-13.8s-4.8-9-7.22-13.47z"/></svg>