<svg id="Layer_1" data-name="Layer 1" xmlns="http://www.w3.org/2000/svg" viewBox="0 0 389.05 123.71">
  <defs>
    <style>
    
    </style>
  </defs>
  <title>bitoffood-underlined</title>
  <g>
    <g>
      <path d="M63.35,66.24c.52,0,1.31.58,2.39,1.76h1.59q1,0,2.31,1.59a3.63,3.63,0,0,0,1.23.72c.55.23.83.47.83.69,0,0-.07.31-.22.83q-.26,1.29-.61,5.69h0q0,2.52,2.12,22.4.38,3.19.9,8.36a26.21,26.21,0,0,1,.36,3.54c0,1-.24,1.59-.76,1.59a8.89,8.89,0,0,1-2.48-.9c-.39-.27-1.1-.77-2.13-1.52a1.17,1.17,0,0,1-.73-.61,12.24,12.24,0,0,1-.72-1.66,14.27,14.27,0,0,1-.69-4.1,6.76,6.76,0,0,1,.26-1.84v.11a2.17,2.17,0,0,1,1-.72v-.07c-.7-.37-.67-.7-.64-1a1.82,1.82,0,0,0,.14-.83,2.07,2.07,0,0,0-.32-.93,1.5,1.5,0,0,1-.15-.55,1.11,1.11,0,0,0,.15-.43,13.6,13.6,0,0,1-.62-1.76c-.1-.09-.23-.13-.36.43H66a15.81,15.81,0,0,0-6.57,1.25,31.69,31.69,0,0,1-4.29,1.19c-.49.13-1.52.56-1.52.56H52.39q-2.88,6-4.26,9.29c-.65,1.61-1.17,3-1.55,4.25a10.62,10.62,0,0,0-.58,3.31V117a20.07,20.07,0,0,0,.11,2.2c0,.15-.06.22-.18.22a7.55,7.55,0,0,1-3-1.65,16.61,16.61,0,0,0-1.45-1,3.92,3.92,0,0,1-.44-1.88v-.22a20,20,0,0,1,1.69-6.38c.27-.78.75-2.25,1.45-4.38s1.57-4.25,2.33-6.16A4,4,0,0,1,45.12,95a6.3,6.3,0,0,1,1-3,2,2,0,0,1,.53,1,1.84,1.84,0,0,0,.55.68,1.51,1.51,0,0,0,.85.41,160.44,160.44,0,0,1,7.36-15Q58.2,74,61.15,68.32C62.06,66.86,62.78,66.24,63.35,66.24ZM46.11,111.88a2.3,2.3,0,0,0,.07.58,2,2,0,0,0,.69-1.52c0-.2,0-.41-.07-.61h0A2.17,2.17,0,0,0,46.11,111.88Zm3.22-7.29A7,7,0,0,0,48,107.84v.25c0,.2,0,.41,0,.62a6,6,0,0,0,1.29-3.79Zm.35-1.29ZM50,103v.18h0a37.22,37.22,0,0,0,2.51-4.33c.33-.74.67-1.62,1-2.63a10.94,10.94,0,0,0-2.17,3.5c-.33.64-.67,1.25-1,1.8A3.78,3.78,0,0,0,50,103Zm3.29-7a.24.24,0,0,0,0,.12l.08-.07Zm.21,0h0a1,1,0,0,0,.5-.93V95a1.48,1.48,0,0,0-.43,1ZM64,80.21a27.65,27.65,0,0,0-1.76,3.14Q60.18,87.6,57,93.26h0a13.31,13.31,0,0,0,2-.68c1.49-.66,3.54-1.51,6.11-2.6-.59-4.28-1-7.51-1.16-9.7Zm-4.07,3.21A30.59,30.59,0,0,0,63,78.29c.27-.55.52-1.17.79-1.83a11.08,11.08,0,0,0-1.62,2.05,21.14,21.14,0,0,0-1,2l-.75,1.2A3.77,3.77,0,0,0,59.93,83.42ZM70.14,80.5A10.67,10.67,0,0,0,70,82.09v.22a3.51,3.51,0,0,0,.47,2l.22.4h0a7.41,7.41,0,0,0,.23-1.41A6.34,6.34,0,0,0,70.14,80.5ZM70,86.78v.07a4.27,4.27,0,0,1,.66,1.29A10.16,10.16,0,0,0,71,89.62V91a18.07,18.07,0,0,0,.22,4.22l.47,5.27a44.1,44.1,0,0,0,.79,5.48,6.41,6.41,0,0,0,.94,1.84h0c-.43-1.9-.83-4.42-1.22-7.57q-.28-2.06-.54-6,0-1.78-.58-7.47c-.17-.36-.38-.55-.61-.55A3.08,3.08,0,0,1,70,86.78Z" transform="translate(-36.95 -50)"/>
      <path d="M116.13,59.83c1.89,0,4.72.74,8.44,2.23a12.66,12.66,0,0,1,2.34,1.48,18.81,18.81,0,0,1,2.24,2.31,13.64,13.64,0,0,1,.36,2.2,1.21,1.21,0,0,1,.32.76h0c-.28-.41-.49-.61-.61-.61l-.1.07a.11.11,0,0,0,0,.11,1,1,0,0,1-.12.25v.07l1,1.66v.19s-1,2.47-1.31,3.67a9.69,9.69,0,0,1-1.12,2.42,5.86,5.86,0,0,0-.57,1.62v.32a11.47,11.47,0,0,0,1.24-1.84c.1-.23.35-.73.76-1.5a11,11,0,0,0,.55-1.74,2.58,2.58,0,0,0,.32-1c.14-1.09.28-2,.43-2.6a.41.41,0,0,0,.07-.29h0a3.06,3.06,0,0,1,.72,2.17,12.62,12.62,0,0,1-.62,3.5,46.41,46.41,0,0,1-4.9,8.72A35.28,35.28,0,0,1,123,87.21c-.38.41-.61.61-.69.61s-.1,0-.1.08h0a1.28,1.28,0,0,1,.18.54,5.16,5.16,0,0,1,.61.43,6.73,6.73,0,0,1,.62.79,4.93,4.93,0,0,1,1,1.12c.06.41.12.62.19.62.38.53,1.11,1.62,2.16,3.28a2.48,2.48,0,0,1,.62,1,3.53,3.53,0,0,0,.36,1.08,1.92,1.92,0,0,0,1,.65,7.65,7.65,0,0,1,0,1.91v.43a16,16,0,0,1-2.13,7.45,21.72,21.72,0,0,1-2.15,3.16c-.29.36-1,1-2,2.13l-1.36,1.11a51.5,51.5,0,0,1-5,3.49,40.78,40.78,0,0,1-6.43,3.16,15.47,15.47,0,0,1-2.66.83,13.88,13.88,0,0,1-1.8.33,5.47,5.47,0,0,1-.69-1.16l-.07-.21a5.15,5.15,0,0,0-.79.68,5.63,5.63,0,0,0-.79.83,7.33,7.33,0,0,1-3.85-1,4.46,4.46,0,0,1-1.51-1.66,9.19,9.19,0,0,1-.68-2,7.76,7.76,0,0,1,.68-1.56,1.51,1.51,0,0,0,.32-.43v-.18h0a6.15,6.15,0,0,0,1.39.47c.42.07.87.13,1.34.17a18.3,18.3,0,0,0,5.46-1.58,53.42,53.42,0,0,0,7.23-3.78c.8-.54,1.6-1.14,2.41-1.81a24.09,24.09,0,0,0,2.09-2.52,21.25,21.25,0,0,0,1.66-2.74A11.12,11.12,0,0,0,121,98.09v-.35a5.07,5.07,0,0,0-2-4,10.28,10.28,0,0,0-1.13-.72.71.71,0,0,0,0-.29,3.11,3.11,0,0,0-1.24-.43,2.49,2.49,0,0,0-.72.14,1.28,1.28,0,0,1-.14-.43h.59s.11-.06-.41-.13V91.8c.52-.1.52-.16.41-.18s-.15.07-.41.22V93h-.19c-.16-1-.32-1-.47-1a2,2,0,0,0-.4-.11,2.88,2.88,0,0,1-.87.29,20.64,20.64,0,0,0-2.59,1.26l-.43.58h-.26a5.08,5.08,0,0,0-1.62.21,3,3,0,0,1-.58.18.21.21,0,0,1,.08-.14h0c-.22.07-.55.2-1,.39-.19,0-.29,0-.29.14q-3.07,9.85-3.07,12.49a6.67,6.67,0,0,0,.28,1.52,5.58,5.58,0,0,1,.15,1.22c0,.6-.09.9-.25.9a5.28,5.28,0,0,1-.69.29,14.41,14.41,0,0,1-1.59-1.81q-2.7-3.67-2.7-6a78,78,0,0,1,1.34-11.29c.23-1.22.49-2.28.75-3.21q1-1.18,1-1.47h0c0-.18-.16-.36-.5-.58,0-.19.65-2.53,1.81-7,1.25-4.8,1.87-7.28,1.87-7.42a20.83,20.83,0,0,1,1-4.41,4.32,4.32,0,0,0,.36-.67,35.49,35.49,0,0,1,3.6-4.59,13.42,13.42,0,0,1,.83-1.15l.46-.26h0v0c-.13,0-.13.08-.13.12a5,5,0,0,1,.79-.8,2.19,2.19,0,0,1,.9-.39A9.32,9.32,0,0,1,116.13,59.83Zm-13.5,27.89a4,4,0,0,1,1,1.45c.12.5.26.76.4.76a.62.62,0,0,0,.33.07h.07c.14,0,.23-.28.25-.83l.33-3.64c0-.54-.13-.79-.29-.79s-.1-.08-.22-.08a1.63,1.63,0,0,0-.58.87,3,3,0,0,1-.36,1.36A5.84,5.84,0,0,1,102.63,87.72Zm3.54,3.49a31.5,31.5,0,0,0-1.59,4.62c-.16.7-.4,1.8-.72,3.31l-.69,2.64a9.91,9.91,0,0,0-.17,1.81v1.12h0a74.52,74.52,0,0,0,2.52-10c.2-.91.38-2,.58-3.43Zm-1.33,28.85h0q3.18,0,11.4-4.17a1,1,0,0,0,.62-.47.74.74,0,0,1,.07-.36,72.41,72.41,0,0,0-7.07,2.77c-1,.46-2.17.87-3.24,1.23A7.41,7.41,0,0,0,104.84,120.06Zm2.64-31.7a3.63,3.63,0,0,0-.3,1.37,6,6,0,0,0,.11.84,4.52,4.52,0,0,0,.36-1.74A.68.68,0,0,0,107.48,88.36Zm.1-2.36c0,.19.08.29.26.29s.18-.13.21-.36a.63.63,0,0,0-.14-.4c-.22,0-.31.15-.31.47Zm1.55-4.74a7,7,0,0,1-.36.9,1.92,1.92,0,0,1-.77,1.26v.94h0a1.73,1.73,0,0,0,1-2v-.22A1.08,1.08,0,0,0,109.13,81.26Zm3-3.75.14-.14h0l.07.68a5.7,5.7,0,0,1-.17.9,2.24,2.24,0,0,1-.14.58v.08a.67.67,0,0,0,.1.31,4.15,4.15,0,0,1-.38,1.24,2.79,2.79,0,0,0-.4.61,5.76,5.76,0,0,1-.11.93,3.47,3.47,0,0,1-.31,1.91,4.12,4.12,0,0,1-.75,1h0a29.57,29.57,0,0,0,5-1.41A7.87,7.87,0,0,0,117.44,83a19.33,19.33,0,0,0,1.7-1.8,42.1,42.1,0,0,0,3-4.58c1-1.86,1.8-3.08,2.2-3.71a3,3,0,0,1,.64-.73v-1a6.33,6.33,0,0,0-1.58-4,15,15,0,0,0-2-1.8c-.5-.38-1-.73-1.5-1h0a4.21,4.21,0,0,1-1.67-.36h-.14a3.09,3.09,0,0,0-1.81.8c0,.16,0,.28-.14.32a4.58,4.58,0,0,0-.4.94,2.1,2.1,0,0,1-.49.58,6.13,6.13,0,0,0-1,1.73,4,4,0,0,0-.49,1.44c0,.55-.56,3.11-1.65,7.7Zm-1.45-1.77a6.82,6.82,0,0,0-.65,2.7v.4h0a7.73,7.73,0,0,0,1.36-4.33,5.19,5.19,0,0,0-.71,1.23Zm1.35-4.1.07.64a1.93,1.93,0,0,0,.65-1.44.35.35,0,0,0-.22-.14c-.26,0-.43.25-.5.75Zm.07,6.36h0a.07.07,0,0,1-.07.07V78Zm3.7,36.45a4.17,4.17,0,0,0,1.4-1l.55-.68h0a2.77,2.77,0,0,0-.9.43,3.26,3.26,0,0,0-1,1.19.17.17,0,0,0,0,.12Zm2.23,0c0,.22.07.33.22.33a1.72,1.72,0,0,0,.5-.54l.07-.19c0-.07-.12-.1-.29-.1a.92.92,0,0,0-.5.43Zm-.14-1.84a6,6,0,0,0,2.31-2.45,2,2,0,0,0,.21-.47A6.93,6.93,0,0,0,117.86,112.61Zm10.14-11a20.64,20.64,0,0,1-1.48,3.07,31.85,31.85,0,0,1-2.56,3.54q-1.2,1.48-3.93,4.36l-.83,1q2.73-.95,6.06-5.52a15.15,15.15,0,0,0,2.67-5.63,8,8,0,0,0,.07-.83Zm-7,6.78a2.11,2.11,0,0,0-.72,1,1.55,1.55,0,0,0,1-.71.11.11,0,0,1,0-.08c0-.15-.06-.24-.23-.24Zm0-20.68v.08a.54.54,0,0,0,.33.15c0-.06.06-.12.67-.19v-.11c-.6-.09-.6-.14-.67.32h-.08c-.08-.44-.11-.37-.25-.26Zm1-2.48v.1a1.73,1.73,0,0,1,.39.15h0c.07,0,.11-.1-.44-.18v-.07c.55-.14.55-.21.48-.21a1.75,1.75,0,0,0-.48.2Zm2-2.16h0c-.14.11-.28.22-.43.32a2.08,2.08,0,0,0-.4.65.23.23,0,0,0,.22.26.79.79,0,0,0,.51-.47,5.3,5.3,0,0,0,.28-.65,2.52,2.52,0,0,0,.91-1,15.57,15.57,0,0,0,1.48-2.41c.26-.58.45-1,.57-1.19A2.74,2.74,0,0,0,126,79.93a15.24,15.24,0,0,1-1,1.4,2.6,2.6,0,0,0-.9,1.19,1.88,1.88,0,0,0-.06.58Z" transform="translate(-36.95 -50)"/>
      <path d="M135.31,73h.1a14.28,14.28,0,0,1,3.61.51c.35.12,1.07.49,1.07.49h.68a1.08,1.08,0,0,1,1.15.75,1.89,1.89,0,0,1,.08.53v.19a9.46,9.46,0,0,1-.31,1.83c0,.32-.11,1.34-.35,3q-.5,3.22-.69,4.68l-.19.36a.54.54,0,0,1-.35-.47c.08-.21.27-1.18.58-2.91a5.23,5.23,0,0,0,0-.56,25.21,25.21,0,0,0-.6,2.74,8.69,8.69,0,0,0-.09,1.26v1a8.22,8.22,0,0,1-.62,2.62,20.43,20.43,0,0,0-.58,2.43,46.94,46.94,0,0,0-1.18,6.85l-.13,3.87c0,1.48.18,2.36.54,2.67a.86.86,0,0,1,.23.49c0,.39-.33.61-1,.68h-.37a2.83,2.83,0,0,1-1,.08c-.4-1.08-.6-2.21-.92-3.36v-.86c.31-.59,1-1.7,1-1.7v-.25s-.92-.47-.76-.65a5.59,5.59,0,0,0,.72-2.67,5.7,5.7,0,0,0-.22-1.48,2,2,0,0,1,.26-1.55V93a3.27,3.27,0,0,1-.69-1h-.12c-.24,0-.38.18-.45.52l-.4,3c-.05.41-.08,1.13-.1,2.17-.16,1.95-.24,2.93-.24,3.12V101a4.82,4.82,0,0,0,.9,3.3,2.55,2.55,0,0,1,.3.41h0c-.46-.11-1.33-.28-2.6-.48a7.51,7.51,0,0,1-1.24-.41,2,2,0,0,1-1.09-1.11,9.63,9.63,0,0,1-.27-2.93V99c0-1.56.07-3.44.2-5.63.23-1.65.46-2.93.69-3.91a12.77,12.77,0,0,0,.34-2.68,14.35,14.35,0,0,0-.1-1.61c.29-1.63.47-2.47.51-2.54a7.74,7.74,0,0,0,.72-2c.13-.61.31-1.64.51-3.08l.38-2.24a3.11,3.11,0,0,1,.64-1.3A2,2,0,0,1,135.31,73Zm22.58-23h.45c.89,0,1.4.21,1.55.64a1.44,1.44,0,0,1,0,1l.28.37A64.4,64.4,0,0,1,170.37,51a20.08,20.08,0,0,1,10.54,2.52,6.15,6.15,0,0,1,1.76,3.78,13.28,13.28,0,0,1,.22,1.54.89.89,0,0,1-.22.23,2,2,0,0,1-.54.07,11.49,11.49,0,0,1-3.45-.9,7.87,7.87,0,0,0-2.59-.44,30.66,30.66,0,0,0-5.12.73q-2.4.49-6.14.9-4.32.39-6,.6H159a.74.74,0,0,1-.36.16q-2,10-4.18,18.9c-.63,2.36-1.29,5.41-2,9.17-.07,0-.12,0-.12.14-.35,1.81-.8,4.38-1.33,7.76-.07.4-.15,1.15-.25,2.23-.55,3.36-.92,6.74-1.73,10.13V109c.62,1.15.73,3.86,1,8.12v1.19a3.06,3.06,0,0,1-.1.69h-.53s-.26-.26-.26-.33-.3-.3-1.11-.36v-.11a3.24,3.24,0,0,0,1.08-1c.08-.15-.08-.47-.08-.47v0a1,1,0,0,0-.53-.76h0a.2.2,0,0,1,0-.11h0a5.56,5.56,0,0,1-.08-.8c0-.69,1.61-2,1.61-2v-.15a5.58,5.58,0,0,1-1.36-.61,7.91,7.91,0,0,1-.25-2.06,11.93,11.93,0,0,1,.36-3.14,1,1,0,0,1,.22-.35,1.44,1.44,0,0,0,.22-.72,4,4,0,0,0-.22-.91,1.5,1.5,0,0,1,0-1.19v-.11a2.15,2.15,0,0,1,0-1.48,12.18,12.18,0,0,0,.26-2.41c.09-.89.18-1.68.29-2.38.41-2,.61-3.08.61-3.18A48.29,48.29,0,0,0,151,88.9c0-.09-.14.1-.14.1h-.4a.44.44,0,0,0-.31.22,20.68,20.68,0,0,0-.72,2.44,8.13,8.13,0,0,0-.21,1.56c0,.32-.22,1.85-.68,4.62-.3,1.48-.57,3.19-.78,5.17a28.75,28.75,0,0,1-.41,3,26.92,26.92,0,0,0-.44,5.07,16.09,16.09,0,0,0,.07,1.8v2.26a33.76,33.76,0,0,0,.14,3.81h-.07a8.4,8.4,0,0,1-1.6-1,7.1,7.1,0,0,1-1-1,5.8,5.8,0,0,1-.57-1.27,27.25,27.25,0,0,1-.89-7.89V106.2A91,91,0,0,1,143.65,96q.58-3.9,1-6.1l.4-1.93H145q1.8-9.09,3.79-17.48c.75-3.11,1.47-6.06,2.17-8.83q-5.7,1.44-11.52,3.51a23.88,23.88,0,0,1-4.22,1.28,2.86,2.86,0,0,1-2.29-1.23,2.62,2.62,0,0,1-.4-.78,2.34,2.34,0,0,1-.19-.83,3.58,3.58,0,0,0-.31-1,10.69,10.69,0,0,0-1-1.55v-.17c0-.53,1.31-1.22,3.93-2,1.93-.62,3.64-1.17,5.13-1.67.72-.27,1.69-.63,2.89-1.11q3.65-1.19,8.73-2.36a19.42,19.42,0,0,0-.11-2.11,28.21,28.21,0,0,1,3.72-1.18A11.5,11.5,0,0,1,157.89,50ZM134,61.23c-.09,0,0,.08.09.08a5.7,5.7,0,0,0,.91-.25V61l-.76-.07a.3.3,0,0,0-.33.27l.09,0Zm.52-.23a2.24,2.24,0,0,0,.81.15,4.89,4.89,0,0,0,1.84-.46,50.11,50.11,0,0,0,6.16-2.3c1.41-.67,2.91-1.46,4.49-2.39h-.11a6,6,0,0,0-3,.81c-.41.17-1.09.4-2,.69q-4,1.38-7.54,2.84c-.08,0-.34.22-.74.66ZM139,80.54v-.08s-.39.94-.1.94q.18,0,.36-.33a3.45,3.45,0,0,0,.18-.57,1.77,1.77,0,0,1,.37-1,1.19,1.19,0,0,0,.36-.61,3.27,3.27,0,0,0-.17-.47v-.08s.1-1,.13-1.54.87-1.37.87-1.37v-.32c0-.32-.13-.47-.31-.47s-.43.27-.59.82a5.68,5.68,0,0,0-.43,2.07,7.66,7.66,0,0,1-.24,1.25,4.54,4.54,0,0,0-.43,1.53Zm8.62-24.36c.6-.1.9-.21.9-.36a.3.3,0,0,0-.25-.28C148.16,55.54,147.91,55.79,147.62,56.18Zm4,28.73a4.74,4.74,0,0,0-.62,2.24,1.4,1.4,0,0,1,0,.29,5.16,5.16,0,0,0,.57-2.24Zm.74-2.91a2.75,2.75,0,0,0-.33,1.22v.5a2.38,2.38,0,0,0,.36-1.22,4.17,4.17,0,0,0,0-.5Zm1.21-5a4,4,0,0,0-.54,3.08v.53a4,4,0,0,1,.32-1.33,5.67,5.67,0,0,1,.68-1.84V77Zm.46-2a3.67,3.67,0,0,1-1,1.59V77a2.1,2.1,0,0,0,1.18-1.76c0-.08,0-.15-.18-.2Z" transform="translate(-36.95 -50)"/>
      <path d="M197.89,69.86a12.1,12.1,0,0,1,7.37,2.71,3.55,3.55,0,0,1,1.46.71,5.35,5.35,0,0,1,.89.89,10.15,10.15,0,0,1,.82,1.39,13.07,13.07,0,0,1,1,2.91,27,27,0,0,1,.61,5.74V85a33.89,33.89,0,0,1-1.25,9.12,19.35,19.35,0,0,1-1.28,3,19,19,0,0,1-1.64,2.42,15.38,15.38,0,0,1-2.28,2.21,11.81,11.81,0,0,1-7.27,2.75,10.34,10.34,0,0,1-8-4.05,11.19,11.19,0,0,1-5.41-6.2,13.37,13.37,0,0,1-.85-4.77v-.35a21.06,21.06,0,0,1,2.21-9,25,25,0,0,1,1.68-2.82,25.67,25.67,0,0,1,2.28-2.81,19.84,19.84,0,0,1,2.28-2,12.41,12.41,0,0,1,2.18-1.32A11.62,11.62,0,0,1,197.89,69.86ZM183.63,86.67a3.58,3.58,0,0,0-.25,1.3c0,.55.07.82.18.82a.67.67,0,0,0,.18.07h0q.12,0,.12-.21a7.71,7.71,0,0,0,.14-1.27v-.1c0-.39-.08-.57-.26-.57Zm-.38-.67h.1c.41,0,.61-.29.61-.86a2.69,2.69,0,0,1,.22-1,18.22,18.22,0,0,1,1.82-3.9,13,13,0,0,1,1.49-1.9A8,8,0,0,0,188.93,76a.81.81,0,0,0-.22,0h-.07c-.2,0-.39.15-.56.45a21.13,21.13,0,0,0-2.23,2.68,7.85,7.85,0,0,0-1.27,2.3L184,82.49A8,8,0,0,0,183.25,86ZM189,76.07v.18a.28.28,0,0,0,.17-.11l-.1-.14H189ZM190,75v.07c.54-.18.82-.34.82-.46a.54.54,0,0,1,0-.18,1.43,1.43,0,0,0-.07-.36.91.91,0,0,0-.62.36A.94.94,0,0,0,190,75Zm-.14,14.56a12.58,12.58,0,0,0,3.82,9.5c.45.38.8.66,1,.83a5.65,5.65,0,0,0,2.78-1.84,28.27,28.27,0,0,0,3.13-6.39,20.54,20.54,0,0,0,.9-3.53c.25-1.16.48-3,.73-5.52q.39-5,.39-8.62h-.39a10.1,10.1,0,0,0-5,1.19,13.75,13.75,0,0,0-1.5,1A14.9,14.9,0,0,0,194,78.05a19,19,0,0,0-1.55,2.24A18.51,18.51,0,0,0,191,83.46a18.21,18.21,0,0,0-1.09,6.11ZM200,102.35v.12a1.63,1.63,0,0,0,.29.21,2.2,2.2,0,0,0,1.22-1.16h0c-.17-.19-.3-.28-.4-.28C200.43,101.71,200,102.1,200,102.35Zm2.14-2h0c0,.27.06.4.11.4a1.17,1.17,0,0,0,.65-.44,1.44,1.44,0,0,0,.1-.5v-.07c-.52.21-.8.38-.82.47ZM204,98.82c-.27.05-.23.09-.18.18H203v-.28a2.74,2.74,0,0,1,1,.06ZM208,90v.52a16.87,16.87,0,0,1-.8,2.71,17.75,17.75,0,0,1-1,2.21c-.26.38-.63.87-1.11,1.48a8.38,8.38,0,0,0-.87,1.65c-.05.15-.1.31-.14.47h.17a.64.64,0,0,0,.62-.43,17.6,17.6,0,0,0,2.74-4.19l.33-.93a5.13,5.13,0,0,1,.33-.76,6.74,6.74,0,0,0,.43-2.35c0-.37,0-.75-.07-1.12-.38,0-.6.24-.6.7ZM203.6,93c.1.36.19.53.29.53h0c0-.07.06-.25.11-.53V93Z" transform="translate(-36.95 -50)"/>
      <path d="M240.58,53h.67a22.42,22.42,0,0,1,10.28,2.27,2.89,2.89,0,0,1,.47.38v.23s.49.72.73,1a18.76,18.76,0,0,1,1,2.64,1.67,1.67,0,0,1-.51.72,4.39,4.39,0,0,0-.9.74h-1.12a2.85,2.85,0,0,0-2-.06c-2-.14-3.41-.21-4.3-.21a22.74,22.74,0,0,0-4.93.64c-2.24.46-11,1.63-11,1.63h-.23c-.11,0-.17,0-.17.07q-.59,3.51-1.6,7.49-.8,3.22-1.84,7.2h0q9.55-1.7,12.41-2.27a3.26,3.26,0,0,1,.87-.12,11.08,11.08,0,0,1,4,1.13,2.14,2.14,0,0,1,1.2,1,4,4,0,0,1,.46,1.92v.33c0,.38-.08.63-.25.72a14.73,14.73,0,0,1-3.62,1.74,8.67,8.67,0,0,1-1.81.43,9.26,9.26,0,0,0-2,.58c-3,.55-6,1.14-9,1.74a2.8,2.8,0,0,0-.62-.32c-.1,0-.29.15-.61.46a.48.48,0,0,1-.22.12l-.4-.19h.45a4,4,0,0,0-1.12.21,2,2,0,0,1-1,.18,3.24,3.24,0,0,0-1.12.69c-.53.56-.84.83-.94.83a6,6,0,0,1-.58.65c-.16,0-.29.12-.36.36a49.74,49.74,0,0,1-1,5.66c-.18.94-.29,1.62-.37,2a4.07,4.07,0,0,1-.58,1.16,1,1,0,0,0-.17.43q0,.12.24.15a.25.25,0,0,1,.08.18c-.49,2.53-.93,4.56-1.34,6.1a23.93,23.93,0,0,0-.36,2.66c-.07,1-.1,1.52-.31,1.67v2c.21.5.33.82.57,1h0a.6.6,0,0,0,.14-.21,2.78,2.78,0,0,1-.11-.75c0-.18.07-.86.22-2a1.45,1.45,0,0,1,.18-.36v-1.12a7.5,7.5,0,0,1,.07-1.74,2.26,2.26,0,0,1,.15-.72c.14-1.25.28-2.26.43-3.08a30.71,30.71,0,0,1,1-3.5,10.79,10.79,0,0,0,.36-2.52,15.28,15.28,0,0,0,.36-2.13,14.78,14.78,0,0,1,.73-2.78.15.15,0,0,0,.14.14,4.16,4.16,0,0,0,.62-1.3c.09-.29.25-.43.5.16h.07a77,77,0,0,0-3.31,13.51,19.39,19.39,0,0,0-.14,7.4v6.74a2.55,2.55,0,0,0-.55,1.35h-.25a5.39,5.39,0,0,1-.72-.31,2.25,2.25,0,0,0-.11-.89,6.13,6.13,0,0,1-.29.75c0,.1,0,.14-.08.14s-.26,0-.38.31h-.26a3.42,3.42,0,0,1-1.84-1.07l-1-1.19c-.7-.5-1.24-2-1.59-4.43a39.76,39.76,0,0,1-.32-5.34,57.58,57.58,0,0,1,1.51-12.55c.69-2.6,1.08-4,1.16-4.33a2.07,2.07,0,0,1-.66-.69,8.64,8.64,0,0,1-.94-2.05,14.72,14.72,0,0,1-.66-3.82V82.1a2.39,2.39,0,0,1,.05-1.52,2.07,2.07,0,0,1,1.26-.57l2.21-.22,1.48-.25v.4s-.4.11-.28.14h0c.14,0,.3-.26.47-.76.26-.7.74-2.22,1.44-4.55a2.12,2.12,0,0,1,.81-1.14.63.63,0,0,0,.25-.51,7,7,0,0,1-.07-1,4.29,4.29,0,0,1,.36-1.62,1.21,1.21,0,0,0,.07-.37.81.81,0,0,0,0-.22,26.59,26.59,0,0,0,.58-5.41,4.16,4.16,0,0,0-1.31.52h-.07c-1.75-.3-2.91-1.77-3.5-4.7a8.19,8.19,0,0,0,1.52-.94,2.39,2.39,0,0,1,1.52-.36h-.17c0-.28-.62-.4-.62-.4h0a.44.44,0,0,0-.36-.11A3.24,3.24,0,0,0,216,59h-.1a5.77,5.77,0,0,0-1.35.44.24.24,0,0,1-.12,0h0a2.08,2.08,0,0,1-.11-.54q0-3.06,15.31-4.93,3.27-.44,8.87-.93C239.17,53,239.93,53,240.58,53Zm-23.12,61h0a6.39,6.39,0,0,0,.21,1.63,6.69,6.69,0,0,0,.33-2h0a7.69,7.69,0,0,0-.18-1.51,3,3,0,0,0-.25.82,4.75,4.75,0,0,0-.09,1.06Zm.54-3a1.82,1.82,0,0,0,0,.33h0V111a1.55,1.55,0,0,0-.07-.43.85.85,0,0,1,.09.43Zm5.1-54A1.47,1.47,0,0,0,222,57h0a10.76,10.76,0,0,1-1.59.58c-.27.07-.51.21-.42.4V58c-.3.14-.17.22.09.22a.87.87,0,0,0,.69-.25h-.33c.77-.23,1.57-.47,2.38-.63a2.76,2.76,0,0,0,.76-.14.07.07,0,0,0,.07-.07c0-.07-.15-.31-.47-.16h-.09Zm1.36,20c0,.14.06.22.18.22s.21-.12.25-.33a4.34,4.34,0,0,0,.43-1.48c.25-1,.4-1.69.47-2a5.82,5.82,0,0,1,.29-1.55,9.24,9.24,0,0,0,.4-1.63c.17-.58.43-1.69.79-3.32L228,64.3a2.54,2.54,0,0,0,0-.39h0v-.69a8.32,8.32,0,0,0-.47,1.26,19.11,19.11,0,0,1-.69,2.57c-.63,2.54-1.18,4.67-1.66,6.35-.29,1.19-.53,2.39-.7,3.6Zm.95,2h0q0,.1.21.18h0a2.26,2.26,0,0,0,1.41-.61.63.63,0,0,0,.26-.47.33.33,0,0,0-.29-.22,3.51,3.51,0,0,0-1.45.8,1.76,1.76,0,0,0-.12.32Zm2.81-1c0,.1.06.14.17.14h0c.2,0,.29-.1.29-.31s-.11-.19-.18-.19a.34.34,0,0,0-.26.36Zm.32-15.14Zm.15.14ZM242,54,239.9,54l-2.13,0h-.83a16.67,16.67,0,0,0-2,.5c-.07,0-.22-.5-.22-.5h-.47s-3.08.7-4.58,1.08a.53.53,0,0,0-.25.28.26.26,0,0,0,.25.26h0c1.61-.14,3-.31,4.1-.5a54.75,54.75,0,0,1,7-.12h.61a14.34,14.34,0,0,1,3.9-.2l2.31.1a1.52,1.52,0,0,0-1.33-.57c-1.88-.27-3.4-.33-3.4-.33h-.07a2.68,2.68,0,0,0-.84,0Zm-12.17,23.9h0c0,.1.06.15.19.15a.32.32,0,0,0,.28-.15q0-.18-.21-.21C229.94,77.73,229.86,77.81,229.86,77.93Zm1.81-.43c0,.1.07.15.22.15s.11,0,.11-.11v-.11c0-.07-.05-.11-.14-.11S231.7,77.38,231.67,77.5Z" transform="translate(-36.95 -50)"/>
      <path d="M302.89,54h.63a21.83,21.83,0,0,1,10.75,2.48c.16.13.23.21.23.23a1.6,1.6,0,0,0,.35,1.09A12,12,0,0,1,316,60.74a1.73,1.73,0,0,1-.8,1,5,5,0,0,1-.64.26h-1.4s-1.34.2-2,.36a11.06,11.06,0,0,0-3.74.64h-1.51a38.07,38.07,0,0,0-6,.81q-5.26.84-12.31,1.68c-1.51.21-2.26.32-2.26.34-.32,1.82-.73,3.77-1.21,5.83-.64,2.58-1.28,5.09-1.92,7.57q8.64-1.56,11.68-2.16a10.81,10.81,0,0,1,1.27-.07h.17a21.6,21.6,0,0,1,4.93.61,2.66,2.66,0,0,1,1.39.85,3.83,3.83,0,0,1,.54,2.11c0,.5-.06.74-.16.74s-.12.13-.35.31a15.94,15.94,0,0,1-3.3,1.46,26.6,26.6,0,0,1-2.78.51l-10,1.94c-1,.2-1.46.3-1.53.3a2.86,2.86,0,0,0-.54-.3c-.08,0-.28.15-.58.47h-.83c-.13.64-.26.59-.4,1h-.08a1.08,1.08,0,0,0-1.26,0,3.85,3.85,0,0,1-.83.11,3.42,3.42,0,0,0-1.33,1,1.89,1.89,0,0,1-.58.51c-.35.41-.56.61-.61.61a.48.48,0,0,0-.33.5,43.65,43.65,0,0,1-.86,4.81L275.35,97a3.92,3.92,0,0,1-.68,1.41l-.07.25c0,.1.12.14.29.14a.38.38,0,0,1,0,.15c-.48,2.63-.86,4.62-1.15,6a22.85,22.85,0,0,0-.65,3.17,28.38,28.38,0,0,0-.09,4v1.7c-.27.53-.14.85.12,1l.14-.17a3.37,3.37,0,0,1-.1-.83c0-.34.09-1.09.21-2.24a2.16,2.16,0,0,0,0-.36,5.82,5.82,0,0,1-.07-.73,6.56,6.56,0,0,1,.3-1.76A15.79,15.79,0,0,1,274,106c.07-.46.18-1.31.32-2.53A26.2,26.2,0,0,1,275.51,99a18.42,18.42,0,0,0,.36-2.77,14.06,14.06,0,0,0,.43-2.5c.39-1.36.59-2,.61-2s.1.15.15.15a4.65,4.65,0,0,0,.61-1.34,1,1,0,0,1,.43-.47h.12c-.61,2.09-1.12,3.87-1.56,5.48a87.52,87.52,0,0,0-2.05,10.39,56.41,56.41,0,0,0-.61,7.79V120c0,1-.11,1-.11,1h-.07a6.49,6.49,0,0,1-.76.49,4.53,4.53,0,0,0-.12-.9c-.11.29-.21.59-.28.41H272a1.15,1.15,0,0,1-1.73-.13,18.13,18.13,0,0,0-1.34-1.43,4.47,4.47,0,0,1-.9-1.92c-.49-2.21-.7-4.48-1-6.74v-.22a95,95,0,0,1,2.71-17.37c.2-.79.39-1.6.62-2.41a1.91,1.91,0,0,1-.73-.76,7.9,7.9,0,0,1-.83-1.91,19.93,19.93,0,0,1-.75-3.75,1.09,1.09,0,0,1,0-.36c0-1,.09-1.59.21-1.59a2.14,2.14,0,0,1,1.19-.5l2.24-.26.34-.22v.4s.6.08.75.08.26-.24.43-.72.74-2.14,1.51-4.62a2.77,2.77,0,0,1,.76-1,.67.67,0,0,0,.18-.43.68.68,0,0,1,.37-.83v-.07a1.49,1.49,0,0,1-.13-1.61,5.05,5.05,0,0,0,.07-.68,24.52,24.52,0,0,0,.5-5.13A43.16,43.16,0,0,0,270.29,69a3.23,3.23,0,0,1-1.38,0h-.16c-1,0-1.94-.76-2.89-2.31a5.68,5.68,0,0,1-.86-2.4v-.14l.65-.37a20.93,20.93,0,0,1,3.78-1.68,10.27,10.27,0,0,0,1.57-.75.09.09,0,0,0,0-.07v-.1a1,1,0,0,0-.31-.12,3.5,3.5,0,0,0-1.58.44,26.39,26.39,0,0,1-3.86,1.36,3.19,3.19,0,0,0-.89.33.75.75,0,0,1-.1-.36q0-2.55,15.17-5.51,8.28-1.7,19.52-3.14A32.38,32.38,0,0,1,302.89,54Zm-30.72,6.78c0,.15.1.22.29.22h.19a10.3,10.3,0,0,0,1.72-.43c1.89-.51,3.08-.85,3.57-1a9,9,0,0,1,1.45-.24.2.2,0,0,0,.14-.08h0c0-.18-.16-.3-.5-.35-1.25.19-2.39.42-3.43.68a15.45,15.45,0,0,0-3.32,1.12C272.2,60.71,272.17,60.76,272.17,60.78Zm1,55.22a3.23,3.23,0,0,0-.2,1.75v.16a3.68,3.68,0,0,0,.06,1.55,3.94,3.94,0,0,0,.25-.73,1.5,1.5,0,0,1,.69-1.19v-.14a2.19,2.19,0,0,1-.76-1.4Zm-.2-1v.63a7.87,7.87,0,0,0,1-.21v-.12c-.73-.13-.76-.26-.8-.39s-.05.15-.05.09Zm10.93-49.44a17.1,17.1,0,0,0-.69,2.42c-.12.48-.26,1-.4,1.41-.65,2.47-1.18,4.46-1.58,6-.51,2.22-.76,3.44-.76,3.68s.09.22.22.22.21-.15.28-.43a4.28,4.28,0,0,0,.33-1.31c.26-1,.44-1.79.54-2.34a3.77,3.77,0,0,1,.32-1.44c.41-1.66.82-3.38,1.24-5.13a16.1,16.1,0,0,0,.57-2.17v-.28a5,5,0,0,0,0-.55ZM281.24,81a.86.86,0,0,0,.29.17,2.26,2.26,0,0,0,1.48-.71.69.69,0,0,0,.11-.36.2.2,0,0,0-.22-.19,2.64,2.64,0,0,0-1.37.69c-.24.16-.34.3-.34.4ZM284,79.86c0,.09.06.14.16.14h.1c.12,0,.2-.1.22-.29s-.06-.13-.15-.18a.29.29,0,0,0-.38.18.34.34,0,0,0,0,.2Zm1.59,0a.19.19,0,0,0,.19.15.27.27,0,0,0,.25-.19.19.19,0,0,0-.22-.21.31.31,0,0,0-.27.31Zm1.08,0h0c0,.09,0,.14.1.14h.12a.11.11,0,0,0,.1-.07v-.19a.16.16,0,0,0-.14-.07h0c-.15.12-.23.17-.23.24Zm17.61-24.23a20.16,20.16,0,0,1-2.05-.07L300,55h-.1s-.32.75-.47.74a6.55,6.55,0,0,0-2.06.4c-.08,0-.24-.14-.24-.14h-.48s-2.91.36-4.32.73c-.2.09-.29.17-.29.24s.12.23.36.26c1.78-.17,3.16-.35,4.1-.54a58.46,58.46,0,0,1,6.57.31h.76a9,9,0,0,1,3.71-.6l2.21.1a1.56,1.56,0,0,0-1.38-.57,26.17,26.17,0,0,0-3.31-.36h0a2.5,2.5,0,0,0-.82.11Z" transform="translate(-36.95 -50)"/>
      <path d="M318.89,68h.1a12.37,12.37,0,0,1,7.5,2.78,3.63,3.63,0,0,1,1.85,1,9.8,9.8,0,0,1,2.34,5,30.12,30.12,0,0,1,.61,6.28,34.55,34.55,0,0,1-1.47,10.26,19.57,19.57,0,0,1-1.63,3.39A16.07,16.07,0,0,1,326,99.42a14.12,14.12,0,0,1-3.08,2.35,11.4,11.4,0,0,1-5.69,1.62q-4.62,0-8.21-4.19a11.45,11.45,0,0,1-5.49-6.15,15,15,0,0,1-.89-5.27,22.17,22.17,0,0,1,3.57-11.61,21.23,21.23,0,0,1,5.26-5.63A13.12,13.12,0,0,1,318.89,68ZM304.26,85.84A3.19,3.19,0,0,0,304,87.1v.07c0,.55.05.83.14.83h.26a4.32,4.32,0,0,0,.22-1.51h0c0-.38-.08-.57-.22-.57a.29.29,0,0,0-.14-.08Zm.13-.84h.15a.47.47,0,0,0,.48-.41,5.76,5.76,0,0,1,.37-1.63,21.92,21.92,0,0,1,2-4A14.17,14.17,0,0,1,308.93,77a9.38,9.38,0,0,0,1-1.66l.15-.37h-.22c-.22,0-.45.19-.71.56a28.49,28.49,0,0,0-2.32,2.8,11.07,11.07,0,0,0-1.24,2.33A7.39,7.39,0,0,0,304.39,85ZM310,74.55h0v.14c.14,0,.19,0,1-.07v-.07a4.59,4.59,0,0,1-.92-.07C310,74.41,310,74.52,310,74.55Zm.77-.55h0c.58-.14.86-.34.86-.57a1.76,1.76,0,0,0-.07-.4.84.84,0,0,0-.68.47,1,1,0,0,0-.13.5Zm.29,14.65a12.34,12.34,0,0,0,4.4,10,2.19,2.19,0,0,0,.5.36,5.18,5.18,0,0,0,2.31-1.34,10,10,0,0,0,1.62-2.3,46.47,46.47,0,0,0,2.46-6,41.13,41.13,0,0,0,1-6.25q.54-5.58.54-10.09h-.08a9.91,9.91,0,0,0-6.15,1.76,9.31,9.31,0,0,0-1.8,1.45,15.27,15.27,0,0,0-2.38,3.21A18.83,18.83,0,0,0,311.06,88.65Zm12.09,11.44c-.77.55-1.15.93-1.15,1.15v.09a1.35,1.35,0,0,0,.29.21,2.06,2.06,0,0,0,1.15-1,1.76,1.76,0,0,0,.14-.23.74.74,0,0,0-.43-.26Zm1.85-1c-1.35.15-1.32.29-1.28.43.5-.14.76-.43.28-.86v-.14c-.07.26-.35.46,1,.62Zm0-1.48s0,.06.1.11h0s.07,0,.07,0a0,0,0,0,0,0,0c0-.09,0-.14-.07-.14s-.06.09-.1.16ZM329,88v.72a8.91,8.91,0,0,1-.72,3.14,14.51,14.51,0,0,1-1.48,2.67A10,10,0,0,0,325.21,97h.18c.3.38.56.19.65-.09a22.35,22.35,0,0,0,2.38-3.43,11.07,11.07,0,0,0,.66-1.77,7.41,7.41,0,0,0,.92-3v-.07c-.1-.38-.14-.76-.25-1.12A1.07,1.07,0,0,0,329,88Zm-3.75,4c.12.36.22.53.29.53a4.14,4.14,0,0,0,.18-.6h0c-.31,0-.45,0-.45.07Zm23.19-26a12,12,0,0,1,7.64,3.09A3.82,3.82,0,0,1,358,70.33a7,7,0,0,1,1.29,2A25.51,25.51,0,0,1,361,82.54v.19A37.81,37.81,0,0,1,359.16,95a22.64,22.64,0,0,1-2,3.76,14.51,14.51,0,0,1-7.16,5.66,9.61,9.61,0,0,1-3.05.55h-.38q-4,0-7.38-3.67a4.32,4.32,0,0,0-.87-.94A12.56,12.56,0,0,1,333,93.85a17.07,17.07,0,0,1-1-5.66v-.61a25.57,25.57,0,0,1,2.65-10.71,29.74,29.74,0,0,1,2.67-4.34,25.16,25.16,0,0,1,2.54-2.72,15.1,15.1,0,0,1,4.88-3,10.74,10.74,0,0,1,3.72-.76Zm-14.8,19a4.25,4.25,0,0,0-.26,1.42c0,.62.07.93.19.93s.17,0,.17.07.19-.18.19-.54a7.13,7.13,0,0,0,.07-1v-.28c0-.38-.08-.57-.26-.57Zm.33,0h.12c.34,0,.53-.29.58-.88a5.4,5.4,0,0,1,.49-1.85,21.08,21.08,0,0,1,2.1-4.39,19.17,19.17,0,0,1,1.23-1.62,15,15,0,0,0,1.05-1.92.81.81,0,0,0,.08-.34h-.22c-.22,0-.42.17-.59.48a21.3,21.3,0,0,0-3.15,4.46,8.82,8.82,0,0,0-.51,1.38A8.64,8.64,0,0,0,334,85Zm6-11.61v.24c.12,0,.18,0,.18-.12a.26.26,0,0,0-.11-.14Zm0-.83h.34c.53-.19.79-.39.66-.61v-.47a1,1,0,0,0-.66,1.09s0,0-.34,0ZM341,89v.47a14.74,14.74,0,0,0,3.17,9.49,14.35,14.35,0,0,0,1.69,1.62,5.59,5.59,0,0,0,1.77-.9A5.49,5.49,0,0,0,349,98a36.15,36.15,0,0,0,2.89-6.67,28.61,28.61,0,0,0,1-4.76A117.79,117.79,0,0,0,353.85,72h-.36a9,9,0,0,0-6.67,2.6,7.33,7.33,0,0,0-1.23,1.26,23.61,23.61,0,0,0-2.06,3.08A22.11,22.11,0,0,0,341,89Zm10.45,13.83a1.19,1.19,0,0,0,.29.23,2.56,2.56,0,0,0,1.26-1.19v-.15a.71.71,0,0,0-.4-.25c-.77.6-1.15,1.06-1.15,1.36Zm1.55-2.33v.43a1,1,0,0,0,.83-1.12h0c-.55.23-.83.45-.83.64Zm1.86-1.7a.13.13,0,0,0,.14.11v-.25a.12.12,0,0,0-.14.1,0,0,0,0,0,0,0ZM359,88v.58a20.49,20.49,0,0,1-1.69,5.19c-.37.6-.79,1.25-1.26,1.91A7.22,7.22,0,0,0,355,98h.21c.25,0,.48-.21.69-.62a16,16,0,0,0,2.93-5.33,9.86,9.86,0,0,0,.57-1.66,7.34,7.34,0,0,0,.26-1.92c0-.45-.05-.87-.07-1.26h0c-.42,0-.61.32-.61.84Zm-4.13,4.32c.11.41.22.62.29.62s.1-.22.17-.65h0A1.78,1.78,0,0,0,354.87,92.36Z" transform="translate(-36.95 -50)"/>
      <path d="M369.59,110.94a4.44,4.44,0,0,1-2.34-1.54q-5.26-5.88-5.68-9.24c0-.44-.07-1-.07-1.59a36.12,36.12,0,0,1,1.43-8.69c.05,0,.07,0,.07-.11h0q1.81-7,2.49-7.86A4.25,4.25,0,0,0,366,80h.43A89.47,89.47,0,0,0,369,70.62a14.57,14.57,0,0,1-1.77-1.26,1.81,1.81,0,0,1-.47-1.29,13.68,13.68,0,0,1,.29-1.92v-.67a2.64,2.64,0,0,1,.69-1.24c0-.12.42-.39,1.18-.79A16.75,16.75,0,0,1,372.34,62a18.22,18.22,0,0,1,4.42-.5,28.68,28.68,0,0,1,9,1.44q8.52,3.07,10.74,10.68l-.29-.22a.66.66,0,0,0-.21.51,25,25,0,0,1,.17,2.88,23,23,0,0,1-.82,5.95,10.48,10.48,0,0,0-.18,1.37,4.28,4.28,0,0,0,1.18-2,11.58,11.58,0,0,0,.69-4.44V76.18h0c.09.8.14,1.61.15,2.41a26.72,26.72,0,0,1-1.43,8.12,6.17,6.17,0,0,0-.33,1.69l-.77,1.45a1.46,1.46,0,0,0-.33-.22c-.36.1-.55.17-.55.22A3.37,3.37,0,0,0,393,92.3a13.88,13.88,0,0,1-2.08,3.33,31.86,31.86,0,0,1-2.08,2.52,12.47,12.47,0,0,0-1.36,1.55q-4.79,4.8-5.26,4.83a9,9,0,0,1-2.58,1.55,21,21,0,0,1-3.12,2l-5.2,2.5A8.09,8.09,0,0,0,369.59,110.94ZM363.9,102l.14-.14-.36-2a16.63,16.63,0,0,1,.72-5.24,14.16,14.16,0,0,1,.66-2.56,15.81,15.81,0,0,0,.57-2.52,31.44,31.44,0,0,1,1.48-4.84,17.59,17.59,0,0,0,1.3-4.61l.65-2,1.33-6a.89.89,0,0,0-.32-.75c-.29,0-.44.17-.47.54a25.92,25.92,0,0,1-1.3,6.52c-.29.93-.5,1.66-.64,2.19a2.83,2.83,0,0,1-.8,1.31.87.87,0,0,0-.22.51l.29.35c0,.11-.56,2.06-1.65,6a39.66,39.66,0,0,0-1.48,4.91,34.61,34.61,0,0,0-.95,6.78,1.69,1.69,0,0,0,1,1.41Zm.33-11.55.07-.07c-.05,0-.07,0-.07.07Zm4.64,15q3.21,0,9.52-7.54a74.54,74.54,0,0,0,9.6-14.6,13.17,13.17,0,0,0,1-2.63l-.11.07c.55-.69.83-2,.83-4a6.64,6.64,0,0,1-.46,1A8,8,0,0,0,385.85,71a17.38,17.38,0,0,0-2.57-1.58,22.84,22.84,0,0,1-3.35-1,5.68,5.68,0,0,1-1.88-.14c-.38-.14-.58-.28-.6-.4s-.09-.17-.16-.17a4.7,4.7,0,0,0-1.29.86,2.41,2.41,0,0,1,.1.76c0,.36,0,.55-.1.57v.22c-.16.84-.29,1.26-.36,1.26a7.64,7.64,0,0,0-1.12,2.68,31.3,31.3,0,0,0-1.65,8.07l-1,3.86q-2.11,4.83-2.12,6.06a.91.91,0,0,0,.1.43l-1.36,4a26.6,26.6,0,0,0-1.78,7.35c0,.27.27.65.8,1.12a2,2,0,0,0,1.39.49Zm2.57,4.59c1.7-.44,4.23-1.87,7.57-4.3,1.23-.86,2.63-2,4.19-3.31a22.5,22.5,0,0,0,3.68-4,80.62,80.62,0,0,1-12.31,9.45ZM393.91,70a6.89,6.89,0,0,0-1.74-2.2,10.32,10.32,0,0,0-3.88-2.38,12.41,12.41,0,0,1-2.54-1c-.93-.65-3-1.21-6.15-1.69a21.9,21.9,0,0,0-2.28-.19.6.6,0,0,0-.32.12v.07a2.28,2.28,0,0,0,.57.1l.76-.1a24.26,24.26,0,0,1,6.92,1.69,44.19,44.19,0,0,1,7.25,3.86A18.59,18.59,0,0,0,393.84,70Zm-13.28-6.63a3.83,3.83,0,0,0-.74-.19A2.69,2.69,0,0,0,380.63,63.37Zm.66.63h-.07A.09.09,0,0,0,381.29,64Zm3,.63a1.25,1.25,0,0,0-.62-.19A1.5,1.5,0,0,0,384.32,64.63Zm1.19.43a1.13,1.13,0,0,0-.72-.29,1.47,1.47,0,0,0,.72.29Zm1.3.54a1.06,1.06,0,0,0-.76-.29A.92.92,0,0,0,386.81,65.6Zm2.19,1a2.1,2.1,0,0,0-1.69-.9,3.25,3.25,0,0,0,1.69,1Zm-1.38,31.1a3.09,3.09,0,0,0,1.63-2.06c-1.08,1-1.62,1.74-1.62,2.11ZM389.54,95a7.59,7.59,0,0,0,2.2-3.36,4.7,4.7,0,0,0-1.3,1.33,5.14,5.14,0,0,0-.89,2.08Zm2.71-3.88a2.14,2.14,0,0,0,.69-1.16l-.15-.15C392.43,89.76,392.25,90.21,392.25,91.07Zm1.73-3.4a3.52,3.52,0,0,0,1-2.31c0-.4-.06-.6-.11-.6A6.16,6.16,0,0,0,394,87.67Z" transform="translate(-36.95 -50)"/>
    </g>
    <g>
      <path class="project-logo" d="M51.36,154.9l1.54-.53c-.8.54-2.07,1.16-3.62,2a107.9,107.9,0,0,1,11.94-4.44c4-1.22,7.85-2.22,11.52-3.15L78,147.47l4.89-1.25c3.11-.83,6.11-1.58,8.7-2.34A38.89,38.89,0,0,0,96.7,143c1.35-.35,2.24-.74,2.35-1,.23-.67-2.75-.93-6.72-.48-.89,0-1.93.12-2.59.11-1.48,0-3-.05-4.68,0s-3.35.14-5.12.25-3.62.31-5.52.5-4.1.52-6.3.9c1.75-.2,3.52-.4,5.19-.53a66.6,66.6,0,0,0-7.8,1.42,5.42,5.42,0,0,1,1.14.08,58.82,58.82,0,0,0-15.42,4.56A46.43,46.43,0,0,0,43.9,153c-1,.79-2.08,1.55-2.93,2.32a28.77,28.77,0,0,0-2.2,2.22A7.37,7.37,0,0,0,37,160.68c-.07.66.32.87,1,.69a7.67,7.67,0,0,0,1.41-.56c.58-.25,1.25-.6,2-1S43,158.9,44,158.37s2-1.06,3.19-1.65c.69-.37,1.38-.65,2.08-1S50.67,155.15,51.36,154.9Z" transform="translate(-36.95 -50)"/>
      <path class="project-logo" d="M68.6,152.12q-3.69.62-7.27,1.48a66.68,66.68,0,0,0-7.46,2.32l-1.1.28,1.1.64v-.1a33.9,33.9,0,0,1,7.59-4.15A75.74,75.74,0,0,1,71,149.41l2.22-.64a4.5,4.5,0,0,0,1.83-.91c.35-.55-1.77-.61-4.87,0-1.2.25-2.4.51-3.62.8a58.16,58.16,0,0,0-16,5.55,32.71,32.71,0,0,0-7,4.89,19,19,0,0,0-2.27,2.51,11.08,11.08,0,0,0-1.24,2.22c-.39,1.14.91.57,1.61.63.25.31,1.17-.13,2.45-1,.67-.43,1.45-.95,2.29-1.55s1.79-1.23,2.8-1.86c4-2.6,7.36-4.43,7.21-5.17.76-.3,1.54-.54,2.3-.79l-1.57.89a10.86,10.86,0,0,1,3-1.83c1.44-.67,3.12-1.31,4.48-1.88A40.85,40.85,0,0,1,69,149.93c-1-.26-2.08-.51-3.2-.74L63.6,150h.58c-1,.4-2.08.88-3.12,1.31s-2.07.92-3.11,1.48q-3.44,1.65-6.59,3.56c-.94.65-1.86,1.25-2.76,2l-1.31,1.05L46,160.49c-.61.65-.73,1-.5,1.12A3.88,3.88,0,0,0,47.3,161l1.36-.74,1.39-.68-1.3.58a61.12,61.12,0,0,1,18.6-7.05,9,9,0,0,0,2.37-.84C70.06,152,69.59,151.94,68.6,152.12Z" transform="translate(-36.95 -50)"/>
      <g>
        <path class="project-logo" d="M48.45,161.77A13.82,13.82,0,0,0,45.39,164c-.21.29-.3.45-.35.52.47-.37,1.18-.8,1.85-1.24a11.7,11.7,0,0,0,1.36-1C48.51,162,48.56,161.81,48.45,161.77Z" transform="translate(-36.95 -50)"/>
        <path class="project-logo" d="M45,164.48l-.74.56.58-.34.11-.13Z" transform="translate(-36.95 -50)"/>
        <path class="project-logo" d="M277.81,134.57c15.85-1.36,31.69-3.06,47.35-5.29.53-.07.94-.2.94-.3s-.42-.1-.91,0c-15.66,2.22-31.41,3.91-47.24,5.27a2.44,2.44,0,0,0-1,.25C276.83,134.57,277.31,134.61,277.81,134.57Z" transform="translate(-36.95 -50)"/>
        <path class="project-logo" d="M397.51,123.67c-.33.16-.27.25.14.21a4.27,4.27,0,0,0,1.25-.33c.27-.14.21-.25-.14-.22A4.61,4.61,0,0,0,397.51,123.67Z" transform="translate(-36.95 -50)"/>
        <path class="project-logo" d="M397.61,132.28c-2.13.62-4.16,1.24-5.9,1.89a5.82,5.82,0,0,1-1,.23c.2.1-.17.32-.93.56-7.52,2.42-15.58,4.39-23.82,6.4-8.31,1.84-16.7,3.72-25.14,5.32a1.5,1.5,0,0,1-.61.44,22.32,22.32,0,0,1-5.87,1.42l-1.89.19L321,150c-1.9.2-3.79.44-5.68.62l-5.69.53q-2.55.58-5.19.95l-4.8.92c-1.61.3-3.23.57-4.85.84-3.24.55-6.51,1.09-9.84,1.6.45.06.73.15.75.28-.06.32-1.57.71-3.38.89l-2.74.28c2.64-.15,5.29-.37,7.93-.56.38,0,.74,0,1-.06q4.32-.44,8.74-.95a561,561,0,0,0,72.48-13.81,4.89,4.89,0,0,1,1.34-.24c.26,0,.26.13-.16.26-1.76.55-3.48,1.14-5.19,1.66l-5.19,1.58c-3.4,1.05-6.79,2.13-10.27,3.16s-7,2-10.78,2.92c-1.87.48-3.78,1-5.77,1.42s-4,.87-6.12,1.29q-30.17,6.16-61.21,9.95c-22.12,1.85-42.51,3.82-65,5.35q-5.7.42-11.32.71l-11.18.61c-7.41.33-14.82.67-22.08.91-14.48.49-28.28.89-41.53,1.94-9.9.95-18.69.91-20.53-.71-1-1,.76-2.33,4.65-3.56L97,169.1c-1.28.1-2.58.19-3.84.31a48.22,48.22,0,0,1-8.91.16l-2.75-.25a47.47,47.47,0,0,0-6.54-.61q-3.09,0-6.14-.3l.11-.71-.68.06a25.42,25.42,0,0,1-2.76.37,6.57,6.57,0,0,1-1.88-.1l-.46-.64a1.93,1.93,0,0,1,0-1.42,5,5,0,0,1,1.14-1.82.68.68,0,0,1,0-1c-2.07,0-3.44-.27-2.8-1.51-1.14.24-1.24-.08-.18-.71a8.59,8.59,0,0,1,1.36-.67h0a14.78,14.78,0,0,0-1.77.25l-1.68.61c-1.4.57-2.08.9-2.7,1.2s-1.22.6-2.35,1.23-1.91.94-2.54,1.22a7.48,7.48,0,0,0-1,.47c-1.65.37-2.47.64-2.92.71s-.55-.09-.72-.39a1.36,1.36,0,0,1,.17-.44l-1.6,1.29L45,167c-.49.38-.88.63-.88.63a.77.77,0,0,0-.78.15.62.62,0,0,1-.33,0c.32-1,.33-1.05.23-1.12a4.12,4.12,0,0,1,.23-.58,21.46,21.46,0,0,1,1.39-1.7c1.57-.87,2.43-1.19,2.82-1.42l.4-.19.27-.58,1-.18h-1l1.53-.83-1.82.91c1.63-1.15,2.5-1.61,3.08-2s.91-.56,1.58-.93l2.74-1.52a.54.54,0,0,1-.28-.08c1-.44,1.67-.75,2.27-1s1.06-.44,1.54-.59c.95-.33,1.88-.69,3.74-1.24.32-.05.64-.08,1-.1a7.56,7.56,0,0,1,1.68-.67c.65-.19,1.28-.34,1.92-.5l.38-.16h0c.62-.25,1.06-.4,1.51-.58l.3-.13h0c1.07-.38,2.56-.95,6.53-2.22,1.12-.19,2.12-.31,3.05-.42H77.87c-.57,0-.18-.37-.49-.34a89.64,89.64,0,0,0-12.25,2.2,65.78,65.78,0,0,0-13.31,4.87,13.58,13.58,0,0,1-3.52,1.65c-.44,0,.45-1,2.05-1.89A55.48,55.48,0,0,1,64,149.86a98.73,98.73,0,0,1,14.16-3.55,164.45,164.45,0,0,1,26.5-2.61c4.33-.26,8.63-.44,12.91-.6L117,143H121l-2.58,1h-1.79s-19.48-.35-29.63.6l-7.83.74-3.77.34c-1.32.15-2.7.32-4.15.54s-2.53.36-2.45.11a6.43,6.43,0,0,1,2.78-1c1.15-.27,2.32-.52,3.43-.74l3.28-.65c2.2-.45,4.43-.78,6.68-1.15s4.47-.63,6.7-.9,4.46-.49,6.64-.64a153.91,153.91,0,0,1,23.62-.2c2.76-.17,8.3-1.07,8.3-1.07h.14l-1.87.79c2.23,0,3.44.33,5.47.4l-.79-.57c10.95-.05,32.12.38,32.12.38h1.12l13.27-1h-5c3.62-.4,7.27-.66,10.93-.8,2.59-.08,5.27-.12,7.91-.1s5.19.05,7.69.15a79.1,79.1,0,0,1,12.06,1.2c20.05-1.18,40-2.73,59.71-5a5.12,5.12,0,0,1,2.17.07c.13.16-.5.39-1.52.5-3.52.47-7.06.93-10.61,1.36s-7.15.79-10.74,1.18c-7.17.78-14.43,1.36-21.7,2,12.22-.47,24.5-1.06,36.9-2.13l4.75-.51c1.57-.17,3.11-.26,4.71-.34,3.95-.37,7.83-.8,11.7-1.2l5.81-.61,5.75-.71c3.83-.49,7.68-1,11.54-1.52s7.74-1.21,11.67-1.86c1.69-.29,3.35-.55,5-.85l4.8-.88,9.41-1.8c3.12-.62,6.17-1.32,9.29-2l4.72-1c1.6-.34,3.19-.71,4.8-1.11l13.3-3.27,12.82-3.41c2.14-.53,4.23-1.14,6.33-1.73l6.33-1.77c2.08-.59,4.28-1.13,6.4-1.75l6.44-1.86c2.27-.71,4.6-1,5.12-.71s-.93,1.16-3.23,1.87q-26.77,8.75-55,15.05a583.28,583.28,0,0,1-59.46,9.92c-4.46.55-8.86,1-13.25,1.42a.47.47,0,0,1,.15.17c.06.23-.32.5-1,.75l7.52-.71c2.52-.21,5-.5,7.54-.71l10.39-1.63q5.19-.9,10.38-1.76l5.26-.83,5.31-.89q5.32-.87,10.85-1.65c5-.78,9.83-1.49,14.53-2.14,2.39-.29,4.71-.66,7-1l7-1,4.32-1c1.43-.34,2.85-.71,4.26-1.07l8.5-2.13c2.85-.71,5.64-1.5,8.44-2.29l8.44-2.34a3.1,3.1,0,0,1,1.14-.19c.21,0,0,.18-.43.33q-5.68,1.86-11.56,3.7c-1.95.62-3.94,1.18-6,1.73l-6,1.67c1.42,0,2.36.12,2.43.52s-.77,1-2.2,1.56l5.67-1.25c1.16-.25,2.16-.31,2.22-.12s-.78.57-1.9.82L378,128.82l-11.68,2.31-3.46.79c-1.16.26-2.33.48-3.49.71l-7,1.43c-2.34.46-4.67.95-7,1.38l-7.09,1.25a8.9,8.9,0,0,1,3.11.49h0l4.41-.71c26.47-5.61,52.95-12.14,79.19-19.56.51-.14,1-.2,1-.11s-.29.26-.76.39q-6,1.62-11.89,3.3l-3,.84-3,.77-5.92,1.52h0c.35,0,.46,0,.14.2a4.59,4.59,0,0,1-1.25.32c-.41,0-.42-.07-.15-.2l-5.55,1.48L389,126.78l-11.16,2.76c-7.49,1.69-14.89,3.56-22.38,5.09,7-1.24,14-2.75,20.91-4.16L379,130l2.59-.57,5.19-1.16,5.19-1.13c1.72-.38,3.46-.71,5.19-1.17l4.3-1.42a3.43,3.43,0,0,1,1.16-.17c.16,0-.1.2-.51.33l-1.2.4c2.6-.62,4.78-.76,5-.3s-1.92,1.42-4.62,2.06l-5.37,1.43-5.43,1.28c-3.62.84-7.26,1.7-10.87,2.51l-2.34.57-2.3.71q17.24-3.25,34.06-7.23a3.63,3.63,0,0,1,1.94-.17c.1.15-.58.48-1.54.71a571.25,571.25,0,0,1-59.89,14.29c-3.26.94-6.57,1.81-9.88,2.72s-6.65,1.86-10.06,2.67l2.68-.34c5.67-.91,11.08-1.9,16.34-2.94s10.31-2.35,15.35-3.56,9.95-2.61,15-3.88c2.52-.62,5-1.34,7.58-2s5.13-1.35,7.77-2a2.3,2.3,0,0,1,1.11-.12c.1.07-.22.24-.76.36-5.19,1.3-10,2.72-14.88,4s-9.79,2.6-14.93,3.88l-12.63,2.92-3.11.71-3.06.67L340,145.38l6.23-1.11,3.12-.56,3.05-.63c4-.85,8.06-1.73,12.07-2.6s7.93-1.92,11.91-2.85l6-1.42,6-1.53a8.69,8.69,0,0,1,1.91-.34c0-.05.14-.13.35-.2,1.91-.71,4-1.34,6.23-2a3.39,3.39,0,0,1,1.24-.19C398.28,132,398.06,132.13,397.61,132.28ZM103.31,150h1.1l2.25.52ZM77.8,156.89h0l-1.32-.11Zm164.8-16.75q-6.57.44-13.11.74c-4.36.18-8.72.25-13.08.28l6.33-.48,4.95-.11,5-.15Zm-158,10c1.28,0,2.43,0,3.49.07s2.08.17,3,.28c1.62-.32,3.26-.57,4.92-.74,4.56-.53,9-.85,13.34-1.1-.6-.2.45-.26,1-.33l1.62-.18c-4.64.16-9.34.42-14.14.74C93.52,149.23,88.82,149.72,84.64,150.15ZM51.56,161.68l-.47.18.49-.83S51.56,161.31,51.56,161.68ZM50.89,163l.66-.41a.67.67,0,0,1-.63.41Zm6.34-3.1a6.09,6.09,0,0,0-1,.26Zm11.86,7.85a18,18,0,0,1,.61-2.35,19.76,19.76,0,0,0-.82,2.34Z" transform="translate(-36.95 -50)"/>
      </g>
    </g>
  </g>
</svg>
