<svg id="Capa_1" data-name="Capa 1" xmlns="http://www.w3.org/2000/svg" viewBox="0 0 512 512">
  <defs>
    <style>
   
    </style>
  </defs>

  <rect y="160" width="114.5" height="352"/>
  <path d="M426.37,164.13c-1.22-.39-2.37-.8-3.65-1.15-1.54-.36-3.07-.64-4.64-.9A102.69,102.69,0,0,0,397.54,160c-66.76,0-109.09,48.54-123,67.3V160H160V512H274.5V320s86.52-120.51,123-32V512H512V274.46C512,221.28,475.55,177,426.37,164.13Z"/>
  <circle cx="56" cy="56" r="56"/>
  <g>
    <rect class="social-icon" y="160" width="114.5" height="352"/>
    <path class="social-icon" d="M426.37,164.13c-1.22-.39-2.37-.8-3.65-1.15-1.54-.36-3.07-.64-4.64-.9A102.69,102.69,0,0,0,397.54,160c-66.76,0-109.09,48.54-123,67.3V160H160V512H274.5V320s86.52-120.51,123-32V512H512V274.46C512,221.28,475.55,177,426.37,164.13Z"/>
    <circle class="social-icon" cx="56" cy="56" r="56"/>
  </g>
</svg>
