<svg id="Layer_1" data-name="Layer 1" xmlns="http://www.w3.org/2000/svg" viewBox="0 0 132.51 157.4">
  <defs>
    <style>
      .cls-1, .cls-3, .cls-4 {
        fill: #fff;
      }

      .cls-2, .cls-4 {
        opacity: 0.67;
      }

      .cls-3, .cls-4 {
        stroke: #fff;
        stroke-miterlimit: 10;
      }

      .cls-4 {
        isolation: isolate;
      }
    </style>
  </defs>
  <title>my-logo</title>
  <g>
    <path class="cls-1" d="M322.44,137.74" transform="translate(-14.66 -22.05)"/>
    <g class="cls-2">
      <path class="cls-3" d="M132.16,35.86a1.51,1.51,0,0,0-.6,0,16,16,0,0,0-4.65,2.42,12.12,12.12,0,0,0-3.83,4.66,11,11,0,0,0-.86,1.92c-.35,1.47-.59,3-.81,4.51a2.24,2.24,0,0,0,.22,2c.6-.11,1.19-.18,1.76-.32a8.34,8.34,0,0,0,4.35-2.91,13.15,13.15,0,0,0,3.31-5.59,9.47,9.47,0,0,1,.52-1.64,13.45,13.45,0,0,0,.69-3.89,5.62,5.62,0,0,0-.1-1.16Z" transform="translate(-14.66 -22.05)"/>
      <path class="cls-3" d="M133.21,34.13a5.38,5.38,0,0,1,.12,1.14,13.79,13.79,0,0,1-.69,3.88,9.86,9.86,0,0,0-.52,1.65,13.08,13.08,0,0,1-3.31,5.6,8.37,8.37,0,0,1-4.34,2.91c-.57.14-1.16.21-1.75.32a2.21,2.21,0,0,1-.23-2c.21-1.53.45-3,.8-4.51a11.42,11.42,0,0,1,.87-1.92A12.36,12.36,0,0,1,128,36.47a16.36,16.36,0,0,1,4.65-2.42A2.33,2.33,0,0,1,133.21,34.13Z" transform="translate(-14.66 -22.05)"/>
    </g>
    <path class="cls-4" d="M146.7,46a14.36,14.36,0,0,1-1.56,3.71,10.48,10.48,0,0,0-.91,1.55,14.76,14.76,0,0,1-4.68,5,10,10,0,0,1-5.19,2.26c-.63,0-1.25,0-1.91.07-.45-.84,0-1.43.2-2,.56-1.47,1.14-2.92,1.83-4.32a12.91,12.91,0,0,1,1.33-1.76,14.19,14.19,0,0,1,5-4.06,19.26,19.26,0,0,1,5.4-1.73" transform="translate(-14.66 -22.05)"/>
    <g class="cls-2">
      <path class="cls-3" d="M23.26,74.83a1.8,1.8,0,0,0,.27.62A23,23,0,0,0,28,79.51a15.38,15.38,0,0,0,6.11,2.6,13.47,13.47,0,0,0,2.16.34c1.5-.07,3-.24,4.47-.45.6-.09,1.32,0,1.72-.8-.39-.59-.74-1.17-1.14-1.71a11.7,11.7,0,0,0-4.79-3.62c-2.15-1-4.37-1.91-6.69-1.81A9.22,9.22,0,0,1,28.11,74a12.43,12.43,0,0,0-3.85.39,5,5,0,0,0-1,.44Z" transform="translate(-14.66 -22.05)"/>
      <path class="cls-3" d="M21.17,74.25a4.45,4.45,0,0,1,1-.44,12.5,12.5,0,0,1,3.86-.4,9.22,9.22,0,0,0,1.74.07c2.33-.11,4.54.83,6.69,1.79a11.88,11.88,0,0,1,4.79,3.62c.39.55.75,1.12,1.15,1.7-.41.83-1.13.72-1.73.81a39.53,39.53,0,0,1-4.48.46A12.74,12.74,0,0,1,32,81.52a15.34,15.34,0,0,1-6.11-2.59,23,23,0,0,1-4.48-4.06A3.61,3.61,0,0,1,21.17,74.25Z" transform="translate(-14.66 -22.05)"/>
    </g>
    <g class="cls-2">
      <path class="cls-3" d="M123.71,171.2a2.32,2.32,0,0,0,.34-.59,19.63,19.63,0,0,0,.4-5.72,12.44,12.44,0,0,0-1.9-5.89,11.06,11.06,0,0,0-1.14-1.71c-1.06-1-2.19-1.92-3.34-2.81-.48-.36-.86-.94-1.82-.68-.22.65-.47,1.27-.65,1.89a9.77,9.77,0,0,0,.17,5.62c.62,2.11,1.31,4.25,2.94,5.79a8.71,8.71,0,0,1,1.1,1.25,11.27,11.27,0,0,0,2.88,2.42,5.06,5.06,0,0,0,1,.41Z" transform="translate(-14.66 -22.05)"/>
      <path class="cls-3" d="M123.52,172.58a4.59,4.59,0,0,1-1-.39,11.2,11.2,0,0,1-2.88-2.41,7.81,7.81,0,0,0-1.11-1.25c-1.63-1.54-2.32-3.68-3-5.79a9.78,9.78,0,0,1-.17-5.62c.19-.62.43-1.25.65-1.89.94-.25,1.34.31,1.81.67a37.57,37.57,0,0,1,3.35,2.82,10.22,10.22,0,0,1,1.15,1.71,12.49,12.49,0,0,1,1.91,5.89,19.93,19.93,0,0,1-.4,5.71A3.43,3.43,0,0,1,123.52,172.58Z" transform="translate(-14.66 -22.05)"/>
    </g>
    <path class="cls-4" d="M138.69,164a5,5,0,0,1-1.07-.24,11.24,11.24,0,0,1-3.26-1.93,8.85,8.85,0,0,0-1.3-1.06c-1.88-1.25-2.91-3.24-3.86-5.21a9.48,9.48,0,0,1-1-5.47c.09-.63.23-1.28.35-1.95.91-.38,1.38.12,1.92.39a40.2,40.2,0,0,1,3.79,2.25,9.63,9.63,0,0,1,1.41,1.51,12.24,12.24,0,0,1,2.84,5.46,19.35,19.35,0,0,1,.5,5.62A3.52,3.52,0,0,1,138.69,164Z" transform="translate(-14.66 -22.05)"/>
    <g class="cls-2">
      <path class="cls-3" d="M27.2,137.81c.21.16.34.32.5.36a16,16,0,0,0,5.21.47,12.11,12.11,0,0,0,5.72-1.87,12.67,12.67,0,0,0,1.76-1.15c1.07-1.06,2.09-2.21,3.09-3.37.4-.48,1-.86.89-1.84-.56-.23-1.1-.49-1.64-.68a8.41,8.41,0,0,0-5.23.1,13.06,13.06,0,0,0-5.77,2.93,10.54,10.54,0,0,1-1.31,1.11,13.78,13.78,0,0,0-2.67,2.91,5.9,5.9,0,0,0-.53,1Z" transform="translate(-14.66 -22.05)"/>
      <path class="cls-3" d="M25.39,138.71a5.44,5.44,0,0,1,.52-1,13.46,13.46,0,0,1,2.65-2.91,9.35,9.35,0,0,0,1.32-1.11,13.06,13.06,0,0,1,5.78-2.94,8.37,8.37,0,0,1,5.22-.11c.55.2,1.08.45,1.65.68.09,1-.5,1.36-.9,1.84a45.2,45.2,0,0,1-3.09,3.38,12.23,12.23,0,0,1-1.75,1.14,12,12,0,0,1-5.71,1.88,16,16,0,0,1-5.21-.47C25.73,139,25.6,138.87,25.39,138.71Z" transform="translate(-14.66 -22.05)"/>
    </g>
    <path class="cls-4" d="M18.19,122.32A13.8,13.8,0,0,1,21.5,120a10.75,10.75,0,0,0,1.59-.8,14.65,14.65,0,0,1,6.63-1.71,10,10,0,0,1,5.59.89c.56.3,1.09.62,1.65,1-.07.94-.75,1.21-1.25,1.6a45.75,45.75,0,0,1-3.85,2.62,11.8,11.8,0,0,1-2.06.77,14,14,0,0,1-6.4.71,19,19,0,0,1-5.48-1.44" transform="translate(-14.66 -22.05)"/>
    <g class="cls-2">
      <path class="cls-3" d="M104.73,176.7c.26-.15.5-.22.6-.36a16.6,16.6,0,0,0,2.59-5.1,11.82,11.82,0,0,0,.16-6.49,11.45,11.45,0,0,0-.59-2.21c-.76-1.49-1.65-2.95-2.56-4.39-.37-.59-.57-1.32-1.7-1.6-.49.48-1,.94-1.42,1.41a8.34,8.34,0,0,0-2,5.33c-.12,2.29-.18,4.64,1,7a9.21,9.21,0,0,1,.72,1.75,14.47,14.47,0,0,0,2.21,3.78,6.88,6.88,0,0,0,.93.94Z" transform="translate(-14.66 -22.05)"/>
      <path class="cls-3" d="M105,178.87a6.6,6.6,0,0,1-.93-.9,14.63,14.63,0,0,1-2.22-3.78,9.21,9.21,0,0,0-.72-1.75,13,13,0,0,1-1-6.95,8.49,8.49,0,0,1,1.94-5.34c.44-.48.94-.93,1.42-1.4,1.12.27,1.32,1,1.71,1.59a50.71,50.71,0,0,1,2.56,4.39,12.22,12.22,0,0,1,.59,2.21,11.91,11.91,0,0,1-.15,6.49,16.25,16.25,0,0,1-2.58,5.1A2.8,2.8,0,0,1,105,178.87Z" transform="translate(-14.66 -22.05)"/>
    </g>
    <g class="cls-2">
      <path class="cls-3" d="M75.89,158.33c-.24,0-.44,0-.56.11A16.5,16.5,0,0,0,71.49,162a13.93,13.93,0,0,0-2.66,5.65,14.28,14.28,0,0,0-.45,2.16c0,1.58,0,3.18.08,4.78,0,.65-.11,1.37.58,2,.53-.25,1.06-.46,1.56-.73a8.8,8.8,0,0,0,3.47-4,15.33,15.33,0,0,0,2-6.47,12.05,12.05,0,0,1,.17-1.8,15.84,15.84,0,0,0-.07-4.12,6.51,6.51,0,0,0-.31-1.15Z" transform="translate(-14.66 -22.05)"/>
      <path class="cls-3" d="M76.54,156.32a7.62,7.62,0,0,1,.32,1.13,16.75,16.75,0,0,1,.07,4.12,12.05,12.05,0,0,0-.17,1.8,15.18,15.18,0,0,1-2,6.47,8.82,8.82,0,0,1-3.47,4c-.5.27-1,.48-1.56.73-.68-.64-.54-1.36-.58-2-.08-1.61-.14-3.2-.08-4.79a14.64,14.64,0,0,1,.44-2.15A13.8,13.8,0,0,1,72.15,160,16.49,16.49,0,0,1,76,156.39,2.15,2.15,0,0,1,76.54,156.32Z" transform="translate(-14.66 -22.05)"/>
    </g>
    <path class="cls-4" d="M15.32,109A13.48,13.48,0,0,1,18.85,107a11.17,11.17,0,0,0,1.67-.62,14.61,14.61,0,0,1,6.78-1,10,10,0,0,1,5.46,1.49c.52.36,1,.75,1.53,1.15-.17.93-.87,1.12-1.41,1.45-1.35.8-2.7,1.56-4.11,2.22a13.56,13.56,0,0,1-2.13.54,14,14,0,0,1-6.44,0,19.31,19.31,0,0,1-5.29-2" transform="translate(-14.66 -22.05)"/>
    <g class="cls-2">
      <path class="cls-1" d="M60.27,60.68" transform="translate(-14.66 -22.05)"/>
      <path class="cls-1" d="M60.27,62.25a1.57,1.57,0,0,0,0-3.13A1.57,1.57,0,0,0,60.27,62.25Z" transform="translate(-14.66 -22.05)"/>
    </g>
    <g class="cls-2">
      <path class="cls-1" d="M49.9,71.64" transform="translate(-14.66 -22.05)"/>
      <path class="cls-1" d="M49.9,73.2a1.57,1.57,0,0,0,0-3.13A1.57,1.57,0,0,0,49.9,73.2Z" transform="translate(-14.66 -22.05)"/>
    </g>
    <g class="cls-2">
      <path class="cls-1" d="M46.26,84l-.14-.14" transform="translate(-14.66 -22.05)"/>
      <path class="cls-1" d="M47.36,82.86l-.14-.13a1.61,1.61,0,0,0-1.1-.46,1.57,1.57,0,0,0-1.1.46,1.53,1.53,0,0,0-.46,1.1,1.61,1.61,0,0,0,.46,1.1l.13.14a1.64,1.64,0,0,0,1.11.46,1.59,1.59,0,0,0,1.1-.46,1.57,1.57,0,0,0,.46-1.1A1.64,1.64,0,0,0,47.36,82.86Z" transform="translate(-14.66 -22.05)"/>
    </g>
    <g class="cls-2">
      <path class="cls-1" d="M40.47,94.34" transform="translate(-14.66 -22.05)"/>
      <path class="cls-1" d="M40.47,95.9a1.56,1.56,0,0,0,0-3.12A1.56,1.56,0,0,0,40.47,95.9Z" transform="translate(-14.66 -22.05)"/>
    </g>
    <g class="cls-2">
      <path class="cls-1" d="M40.33,106.74" transform="translate(-14.66 -22.05)"/>
      <path class="cls-1" d="M40.33,108.3a1.56,1.56,0,0,0,0-3.12A1.56,1.56,0,0,0,40.33,108.3Z" transform="translate(-14.66 -22.05)"/>
    </g>
    <g class="cls-2">
      <path class="cls-1" d="M43.76,117.41" transform="translate(-14.66 -22.05)"/>
      <path class="cls-1" d="M43.76,119a1.57,1.57,0,0,0,0-3.13A1.57,1.57,0,0,0,43.76,119Z" transform="translate(-14.66 -22.05)"/>
    </g>
    <g class="cls-2">
      <path class="cls-1" d="M48.89,128.91" transform="translate(-14.66 -22.05)"/>
      <path class="cls-1" d="M48.89,130.47a1.56,1.56,0,0,0,0-3.12A1.56,1.56,0,0,0,48.89,130.47Z" transform="translate(-14.66 -22.05)"/>
    </g>
    <g class="cls-2">
      <path class="cls-1" d="M56.14,140.37" transform="translate(-14.66 -22.05)"/>
      <path class="cls-1" d="M56.14,141.93a1.56,1.56,0,0,0,0-3.12A1.56,1.56,0,0,0,56.14,141.93Z" transform="translate(-14.66 -22.05)"/>
    </g>
    <g class="cls-2">
      <path class="cls-1" d="M66,148.33" transform="translate(-14.66 -22.05)"/>
      <path class="cls-1" d="M66,149.9a1.57,1.57,0,0,0,0-3.13A1.57,1.57,0,0,0,66,149.9Z" transform="translate(-14.66 -22.05)"/>
    </g>
    <g class="cls-2">
      <path class="cls-1" d="M78.52,151.87h.14" transform="translate(-14.66 -22.05)"/>
      <path class="cls-1" d="M78.52,153.43h.14a1.57,1.57,0,0,0,1.1-.46,1.55,1.55,0,0,0,0-2.2,1.61,1.61,0,0,0-1.1-.46h-.14a1.61,1.61,0,0,0-1.1.46,1.55,1.55,0,0,0,0,2.2A1.57,1.57,0,0,0,78.52,153.43Z" transform="translate(-14.66 -22.05)"/>
    </g>
    <g class="cls-2">
      <path class="cls-1" d="M89.67,153.47l.14.13" transform="translate(-14.66 -22.05)"/>
      <path class="cls-1" d="M88.57,154.57l.13.14a1.65,1.65,0,0,0,1.11.45,1.56,1.56,0,0,0,1.56-1.56,1.63,1.63,0,0,0-.46-1.1l-.13-.14a1.6,1.6,0,0,0-1.11-.45,1.55,1.55,0,0,0-1.56,1.56,1.63,1.63,0,0,0,.46,1.1Z" transform="translate(-14.66 -22.05)"/>
    </g>
    <g class="cls-2">
      <path class="cls-1" d="M101.67,152.1l.14.13" transform="translate(-14.66 -22.05)"/>
      <path class="cls-1" d="M100.57,153.2l.13.14a1.64,1.64,0,0,0,1.11.46,1.56,1.56,0,0,0,1.56-1.57,1.63,1.63,0,0,0-.46-1.1l-.14-.13a1.57,1.57,0,0,0-1.1-.46,1.53,1.53,0,0,0-1.1.46,1.51,1.51,0,0,0-.46,1.1A1.57,1.57,0,0,0,100.57,153.2Z" transform="translate(-14.66 -22.05)"/>
    </g>
    <g class="cls-2">
      <path class="cls-1" d="M114.44,149.92" transform="translate(-14.66 -22.05)"/>
      <path class="cls-1" d="M114.44,151.48a1.56,1.56,0,0,0,0-3.12A1.56,1.56,0,0,0,114.44,151.48Z" transform="translate(-14.66 -22.05)"/>
    </g>
    <g class="cls-2">
      <path class="cls-1" d="M126.47,144.12" transform="translate(-14.66 -22.05)"/>
      <path class="cls-1" d="M126.47,145.68a1.57,1.57,0,0,0,0-3.13A1.57,1.57,0,0,0,126.47,145.68Z" transform="translate(-14.66 -22.05)"/>
    </g>
    <g class="cls-2">
      <path class="cls-1" d="M71.4,54.49" transform="translate(-14.66 -22.05)"/>
      <path class="cls-1" d="M71.4,56.05a1.56,1.56,0,0,0,0-3.12A1.56,1.56,0,0,0,71.4,56.05Z" transform="translate(-14.66 -22.05)"/>
    </g>
    <g class="cls-2">
      <path class="cls-1" d="M84.09,50.58" transform="translate(-14.66 -22.05)"/>
      <path class="cls-1" d="M84.09,52.14a1.56,1.56,0,0,0,0-3.12A1.56,1.56,0,0,0,84.09,52.14Z" transform="translate(-14.66 -22.05)"/>
    </g>
    <g class="cls-2">
      <path class="cls-1" d="M96.35,49.63" transform="translate(-14.66 -22.05)"/>
      <path class="cls-1" d="M96.35,51.19a1.56,1.56,0,0,0,0-3.12A1.56,1.56,0,0,0,96.35,51.19Z" transform="translate(-14.66 -22.05)"/>
    </g>
    <g class="cls-2">
      <path class="cls-1" d="M107.25,50.58" transform="translate(-14.66 -22.05)"/>
      <path class="cls-1" d="M107.25,52.14a1.56,1.56,0,0,0,0-3.12A1.56,1.56,0,0,0,107.25,52.14Z" transform="translate(-14.66 -22.05)"/>
    </g>
    <g class="cls-2">
      <path class="cls-1" d="M119.79,54.28v.27" transform="translate(-14.66 -22.05)"/>
      <path class="cls-1" d="M118.23,54.28v.27a1.61,1.61,0,0,0,.46,1.1,1.57,1.57,0,0,0,1.1.46,1.51,1.51,0,0,0,1.1-.46,1.57,1.57,0,0,0,.46-1.1v-.27a1.61,1.61,0,0,0-.46-1.11,1.55,1.55,0,0,0-2.2,0A1.66,1.66,0,0,0,118.23,54.28Z" transform="translate(-14.66 -22.05)"/>
    </g>
    <g class="cls-2">
      <path class="cls-1" d="M129.88,61.92a.16.16,0,0,1,.16.16.16.16,0,0,1,0,.09" transform="translate(-14.66 -22.05)"/>
      <path class="cls-1" d="M129.88,63.48h0l-.42,0h0l-.38-.16,0,0-.31-.25,0,.05-.24-.32v0l-.16-.37a.14.14,0,0,1,0,.06l-.07-.4v0l.05-.42v0l.16-.37,0,0a1.56,1.56,0,1,0,2.59,1.75,1.18,1.18,0,0,0,.11-.19,1.7,1.7,0,0,0,0-1.74,1.77,1.77,0,0,0-1.49-.86,1.61,1.61,0,0,0-1.11.46,1.56,1.56,0,0,0,1.11,2.66Z" transform="translate(-14.66 -22.05)"/>
    </g>
    <path class="cls-4" d="M97.17,22.92a13.7,13.7,0,0,1,1.48,3.75,9.34,9.34,0,0,0,.44,1.73,14.66,14.66,0,0,1,.17,6.87,10.11,10.11,0,0,1-2.11,5.27c-.42.47-.87.91-1.32,1.38-.9-.27-1-1-1.27-1.58A45.65,45.65,0,0,1,92.85,36a12,12,0,0,1-.29-2.18,14.3,14.3,0,0,1,.75-6.41,19,19,0,0,1,2.63-5" transform="translate(-14.66 -22.05)"/>
    <path class="cls-4" d="M75.67,25.08A13.74,13.74,0,0,1,78.5,28a10.72,10.72,0,0,0,1.08,1.43,14.63,14.63,0,0,1,2.86,6.24,10.06,10.06,0,0,1,.11,5.66c-.2.6-.44,1.18-.67,1.79-.94.1-1.32-.53-1.79-1-1.15-1.08-2.26-2.17-3.29-3.34a13.74,13.74,0,0,1-1.12-1.9,14,14,0,0,1-1.82-6.19A19.18,19.18,0,0,1,74.31,25" transform="translate(-14.66 -22.05)"/>
    <path class="cls-4" d="M17.34,90.27a14.07,14.07,0,0,1,3.89-1.07A9.56,9.56,0,0,0,23,89a14.81,14.81,0,0,1,6.85.55,10.08,10.08,0,0,1,5,2.67c.43.46.81,1,1.25,1.46-.38.86-1.11.89-1.72,1.09-1.49.47-3,.92-4.51,1.25a16.24,16.24,0,0,1-2.21,0,14.09,14.09,0,0,1-6.29-1.43,19.17,19.17,0,0,1-4.72-3.15" transform="translate(-14.66 -22.05)"/>
    <path class="cls-4" d="M57.58,33.8A14,14,0,0,1,61,35.87,10.57,10.57,0,0,0,62.44,37a14.62,14.62,0,0,1,4.33,5.34,10,10,0,0,1,1.52,5.45c0,.63-.13,1.25-.2,1.9-.89.33-1.41-.18-2-.48-1.38-.74-2.71-1.55-4-2.41a12.86,12.86,0,0,1-1.56-1.57,14.2,14.2,0,0,1-3.31-5.53,19.36,19.36,0,0,1-1-5.59" transform="translate(-14.66 -22.05)"/>
    <path class="cls-4" d="M42.12,42.13a14.23,14.23,0,0,1,3.66,1.71,9.8,9.8,0,0,0,1.5,1,14.69,14.69,0,0,1,4.86,4.87,10.14,10.14,0,0,1,2.07,5.27c0,.63,0,1.25,0,1.91-.85.42-1.43,0-2-.28a46.68,46.68,0,0,1-4.24-2,12.52,12.52,0,0,1-1.71-1.39A14.34,14.34,0,0,1,42.37,48a19.49,19.49,0,0,1-1.53-5.45" transform="translate(-14.66 -22.05)"/>
    <path class="cls-4" d="M29.58,58a13.56,13.56,0,0,1,3.9,1,11.41,11.41,0,0,0,1.67.67,14.61,14.61,0,0,1,5.67,3.87,10,10,0,0,1,3,4.79c.15.63.23,1.24.36,1.88-.76.57-1.41.22-2,.1a43.12,43.12,0,0,1-4.54-1.16,12.57,12.57,0,0,1-1.94-1,14.19,14.19,0,0,1-4.76-4.36,19.1,19.1,0,0,1-2.53-5.07" transform="translate(-14.66 -22.05)"/>
    <path class="cls-4" d="M49.37,167.86a14.46,14.46,0,0,1,1-3.9,10,10,0,0,0,.68-1.66,14.72,14.72,0,0,1,3.9-5.66,10,10,0,0,1,4.8-3c.63-.14,1.25-.23,1.88-.35.56.76.21,1.41.09,2-.34,1.54-.7,3-1.18,4.54a13.53,13.53,0,0,1-1.06,1.93,14.15,14.15,0,0,1-4.37,4.74A19.28,19.28,0,0,1,50,169" transform="translate(-14.66 -22.05)"/>
    <path class="cls-4" d="M35.72,153.1a12.69,12.69,0,0,1,1.84-3.7,9.69,9.69,0,0,0,1-1.49c1.21-2.14,3.23-3.34,5.24-4.45a9.34,9.34,0,0,1,5.67-1.33c.67.09,1.35.23,2.05.35.45,1-.05,1.56-.31,2.16A45.45,45.45,0,0,1,49.11,149a11.44,11.44,0,0,1-1.5,1.62,12.17,12.17,0,0,1-5.55,3.32,18.79,18.79,0,0,1-5.87.7" transform="translate(-14.66 -22.05)"/>
    <path class="cls-4" d="M116.34,27.23a14,14,0,0,1,.18,4,10.6,10.6,0,0,0-.15,1.78,14.87,14.87,0,0,1-2.06,6.56,10.11,10.11,0,0,1-3.71,4.28c-.55.31-1.12.58-1.7.88-.76-.55-.62-1.28-.68-1.91a45.86,45.86,0,0,1-.21-4.69,12.43,12.43,0,0,1,.44-2.15,14,14,0,0,1,2.79-5.83,19.21,19.21,0,0,1,4.11-3.89" transform="translate(-14.66 -22.05)"/>
    <path class="cls-4" d="M85.37,177.84a14.11,14.11,0,0,1-.9-3.93,9.67,9.67,0,0,0-.17-1.78,14.73,14.73,0,0,1,.85-6.82A10.19,10.19,0,0,1,88,160.43c.49-.4,1-.77,1.51-1.17.86.42.85,1.15,1,1.76a45.67,45.67,0,0,1,1,4.57,12.35,12.35,0,0,1,0,2.19,14.06,14.06,0,0,1-1.7,6.22,19.32,19.32,0,0,1-3.36,4.57" transform="translate(-14.66 -22.05)"/>
  </g>
</svg>
