<svg id="Layer_1" data-name="Layer 1" xmlns="http://www.w3.org/2000/svg" viewBox="0 0 315.44 164.54">
  <defs>
    <style>
      .cls-1, .cls-3, .cls-5, .cls-6, .cls-7, .cls-8 {
        fill: #fff;
      }

      .cls-2 {
        fill: #b29f66;
      }

      .cls-3 {
        stroke: #fff;
        stroke-miterlimit: 10;
      }

      .cls-4, .cls-5, .cls-6, .cls-7, .cls-8 {
        isolation: isolate;
      }

      .cls-5, .cls-6 {
        font-size: 40.68px;
        font-family: BarlowCondensed-Light, Barlow Condensed;
      }

      .cls-5, .cls-6, .cls-7, .cls-8 {
        font-weight: 300;
      }

      .cls-6 {
        letter-spacing: -0.01em;
      }

      .cls-7, .cls-8 {
        font-size: 17.72px;
        font-family: Quicksand-Light, Quicksand;
      }

      .cls-8 {
        letter-spacing: -0.01em;
      }
    </style>
  </defs>
  <title>my-logo</title>
  <g>
    <path class="cls-1" d="M48.84,88c.45-.68,1.09-.51,1.74-.36s.68.56.84,1a1.7,1.7,0,0,1-2,.7C48.79,89,48.79,88.46,48.84,88Z" transform="translate(-0.11 -52.71)"/>
    <path class="cls-1" d="M84.91,79.53A1.35,1.35,0,0,1,84,81a1.05,1.05,0,0,1-1.31-.4A1,1,0,0,1,83,79.25h0A1.49,1.49,0,0,1,84.91,79.53Z" transform="translate(-0.11 -52.71)"/>
    <path class="cls-1" d="M44.12,95.14a1.44,1.44,0,0,1-1.8.61c-.45-.16-.84-.46-.79-1A.9.9,0,0,1,42.59,94,1.69,1.69,0,0,1,44.12,95.14Z" transform="translate(-0.11 -52.71)"/>
    <path class="cls-1" d="M102,183.49c.22,0,.66,0,.89.24a1.32,1.32,0,0,1,0,1.85,1,1,0,0,1-1.22-.08A1.52,1.52,0,0,1,102,183.49Z" transform="translate(-0.11 -52.71)"/>
    <path class="cls-1" d="M47.66,91.9a1.47,1.47,0,0,1-1.89,0c-.36-.35-.58-.76-.29-1.2a1.59,1.59,0,0,1,1.91-.11A1,1,0,0,1,47.66,91.9Z" transform="translate(-0.11 -52.71)"/>
    <path class="cls-1" d="M105.54,183a7.21,7.21,0,0,1-.3-.93,1.15,1.15,0,0,1,.83-1.1.66.66,0,0,1,.86.36.64.64,0,0,1,0,.07.5.5,0,0,1,0,.12,4.15,4.15,0,0,1,.15.7c0,.42-.07.89-.56,1A2.73,2.73,0,0,1,105.54,183Z" transform="translate(-0.11 -52.71)"/>
    <path class="cls-1" d="M74.46,81.15a2,2,0,0,1-.73.44,3.37,3.37,0,0,1-1.34-.14.88.88,0,0,1-.39-.68,1.21,1.21,0,0,1,.5-.83C73.29,79.53,74,80,74.46,81.15Z" transform="translate(-0.11 -52.71)"/>
    <path class="cls-1" d="M23.73,133.44a1.65,1.65,0,0,1,1.85-.28,1,1,0,0,1,0,1.4h0a1.19,1.19,0,0,1-1.64.05.84.84,0,0,1-.22-1.15Z" transform="translate(-0.11 -52.71)"/>
    <path class="cls-1" d="M53.76,86.55a4.22,4.22,0,0,1,.29-1.15,1.11,1.11,0,0,1,.78-.33,2.66,2.66,0,0,1,.81.31c.38.15.76.41.61.79a1.18,1.18,0,0,1-.84.63A6.16,6.16,0,0,1,53.76,86.55Z" transform="translate(-0.11 -52.71)"/>
    <path class="cls-1" d="M31.42,110.93a.86.86,0,0,1,.24,1.18v0a1.7,1.7,0,0,1-1.93,0,1.06,1.06,0,0,1-.12-1.24A1.62,1.62,0,0,1,31.42,110.93Z" transform="translate(-0.11 -52.71)"/>
    <path class="cls-1" d="M95.52,83.12a1.37,1.37,0,0,1,1.77.12.68.68,0,0,1-.12,1.12,1.32,1.32,0,0,1-1.74.12.88.88,0,0,1-.06-1.24h0A.81.81,0,0,1,95.52,83.12Z" transform="translate(-0.11 -52.71)"/>
    <path class="cls-1" d="M70.67,81.79q-.69.09-1.38.12a.94.94,0,0,1-.94-.82.38.38,0,0,1,0-.15.81.81,0,0,1,.78-.87h.14C70.15,80.1,70.5,80.48,70.67,81.79Z" transform="translate(-0.11 -52.71)"/>
    <path class="cls-1" d="M98.61,187.62c-.51.36-.85.28-1.2-.25a1.19,1.19,0,0,1,.24-1.67h0l0,0a.85.85,0,0,1,1.15.28A1.11,1.11,0,0,1,98.61,187.62Z" transform="translate(-0.11 -52.71)"/>
    <path class="cls-1" d="M39.39,99.17a2.15,2.15,0,0,1,0,.91c-.15.4-1.49.43-1.9.09A.84.84,0,0,1,37.37,99l0,0A1.52,1.52,0,0,1,39.39,99.17Z" transform="translate(-0.11 -52.71)"/>
    <path class="cls-1" d="M23.22,127.32a1.66,1.66,0,0,1,1.78,0c.33.35.59.74.23,1.19a1.27,1.27,0,0,1-1.74,0C23.06,128.09,22.94,127.64,23.22,127.32Z" transform="translate(-0.11 -52.71)"/>
    <path class="cls-1" d="M59.24,83.87c0,.16.27.53.2.81s-.46.35-.75.38c-.85.1-1.37-.13-1.45-.62a1.27,1.27,0,0,1,.25-1C57.87,83.14,58.64,83.32,59.24,83.87Z" transform="translate(-0.11 -52.71)"/>
    <path class="cls-1" d="M37.73,103c-.54.93-1.32.6-2,.37a1,1,0,0,1-.46-.77,1.31,1.31,0,0,1,.81-.7A1.49,1.49,0,0,1,37.73,103Z" transform="translate(-0.11 -52.71)"/>
    <path class="cls-1" d="M29.37,117.37a1.48,1.48,0,0,1-1.75.84.61.61,0,0,1-.61-.61.59.59,0,0,1,.12-.37C27.78,116.1,28.38,116.12,29.37,117.37Z" transform="translate(-0.11 -52.71)"/>
    <path class="cls-1" d="M112.06,91.43a1.56,1.56,0,0,1-1.71.1.82.82,0,0,1,0-1.16.6.6,0,0,1,.08-.08,1.26,1.26,0,0,1,1.48,0C112.31,90.72,112.37,91.09,112.06,91.43Z" transform="translate(-0.11 -52.71)"/>
    <path class="cls-1" d="M108,88.59c-.18,1-.94.92-1.6.89-.22,0-.59-.46-.66-.74a.8.8,0,0,1,.41-.73C106.72,88,107.46,87.71,108,88.59Z" transform="translate(-0.11 -52.71)"/>
    <path class="cls-1" d="M92.4,189.12a1.08,1.08,0,0,1,.17-1.44.85.85,0,0,1,1.13.06,1.6,1.6,0,0,1,0,1.7A.94.94,0,0,1,92.4,189.12Z" transform="translate(-0.11 -52.71)"/>
    <path class="cls-1" d="M60.83,82.57c.65.24,1.34.26,1.4,1a.87.87,0,0,1-.57.72,1.92,1.92,0,0,1-1.33-.39C59.84,83.32,60.52,83,60.83,82.57Z" transform="translate(-0.11 -52.71)"/>
    <g>
      <path class="cls-1" d="M315.06,174.44" transform="translate(-0.11 -52.71)"/>
      <path class="cls-2" d="M315.06,174.93a.49.49,0,1,0-.49-.49A.49.49,0,0,0,315.06,174.93Z" transform="translate(-0.11 -52.71)"/>
    </g>
    <g>
      <path class="cls-3" d="M115.15,67.4a1.53,1.53,0,0,0-.64,0,17,17,0,0,0-4.89,2.54,12.66,12.66,0,0,0-4,4.9,11.36,11.36,0,0,0-.91,2c-.36,1.55-.62,3.15-.85,4.75a2.34,2.34,0,0,0,.23,2.13c.64-.11,1.25-.18,1.85-.33a8.85,8.85,0,0,0,4.57-3A14,14,0,0,0,114,74.43a10.51,10.51,0,0,1,.54-1.73,14,14,0,0,0,.73-4.08,6.22,6.22,0,0,0-.1-1.22Z" transform="translate(-0.11 -52.71)"/>
      <path class="cls-3" d="M116.25,65.58a6,6,0,0,1,.12,1.2,14.43,14.43,0,0,1-.72,4.08,10.54,10.54,0,0,0-.55,1.73,13.79,13.79,0,0,1-3.47,5.88,8.9,8.9,0,0,1-4.56,3.07c-.6.13-1.22.21-1.85.32a2.34,2.34,0,0,1-.24-2.13c.23-1.61.47-3.2.85-4.75a12.51,12.51,0,0,1,.91-2,12.84,12.84,0,0,1,4-4.92,16.84,16.84,0,0,1,4.88-2.55A2.57,2.57,0,0,1,116.25,65.58Z" transform="translate(-0.11 -52.71)"/>
    </g>
    <g>
      <path class="cls-3" d="M77.71,55.89c-.23.15-.44.22-.53.38A21.7,21.7,0,0,0,74.56,62a18.28,18.28,0,0,0-.7,7.42,18.22,18.22,0,0,0,.31,2.57c.51,1.75,1.13,3.48,1.78,5.2.26.69.37,1.55,1.29,1.94.46-.53.91-1,1.32-1.53a12,12,0,0,0,2.09-6,20,20,0,0,0-.24-8,12.94,12.94,0,0,1-.46-2A19.29,19.29,0,0,0,78.42,57a8.21,8.21,0,0,0-.72-1.12Z" transform="translate(-0.11 -52.71)"/>
      <path class="cls-3" d="M77.66,53.38a7.11,7.11,0,0,1,.71,1.1A19.56,19.56,0,0,1,79.91,59,13.06,13.06,0,0,0,80.37,61a19.78,19.78,0,0,1,.25,8,11.87,11.87,0,0,1-2.09,6c-.41.52-.86,1-1.31,1.52-.92-.38-1-1.24-1.31-1.93-.66-1.72-1.28-3.44-1.78-5.2a18.05,18.05,0,0,1-.33-2.57,18.31,18.31,0,0,1,.68-7.42,21.91,21.91,0,0,1,2.63-5.68A4.39,4.39,0,0,1,77.66,53.38Z" transform="translate(-0.11 -52.71)"/>
    </g>
    <path class="cls-1" d="M130.42,78.09A14.85,14.85,0,0,1,128.78,82a10.91,10.91,0,0,0-1,1.62,15.48,15.48,0,0,1-4.92,5.28,10.47,10.47,0,0,1-5.46,2.38c-.65.06-1.31,0-2,.07-.47-.87,0-1.49.21-2.12.59-1.55,1.2-3.06,1.92-4.53a13.63,13.63,0,0,1,1.4-1.85,15.11,15.11,0,0,1,5.27-4.27,20.21,20.21,0,0,1,5.67-1.82" transform="translate(-0.11 -52.71)"/>
    <g>
      <path class="cls-3" d="M96.38,58.13c-.27.08-.49.08-.63.21a21.66,21.66,0,0,0-4.2,4.56,17.48,17.48,0,0,0-2.8,6.75,17.38,17.38,0,0,0-.43,2.48c0,1.78.12,3.58.26,5.36.07.72-.07,1.55.73,2.18.59-.36,1.18-.68,1.73-1a11.47,11.47,0,0,0,3.77-5,18.55,18.55,0,0,0,2-7.57A12.77,12.77,0,0,1,97,64a17.89,17.89,0,0,0-.23-4.61,7.06,7.06,0,0,0-.39-1.26Z" transform="translate(-0.11 -52.71)"/>
      <path class="cls-3" d="M97,55.77a7.68,7.68,0,0,1,.4,1.23,17.87,17.87,0,0,1,.23,4.61,14.13,14.13,0,0,0-.14,2,18.65,18.65,0,0,1-2,7.57,11.55,11.55,0,0,1-3.76,5c-.56.37-1.14.69-1.73,1.05-.8-.62-.66-1.45-.73-2.17-.15-1.8-.28-3.58-.27-5.37a16.51,16.51,0,0,1,.43-2.48,17.26,17.26,0,0,1,2.8-6.74A21.16,21.16,0,0,1,96.42,56,2.77,2.77,0,0,1,97,55.77Z" transform="translate(-0.11 -52.71)"/>
    </g>
    <g>
      <path class="cls-3" d="M25.14,77.65a1.89,1.89,0,0,0-.07.71,26,26,0,0,0,2.48,6.32,20.13,20.13,0,0,0,5.05,6.08,19.47,19.47,0,0,0,2.11,1.66c1.64.89,3.33,1.68,5,2.45.69.3,1.39.85,2.29.4-.08-.75-.14-1.47-.26-2.19A13.76,13.76,0,0,0,38.72,87a20.9,20.9,0,0,0-6.11-5.77A14.49,14.49,0,0,1,30.78,80a18.47,18.47,0,0,0-4.33-2.11,6.61,6.61,0,0,0-1.31-.26Z" transform="translate(-0.11 -52.71)"/>
      <path class="cls-3" d="M23.24,75.83a7,7,0,0,1,1.29.24,18.63,18.63,0,0,1,4.33,2.1,14.49,14.49,0,0,0,1.83,1.16,21.06,21.06,0,0,1,6.12,5.77,13.85,13.85,0,0,1,3.06,6.12c.12.73.17,1.44.26,2.19-.89.45-1.6-.1-2.3-.39-1.71-.76-3.39-1.54-5-2.45a18.08,18.08,0,0,1-2.11-1.66,20.26,20.26,0,0,1-5.05-6.07,25.68,25.68,0,0,1-2.49-6.32A2.72,2.72,0,0,1,23.24,75.83Z" transform="translate(-0.11 -52.71)"/>
    </g>
    <g>
      <path class="cls-3" d="M42.15,65.51a2.71,2.71,0,0,0-.28.68A26.37,26.37,0,0,0,42.11,73a18,18,0,0,0,2.62,7,16.55,16.55,0,0,0,1.38,2.07c1.2,1.21,2.47,2.34,3.76,3.44.52.44,1,1.13,1.94.86.16-.76.33-1.48.46-2.21a13.73,13.73,0,0,0-.81-6.68c-.88-2.52-1.84-5.07-3.69-6.95A12.4,12.4,0,0,1,46.49,69,14,14,0,0,0,43.25,66a4.85,4.85,0,0,0-1.1-.53Z" transform="translate(-0.11 -52.71)"/>
      <path class="cls-3" d="M41,63.33a4.89,4.89,0,0,1,1.09.5,14.61,14.61,0,0,1,3.24,3,11.57,11.57,0,0,0,1.28,1.52c1.85,1.87,2.81,4.43,3.69,6.94a13.72,13.72,0,0,1,.82,6.68c-.12.73-.3,1.45-.46,2.21-.94.26-1.41-.43-1.94-.86A48.7,48.7,0,0,1,45,79.84a16.19,16.19,0,0,1-1.38-2.07,18.13,18.13,0,0,1-2.62-7A26.31,26.31,0,0,1,40.75,64,3.81,3.81,0,0,1,41,63.33Z" transform="translate(-0.11 -52.71)"/>
    </g>
    <g>
      <path class="cls-3" d="M60.27,57.22c-.2.22-.39.33-.44.52a24.08,24.08,0,0,0-1.49,6.31A19.37,19.37,0,0,0,59,71.58,18.32,18.32,0,0,0,59.75,74c.8,1.6,1.71,3.14,2.62,4.67.38.61.63,1.44,1.59,1.57.33-.63.7-1.23,1-1.85A13,13,0,0,0,65.88,72a20.12,20.12,0,0,0-1.67-7.88,14,14,0,0,1-.8-1.91,17.92,17.92,0,0,0-2.27-4,7.74,7.74,0,0,0-.89-.92Z" transform="translate(-0.11 -52.71)"/>
      <path class="cls-3" d="M59.76,54.74a6.81,6.81,0,0,1,.88.9,17.8,17.8,0,0,1,2.27,4,12.88,12.88,0,0,0,.81,1.91,20.09,20.09,0,0,1,1.68,7.88,13.13,13.13,0,0,1-.93,6.47c-2.71-11.26-2-5.56-1,1.85-1-.13-1.21-1-1.6-1.57-.93-1.52-1.84-3.06-2.62-4.66a17.59,17.59,0,0,1-.76-2.46,19.28,19.28,0,0,1-.67-7.52,24.46,24.46,0,0,1,1.48-6.31C59.39,55.08,59.57,55,59.76,54.74Z" transform="translate(-0.11 -52.71)"/>
    </g>
    <g>
      <path class="cls-3" d="M13.93,92.47a2.16,2.16,0,0,0,.08.72A27,27,0,0,0,17.72,99a20.26,20.26,0,0,0,6.13,5,17.71,17.71,0,0,0,2.37,1.22c1.76.55,3.56,1,5.34,1.39.73.16,1.52.56,2.3-.08-.24-.73-.44-1.44-.71-2.12a14.18,14.18,0,0,0-4.22-5.48c-2.13-1.81-4.35-3.63-7.08-4.48a13.31,13.31,0,0,1-2-.79,17.65,17.65,0,0,0-4.59-1.19,5.74,5.74,0,0,0-1.31,0Z" transform="translate(-0.11 -52.71)"/>
      <path class="cls-3" d="M11.73,91.05A6.09,6.09,0,0,1,13,91a17.33,17.33,0,0,1,4.6,1.19,15,15,0,0,0,2,.77,20.6,20.6,0,0,1,7.09,4.47,14.15,14.15,0,0,1,4.22,5.47c.27.69.47,1.39.72,2.12-.77.63-1.56.23-2.3.08-1.8-.4-3.58-.82-5.35-1.38a19,19,0,0,1-2.37-1.22,20.32,20.32,0,0,1-6.13-5,26.6,26.6,0,0,1-3.71-5.78A2.72,2.72,0,0,1,11.73,91.05Z" transform="translate(-0.11 -52.71)"/>
    </g>
    <g>
      <path class="cls-3" d="M6.3,109.66a2.23,2.23,0,0,0,.29.65,24.21,24.21,0,0,0,4.71,4.27,16.14,16.14,0,0,0,6.41,2.72,12.9,12.9,0,0,0,2.27.36c1.58-.07,3.15-.25,4.7-.47.63-.09,1.39,0,1.81-.84-.41-.62-.78-1.23-1.2-1.8a12.23,12.23,0,0,0-5-3.8c-2.26-1-4.59-2-7-1.9a10.19,10.19,0,0,1-1.83-.07,12.59,12.59,0,0,0-4.05.41,5.36,5.36,0,0,0-1,.45Z" transform="translate(-0.11 -52.71)"/>
      <path class="cls-3" d="M4.11,109a5.5,5.5,0,0,1,1-.46,12.81,12.81,0,0,1,4.05-.41,10.27,10.27,0,0,0,1.84.07c2.44-.12,4.77.86,7,1.88a12.4,12.4,0,0,1,5,3.8c.42.58.8,1.18,1.21,1.79-.42.87-1.18.75-1.81.85a41.29,41.29,0,0,1-4.71.48,12.17,12.17,0,0,1-2.27-.36A16,16,0,0,1,9.07,114a24.5,24.5,0,0,1-4.71-4.27A3.74,3.74,0,0,1,4.11,109Z" transform="translate(-0.11 -52.71)"/>
    </g>
    <g>
      <path class="cls-3" d="M2.92,128.45a2.39,2.39,0,0,0,.38.52,26,26,0,0,0,5.14,3.13,17.47,17.47,0,0,0,6.47,1.7,16.28,16.28,0,0,0,2.19.1c1.46-.2,2.9-.5,4.32-.82.57-.13,1.31-.1,1.55-.86-.49-.47-.95-.95-1.44-1.38a13.51,13.51,0,0,0-5.36-2.72,17,17,0,0,0-6.89-1,11.09,11.09,0,0,1-1.73.1,13,13,0,0,0-3.71.7,4,4,0,0,0-.91.48Z" transform="translate(-0.11 -52.71)"/>
      <path class="cls-3" d="M.77,128.13a4.39,4.39,0,0,1,.88-.48,12.91,12.91,0,0,1,3.71-.7,10,10,0,0,0,1.73-.11,17.15,17.15,0,0,1,6.89,1,13.68,13.68,0,0,1,5.36,2.71c.49.44.95.91,1.44,1.38-.25.76-1,.73-1.55.87a43.91,43.91,0,0,1-4.32.82,16.2,16.2,0,0,1-2.18-.1,17.6,17.6,0,0,1-6.45-1.69,26,26,0,0,1-5.15-3.13A2.68,2.68,0,0,1,.77,128.13Z" transform="translate(-0.11 -52.71)"/>
    </g>
    <g>
      <path class="cls-3" d="M103,208.61a2.32,2.32,0,0,0,.37-.62,20.85,20.85,0,0,0,.42-6,13,13,0,0,0-2-6.19,11.84,11.84,0,0,0-1.2-1.81c-1.11-1-2.3-2-3.51-3-.5-.37-.91-1-1.91-.71-.23.68-.5,1.33-.69,2a10.29,10.29,0,0,0,.18,5.9c.66,2.22,1.38,4.46,3.09,6.09a8.06,8.06,0,0,1,1.16,1.31,11.82,11.82,0,0,0,3,2.54,5.21,5.21,0,0,0,1.07.43Z" transform="translate(-0.11 -52.71)"/>
      <path class="cls-3" d="M103.93,210.52a5.06,5.06,0,0,1-1.06-.41,11.81,11.81,0,0,1-3-2.54,9,9,0,0,0-1.16-1.31c-1.71-1.62-2.44-3.86-3.1-6.08a10.3,10.3,0,0,1-.18-5.9c.2-.66.45-1.31.68-2,1-.26,1.41.33,1.91.71A38,38,0,0,1,101.5,196a10.69,10.69,0,0,1,1.21,1.8,13.12,13.12,0,0,1,2,6.19,20.85,20.85,0,0,1-.42,6A3.17,3.17,0,0,1,103.93,210.52Z" transform="translate(-0.11 -52.71)"/>
    </g>
    <path class="cls-3" d="M119.06,202.63a5.41,5.41,0,0,1-1.13-.24,12.29,12.29,0,0,1-3.43-2,8.62,8.62,0,0,0-1.36-1.12c-2-1.31-3.06-3.41-4.06-5.47A10.1,10.1,0,0,1,108,188c.1-.66.25-1.35.38-2,1-.41,1.45.12,2,.41a42.21,42.21,0,0,1,4,2.36,10.6,10.6,0,0,1,1.48,1.58,12.91,12.91,0,0,1,3,5.74,19.9,19.9,0,0,1,.53,5.91A4.11,4.11,0,0,1,119.06,202.63Z" transform="translate(-0.11 -52.71)"/>
    <path class="cls-1" d="M64.77,81.25c.66.24,1.35.25,1.41,1a.87.87,0,0,1-.57.72,1.92,1.92,0,0,1-1.33-.39C63.79,82,64.46,81.7,64.77,81.25Z" transform="translate(-0.11 -52.71)"/>
    <path class="cls-1" d="M77.92,79.49c.66.23,1.35.25,1.41,1a.85.85,0,0,1-.57.71,2,2,0,0,1-1.33-.38C76.94,80.23,77.61,79.94,77.92,79.49Z" transform="translate(-0.11 -52.71)"/>
    <path class="cls-1" d="M102.89,86.39a11.69,11.69,0,0,1-1.32-.08,1.06,1.06,0,0,1-.9-.88v-.15a.66.66,0,0,1,.6-.71.52.52,0,0,1,.25,0h0C102.38,84.75,102.72,85.15,102.89,86.39Z" transform="translate(-0.11 -52.71)"/>
    <path class="cls-1" d="M93.94,82.57a11.06,11.06,0,0,1-1.41,0,.93.93,0,0,1-.88-.87.38.38,0,0,1,0-.15.83.83,0,0,1,.85-.81h.13C93.55,80.86,93.85,81.27,93.94,82.57Z" transform="translate(-0.11 -52.71)"/>
    <path class="cls-1" d="M89.46,82.06a13.06,13.06,0,0,1-1.4,0,.92.92,0,0,1-.88-.87.38.38,0,0,1,0-.15.82.82,0,0,1,.86-.8h.12C89.06,80.35,89.38,80.75,89.46,82.06Z" transform="translate(-0.11 -52.71)"/>
    <path class="cls-1" d="M115.78,94.44a12.37,12.37,0,0,1-1.36,0,1,1,0,0,1-.86-.88v-.15a.75.75,0,0,1,.75-.74.44.44,0,0,1,.16,0h0C115.36,92.77,115.67,93.17,115.78,94.44Z" transform="translate(-0.11 -52.71)"/>
    <path class="cls-1" d="M110.34,179.71a1.06,1.06,0,0,1-.9-1.12.85.85,0,0,1,.83-.77c.47,0,1.23.77,1.19,1.2A.92.92,0,0,1,110.34,179.71Z" transform="translate(-0.11 -52.71)"/>
    <path class="cls-1" d="M42.77,179.29a1.31,1.31,0,0,1,1.54-.76,1.06,1.06,0,0,1,.9,1.05,1,1,0,0,1-1,1h0A1.5,1.5,0,0,1,42.77,179.29Z" transform="translate(-0.11 -52.71)"/>
    <path class="cls-1" d="M52.45,183.57a2,2,0,0,1,.85,0,3.39,3.39,0,0,1,1.06.83.91.91,0,0,1,0,.79,1.18,1.18,0,0,1-.86.43C52.58,185.56,52.21,184.77,52.45,183.57Z" transform="translate(-0.11 -52.71)"/>
    <path class="cls-1" d="M35.73,170.53a1.36,1.36,0,0,1-1.43-1.05c-.12-.51.15-.84.7-.88.78-.07,1.44.3,1.53.83a.87.87,0,0,1-.62,1.08h-.18Z" transform="translate(-0.11 -52.71)"/>
    <path class="cls-1" d="M56,185.08a11.23,11.23,0,0,1,1.24.65,1,1,0,0,1,.36,1.2l-.08.13a.81.81,0,0,1-1.12.31l-.1-.06v0C55.52,186.78,55.44,186.27,56,185.08Z" transform="translate(-0.11 -52.71)"/>
    <path class="cls-1" d="M26.22,154.6a1.57,1.57,0,0,1,1.49.84.81.81,0,0,1-.57,1l-.11,0a1.27,1.27,0,0,1-1.24-.83C25.64,155.06,25.77,154.71,26.22,154.6Z" transform="translate(-0.11 -52.71)"/>
    <path class="cls-1" d="M28.15,159.21c.65-.72,1.29-.27,1.83.11a1.2,1.2,0,0,1,.16,1,.78.78,0,0,1-.74.39C28.87,160.41,28.11,160.22,28.15,159.21Z" transform="translate(-0.11 -52.71)"/>
    <g>
      <path class="cls-3" d="M10.78,173.21a2.22,2.22,0,0,0,.52.37,16.85,16.85,0,0,0,5.48.5,12.67,12.67,0,0,0,6-2,13.37,13.37,0,0,0,1.85-1.21c1.13-1.11,2.2-2.32,3.25-3.54.42-.5,1-.91.94-1.93-.59-.25-1.16-.52-1.73-.72a8.79,8.79,0,0,0-5.49.11,13.66,13.66,0,0,0-6.07,3.08,9.7,9.7,0,0,1-1.38,1.17,14.08,14.08,0,0,0-2.79,3.05,5.61,5.61,0,0,0-.56,1.09Z" transform="translate(-0.11 -52.71)"/>
      <path class="cls-3" d="M8.87,174.15a6.81,6.81,0,0,1,.54-1.08,14.1,14.1,0,0,1,2.8-3,10.29,10.29,0,0,0,1.38-1.17,13.84,13.84,0,0,1,6.07-3.09,8.86,8.86,0,0,1,5.49-.12c.58.21,1.13.48,1.73.72.09,1-.53,1.43-.94,1.93a48,48,0,0,1-3.25,3.55,11.92,11.92,0,0,1-1.84,1.21,12.78,12.78,0,0,1-6,2,16.87,16.87,0,0,1-5.48-.49C9.23,174.49,9.09,174.31,8.87,174.15Z" transform="translate(-0.11 -52.71)"/>
    </g>
    <g>
      <path class="cls-3" d="M36.22,203.13a1.51,1.51,0,0,0,.66,0,21.71,21.71,0,0,0,5.24-3.37,18.22,18.22,0,0,0,4.56-5.89,19,19,0,0,0,1.1-2.33c.51-1.76.91-3.56,1.28-5.35.15-.73.52-1.51-.06-2.33-.65.19-1.31.35-1.92.57a11.89,11.89,0,0,0-5,3.91A20,20,0,0,0,38,195.19a13.64,13.64,0,0,1-.72,2,19.17,19.17,0,0,0-1.09,4.6,7.39,7.39,0,0,0,0,1.33Z" transform="translate(-0.11 -52.71)"/>
      <path class="cls-3" d="M34.93,205.27a7.18,7.18,0,0,1,0-1.31,18.82,18.82,0,0,1,1.09-4.6,13.48,13.48,0,0,0,.71-2,19.52,19.52,0,0,1,4.07-6.89,12.17,12.17,0,0,1,5-3.94c.63-.22,1.26-.38,1.92-.58.57.83.21,1.61.07,2.34-.37,1.8-.76,3.59-1.27,5.35A19.81,19.81,0,0,1,45.35,196a18.38,18.38,0,0,1-4.55,5.9,21.36,21.36,0,0,1-5.25,3.39A2.61,2.61,0,0,1,34.93,205.27Z" transform="translate(-0.11 -52.71)"/>
    </g>
    <path class="cls-1" d="M3.61,155.94a14.36,14.36,0,0,1,3.47-2.4,10.44,10.44,0,0,0,1.67-.84,15.5,15.5,0,0,1,7-1.8,10.57,10.57,0,0,1,5.88.93c.58.32,1.13.66,1.73,1-.07,1-.8,1.26-1.32,1.67a48,48,0,0,1-4,2.76,14.74,14.74,0,0,1-2.16.81,14.89,14.89,0,0,1-6.73.75,20.12,20.12,0,0,1-5.75-1.52" transform="translate(-0.11 -52.71)"/>
    <g>
      <path class="cls-3" d="M21.39,191.16c.27.07.46.2.65.16a21.31,21.31,0,0,0,6-1.58,17.08,17.08,0,0,0,6-4.17,15.68,15.68,0,0,0,1.69-1.87c.95-1.51,1.81-3.08,2.65-4.66.32-.66.89-1.27.55-2.23-.7,0-1.36-.07-2-.05A11.33,11.33,0,0,0,31,178.94a18.51,18.51,0,0,0-5.78,5.28A12.17,12.17,0,0,1,24,185.86a17.82,17.82,0,0,0-2.27,4,6.13,6.13,0,0,0-.32,1.26Z" transform="translate(-0.11 -52.71)"/>
      <path class="cls-3" d="M19.57,192.79a6.77,6.77,0,0,1,.33-1.25,18.22,18.22,0,0,1,2.26-4,12.17,12.17,0,0,0,1.21-1.64,18.47,18.47,0,0,1,5.77-5.28A11.43,11.43,0,0,1,35,178.41c.65,0,1.31,0,2,.05.32.95-.23,1.57-.55,2.22-.83,1.6-1.68,3.17-2.63,4.67a15.6,15.6,0,0,1-1.69,1.87,17.34,17.34,0,0,1-5.95,4.18,21.42,21.42,0,0,1-6,1.59A2.8,2.8,0,0,1,19.57,192.79Z" transform="translate(-0.11 -52.71)"/>
    </g>
    <path class="cls-1" d="M60.67,188.72c-.42-.55-1-.95-.65-1.6a.83.83,0,0,1,.86-.29c.38.22.87.65.92,1C61.9,188.62,61.17,188.5,60.67,188.72Z" transform="translate(-0.11 -52.71)"/>
    <path class="cls-1" d="M48.64,183.11c-.42-.55-1-1-.66-1.6a.84.84,0,0,1,.86-.3c.38.23.87.66.92,1C49.86,183,49.14,182.88,48.64,183.11Z" transform="translate(-0.11 -52.71)"/>
    <path class="cls-1" d="M31.27,163.8a11.7,11.7,0,0,1,1.07.78,1.08,1.08,0,0,1,.28,1.23.74.74,0,0,1-1,.36.91.91,0,0,1-.16-.11v0C30.81,165.46,30.75,164.94,31.27,163.8Z" transform="translate(-0.11 -52.71)"/>
    <path class="cls-1" d="M36.79,171.86a11.24,11.24,0,0,1,1.19.74.94.94,0,0,1,.29,1.21.64.64,0,0,1-.1.13.83.83,0,0,1-1.14.22l-.09-.07h0C36.21,173.52,36.15,173,36.79,171.86Z" transform="translate(-0.11 -52.71)"/>
    <path class="cls-1" d="M40.27,174.71a12.5,12.5,0,0,1,1.2.74,1,1,0,0,1,.28,1.21l-.09.13a.82.82,0,0,1-1.15.21l-.08-.06h0C39.7,176.37,39.65,175.85,40.27,174.71Z" transform="translate(-0.11 -52.71)"/>
    <path class="cls-1" d="M24.19,145.88c.39.24.77.5,1.13.77a1,1,0,0,1,.26,1.22.57.57,0,0,1-.08.13.75.75,0,0,1-1,.22l-.13-.11h0C23.67,147.52,23.61,147,24.19,145.88Z" transform="translate(-0.11 -52.71)"/>
    <path class="cls-1" d="M76.58,192a1.35,1.35,0,0,1,.77-1.54,1.07,1.07,0,0,1,1.35.31,1,1,0,0,1-.22,1.37l0,0A1.48,1.48,0,0,1,76.58,192Z" transform="translate(-0.11 -52.71)"/>
    <path class="cls-1" d="M86.88,189.56a1.87,1.87,0,0,1,.69-.48,3.19,3.19,0,0,1,1.34,0,.84.84,0,0,1,.44.65,1.17,1.17,0,0,1-.43.87C88.16,191.08,87.4,190.67,86.88,189.56Z" transform="translate(-0.11 -52.71)"/>
    <path class="cls-1" d="M65.72,189.19a1.36,1.36,0,0,1-1.77,0,.68.68,0,0,1,0-1.13,1.31,1.31,0,0,1,1.72-.25.88.88,0,0,1,.15,1.23h0Z" transform="translate(-0.11 -52.71)"/>
    <g>
      <path class="cls-3" d="M84.69,214.39c.27-.15.53-.23.62-.38A17,17,0,0,0,88,208.65a12.53,12.53,0,0,0,.18-6.82,12.87,12.87,0,0,0-.63-2.32c-.8-1.56-1.72-3.1-2.68-4.61-.39-.62-.61-1.39-1.79-1.68-.51.5-1,1-1.49,1.48a8.75,8.75,0,0,0-2.05,5.6c-.13,2.4-.19,4.88,1.05,7.3a11,11,0,0,1,.76,1.84,15.37,15.37,0,0,0,2.31,4,8.33,8.33,0,0,0,1,1Z" transform="translate(-0.11 -52.71)"/>
      <path class="cls-3" d="M85,216.67a6.77,6.77,0,0,1-1-.95,15.31,15.31,0,0,1-2.32-4,11,11,0,0,0-.76-1.84c-1.25-2.42-1.19-4.9-1.06-7.3a8.84,8.84,0,0,1,2-5.6c.46-.51,1-1,1.49-1.48,1.18.28,1.39,1.06,1.8,1.67a53,53,0,0,1,2.69,4.62,12.21,12.21,0,0,1,.62,2.32,12.53,12.53,0,0,1-.16,6.82,17.26,17.26,0,0,1-2.71,5.36A3.06,3.06,0,0,1,85,216.67Z" transform="translate(-0.11 -52.71)"/>
    </g>
    <g>
      <path class="cls-3" d="M66.73,214.17c.26-.1.49-.11.61-.25a21.31,21.31,0,0,0,3.85-4.87,17.54,17.54,0,0,0,2.3-6.93,17.76,17.76,0,0,0,.24-2.51c-.14-1.78-.39-3.56-.66-5.33-.11-.71,0-1.55-.88-2.11-.57.4-1.13.76-1.64,1.17a11.53,11.53,0,0,0-3.39,5.27,18.35,18.35,0,0,0-1.48,7.71,14,14,0,0,1,0,2.05,17.55,17.55,0,0,0,.57,4.59,6.72,6.72,0,0,0,.48,1.22Z" transform="translate(-0.11 -52.71)"/>
      <path class="cls-3" d="M66.25,216.57a6.44,6.44,0,0,1-.48-1.19,17.4,17.4,0,0,1-.58-4.59,14.17,14.17,0,0,0,0-2.06,18.48,18.48,0,0,1,1.47-7.7A11.51,11.51,0,0,1,70,195.76c.53-.41,1.08-.78,1.64-1.18.84.56.76,1.4.89,2.11A53.46,53.46,0,0,1,73.2,202a15.34,15.34,0,0,1-.24,2.51,17.11,17.11,0,0,1-2.29,6.93,21.53,21.53,0,0,1-3.81,4.89A2.79,2.79,0,0,1,66.25,216.57Z" transform="translate(-0.11 -52.71)"/>
    </g>
    <path class="cls-1" d="M83.55,191.49c-.66-.19-1.37-.16-1.48-.89a.85.85,0,0,1,.52-.76,1.79,1.79,0,0,1,1.35.29C84.47,190.67,83.82,191,83.55,191.49Z" transform="translate(-0.11 -52.71)"/>
    <path class="cls-1" d="M67.35,189.62a13.06,13.06,0,0,1,1.39-.13.93.93,0,0,1,1,.8.43.43,0,0,1,0,.16.84.84,0,0,1-.79.87h-.13C67.88,191.29,67.52,190.91,67.35,189.62Z" transform="translate(-0.11 -52.71)"/>
    <path class="cls-1" d="M71.84,189.79c.47-.06.93-.1,1.4-.12a.94.94,0,0,1,1,.8v.16a.83.83,0,0,1-.8.86h-.12C72.37,191.47,72,191.08,71.84,189.79Z" transform="translate(-0.11 -52.71)"/>
    <g>
      <path class="cls-3" d="M57.67,192.79c-.26.05-.46,0-.59.12a16.91,16.91,0,0,0-4,3.75,18.92,18.92,0,0,0-3.27,8.2c-.05,1.66,0,3.35.08,5,0,.69-.12,1.44.61,2.12.56-.26,1.11-.48,1.64-.77A9.26,9.26,0,0,0,55.75,207a15.9,15.9,0,0,0,2.13-6.8,12.11,12.11,0,0,1,.19-1.89A16.5,16.5,0,0,0,58,194a7.05,7.05,0,0,0-.32-1.22Z" transform="translate(-0.11 -52.71)"/>
      <path class="cls-3" d="M58.35,190.68a6.39,6.39,0,0,1,.33,1.19,17.47,17.47,0,0,1,.08,4.33,13.15,13.15,0,0,0-.19,1.89,16.06,16.06,0,0,1-2.11,6.8,9.37,9.37,0,0,1-3.65,4.2c-.52.28-1.07.5-1.64.77-.72-.68-.56-1.44-.61-2.12-.09-1.69-.14-3.36-.09-5a15.91,15.91,0,0,1,.47-2.26,14.57,14.57,0,0,1,2.8-5.94,17.05,17.05,0,0,1,4-3.75A2.39,2.39,0,0,1,58.35,190.68Z" transform="translate(-0.11 -52.71)"/>
    </g>
    <path class="cls-1" d="M24.19,142a1.57,1.57,0,0,1,1.4,1,.82.82,0,0,1-.67.94H24.8a1.26,1.26,0,0,1-1.13-.94C23.56,142.42,23.74,142.08,24.19,142Z" transform="translate(-0.11 -52.71)"/>
    <path class="cls-1" d="M1.57,140.91a14.08,14.08,0,0,1,3.71-2A10.93,10.93,0,0,0,7,138.22a15.32,15.32,0,0,1,7.13-1,10.5,10.5,0,0,1,5.74,1.56c.54.37,1.05.79,1.6,1.2-.17,1-.91,1.18-1.48,1.53-1.42.84-2.84,1.64-4.32,2.33a13.75,13.75,0,0,1-2.23.57,14.88,14.88,0,0,1-6.77,0,20.53,20.53,0,0,1-5.56-2.14" transform="translate(-0.11 -52.71)"/>
    <path class="cls-1" d="M23.15,137.33a11,11,0,0,1,1,.89,1,1,0,0,1,.14,1.24.52.52,0,0,1-.1.11.73.73,0,0,1-1,.12.34.34,0,0,1-.12-.12h0C22.45,138.92,22.45,138.39,23.15,137.33Z" transform="translate(-0.11 -52.71)"/>
    <g class="cls-4">
      <text class="cls-5" transform="translate(56.97 82.73)">IZA</text>
      <text class="cls-6" transform="translate(97.36 82.73)">B</text>
      <text class="cls-5" transform="translate(115.06 82.73)">ELLE WILDING</text>
    </g>
    <g class="cls-4">
      <text class="cls-7" transform="translate(58.1 109.25)">FREELANCE WEB DEVE</text>
      <text class="cls-8" transform="translate(248.28 109.25)">L</text>
      <text class="cls-7" transform="translate(257.35 109.25)">OPER</text>
    </g>
  </g>
</svg>
