<svg id="Layer_1" data-name="Layer 1" xmlns="http://www.w3.org/2000/svg" viewBox="0 0 1021.95 666.98">
  <defs>
    <style>
      .cls-1, .cls-3, .cls-4, .cls-5 {
        fill: #fff;
      }

      .cls-2 {
        fill: #b29f66;
      }

      .cls-3 {
        stroke: #fff;
        stroke-miterlimit: 10;
      }

      .cls-4 {
        font-size: 110px;
        font-family: Pompiere-Regular, Pompiere ;
      }

      .cls-5 {
        font-size: 49.8px;
        font-family: Quicksand-Light, Quicksand;
        font-weight: 300;
      }

      .cls-6 {
        letter-spacing: -0.01em;
      }
    </style>
  </defs>
  <title>my-logo</title>
  <path class="cls-1" d="M225.77,237.25c1.84-2.77,4.48-2.06,7.16-1.48,2.35.52,2.78,2.3,3.45,3.94-2.54,2.88-5.45,4-8,2.82S225.58,239.3,225.77,237.25Z" transform="translate(-27.5 -95.62)"/>
  <path class="cls-1" d="M374,202.92a5.45,5.45,0,0,1-3.66,6,4.38,4.38,0,0,1-5.42-1.64,4.05,4.05,0,0,1,1.42-5.59A6.13,6.13,0,0,1,374,202.92Z" transform="translate(-27.5 -95.62)"/>
  <path class="cls-1" d="M206.39,266.5c-1.87,2.61-4.23,3.63-7.41,2.51-1.85-.63-3.47-1.87-3.25-4.09A3.71,3.71,0,0,1,200.1,262C202.69,262.47,205.13,263.21,206.39,266.5Z" transform="translate(-27.5 -95.62)"/>
  <path class="cls-1" d="M444.1,626.7c.91.24,2.66.12,3.65,1a5.36,5.36,0,0,1-.16,7.5,4,4,0,0,1-5-.31C440.89,633.14,441.35,628.89,444.1,626.7Z" transform="translate(-27.5 -95.62)"/>
  <path class="cls-1" d="M220.9,253.31a6.06,6.06,0,0,1-7.73,0c-1.48-1.43-2.41-3.1-1.21-4.91s5.83-2,7.87-.43A4,4,0,0,1,220.9,253.31Z" transform="translate(-27.5 -95.62)"/>
  <path class="cls-1" d="M458.81,624.73a29.86,29.86,0,0,1-1.27-3.81,4.7,4.7,0,0,1,3.42-4.47,2.77,2.77,0,0,1,3.64,1.74,3.41,3.41,0,0,1,.09.48,18.25,18.25,0,0,1,.59,2.85c.13,1.73-.28,3.64-2.28,4C461.59,625.78,460.05,625,458.81,624.73Z" transform="translate(-27.5 -95.62)"/>
  <path class="cls-1" d="M331.05,209.5a8,8,0,0,1-3,1.77,13.62,13.62,0,0,1-5.51-.55A3.51,3.51,0,0,1,321,208a4.9,4.9,0,0,1,2-3.4C326.25,202.93,329.25,204.84,331.05,209.5Z" transform="translate(-27.5 -95.62)"/>
  <path class="cls-1" d="M122.57,422.68c1.65-1.88,6.14-2.51,7.62-1.14a4,4,0,0,1-.07,5.73,4.91,4.91,0,0,1-6.72.19,3.41,3.41,0,0,1-.91-4.68Z" transform="translate(-27.5 -95.62)"/>
  <path class="cls-1" d="M246,231.51a16,16,0,0,1,1.22-4.69,4.36,4.36,0,0,1,3.19-1.3,10.91,10.91,0,0,1,3.31,1.25c1.56.6,3.16,1.68,2.53,3.21a4.84,4.84,0,0,1-3.46,2.57C251,232.79,248.88,232,246,231.51Z" transform="translate(-27.5 -95.62)"/>
  <path class="cls-1" d="M154.2,330.9a3.51,3.51,0,0,1,1,4.82l-.06.08c-1.42,1.62-6.21,1.61-7.91,0a4.26,4.26,0,0,1-.47-5.05C147.92,329.23,152.42,329.37,154.2,330.9Z" transform="translate(-27.5 -95.62)"/>
  <path class="cls-1" d="M417.65,217.54a5.62,5.62,0,0,1,7.26.47c1.52,1.51,1.3,3.23-.47,4.57-2.58,1.93-5.67,2.15-7.14.5a3.58,3.58,0,0,1-.23-5.09A3.21,3.21,0,0,1,417.65,217.54Z" transform="translate(-27.5 -95.62)"/>
  <path class="cls-1" d="M315.51,212.09a49.21,49.21,0,0,1-5.71.48,3.85,3.85,0,0,1-3.87-3.31,3.42,3.42,0,0,1,0-.64,3.38,3.38,0,0,1,3.66-3.52h.1C313.35,205.21,314.78,206.77,315.51,212.09Z" transform="translate(-27.5 -95.62)"/>
  <path class="cls-1" d="M430.32,643.53c-2.09,1.5-3.5,1.17-4.94-1a4.82,4.82,0,0,1,1.06-6.83l.21-.15a3.51,3.51,0,0,1,4.74,1.14C433.23,639.33,432.76,641.89,430.32,643.53Z" transform="translate(-27.5 -95.62)"/>
  <path class="cls-1" d="M186.92,283c.06.81.58,2.47.09,3.69-.61,1.65-6.13,1.76-7.82.38a3.45,3.45,0,0,1-.54-4.85l.08-.09C180.31,280.37,184,280.47,186.92,283Z" transform="translate(-27.5 -95.62)"/>
  <path class="cls-1" d="M120.48,397.72c1.24-1.41,6-1.56,7.33-.16s2.4,3,1,4.83a5.23,5.23,0,0,1-7.19,0C119.82,400.91,119.32,399,120.48,397.72Z" transform="translate(-27.5 -95.62)"/>
  <path class="cls-1" d="M268.53,220.58c.19.65,1.1,2.16.82,3.3-.19.81-1.92,1.45-3.09,1.57-3.48.38-5.64-.57-5.95-2.56a5,5,0,0,1,1-3.89C262.87,217.64,266.07,218.33,268.53,220.58Z" transform="translate(-27.5 -95.62)"/>
  <path class="cls-1" d="M180.09,298.7c-2.21,3.8-5.42,2.43-8.29,1.5a4,4,0,0,1-1.86-3.13,5.21,5.21,0,0,1,3.3-2.85C176.41,293.75,178.84,295.35,180.09,298.7Z" transform="translate(-27.5 -95.62)"/>
  <path class="cls-1" d="M145.76,357.15a6.11,6.11,0,0,1-7.18,3.44c-2.31-.38-3.07-2.1-2-4C139.21,352,141.69,352.06,145.76,357.15Z" transform="translate(-27.5 -95.62)"/>
  <path class="cls-1" d="M485.59,251.4c-1.4,1.46-5.5,1.7-7,.4a3.32,3.32,0,0,1,.09-5,5.21,5.21,0,0,1,6.12.12C486.61,248.51,486.89,250,485.59,251.4Z" transform="translate(-27.5 -95.62)"/>
  <path class="cls-1" d="M468.78,239.81c-.74,3.91-3.87,3.77-6.6,3.63-.91,0-2.43-1.86-2.7-3a3.14,3.14,0,0,1,1.68-3C463.66,237.26,466.69,236.24,468.78,239.81Z" transform="translate(-27.5 -95.62)"/>
  <path class="cls-1" d="M404.81,649.6a4.33,4.33,0,0,1,.67-5.84,3.57,3.57,0,0,1,4.65.24c1.3,1.47,1.25,5.83-.09,6.93S406.28,651.57,404.81,649.6Z" transform="translate(-27.5 -95.62)"/>
  <path class="cls-1" d="M275,215.3c2.67,1,5.56,1,5.78,4.07a3.52,3.52,0,0,1-2.35,2.91c-1.8.06-4.47-.37-5.46-1.56C271,218.33,273.76,217.14,275,215.3Z" transform="translate(-27.5 -95.62)"/>
  <g>
    <path class="cls-1" d="M1048,589.46" transform="translate(-27.5 -95.62)"/>
    <path class="cls-2" d="M1048,591a1.5,1.5,0,0,0,0-3,1.5,1.5,0,0,0,0,3Z" transform="translate(-27.5 -95.62)"/>
  </g>
  <g>
    <path class="cls-3" d="M498.29,153.42c-1.12-.09-2-.39-2.61-.14a69.62,69.62,0,0,0-20.08,10.34c-6.83,5.4-12.89,11.64-16.51,20-1.17,2.75-3,5.23-3.75,8.21-1.47,6.32-2.53,12.82-3.49,19.33-.36,2.65-1.6,5.4,1,8.72,2.59-.45,5.14-.76,7.57-1.33,8-1.88,13.9-6.88,18.78-12.47,6-6.9,12-14.16,14.3-23.95a42.41,42.41,0,0,1,2.25-7.06c2.24-5.08,2.32-10.94,3-16.64a26.59,26.59,0,0,0-.44-5Z" transform="translate(-27.5 -95.62)"/>
    <path class="cls-3" d="M502.83,146a25.62,25.62,0,0,1,.48,4.88c-.64,5.68-.77,11.55-3,16.66a41.5,41.5,0,0,0-2.25,7.06c-2.27,9.8-8.25,17.06-14.26,24-4.88,5.59-10.79,10.58-18.76,12.49-2.47.55-5,.88-7.58,1.33-2.55-3.29-1.31-6.05-1-8.71.91-6.56,1.94-13,3.47-19.35.69-3,2.54-5.42,3.73-8.21,3.61-8.34,9.63-14.53,16.49-20a69.45,69.45,0,0,1,20.06-10.37A10.92,10.92,0,0,1,502.83,146Z" transform="translate(-27.5 -95.62)"/>
  </g>
  <g>
    <path class="cls-3" d="M344.42,106.51c-.94.63-1.8.9-2.17,1.55a88.71,88.71,0,0,0-10.77,23.15c-2.68,9.71-4.29,19.75-2.85,30.26.49,3.45.28,7.11,1.27,10.47,2.12,7.15,4.66,14.2,7.3,21.19,1.09,2.83,1.53,6.32,5.34,7.9,1.85-2.12,3.74-4.07,5.41-6.21,5.45-7,7.59-15.75,8.61-24.39,1.24-10.66,2.27-21.65-1-32.72a57.78,57.78,0,0,1-1.88-8.37c-.85-6.43-3.84-12.22-6.29-18.24a29.67,29.67,0,0,0-3-4.59Z" transform="translate(-27.5 -95.62)"/>
    <path class="cls-3" d="M344.2,96.29a30.22,30.22,0,0,1,2.94,4.47c2.45,6,5.42,11.81,6.32,18.24a57.06,57.06,0,0,0,1.88,8.37c3.29,11.06,2.27,22,1,32.72-1,8.64-3.16,17.37-8.58,24.4-1.7,2.14-3.55,4.09-5.4,6.22-3.78-1.57-4.22-5.07-5.35-7.89-2.69-7-5.25-14-7.32-21.19-1-3.36-.79-7-1.28-10.47-1.46-10.51.15-20.47,2.82-30.27A88.69,88.69,0,0,1,342,97.73C342.39,97.19,343.26,96.93,344.2,96.29Z" transform="translate(-27.5 -95.62)"/>
  </g>
  <path class="cls-1" d="M561.05,197c-1.93,5.46-3.35,11.2-6.79,15.9a44.24,44.24,0,0,0-3.9,6.62c-4.54,9.28-12.41,15.58-20.23,21.54-6.35,4.82-13.64,8.91-22.42,9.7-2.7.21-5.41.19-8.23.29-2-3.57-.05-6.1.89-8.66A198.79,198.79,0,0,1,508.26,224c1.38-2.82,3.86-5,5.72-7.53,5.62-7.69,13.29-12.94,21.68-17.36A83.4,83.4,0,0,1,559,191.61" transform="translate(-27.5 -95.62)"/>
  <g>
    <path class="cls-3" d="M421.16,115.65c-1.11.32-2,.33-2.59.84a87.1,87.1,0,0,0-17.25,18.61c-5.44,8.33-9.92,17.26-11.53,27.48-.5,3.36-1.77,6.72-1.76,10.14,0,7.27.5,14.57,1.08,21.85.26,2.94-.32,6.33,3,8.87,2.44-1.46,4.87-2.76,7.12-4.29,7.38-5,12-12.59,15.49-20.37,4.29-9.62,8.47-19.6,8.43-30.86a52.78,52.78,0,0,1,.57-8.35c1-6.24-.27-12.49-.94-18.8a27.56,27.56,0,0,0-1.59-5.12Z" transform="translate(-27.5 -95.62)"/>
    <path class="cls-3" d="M423.88,106a28.27,28.27,0,0,1,1.61,5c.69,6.27,1.93,12.55,1,18.81a53.91,53.91,0,0,0-.56,8.35c.05,11.26-4.11,21.24-8.39,30.87-3.48,7.78-8.11,15.34-15.47,20.39-2.29,1.52-4.68,2.83-7.11,4.3-3.26-2.53-2.69-5.92-3-8.88-.63-7.3-1.13-14.56-1.1-21.84,0-3.43,1.24-6.73,1.75-10.14,1.6-10.23,6.05-19.09,11.5-27.5a87.34,87.34,0,0,1,17.23-18.63A10.94,10.94,0,0,1,423.88,106Z" transform="translate(-27.5 -95.62)"/>
  </g>
  <g>
    <path class="cls-3" d="M128.37,195.23c-.15,1.22-.52,2.1-.28,2.88a104.52,104.52,0,0,0,10.2,25.77c5.49,9.36,11.93,18.12,20.74,24.79,2.9,2.18,5.49,5.07,8.66,6.78,6.74,3.63,13.7,6.86,20.67,10,2.83,1.24,5.73,3.49,9.43,1.63-.36-3.05-.57-6-1.07-8.92-1.65-9.55-6.76-17.75-12.55-25-7.15-8.92-14.69-17.91-25.12-23.55a56.73,56.73,0,0,1-7.5-4.74c-5.37-4.1-11.68-6-17.8-8.57a27.4,27.4,0,0,0-5.38-1.06Z" transform="translate(-27.5 -95.62)"/>
    <path class="cls-3" d="M120.58,187.81a28.83,28.83,0,0,1,5.29,1c6.08,2.5,12.4,4.48,17.8,8.56a59.63,59.63,0,0,0,7.51,4.73c10.44,5.62,18,14.6,25.15,23.52,5.79,7.22,10.89,15.42,12.57,25,.48,2.93.71,5.86,1.08,8.92-3.67,1.82-6.58-.42-9.43-1.63-7-3.08-14-6.26-20.68-10-3.17-1.71-5.73-4.56-8.67-6.77-8.82-6.66-15.2-15.35-20.77-24.76a104.51,104.51,0,0,1-10.22-25.76A11.4,11.4,0,0,1,120.58,187.81Z" transform="translate(-27.5 -95.62)"/>
  </g>
  <g>
    <path class="cls-3" d="M198.3,145.73c-.52,1.17-1.14,2-1.17,2.79a107.92,107.92,0,0,0,1,27.53c2,10.35,5,20.3,10.8,28.67,1.92,2.74,3.34,6.11,5.65,8.45,4.92,5,10.16,9.54,15.45,14,2.16,1.8,4.06,4.61,8,3.52.65-3.09,1.41-6,1.89-9,1.55-9.78-.44-18.91-3.35-27.22-3.6-10.26-7.53-20.66-15.14-28.33a46.63,46.63,0,0,1-5.25-6.2c-3.53-5.13-8.6-8.31-13.31-12a22,22,0,0,0-4.52-2.14Z" transform="translate(-27.5 -95.62)"/>
    <path class="cls-3" d="M193.65,136.82a22.41,22.41,0,0,1,4.45,2c4.69,3.7,9.76,6.93,13.33,12a45.91,45.91,0,0,0,5.25,6.19c7.63,7.66,11.56,18.06,15.18,28.31,2.92,8.31,4.9,17.44,3.37,27.21-.51,3-1.23,5.95-1.87,9-3.9,1.06-5.8-1.74-8-3.51a202.67,202.67,0,0,1-15.47-14c-2.32-2.33-3.71-5.66-5.66-8.44-5.83-8.36-8.81-18.23-10.83-28.65a107.38,107.38,0,0,1-1-27.52A14.09,14.09,0,0,1,193.65,136.82Z" transform="translate(-27.5 -95.62)"/>
  </g>
  <g>
    <path class="cls-3" d="M272.73,111.88c-.79.88-1.57,1.36-1.8,2.11a99,99,0,0,0-6.14,25.72c-.81,10.31-.55,20.66,2.73,30.68,1.09,3.28,1.55,7,3.11,10,3.31,6.51,7,12.81,10.82,19,1.55,2.51,2.6,5.85,6.54,6.41,1.39-2.59,2.85-5,4.06-7.57,4-8.38,4.43-17.57,3.85-26.38-.74-10.87-1.73-22-6.87-32.08a55,55,0,0,1-3.31-7.79c-2-6.13-5.89-11.06-9.32-16.38a27.18,27.18,0,0,0-3.67-3.76Z" transform="translate(-27.5 -95.62)"/>
    <path class="cls-3" d="M270.67,101.84a26.64,26.64,0,0,1,3.63,3.65c3.43,5.26,7.32,10.24,9.34,16.36a56.26,56.26,0,0,0,3.32,7.79c5.15,10.07,6.16,21.2,6.9,32.08.6,8.8.11,18-3.81,26.38-11.14-45.88-8.31-22.64-4.06,7.57-3.9-.56-5-3.9-6.55-6.4-3.85-6.22-7.56-12.47-10.84-19-1.56-3.06-2-6.68-3.12-10-3.29-10-3.55-20.28-2.76-30.68a99.14,99.14,0,0,1,6.11-25.72C269.11,103.21,269.88,102.72,270.67,101.84Z" transform="translate(-27.5 -95.62)"/>
  </g>
  <g>
    <path class="cls-3" d="M82.3,255.65c.11,1.25-.06,2.21.34,2.93A108.59,108.59,0,0,0,97.9,282.16c7.25,8.18,15.29,15.58,25.17,20.41,3.24,1.57,6.34,3.91,9.75,5,7.24,2.24,14.6,4,22,5.67,3,.65,6.24,2.29,9.4-.31-1-3-1.83-5.87-2.92-8.67-3.62-9.18-10.26-16.29-17.34-22.3-8.76-7.41-17.9-14.82-29.12-18.27a58.39,58.39,0,0,1-8.2-3.18c-6-3-12.49-3.6-18.9-4.87a27,27,0,0,0-5.39.05Z" transform="translate(-27.5 -95.62)"/>
    <path class="cls-3" d="M73.25,249.87a25.88,25.88,0,0,1,5.28-.11c6.37,1.23,12.86,1.9,18.9,4.84a57.26,57.26,0,0,0,8.21,3.17c11.22,3.44,20.36,10.84,29.13,18.24,7.09,6,13.73,13.12,17.37,22.28,1.08,2.83,1.93,5.7,2.92,8.67-3.13,2.58-6.4.94-9.39.32-7.4-1.61-14.71-3.35-22-5.64-3.41-1.05-6.46-3.36-9.76-4.95-9.88-4.82-17.85-12.16-25.19-20.39a109.05,109.05,0,0,1-15.27-23.55A12.68,12.68,0,0,1,73.25,249.87Z" transform="translate(-27.5 -95.62)"/>
  </g>
  <g>
    <path class="cls-3" d="M51,325.7a9.36,9.36,0,0,0,1.16,2.69,100.22,100.22,0,0,0,19.36,17.44c8.3,5.4,17,9.78,26.36,11.09,3.08.41,6.28,1.62,9.33,1.48,6.48-.29,12.92-1,19.32-1.92,2.58-.38,5.7.09,7.44-3.46-1.69-2.5-3.23-5-5-7.31-5.68-7.57-13.15-12.14-20.65-15.52C99.05,326,89.48,322,79.44,322.47a42.33,42.33,0,0,1-7.54-.29c-5.73-.83-11.1.74-16.63,1.67A19.94,19.94,0,0,0,51,325.7Z" transform="translate(-27.5 -95.62)"/>
    <path class="cls-3" d="M42,323.2a20.42,20.42,0,0,1,4.2-1.87c5.48-.95,10.89-2.49,16.63-1.7a40.56,40.56,0,0,0,7.54.28c10-.46,19.61,3.55,28.88,7.69,7.51,3.37,15,7.95,20.67,15.5,1.72,2.34,3.27,4.8,5,7.3-1.74,3.52-4.85,3.05-7.44,3.46a181.11,181.11,0,0,1-19.32,2c-3,.13-6.2-1.05-9.32-1.47-9.39-1.3-18-5.65-26.37-11.06A99.92,99.92,0,0,1,43,325.87,13.94,13.94,0,0,1,42,323.2Z" transform="translate(-27.5 -95.62)"/>
  </g>
  <g>
    <path class="cls-3" d="M37.06,402.3a8.58,8.58,0,0,0,1.56,2.14,107.54,107.54,0,0,0,21.14,12.78c8.69,3.76,17.58,6.64,26.59,6.9,3,.07,6.15.79,9,.41,6-.81,11.92-2,17.75-3.31,2.36-.54,5.35-.42,6.37-3.53-2-1.93-3.89-3.87-5.91-5.64-6.62-5.79-14.41-8.93-22-11.08-9.39-2.64-19-5.13-28.36-3.87a44,44,0,0,1-7.11.42c-5.51-.18-10.26,1.6-15.27,2.86a18.43,18.43,0,0,0-3.72,1.92Z" transform="translate(-27.5 -95.62)"/>
    <path class="cls-3" d="M28.2,401a17.61,17.61,0,0,1,3.61-1.93c5-1.28,9.76-3,15.27-2.88a43.9,43.9,0,0,0,7.1-.43c9.32-1.27,19,1.21,28.37,3.84,7.6,2.14,15.39,5.29,22,11.06,2,1.8,3.89,3.71,5.92,5.64-1,3.07-4,2.95-6.37,3.53-5.84,1.34-11.7,2.56-17.74,3.33-2.83.38-6-.32-9-.4-9-.25-17.82-3.11-26.6-6.87a107.61,107.61,0,0,1-21.15-12.76A13.59,13.59,0,0,1,28.2,401Z" transform="translate(-27.5 -95.62)"/>
  </g>
  <g>
    <path class="cls-3" d="M448.3,729.13a9.58,9.58,0,0,0,1.48-2.53,84,84,0,0,0,1.73-24.49c-1-9.16-3.08-17.93-8.21-25.22-1.7-2.38-2.81-5.35-4.95-7.36-4.54-4.26-9.45-8.2-14.43-12-2-1.53-3.69-4-7.82-2.9-1,2.77-2,5.43-2.82,8.1-2.56,8.76-1.43,16.83.72,24.14,2.67,9,5.66,18.19,12.7,24.8a35.59,35.59,0,0,1,4.76,5.36c3.11,4.47,8,7.15,12.43,10.35a21.19,21.19,0,0,0,4.41,1.78Z" transform="translate(-27.5 -95.62)"/>
    <path class="cls-3" d="M452.18,736.92a21.24,21.24,0,0,1-4.35-1.69c-4.44-3.15-9.3-5.89-12.45-10.33a35.12,35.12,0,0,0-4.77-5.36c-7-6.6-10-15.75-12.73-24.77-2.16-7.32-3.29-15.39-.75-24.14.81-2.69,1.85-5.33,2.81-8.1,4.09-1.06,5.76,1.38,7.83,2.89a161.23,161.23,0,0,1,14.45,12c2.14,2,3.24,4.93,5,7.34,5.13,7.28,7.21,16,8.24,25.21a83.6,83.6,0,0,1-1.71,24.48A14.32,14.32,0,0,1,452.18,736.92Z" transform="translate(-27.5 -95.62)"/>
  </g>
  <path class="cls-3" d="M512.7,692.32a8.92,8.92,0,0,0,1.07-2.68,80.79,80.79,0,0,0-2.13-24.16c-2.43-8.8-5.92-17.06-12.2-23.42-2.07-2.08-3.65-4.81-6.11-6.46C488.11,632.1,482.57,629,477,626c-2.28-1.2-4.33-3.35-8.29-1.69-.53,2.85-1.18,5.6-1.54,8.32-1.18,8.92,1.23,16.64,4.54,23.47,4.1,8.42,8.53,16.92,16.62,22.35a35.71,35.71,0,0,1,5.61,4.54c3.81,3.91,9.12,5.81,14.07,8.28a21.62,21.62,0,0,0,4.7,1.09Z" transform="translate(-27.5 -95.62)"/>
  <path class="cls-3" d="M514.35,704.76a22.27,22.27,0,0,1-4.63-1c-4.93-2.43-10.23-4.39-14.08-8.27a36.84,36.84,0,0,0-5.62-4.54c-8.09-5.41-12.54-13.9-16.65-22.32-3.32-6.83-5.73-14.55-4.57-23.46.39-2.74,1-5.47,1.53-8.32,3.93-1.63,6,.51,8.3,1.68A170.09,170.09,0,0,1,495,648.14c2.46,1.65,4,4.34,6.12,6.45,6.29,6.36,9.75,14.55,12.23,23.41a80.68,80.68,0,0,1,2.17,24.15A14.59,14.59,0,0,1,514.35,704.76Z" transform="translate(-27.5 -95.62)"/>
  <path class="cls-1" d="M291.25,209.89c2.67,1,5.55,1,5.78,4.06a3.53,3.53,0,0,1-2.35,2.92c-1.81.06-4.47-.37-5.46-1.56C287.22,212.92,290,211.73,291.25,209.89Z" transform="translate(-27.5 -95.62)"/>
  <path class="cls-1" d="M345.3,202.7c2.66,1,5.55,1.05,5.77,4.07a3.5,3.5,0,0,1-2.35,2.91c-1.8.07-4.47-.36-5.46-1.56C341.26,205.74,344,204.55,345.3,202.7Z" transform="translate(-27.5 -95.62)"/>
  <path class="cls-1" d="M447.89,230.86a50,50,0,0,1-5.43-.32,4.38,4.38,0,0,1-3.69-3.61,4,4,0,0,1,0-.6,2.71,2.71,0,0,1,3.48-2.78l.09,0C445.82,224.16,447.19,225.81,447.89,230.86Z" transform="translate(-27.5 -95.62)"/>
  <path class="cls-1" d="M411.11,215.29a52.65,52.65,0,0,1-5.76.08,3.82,3.82,0,0,1-3.64-3.55,3.73,3.73,0,0,1,4-3.87h.1C409.44,208.32,410.77,210,411.11,215.29Z" transform="translate(-27.5 -95.62)"/>
  <path class="cls-1" d="M392.73,213.18a50.26,50.26,0,0,1-5.76.08,3.84,3.84,0,0,1-3.64-3.55,3.33,3.33,0,0,1,0-.63,3.4,3.4,0,0,1,3.93-3.24l.1,0C391.07,206.22,392.39,207.87,392.73,213.18Z" transform="translate(-27.5 -95.62)"/>
  <path class="cls-1" d="M500.88,263.66a52.18,52.18,0,0,1-5.58-.18,4,4,0,0,1-3.59-3.6,3.4,3.4,0,0,1,3.77-3.57l.09,0C499.14,256.85,500.45,258.5,500.88,263.66Z" transform="translate(-27.5 -95.62)"/>
  <path class="cls-1" d="M478.54,611.29a4.35,4.35,0,0,1-3.73-4.56,3.56,3.56,0,0,1,3.42-3.15c1.95.09,5.06,3.17,4.91,4.89S481,611.61,478.54,611.29Z" transform="translate(-27.5 -95.62)"/>
  <g>
    <path class="cls-3" d="M565.7,644.72a9.38,9.38,0,0,0,.1-2.93,83.93,83.93,0,0,0-10.12-22.37c-5.22-7.6-11.24-14.33-19.22-18.32-2.63-1.29-5-3.38-7.85-4.14-6-1.6-12.23-2.74-18.43-3.76-2.52-.39-5.15-1.75-8.27,1.15.47,2.9.79,5.74,1.37,8.46,1.91,8.92,6.74,15.49,12.12,20.92,6.65,6.68,9,9.21,18.31,11.7,2.34.6,9.25,5.54,11.4,6.58,4.86,2.47,10.43,2.52,15.86,3.23a21.35,21.35,0,0,0,4.73-.52Z" transform="translate(-27.5 -95.62)"/>
    <path class="cls-3" d="M572.82,649.74a20.65,20.65,0,0,1-4.63.57c-5.4-.67-11-.78-15.87-3.2-2.16-1-9.07-6-11.41-6.58-9.34-2.47-16.33-9.11-23-15.78-5.38-5.42-5.55-7.88-7.48-16.78-.56-2.75-.91-5.56-1.37-8.46,3.09-2.87,5.72-1.51,8.26-1.16a164,164,0,0,1,18.44,3.74c2.83.75,5.19,2.81,7.85,4.12,8,4,14,10.66,19.25,18.29A84.36,84.36,0,0,1,573,646.86,14.24,14.24,0,0,1,572.82,649.74Z" transform="translate(-27.5 -95.62)"/>
  </g>
  <path class="cls-1" d="M200.84,609.6a5.47,5.47,0,0,1,6.33-3.11,4.36,4.36,0,0,1,3.69,4.28,4.07,4.07,0,0,1-4.21,4A6.13,6.13,0,0,1,200.84,609.6Z" transform="translate(-27.5 -95.62)"/>
  <path class="cls-1" d="M240.62,627.05a8.08,8.08,0,0,1,3.46.09,13.84,13.84,0,0,1,4.36,3.42,3.51,3.51,0,0,1-.15,3.19,4.87,4.87,0,0,1-3.54,1.78C241.14,635.16,239.63,631.94,240.62,627.05Z" transform="translate(-27.5 -95.62)"/>
  <path class="cls-1" d="M171.89,573.89A5.62,5.62,0,0,1,166,569.6c-.46-2.08.64-3.42,2.87-3.61,3.21-.24,5.93,1.23,6.28,3.41a3.41,3.41,0,0,1-3.27,4.49Z" transform="translate(-27.5 -95.62)"/>
  <path class="cls-1" d="M255.13,633.19a50.85,50.85,0,0,1,5.07,2.64,3.83,3.83,0,0,1,1.48,4.87,3.08,3.08,0,0,1-.33.55,3.39,3.39,0,0,1-5,1l-.08-.06C253.25,640.14,252.88,638.06,255.13,633.19Z" transform="translate(-27.5 -95.62)"/>
  <path class="cls-1" d="M132.79,508.94c2-.49,5.56,1.51,6.13,3.41a3.34,3.34,0,0,1-2.78,4.2,5.22,5.22,0,0,1-5.1-3.38C130.38,510.83,131,509.4,132.79,508.94Z" transform="translate(-27.5 -95.62)"/>
  <path class="cls-1" d="M140.74,527.72c2.73-2.9,5.29-1.11,7.52.46.76.51,1.05,2.87.66,4a3.19,3.19,0,0,1-3,1.61C143.69,532.61,140.58,531.85,140.74,527.72Z" transform="translate(-27.5 -95.62)"/>
  <g>
    <path class="cls-3" d="M69.35,584.79c.89.67,1.46,1.4,2.13,1.52a69.74,69.74,0,0,0,22.5,2c8.67-.9,17.14-2.92,24.68-8,2.47-1.69,5.39-2.78,7.58-4.91,4.65-4.54,9-9.46,13.35-14.44,1.73-2,4.25-3.7,3.87-7.88-2.43-1-4.75-2.11-7.11-2.94-7.75-2.69-15.43-1.63-22.55.46-8.8,2.6-17.76,5.52-25,12.55a41.74,41.74,0,0,1-5.7,4.75c-4.63,3.09-7.85,8-11.49,12.45a25.79,25.79,0,0,0-2.31,4.43Z" transform="translate(-27.5 -95.62)"/>
    <path class="cls-3" d="M61.52,588.63a26.1,26.1,0,0,1,2.23-4.38c3.59-4.45,6.86-9.33,11.47-12.46A41.86,41.86,0,0,0,80.91,567c7.19-7,16.15-10,24.94-12.59,7.12-2.1,14.8-3.15,22.55-.49,2.38.86,4.68,1.93,7.11,2.93.38,4.15-2.15,5.81-3.86,7.88-4.3,5-8.65,10-13.34,14.47-2.18,2.13-5.07,3.21-7.57,4.92-7.54,5.11-15.94,7.11-24.67,8.05a69.71,69.71,0,0,1-22.5-2C63,590,62.42,589.3,61.52,588.63Z" transform="translate(-27.5 -95.62)"/>
  </g>
  <g>
    <path class="cls-3" d="M173.91,706.78c1.13,0,2,.21,2.67-.15a89.39,89.39,0,0,0,21.54-13.76c7.49-6.76,14.26-14.37,18.7-24,1.44-3.17,3.59-6.14,4.56-9.51,2.06-7.16,3.71-14.48,5.25-21.79.6-3,2.11-6.15-.25-9.52-2.71.8-5.36,1.43-7.91,2.34-8.38,3-14.89,9.23-20.39,16-6.79,8.33-13.57,17-16.76,28.14a57.48,57.48,0,0,1-2.93,8.07c-2.74,5.88-3.33,12.37-4.51,18.76a29.31,29.31,0,0,0,0,5.46Z" transform="translate(-27.5 -95.62)"/>
    <path class="cls-3" d="M168.6,715.51a29.79,29.79,0,0,1-.08-5.34c1.15-6.35,1.79-12.87,4.49-18.77a57.44,57.44,0,0,0,2.92-8.07c3.18-11.1,9.95-19.82,16.73-28.17,5.5-6.74,12-12.95,20.37-16,2.58-.9,5.2-1.55,7.91-2.36,2.34,3.35.83,6.54.26,9.53-1.5,7.35-3.12,14.63-5.23,21.79-1,3.37-3.09,6.3-4.55,9.52-4.43,9.65-11.15,17.19-18.67,24a89.75,89.75,0,0,1-21.53,13.79A10.39,10.39,0,0,1,168.6,715.51Z" transform="translate(-27.5 -95.62)"/>
  </g>
  <path class="cls-1" d="M39.88,514.39c4.56-3.59,8.85-7.66,14.28-9.79A43.29,43.29,0,0,0,61,501.11c8.83-5.39,18.86-6.5,28.67-7.34,7.94-.66,16.3-.21,24.13,3.82,2.39,1.27,4.67,2.74,7.1,4.17-.28,4.05-3.24,5.17-5.41,6.83A200.45,200.45,0,0,1,98.9,520c-2.68,1.64-5.94,2.12-8.89,3.29-8.87,3.47-18.17,3.8-27.63,3a83.91,83.91,0,0,1-23.67-6.2" transform="translate(-27.5 -95.62)"/>
  <g>
    <path class="cls-3" d="M113,658c1.11.32,1.9.81,2.64.67a87.42,87.42,0,0,0,24.57-6.46c9.07-4.11,17.66-9.24,24.51-17,2.24-2.56,5.11-4.72,7-7.61,3.89-6.14,7.42-12.56,10.85-19,1.36-2.62,3.67-5.17,2.26-9.08-2.84-.07-5.58-.28-8.31-.19-8.94.3-16.9,4.2-24,8.89-8.8,5.82-17.7,12-23.73,21.52a52.52,52.52,0,0,1-5,6.74c-4.21,4.73-6.49,10.68-9.33,16.37A28.19,28.19,0,0,0,113,658Z" transform="translate(-27.5 -95.62)"/>
    <path class="cls-3" d="M105.48,664.62a27.91,27.91,0,0,1,1.34-5.08c2.79-5.66,5.12-11.62,9.31-16.38a52.56,52.56,0,0,0,5-6.75c6-9.53,14.91-15.72,23.7-21.55,7.13-4.7,15.1-8.6,24-8.92,2.74-.06,5.46.12,8.31.18,1.39,3.88-.92,6.44-2.26,9.09-3.4,6.5-6.88,12.89-10.83,19-1.83,2.9-4.66,5-6.93,7.62-6.85,7.77-15.37,12.86-24.5,17a87.74,87.74,0,0,1-24.56,6.49A11.3,11.3,0,0,1,105.48,664.62Z" transform="translate(-27.5 -95.62)"/>
  </g>
  <path class="cls-1" d="M274.4,648c-1.72-2.25-4.11-3.85-2.68-6.52a3.54,3.54,0,0,1,3.55-1.2c1.56.92,3.58,2.71,3.77,4.24C279.44,647.63,276.47,647.15,274.4,648Z" transform="translate(-27.5 -95.62)"/>
  <path class="cls-1" d="M224.94,625.15c-1.72-2.25-4.11-3.85-2.68-6.52a3.54,3.54,0,0,1,3.55-1.2c1.56.91,3.58,2.7,3.77,4.24C230,624.75,227,624.27,224.94,625.15Z" transform="translate(-27.5 -95.62)"/>
  <path class="cls-1" d="M153.55,546.45a52.6,52.6,0,0,1,4.4,3.18,4.35,4.35,0,0,1,1.17,5,3.72,3.72,0,0,1-.3.52,2.73,2.73,0,0,1-4.44.48l-.06-.06C151.69,553.21,151.42,551.09,153.55,546.45Z" transform="translate(-27.5 -95.62)"/>
  <path class="cls-1" d="M176.2,579.29a55,55,0,0,1,4.9,3,3.82,3.82,0,0,1,1.16,5,3.25,3.25,0,0,1-.37.52,3.4,3.4,0,0,1-5,.62l-.08-.06C173.85,586.06,173.62,584,176.2,579.29Z" transform="translate(-27.5 -95.62)"/>
  <path class="cls-1" d="M190.57,590.91a52.78,52.78,0,0,1,4.9,3,3.82,3.82,0,0,1,1.16,5,3.25,3.25,0,0,1-.37.52,3.4,3.4,0,0,1-5,.62l-.08-.06C188.22,597.67,188,595.57,190.57,590.91Z" transform="translate(-27.5 -95.62)"/>
  <path class="cls-1" d="M124.49,473.4a52,52,0,0,1,4.61,3.14,4,4,0,0,1,1.09,5,2.7,2.7,0,0,1-.35.51,3.06,3.06,0,0,1-4.75.48l-.07-.06C122.29,480.08,122.07,478,124.49,473.4Z" transform="translate(-27.5 -95.62)"/>
  <path class="cls-1" d="M339.76,661.25A5.46,5.46,0,0,1,343,655a4.38,4.38,0,0,1,5.53,1.23,4.06,4.06,0,0,1-1,5.68A6.15,6.15,0,0,1,339.76,661.25Z" transform="translate(-27.5 -95.62)"/>
  <path class="cls-1" d="M382.1,651.47a8.11,8.11,0,0,1,2.83-2,13.82,13.82,0,0,1,5.54.14,3.49,3.49,0,0,1,1.79,2.65,4.88,4.88,0,0,1-1.76,3.53C387.38,657.66,384.24,656,382.1,651.47Z" transform="translate(-27.5 -95.62)"/>
  <path class="cls-1" d="M295.14,649.94a5.63,5.63,0,0,1-7.28.08c-1.63-1.4-1.54-3.13.13-4.6,2.42-2.12,5.49-2.57,7.08-1a3.57,3.57,0,0,1,.61,5.05A2.84,2.84,0,0,1,295.14,649.94Z" transform="translate(-27.5 -95.62)"/>
  <g>
    <path class="cls-3" d="M373.11,752.7c1.11-.64,2.16-.94,2.56-1.57a69.35,69.35,0,0,0,11.18-21.84c2.42-9,3.49-18.31.71-27.8-.93-3.11-1-6.45-2.55-9.45-3.3-6.37-7.12-12.63-11-18.83-1.61-2.5-2.49-5.66-7.36-6.84-2.1,2.07-4.27,4-6.13,6-6.11,6.78-8,14.88-8.4,22.83-.54,9.81-.79,19.9,4.31,29.77a42,42,0,0,1,3.11,7.5c1.66,5.8,5.92,10.88,9.51,16.21a30.39,30.39,0,0,0,4.1,4Z" transform="translate(-27.5 -95.62)"/>
    <path class="cls-3" d="M374.35,762a30,30,0,0,1-4.07-3.87c-3.6-5.28-7.83-10.4-9.54-16.2a43.24,43.24,0,0,0-3.12-7.51c-5.12-9.86-4.88-19.95-4.36-29.77.44-7.94,2.29-16,8.37-22.83,1.9-2.07,4-4,6.12-6,4.83,1.17,5.71,4.33,7.37,6.83a211.49,211.49,0,0,1,11.06,18.82c1.56,3,1.63,6.3,2.57,9.46,2.79,9.48,1.73,18.67-.66,27.8a69.65,69.65,0,0,1-11.16,21.85A12.41,12.41,0,0,1,374.35,762Z" transform="translate(-27.5 -95.62)"/>
  </g>
  <g>
    <path class="cls-3" d="M299.3,751.81c1.08-.41,2-.49,2.52-1a87.35,87.35,0,0,0,15.81-19.85c4.79-8.71,8.59-17.95,9.42-28.27.25-3.38,1.26-6.82,1-10.23-.57-7.25-1.59-14.5-2.71-21.71-.48-2.92-.17-6.34-3.64-8.63-2.32,1.65-4.64,3.12-6.77,4.81-7,5.58-11,13.46-13.92,21.48-3.55,9.91-7,20.18-6.08,31.4a53.19,53.19,0,0,1,.06,8.37c-.54,6.3,1.21,12.44,2.35,18.68a28,28,0,0,0,2,5Z" transform="translate(-27.5 -95.62)"/>
    <path class="cls-3" d="M297.31,761.59a28.42,28.42,0,0,1-2-4.87c-1.16-6.19-2.87-12.37-2.37-18.68a53.21,53.21,0,0,0-.08-8.37c-.89-11.22,2.51-21.49,6.06-31.41,2.88-8,6.93-15.9,13.89-21.49,2.16-1.69,4.44-3.17,6.76-4.82,3.44,2.28,3.13,5.7,3.65,8.63,1.18,7.24,2.22,14.44,2.74,21.7.27,3.41-.72,6.8-1,10.24-.82,10.32-4.59,19.49-9.39,28.28a87.05,87.05,0,0,1-15.78,19.87A10.7,10.7,0,0,1,297.31,761.59Z" transform="translate(-27.5 -95.62)"/>
  </g>
  <path class="cls-1" d="M368.4,659.32c-2.73-.78-5.61-.63-6.06-3.63a3.52,3.52,0,0,1,2.12-3.08c1.8-.19,4.49,0,5.56,1.15C372.2,656,369.53,657.38,368.4,659.32Z" transform="translate(-27.5 -95.62)"/>
  <path class="cls-1" d="M301.83,651.69a54.63,54.63,0,0,1,5.74-.51,3.83,3.83,0,0,1,3.89,3.27,2.74,2.74,0,0,1,0,.64,3.38,3.38,0,0,1-3.67,3.51h-.1C304,658.51,302.57,657,301.83,651.69Z" transform="translate(-27.5 -95.62)"/>
  <path class="cls-1" d="M320.31,652.42a50,50,0,0,1,5.74-.51,3.84,3.84,0,0,1,3.9,3.27,4.42,4.42,0,0,1,0,.63,3.4,3.4,0,0,1-3.68,3.52h-.1C322.5,659.24,321.05,657.69,320.31,652.42Z" transform="translate(-27.5 -95.62)"/>
  <g>
    <path class="cls-3" d="M262.05,664.64c-1,.17-1.9.06-2.42.47a70,70,0,0,0-16.56,15.24c-5.29,7.09-9.72,14.86-11.51,24.19-.57,3.07-1.85,6-1.94,9.23-.2,6.77,0,13.64.34,20.48.15,2.77-.48,5.86,2.5,8.63,2.3-1.07,4.59-2,6.72-3.13,7-3.79,11.51-10.27,15-17.09,4.27-8.44,8.44-17.22,8.75-27.72a47.61,47.61,0,0,1,.77-7.7c1.12-5.7.12-11.67-.31-17.64a28,28,0,0,0-1.32-5Z" transform="translate(-27.5 -95.62)"/>
    <path class="cls-3" d="M264.86,656a27.67,27.67,0,0,1,1.34,4.86c.46,5.92,1.42,11.92.33,17.63a49,49,0,0,0-.76,7.71c-.3,10.5-4.46,19.29-8.72,27.73-3.45,6.83-8,13.31-15,17.12-2.17,1.14-4.42,2.06-6.72,3.13-2.95-2.75-2.32-5.84-2.51-8.63-.36-6.88-.61-13.7-.36-20.48.09-3.19,1.34-6.12,1.93-9.23,1.78-9.34,6.17-17,11.48-24.22a70.33,70.33,0,0,1,16.53-15.25A9.3,9.3,0,0,1,264.86,656Z" transform="translate(-27.5 -95.62)"/>
  </g>
  <path class="cls-1" d="M523,302.73c-.73-.37-2.44-.75-3.25-1.78-1.12-1.36,1.55-6.18,3.6-6.94a3.47,3.47,0,0,1,4.47,2l0,.11C528.6,298.32,526.67,301.45,523,302.73Z" transform="translate(-27.5 -95.62)"/>
  <path class="cls-1" d="M505.79,283.94c-2.18-3.82.62-5.91,2.87-7.91a4,4,0,0,1,3.64,0,5.2,5.2,0,0,1,.82,4.28C511.93,283.24,509.32,284.54,505.79,283.94Z" transform="translate(-27.5 -95.62)"/>
  <g>
    <path class="cls-3" d="M627.45,306.24c-.86-.69-1.37-1.4-2.07-1.57a87,87,0,0,0-24-3.86c-9.52,0-19,1.13-27.94,5.1-2.92,1.31-6.26,2-8.95,3.8-5.72,3.72-11.23,7.81-16.65,12-2.19,1.7-5.17,3-5.39,6.82,2.48,1.14,4.81,2.36,7.24,3.32,8,3.14,16.46,2.87,24.49,1.6,9.92-1.58,20.06-3.44,28.92-9.21a49.89,49.89,0,0,1,6.9-3.81c5.47-2.41,9.71-6.58,14.32-10.32a24.49,24.49,0,0,0,3.18-3.84Z" transform="translate(-27.5 -95.62)"/>
    <path class="cls-3" d="M636.51,303.45a25.68,25.68,0,0,1-3.07,3.79c-4.57,3.73-8.86,7.89-14.32,10.33a49.91,49.91,0,0,0-6.89,3.83c-8.86,5.78-19,7.65-28.92,9.24-8,1.28-16.5,1.55-24.48-1.57-2.44-1-4.77-2.17-7.25-3.31.22-3.81,3.21-5.1,5.38-6.83,5.42-4.22,10.88-8.3,16.64-12,2.69-1.76,6-2.48,8.95-3.81,8.94-4,18.34-5.06,27.93-5.13a87.06,87.06,0,0,1,24.06,3.83C635.14,302.05,635.65,302.76,636.51,303.45Z" transform="translate(-27.5 -95.62)"/>
  </g>
  <g>
    <path class="cls-3" d="M613.25,239.16c-1.14-.53-1.88-1.15-2.72-1.17a109.14,109.14,0,0,0-28.09,1.33c-10.74,2.15-21.19,5.38-30.33,11.47-3,2-6.58,3.51-9.2,5.93-5.57,5.12-10.8,10.58-15.93,16.09-2.06,2.24-5.12,4.24-4.44,8.27,3.07.63,6,1.37,9,1.83,9.77,1.49,19.27-.68,28-3.77,10.82-3.84,21.83-8,30.45-15.95a57.8,57.8,0,0,1,6.87-5.49c5.61-3.7,9.39-9,13.71-13.86a26.74,26.74,0,0,0,2.66-4.68Z" transform="translate(-27.5 -95.62)"/>
    <path class="cls-3" d="M622.81,234.26a26.28,26.28,0,0,1-2.56,4.61c-4.26,4.88-8.1,10.14-13.69,13.88a55.94,55.94,0,0,0-6.86,5.49c-8.61,7.95-19.62,12.13-30.44,16-8.76,3.11-18.26,5.26-28,3.8-3-.49-5.91-1.19-9-1.82-.67-4,2.39-6,4.43-8.27,5.11-5.57,10.29-11,15.91-16.11,2.62-2.42,6.16-3.89,9.19-5.94,9.14-6.1,19.5-9.3,30.32-11.5A109.13,109.13,0,0,1,620.19,233,12.38,12.38,0,0,1,622.81,234.26Z" transform="translate(-27.5 -95.62)"/>
  </g>
  <text class="cls-4" transform="translate(206.74 364.77)">IZABELLE WILDING</text>
  <path class="cls-1" d="M124.47,457.64c2-.28,5.37,2.1,5.73,4.05a3.33,3.33,0,0,1-3.22,3.87,5.18,5.18,0,0,1-4.7-3.9C121.87,459.26,122.61,457.9,124.47,457.64Z" transform="translate(-27.5 -95.62)"/>
  <path class="cls-1" d="M31.51,453.1c4.92-3.07,9.63-6.66,15.25-8.2A43.18,43.18,0,0,0,54,442.17c9.36-4.42,19.45-4.45,29.29-4.23,8,.19,16.23,1.54,23.58,6.39,2.24,1.52,4.35,3.22,6.61,4.9-.71,4-3.78,4.79-6.11,6.21-5.82,3.43-11.65,6.71-17.73,9.52-2.84,1.34-6.13,1.47-9.19,2.32-9.2,2.5-18.47,1.82-27.8.05a83.59,83.59,0,0,1-22.87-8.7" transform="translate(-27.5 -95.62)"/>
  <path class="cls-1" d="M120.21,438.54a49.65,49.65,0,0,1,4.24,3.61,4,4,0,0,1,.55,5.05,3,3,0,0,1-.4.47,3.06,3.06,0,0,1-4.77,0,.46.46,0,0,0-.07-.07C117.3,444.94,117.31,442.83,120.21,438.54Z" transform="translate(-27.5 -95.62)"/>
  <path class="cls-1" d="M494.58,589.29a4.34,4.34,0,0,1-3.73-4.56,3.56,3.56,0,0,1,3.42-3.15c2,.09,5.06,3.17,4.91,4.89S497,589.61,494.58,589.29Z" transform="translate(-27.5 -95.62)"/>
  <path class="cls-1" d="M535.06,323.73c-.73-.37-2.44-.75-3.25-1.78-1.12-1.36,1.55-6.18,3.6-6.94a3.47,3.47,0,0,1,4.47,2l0,.11C540.63,319.32,538.7,322.45,535.06,323.73Z" transform="translate(-27.5 -95.62)"/>
  <path class="cls-1" d="M540.69,344.29a4.34,4.34,0,0,1-3.72-4.56,3.54,3.54,0,0,1,3.41-3.15c2,.09,5.06,3.17,4.92,4.89S543.13,344.61,540.69,344.29Z" transform="translate(-27.5 -95.62)"/>
  <text class="cls-5" transform="translate(210.78 430.72)">FREELANCE WEB DEVE<tspan class="cls-6" x="534.59" y="0">L</tspan><tspan x="560.09" y="0">OPER</tspan></text>
</svg>
