<svg id="Layer_1" data-name="Layer 1" xmlns="http://www.w3.org/2000/svg" viewBox="0 0 488.82 253.97">
  <defs>
    <style>
      .cls-1, .cls-3 {
        fill: #fff;
      }

      .cls-2 {
        fill: #b29f66;
      }

      .cls-3 {
        stroke: #fff;
        stroke-miterlimit: 10;
      }
    </style>
  </defs>
  <title>react-logo</title>
  <path class="cls-1" d="M552.83,313.18c2-.25,2.74,1.12,3.55,2.45s.06,2-.42,2.9c-2.34,0-4-.82-4.52-2.32S551.81,313.85,552.83,313.18Z" transform="translate(-311.5 -250.21)"/>
  <path class="cls-1" d="M407.14,354.53c-1.66.06-3.43-1.14-3.54-2.39a2.17,2.17,0,0,1,1.9-2.41,1.71,1.71,0,0,1,.32,0c2.11,0,3.32.89,3.45,2.7C409.37,353.84,408.74,354.47,407.14,354.53Z" transform="translate(-311.5 -250.21)"/>
  <path class="cls-1" d="M412.69,343.69a3.08,3.08,0,0,1,3.2,2.95v.07a1.9,1.9,0,0,1-2.37,1.88c-1.87-.13-3.62-1.76-3.49-3.23C410.13,344.26,411.14,343.63,412.69,343.69Z" transform="translate(-311.5 -250.21)"/>
  <path class="cls-1" d="M629.11,362.64a3.54,3.54,0,0,1-4.22.69,2.38,2.38,0,0,1-1.43-2.88,2.53,2.53,0,0,1,3.13-1.47A3.42,3.42,0,0,1,629.11,362.64Z" transform="translate(-311.5 -250.21)"/>
  <path class="cls-1" d="M395.63,370.43a4.11,4.11,0,0,1-4.4-.58c-.91-.78-1.37-1.65-.75-2.79a2.69,2.69,0,0,1,3.29-.88C395.31,367.05,396.43,368.16,395.63,370.43Z" transform="translate(-311.5 -250.21)"/>
  <path class="cls-1" d="M540.62,316.84c-2,.18-3.36-.43-4.13-2.18a2.1,2.1,0,0,1,.58-2.87,2.37,2.37,0,0,1,3.08.77C541,313.8,541.63,315.1,540.62,316.84Z" transform="translate(-311.5 -250.21)"/>
  <path class="cls-1" d="M367.51,421.27c-.44.33-1,1.15-1.8,1.3A3.27,3.27,0,0,1,362,420a2.27,2.27,0,0,1,1.94-2.17C365.45,417.7,367.4,419.31,367.51,421.27Z" transform="translate(-311.5 -250.21)"/>
  <path class="cls-1" d="M547.5,317.06a3.5,3.5,0,0,1-3.11-3.24c.06-1.14.45-2.15,1.77-2.31s3.26,1.7,3.35,3.14A2.31,2.31,0,0,1,547.5,317.06Z" transform="translate(-311.5 -250.21)"/>
  <path class="cls-1" d="M362.21,426.9a17.82,17.82,0,0,1,2.34.68,2.53,2.53,0,0,1,1,3,1.7,1.7,0,0,1-2.15,1.06,1.31,1.31,0,0,1-.27-.12,12.14,12.14,0,0,1-1.63-.67c-.9-.52-1.71-1.33-1.19-2.37C360.7,427.8,361.64,427.37,362.21,426.9Z" transform="translate(-311.5 -250.21)"/>
  <path class="cls-1" d="M608.84,347.07a5.2,5.2,0,0,1-2-.59,7.53,7.53,0,0,1-2-2.52,1.82,1.82,0,0,1,.63-1.68,3.24,3.24,0,0,1,2.37-.41C609.93,342.64,610.26,344.6,608.84,347.07Z" transform="translate(-311.5 -250.21)"/>
  <path class="cls-1" d="M421.3,338.28c1.52,0,3.61,1.65,3.58,2.78a2.4,2.4,0,0,1-2.66,2.08,2.84,2.84,0,0,1-2.78-2.74,2,2,0,0,1,1.78-2.11Z" transform="translate(-311.5 -250.21)"/>
  <path class="cls-1" d="M564.58,319.53a10,10,0,0,1,2.64-1.21,2.74,2.74,0,0,1,1.88.85,5.72,5.72,0,0,1,.75,1.85c.35.88.5,1.94-.45,2.24a3.13,3.13,0,0,1-2.57-.5C566,322.09,565.51,320.93,564.58,319.53Z" transform="translate(-311.5 -250.21)"/>
  <path class="cls-1" d="M482.11,317.7a2,2,0,0,1-1.82,2.18h-.06c-1.32,0-3.24-2-3.17-3.33a2.49,2.49,0,0,1,2.13-2.06C480.36,314.46,482.1,316.4,482.11,317.7Z" transform="translate(-311.5 -250.21)"/>
  <path class="cls-1" d="M644.25,384.54a3.19,3.19,0,0,1,2.92,3c0,1.19-.83,1.8-2.18,1.65-1.93-.24-3.36-1.35-3.28-2.59a2.1,2.1,0,0,1,2.09-2.12A1.71,1.71,0,0,1,644.25,384.54Z" transform="translate(-311.5 -250.21)"/>
  <path class="cls-1" d="M601.41,341.51a31,31,0,0,1-2.51-2.21,2,2,0,0,1,0-2.84,2.26,2.26,0,0,1,.28-.25,2.2,2.2,0,0,1,3.09.24l0,0C603.7,338.07,603.56,339.25,601.41,341.51Z" transform="translate(-311.5 -250.21)"/>
  <path class="cls-1" d="M366,409.93c0-1.44.66-2,2.26-1.89a2.87,2.87,0,0,1,3,2.73s0,.09,0,.14a2.08,2.08,0,0,1-2.25,1.76C367,412.62,365.91,411.56,366,409.93Z" transform="translate(-311.5 -250.21)"/>
  <path class="cls-1" d="M517.25,313.75c-.35.32-.9,1.16-1.66,1.4-1,.35-3.27-1.92-3.31-3.14a2,2,0,0,1,2-2h.07C515.78,310,517.22,311.6,517.25,313.75Z" transform="translate(-311.5 -250.21)"/>
  <path class="cls-1" d="M442.91,325.2c1.15,0,3.12,1.93,3,3s-.43,2.12-1.83,2.18a3,3,0,0,1-2.89-3C441.18,326.11,441.85,325.2,442.91,325.2Z" transform="translate(-311.5 -250.21)"/>
  <path class="cls-1" d="M386.52,374.07c2,.07,2.94,1,2.82,2.88-.08,1.12-.5,1.87-1.77,1.79-1.54-.1-3.43-1.81-3.34-3C384.34,374.23,385.38,374.06,386.52,374.07Z" transform="translate(-311.5 -250.21)"/>
  <path class="cls-1" d="M361.21,452.69c-1.93.54-3.52.34-4.4-1.44a2.4,2.4,0,0,1,.22-2,2.44,2.44,0,0,1,1.92-.78C361,448.76,361.68,450.13,361.21,452.69Z" transform="translate(-311.5 -250.21)"/>
  <path class="cls-1" d="M578.65,325c-.22.32-.55,1.26-1.18,1.56-.46.22-1.44-.27-2-.71-1.58-1.32-2-2.58-1.22-3.44a3.21,3.21,0,0,1,2.19-1C577.73,321.49,578.69,323.09,578.65,325Z" transform="translate(-311.5 -250.21)"/>
  <path class="cls-1" d="M507.29,316.69c-2.64.47-3.3-1.38-4-2.93a2.1,2.1,0,0,1,.69-1.93,3.45,3.45,0,0,1,2.63.34C508.08,313.32,508.32,314.93,507.29,316.69Z" transform="translate(-311.5 -250.21)"/>
  <path class="cls-1" d="M383.1,386.34c-.26.18-.84.89-1.51,1a2.8,2.8,0,0,1-3.06-1.8,2.84,2.84,0,0,1,.48-2.36,2.21,2.21,0,0,1,2-.21C382.15,383.47,383.42,384.07,383.1,386.34Z" transform="translate(-311.5 -250.21)"/>
  <path class="cls-1" d="M453.68,326.84a3.84,3.84,0,0,1-4.46-1.74c-.75-1.1-.27-2.06,1-2.32C453.43,322.19,454.38,323.26,453.68,326.84Z" transform="translate(-311.5 -250.21)"/>
  <path class="cls-1" d="M659.77,422.46c-1.23.06-3.12-1.42-3.22-2.52a2,2,0,0,1,2.18-2,3,3,0,0,1,2.61,2.39C661.45,421.68,660.92,422.4,659.77,422.46Z" transform="translate(-311.5 -250.21)"/>
  <path class="cls-1" d="M659.15,414.7c-2,1.28-3.3,0-4.41-1.12-.38-.36-.24-1.68.14-2.26a2.07,2.07,0,0,1,2-.53C658,411.68,659.79,412.46,659.15,414.7Z" transform="translate(-311.5 -250.21)"/>
  <path class="cls-1" d="M660.42,447.26c-1.43,1-2.49.13-3.61-.78a1.78,1.78,0,0,1,1.72-3.1C660,443.89,660.52,444.87,660.42,447.26Z" transform="translate(-311.5 -250.21)"/>
  <path class="cls-1" d="M376.06,390.19a2.61,2.61,0,0,1,2.66,2.23,2,2,0,0,1-1.77,2c-1.18.1-3.33-1.35-3.4-2.32S374.56,390.2,376.06,390.19Z" transform="translate(-311.5 -250.21)"/>
  <path class="cls-1" d="M583.68,325.73c.63,1.48,1.75,2.71.46,3.92a2.32,2.32,0,0,1-2.28.09c-.76-.74-1.63-2-1.48-2.87C580.67,325.15,582.33,325.88,583.68,325.73Z" transform="translate(-311.5 -250.21)"/>
  <path class="cls-1" d="M700.66,328.35c.23-.12.31-.2.39-.19,1,0,1.65.45,1.53,1.53,0,.2-.6.53-.86.48C700.68,330,700.48,329.22,700.66,328.35Z" transform="translate(-311.5 -250.21)"/>
  <path class="cls-2" d="M798.88,423.45a1.5,1.5,0,0,0,0-3,1.5,1.5,0,0,0,0,3Z" transform="translate(-311.5 -250.21)"/>
  <g>
    <path class="cls-3" d="M700.91,390.57c-.46-.45-.73-.9-1.12-1a44.66,44.66,0,0,0-13.26-3c-5.29-.24-10.58.16-15.63,2.34-1.66.72-3.52,1.08-5.06,2.07-3.26,2.12-6.41,4.47-9.52,6.86-1.25,1-2.94,1.68-3.15,4,1.35.76,2.62,1.57,4,2.23,4.36,2.14,9.07,2.21,13.56,1.66,5.55-.69,11.22-1.55,16.27-4.83a26.25,26.25,0,0,1,3.92-2.14c3.09-1.32,5.54-3.76,8.19-5.91a15.06,15.06,0,0,0,1.85-2.26Z" transform="translate(-311.5 -250.21)"/>
    <path class="cls-3" d="M706,389.11a15,15,0,0,1-1.79,2.24c-2.62,2.15-5.1,4.58-8.19,5.92a26.21,26.21,0,0,0-3.91,2.15c-5.05,3.28-10.72,4.14-16.26,4.84-4.49.56-9.2.49-13.57-1.64-1.33-.67-2.59-1.46-3.95-2.22.22-2.33,1.9-3,3.15-4,3.1-2.43,6.23-4.78,9.51-6.87,1.53-1,3.38-1.35,5.06-2.09,5.05-2.18,10.29-2.58,15.62-2.36a44.77,44.77,0,0,1,13.27,3C705.27,388.22,705.54,388.67,706,389.11Z" transform="translate(-311.5 -250.21)"/>
  </g>
  <g>
    <path class="cls-3" d="M661.47,314.71a4.41,4.41,0,0,0-1.59-.34,58.27,58.27,0,0,0-14.94,4c-5.53,2.46-10.79,5.48-15,10-1.39,1.48-3.15,2.74-4.29,4.39-2.43,3.52-4.65,7.19-6.8,10.87-.86,1.5-2.28,3-1.48,5.15,1.72,0,3.38.07,5,0,5.42-.31,10.28-2.62,14.65-5.38,5.39-3.41,10.85-7,14.61-12.48a32.07,32.07,0,0,1,3.09-3.88c2.61-2.72,4.06-6.11,5.84-9.36a15.82,15.82,0,0,0,.92-2.93Z" transform="translate(-311.5 -250.21)"/>
    <path class="cls-3" d="M666.07,310.85a15.94,15.94,0,0,1-.87,2.88c-1.76,3.23-3.24,6.62-5.83,9.37a32.76,32.76,0,0,0-3.09,3.87c-3.75,5.46-9.2,9.09-14.59,12.5-4.37,2.76-9.24,5.08-14.65,5.4-1.66.08-3.3,0-5,0-.79-2.16.63-3.64,1.48-5.15,2.13-3.72,4.32-7.37,6.78-10.88,1.14-1.66,2.88-2.9,4.29-4.39,4.23-4.49,9.45-7.49,15-10a57.8,57.8,0,0,1,14.94-4A7,7,0,0,1,666.07,310.85Z" transform="translate(-311.5 -250.21)"/>
  </g>
  <path class="cls-3" d="M710.45,428.81c-.45-.5-.68-1-1.08-1.14A51.92,51.92,0,0,0,695.54,423c-5.61-.9-11.28-1.17-16.88.33-1.84.5-3.86.61-5.6,1.4-3.69,1.66-7.28,3.57-10.83,5.52-1.43.8-3.3,1.28-3.76,3.55,1.36.92,2.63,1.87,4,2.68,4.43,2.64,9.44,3.3,14.27,3.32,6,0,12.11-.11,17.82-2.68a27.84,27.84,0,0,1,4.39-1.61c3.43-.9,6.28-3,9.32-4.76a15.88,15.88,0,0,0,2.2-2Z" transform="translate(-311.5 -250.21)"/>
  <path class="cls-1" d="M713.89,430c-3,1.78-5.89,3.85-9.32,4.77a29.31,29.31,0,0,0-4.39,1.62c-5.71,2.58-11.84,2.71-17.81,2.7-4.84,0-9.85-.67-14.28-3.3-1.35-.83-2.62-1.76-4-2.68.46-2.25,2.33-2.73,3.75-3.55,3.56-2,7.12-3.89,10.83-5.54,1.74-.78,3.73-.89,5.6-1.4,5.6-1.51,11.23-1.24,16.88-.35A51.87,51.87,0,0,1,715,426.86" transform="translate(-311.5 -250.21)"/>
  <g>
    <path class="cls-3" d="M686.74,345.34a4.47,4.47,0,0,0-1.48-.68,58.47,58.47,0,0,0-15.46.73c-5.93,1.22-11.71,3.05-16.82,6.52-1.67,1.14-3.66,2-5.13,3.37-3.13,2.92-6.07,6-9,9.16-1.16,1.28-2.87,2.41-2.55,4.71,1.68.37,3.28.79,4.91,1.06,5.35.86,10.6-.37,15.46-2.12,6-2.18,12.1-4.55,16.94-9.07a32,32,0,0,1,3.85-3.12c3.13-2.11,5.27-5.11,7.71-7.9a16,16,0,0,0,1.53-2.66Z" transform="translate(-311.5 -250.21)"/>
    <path class="cls-3" d="M692.05,342.55a15.72,15.72,0,0,1-1.46,2.63c-2.41,2.77-4.59,5.77-7.71,7.9a32.8,32.8,0,0,0-3.84,3.13c-4.84,4.52-10.94,6.9-16.93,9.08-4.86,1.76-10.11,3-15.46,2.14-1.64-.28-3.23-.69-4.91-1.05-.32-2.28,1.39-3.42,2.54-4.71,2.88-3.17,5.8-6.27,9-9.18,1.47-1.37,3.44-2.21,5.13-3.37,5.1-3.48,10.84-5.29,16.81-6.53a58.07,58.07,0,0,1,15.46-.75A6.59,6.59,0,0,1,692.05,342.55Z" transform="translate(-311.5 -250.21)"/>
  </g>
  <g>
    <path class="cls-3" d="M534,256.87c-.62.39-1.17.55-1.43.95a56.7,56.7,0,0,0-7.73,13.77c-2.09,5.75-3.52,11.68-3.05,17.83.17,2-.11,4.17.37,6.13,1,4.16,2.36,8.27,3.73,12.33.57,1.65.7,3.69,3,4.56,1.25-1.28,2.52-2.45,3.66-3.74,3.72-4.21,5.43-9.38,6.42-14.46,1.23-6.29,2.32-12.76.72-19.21a29.19,29.19,0,0,1-.84-4.9c-.27-3.76-1.92-7.11-3.21-10.61a16,16,0,0,0-1.68-2.65Z" transform="translate(-311.5 -250.21)"/>
    <path class="cls-3" d="M534.27,250.87a14.76,14.76,0,0,1,1.67,2.58c1.3,3.47,2.93,6.85,3.23,10.61A29.08,29.08,0,0,0,540,269c1.61,6.45.52,12.92-.69,19.21-1,5.09-2.7,10.25-6.41,14.48-1.16,1.28-2.4,2.46-3.66,3.74-2.31-.87-2.45-2.91-3-4.56-1.41-4.07-2.73-8.15-3.74-12.33-.49-2-.21-4.08-.38-6.13-.48-6.15.94-12,3-17.83a56.88,56.88,0,0,1,7.71-13.78A7.58,7.58,0,0,1,534.27,250.87Z" transform="translate(-311.5 -250.21)"/>
  </g>
  <g>
    <path class="cls-3" d="M584.79,267.93a6.05,6.05,0,0,0-1.75.54A64,64,0,0,0,570.8,279c-4,4.64-7.32,9.57-8.82,15.1-.48,1.81-1.47,3.65-1.61,5.48-.29,3.88-.29,7.77-.22,11.64,0,1.57-.48,3.4,1.59,4.64,1.68-.86,3.34-1.64,4.9-2.54a32.06,32.06,0,0,0,11.15-11.43c3.26-5.29,6.45-10.78,6.91-16.79a24.75,24.75,0,0,1,.74-4.49c.94-3.37.36-6.67.19-10a11.58,11.58,0,0,0-.84-2.68Z" transform="translate(-311.5 -250.21)"/>
    <path class="cls-3" d="M587,262.7a11.22,11.22,0,0,1,.85,2.61c.19,3.33.74,6.65-.17,10a23.78,23.78,0,0,0-.73,4.48c-.45,6-3.64,11.5-6.9,16.8a32.11,32.11,0,0,1-11.13,11.44c-1.58.89-3.22,1.68-4.9,2.55-2-1.24-1.53-3.07-1.59-4.64a103,103,0,0,1,.21-11.65c.14-1.83,1.1-3.64,1.6-5.48,1.49-5.52,4.82-10.41,8.8-15.1a63.85,63.85,0,0,1,12.22-10.56A9.06,9.06,0,0,1,587,262.7Z" transform="translate(-311.5 -250.21)"/>
  </g>
  <g>
    <path class="cls-3" d="M630.21,286.65a4.9,4.9,0,0,0-1.69,0,62.28,62.28,0,0,0-14.26,6.91c-5.06,3.45-9.71,7.38-13,12.45-1.07,1.67-2.57,3.21-3.35,5-1.65,3.79-3.06,7.67-4.39,11.55-.53,1.58-1.63,3.25-.31,5.1,1.75-.37,3.45-.65,5.1-1.08,5.44-1.43,9.85-4.62,13.65-8.11,4.7-4.32,9.4-8.84,12-14.71a28.88,28.88,0,0,1,2.24-4.26c2-3.09,2.71-6.55,3.77-9.94a13.72,13.72,0,0,0,.25-2.92Z" transform="translate(-311.5 -250.21)"/>
    <path class="cls-3" d="M634,282.08a13.68,13.68,0,0,1-.21,2.86c-1,3.38-1.76,6.85-3.76,9.95a30.92,30.92,0,0,0-2.24,4.26c-2.55,5.87-7.26,10.4-11.95,14.72-3.8,3.5-8.21,6.68-13.63,8.13,16.58-21.58,7-11.83-5.11,1.09-1.31-1.84-.2-3.52.31-5.1,1.31-3.91,2.69-7.77,4.37-11.56.78-1.78,2.26-3.31,3.34-5,3.28-5.07,7.88-9,13-12.46a62.31,62.31,0,0,1,14.26-6.92A7.18,7.18,0,0,1,634,282.08Z" transform="translate(-311.5 -250.21)"/>
  </g>
  <g>
    <path class="cls-3" d="M487.76,259.83c-.52.51-1,.79-1.2,1.23a57.08,57.08,0,0,0-4.69,15.08c-.85,6.06-1,12.16.74,18.08.58,1.93.75,4.1,1.64,5.91,1.88,3.86,4,7.6,6.21,11.29.9,1.49,1.46,3.46,3.92,3.82,1-1.51,2-2.92,2.81-4.41,2.76-4.9,3.35-10.31,3.26-15.49-.11-6.41-.39-13-3.3-18.94a29.93,29.93,0,0,1-1.84-4.61c-1.05-3.62-3.36-6.56-5.36-9.71a15,15,0,0,0-2.19-2.25Z" transform="translate(-311.5 -250.21)"/>
    <path class="cls-3" d="M486.79,253.91a15.89,15.89,0,0,1,2.17,2.17c2,3.13,4.29,6.1,5.36,9.71a31,31,0,0,0,1.85,4.61c2.92,6,3.2,12.53,3.33,18.93.09,5.19-.51,10.59-3.25,15.49-.87,1.5-1.84,2.91-2.8,4.42-2.44-.36-3-2.33-3.93-3.81-2.22-3.7-4.37-7.41-6.22-11.29-.89-1.81-1.06-3.94-1.65-5.91-1.76-5.92-1.59-12-.76-18.07a56.62,56.62,0,0,1,4.67-15.09C485.75,254.7,486.26,254.42,486.79,253.91Z" transform="translate(-311.5 -250.21)"/>
  </g>
  <g>
    <path class="cls-3" d="M443,274.52a5.19,5.19,0,0,0-.76,1.48,51.47,51.47,0,0,0-.23,14.54c.86,5.47,2.34,10.73,5.5,15.14,1,1.44,1.78,3.23,3.07,4.46,2.73,2.6,5.67,5,8.64,7.38,1.21,1,2.24,2.43,4.57,1.85.47-1.63,1-3.2,1.36-4.77,1.2-5.17.29-10-1.17-14.38-1.81-5.42-3.81-10.91-8.05-15a23.08,23.08,0,0,1-2.9-3.27c-1.92-2.71-4.8-4.38-7.44-6.35a13.36,13.36,0,0,0-2.59-1.13Z" transform="translate(-311.5 -250.21)"/>
    <path class="cls-3" d="M440.57,269.83a12.74,12.74,0,0,1,2.54,1.07c2.64,1.94,5.52,3.65,7.46,6.34a22.46,22.46,0,0,0,2.9,3.26c4.24,4,6.25,9.53,8.07,14.94,1.47,4.39,2.37,9.21,1.19,14.38-.38,1.58-.89,3.14-1.36,4.77-2.31.57-3.34-.91-4.57-1.84a105.63,105.63,0,0,1-8.66-7.38c-1.29-1.22-2-3-3.07-4.45-3.17-4.41-4.63-9.62-5.51-15.12a51.08,51.08,0,0,1,.2-14.54A7.82,7.82,0,0,1,440.57,269.83Z" transform="translate(-311.5 -250.21)"/>
  </g>
  <g>
    <path class="cls-3" d="M402.31,294.94a4.36,4.36,0,0,0-.36,1.44A55.66,55.66,0,0,0,404.58,310c1.76,5,4,9.81,7.51,13.69a34.82,34.82,0,0,0,3.42,3.91c2.79,2.22,5.71,4.25,8.65,6.22,1.19.79,2.34,2.09,4.17,1.37.08-1.56.22-3.06.22-4.56a28.82,28.82,0,0,0-3.76-13.31c-2.56-4.91-5.29-9.87-9.61-13.31a24.71,24.71,0,0,1-3.05-2.83c-2.13-2.37-4.86-3.71-7.45-5.34a11.18,11.18,0,0,0-2.37-.85Z" transform="translate(-311.5 -250.21)"/>
    <path class="cls-3" d="M399.34,290.75a11.46,11.46,0,0,1,2.33.8c2.58,1.61,5.31,3,7.45,5.34a25.44,25.44,0,0,0,3.06,2.82c4.32,3.43,7.06,8.4,9.62,13.3a29,29,0,0,1,3.78,13.31c0,1.51-.14,3-.22,4.55-1.81.71-3-.59-4.17-1.36-3-2-5.87-4-8.66-6.21-1.31-1-2.25-2.63-3.42-3.91-3.5-3.87-5.73-8.61-7.53-13.68a55.49,55.49,0,0,1-2.64-13.57A6.58,6.58,0,0,1,399.34,290.75Z" transform="translate(-311.5 -250.21)"/>
  </g>
  <g>
    <path class="cls-3" d="M359.45,328.6a3.6,3.6,0,0,0-.07,1.39,45.23,45.23,0,0,0,5.4,11.64,34.48,34.48,0,0,0,10.44,10.49,32.36,32.36,0,0,0,4.29,2.68c3.3,1.3,6.7,2.39,10.1,3.43,1.38.4,2.81,1.29,4.55.17-.24-1.43-.4-2.83-.7-4.19-1-4.45-3.6-8-6.51-11.11-3.61-3.79-7.4-7.6-12.51-9.62a24.54,24.54,0,0,1-3.69-1.77c-2.66-1.62-5.72-2.13-8.7-2.95a12.5,12.5,0,0,0-2.6-.16Z" transform="translate(-311.5 -250.21)"/>
    <path class="cls-3" d="M355.57,325.56a12.72,12.72,0,0,1,2.55.13c3,.8,6,1.34,8.7,2.93a25.07,25.07,0,0,0,3.69,1.78c5.12,2,8.92,5.81,12.53,9.6,2.92,3.08,5.53,6.66,6.52,11.11.29,1.37.47,2.75.7,4.18-1.72,1.11-3.16.22-4.55-.17-3.42-1-6.8-2.09-10.1-3.42a30.57,30.57,0,0,1-4.29-2.67c-4.36-2.61-7.6-6.34-10.45-10.48a45.07,45.07,0,0,1-5.42-11.63A5.72,5.72,0,0,1,355.57,325.56Z" transform="translate(-311.5 -250.21)"/>
  </g>
  <g>
    <path class="cls-3" d="M323.67,388.19a4.78,4.78,0,0,0,.73,1.49,50.77,50.77,0,0,0,11.53,8.86c4.9,2.58,10,4.53,15.42,4.63,1.79,0,3.65.5,5.41.2,3.72-.64,7.42-1.56,11.08-2.53,1.48-.41,3.29-.35,4.22-2.57-1-1.35-2-2.7-3-3.94-3.44-4-7.84-6.19-12.24-7.64-5.43-1.77-11-3.45-16.8-2.46a23.52,23.52,0,0,1-4.35.37c-3.32-.07-6.38,1.24-9.54,2.18a12.46,12.46,0,0,0-2.44,1.41Z" transform="translate(-311.5 -250.21)"/>
    <path class="cls-3" d="M318.42,387.36a13.12,13.12,0,0,1,2.38-1.4c3.14-1,6.22-2.25,9.54-2.2a23.53,23.53,0,0,0,4.35-.38c5.77-1,11.38.68,16.81,2.44,4.39,1.44,8.8,3.6,12.24,7.63,1,1.25,2,2.59,3,3.94-.92,2.19-2.73,2.14-4.21,2.57a106.88,106.88,0,0,1-11.08,2.54c-1.76.3-3.6-.17-5.41-.19-5.43-.09-10.48-2-15.43-4.61a51.24,51.24,0,0,1-11.54-8.84A8,8,0,0,1,318.42,387.36Z" transform="translate(-311.5 -250.21)"/>
  </g>
  <path class="cls-3" d="M312.14,429.51c.39.6.59,1.13.95,1.37a51.42,51.42,0,0,0,12.74,7c5.23,1.81,10.57,3,15.95,2.24,1.77-.25,3.68-.06,5.37-.62,3.59-1.2,7.1-2.66,10.58-4.18,1.4-.63,3.19-.85,3.77-3.17-1.22-1.18-2.36-2.38-3.58-3.44-4-3.48-8.69-4.94-13.25-5.7-5.63-.94-11.42-1.74-17,.11a23.81,23.81,0,0,1-4.24,1c-3.29.43-6.12,2.19-9.1,3.61a12.69,12.69,0,0,0-2.21,1.75Z" transform="translate(-311.5 -250.21)"/>
  <path class="cls-3" d="M312.84,430.49a13.11,13.11,0,0,1,2.14-1.75c2.95-1.42,5.8-3.16,9.1-3.61a23.23,23.23,0,0,0,4.24-1c5.55-1.85,11.34-1,17-.13,4.56.76,9.24,2.22,13.25,5.68,1.22,1.09,2.36,2.26,3.58,3.44-.57,2.31-2.37,2.53-3.77,3.18a107.5,107.5,0,0,1-10.57,4.19c-1.69.56-3.58.38-5.37.63-5.38.73-10.67-.41-15.95-2.22a50.85,50.85,0,0,1-12.74-7A7.53,7.53,0,0,1,312.84,430.49Z" transform="translate(-311.5 -250.21)"/>
  <path class="cls-1" d="M592.68,330.54c.63,1.47,1.75,2.71.46,3.91a2.29,2.29,0,0,1-2.28.09c-.76-.73-1.63-2-1.48-2.86C589.67,330,591.33,330.69,592.68,330.54Z" transform="translate(-311.5 -250.21)"/>
  <path class="cls-1" d="M617.68,350.54c.63,1.47,1.75,2.71.46,3.91a2.29,2.29,0,0,1-2.28.09c-.76-.73-1.63-2-1.48-2.86C614.67,350,616.33,350.69,617.68,350.54Z" transform="translate(-311.5 -250.21)"/>
  <path class="cls-1" d="M650,400a29.1,29.1,0,0,1-2.2-2.24,2.29,2.29,0,0,1,0-2.88,1.48,1.48,0,0,1,.25-.25,1.74,1.74,0,0,1,2.7.24l0,0C652,396.5,651.9,397.69,650,400Z" transform="translate(-311.5 -250.21)"/>
  <path class="cls-1" d="M639.41,381.31a31,31,0,0,1-2.51-2.21,2,2,0,0,1,0-2.85,1.61,1.61,0,0,1,.28-.24,2.19,2.19,0,0,1,3.09.24l0,0C641.7,377.87,641.56,379.05,639.41,381.31Z" transform="translate(-311.5 -250.21)"/>
  <path class="cls-1" d="M632.41,373.31a31,31,0,0,1-2.51-2.21,2,2,0,0,1,0-2.85,1.61,1.61,0,0,1,.28-.24,2.19,2.19,0,0,1,3.09.24l0,0C634.7,369.87,634.56,371.05,632.41,373.31Z" transform="translate(-311.5 -250.21)"/>
  <path class="cls-1" d="M656.21,431.31a30.58,30.58,0,0,1-2.35-2.21,2.12,2.12,0,0,1,0-2.85,1.55,1.55,0,0,1,.27-.24,2,2,0,0,1,2.89.24l0,0C658.36,427.87,658.23,429.05,656.21,431.31Z" transform="translate(-311.5 -250.21)"/>
  <path class="cls-1" d="M427.28,503.57c-.35.26-.62.62-.89.61s-.6-.54-.54-.7a1.45,1.45,0,0,1,.79-.63C426.72,502.82,427,503.17,427.28,503.57Z" transform="translate(-311.5 -250.21)"/>
  <path class="cls-1" d="M427.28,503.57c-.35.26-.62.62-.89.61s-.6-.54-.54-.7a1.45,1.45,0,0,1,.79-.63C426.72,502.82,427,503.17,427.28,503.57Z" transform="translate(-311.5 -250.21)"/>
  <path class="cls-1" d="M427.28,503.57c-.35.26-.62.62-.89.61s-.6-.54-.54-.7a1.45,1.45,0,0,1,.79-.63C426.72,502.82,427,503.17,427.28,503.57Z" transform="translate(-311.5 -250.21)"/>
  <path class="cls-1" d="M427.28,503.57c-.35.26-.62.62-.89.61s-.6-.54-.54-.7a1.45,1.45,0,0,1,.79-.63C426.72,502.82,427,503.17,427.28,503.57Z" transform="translate(-311.5 -250.21)"/>
  <path class="cls-1" d="M427.28,503.57c-.35.26-.62.62-.89.61s-.6-.54-.54-.7a1.45,1.45,0,0,1,.79-.63C426.72,502.82,427,503.17,427.28,503.57Z" transform="translate(-311.5 -250.21)"/>
  <path class="cls-1" d="M427.28,503.57c-.35.26-.62.62-.89.61s-.6-.54-.54-.7a1.45,1.45,0,0,1,.79-.63C426.72,502.82,427,503.17,427.28,503.57Z" transform="translate(-311.5 -250.21)"/>
</svg>
