<svg id="Layer_1" data-name="Layer 1" xmlns="http://www.w3.org/2000/svg" viewBox="0 0 284.94 437.87">
  <defs>
    <style>
      .cls-1 {
        opacity: 0.8;
      }

      .cls-2 {
        fill: #e9e9e9;
      }

      .cls-3 {
        fill: #fff;
      }
    </style>
  </defs>
  <title>slash-medium</title>
  <g class="cls-1">
    <g>
      <path class="cls-2" d="M81.47,399.49c1.39-.75,2,1.21,3.18-.28a4,4,0,0,1,.85,4.5l-1.66.9C83.08,402.84,81,401.31,81.47,399.49Z" transform="translate(-81.4 -31)"/>
      <path class="cls-2" d="M129.62,455.54c.48-.45,1.36,0,1.93.25a1.36,1.36,0,0,1-1.14,1.18C129.56,456.86,129.62,456.09,129.62,455.54Z" transform="translate(-81.4 -31)"/>
      <path class="cls-2" d="M128.32,426.49c1.15-.6,1.55-1.75,2.84-2.43,3,.46,4.75,3.42,5.2,6.14.17.83-.74,1.5-1.49,1.53-2.54-.33-5-.3-6.43-2.71C126.26,427.77,130.66,427.11,128.32,426.49Z" transform="translate(-81.4 -31)"/>
      <path class="cls-2" d="M152.78,455.63l-1-.58c.47-.44,2.25.46,2.91-.26l-1.39-2c.66-.72,1.21.09,1.78.35.41-3.34,2.63-3.78,3.33-7.27l1.71,1.67c1.13-.59,1.26-2.11,2.33-2.49.95,2.79,3.33.09,5.29.72.7.73,2.6,2.12,3,3.75a10.23,10.23,0,0,1,4-1.7l-.53,1.18c1.07.72,2,.42,2.35-.48-.39,1.11,1.72,1.11,2.09,1.65,1.27-1.76.15-4.25,2.76-5.76,1.51-.59,3-.08,5,0-.46,1.85,1.67,3.84,1.28,4.95-2,.45-2.44,3.4-5.09,2.59a4.47,4.47,0,0,0,1.32,2.77c1.51-.05,1.1-2,2.6-2.06.26,2.58-.21,3.55-.43,6l1.36,0c-2.64,1.72-1.07,6.7-2.66,7.71-3.22,1.69-7.59,2.88-11.06,2.34-.41-2.51-3.7-1.14-4.91-1.77-.19-.82,1.22-1.57-.33-1.85-2.34.51.18,2.47-3.15,1.85-1.44-2.89-6.22-3.09-8.47-4.65-2.62-1.54,1.19-3.58-2.23-4.33-.38,1.67-.93-.24-1.83-.13C152,457,152.21,456.49,152.78,455.63Z" transform="translate(-81.4 -31)"/>
      <path class="cls-2" d="M165.63,418.22c.59-.85,1.65-.1,2.4-.11,2.06.24,1.24,2.46,1,3.5-1,.86-2.35.47-3.46-.06C163.77,420.61,165,419.06,165.63,418.22Z" transform="translate(-81.4 -31)"/>
      <path class="cls-2" d="M185.85,440.29c.67-.7,1.16-1.65,2.29-1.68,1.49.51,3,1,3.42,2.25-.26,1.57.28,2.92-1.83,3.45C187.46,444.91,184.75,442.31,185.85,440.29Z" transform="translate(-81.4 -31)"/>
      <path class="cls-2" d="M153.45,378.2c.92-2.81,3.17-1,5.29-.93.44,3.77,4-.29,4.53,3.06-.09.77-.24,1.75-1.42,2-2.55-2.58-4.55,3.31-6.89.45C153.46,381.85,153.66,379.74,153.45,378.2Z" transform="translate(-81.4 -31)"/>
      <path class="cls-2" d="M168.41,401.4a2.58,2.58,0,0,1,3.25,0c1,.75.43,2.14,0,2.91a2.28,2.28,0,0,1-3.19-.25C167.6,403.08,168.28,402.37,168.41,401.4Z" transform="translate(-81.4 -31)"/>
      <path class="cls-2" d="M178.44,412.56c.72-.36,1.08.19,1.83.18.92.82-.05,1.66-.21,2.28l-2,.09C177.55,414.09,178,413.53,178.44,412.56Z" transform="translate(-81.4 -31)"/>
      <path class="cls-2" d="M173.92,400a4.17,4.17,0,0,1,3,.53c0,1.25.63,2.77-1.21,3.12-1,.5-1.53-.33-2.7-.66A2.93,2.93,0,0,1,173.92,400Z" transform="translate(-81.4 -31)"/>
      <path class="cls-2" d="M183.8,411.19a3.12,3.12,0,0,0,1.32-2.61c1.63.46,3-1.12,4.23-1.34-.35,1.79,2.33,1.57,3.56,2.59a5.05,5.05,0,0,1-3.94,6.4c-1.84-1.08-5.72-.08-5-3C184.09,412.5,184.54,411.74,183.8,411.19Z" transform="translate(-81.4 -31)"/>
      <path class="cls-2" d="M202.06,433.67l2.2-3.21c2.67-.23,5.36,2.39,6.78,2.24.09,1.55-2.4,4,.34,5a4,4,0,0,1-2.7,4.36c-4.34,0-3.1-6.52-7.33-5.51C202.57,436.11,202.83,435.1,202.06,433.67Z" transform="translate(-81.4 -31)"/>
      <path class="cls-2" d="M178.1,397.93a8.14,8.14,0,0,1,3.2-1.19c.24,1,1.14,1.79,1.61,2.83-1.07.69-2.3,2-3.92,1.53A2.05,2.05,0,0,1,178.1,397.93Z" transform="translate(-81.4 -31)"/>
      <path class="cls-2" d="M182.57,390.73c2.37.49,1.11,2.36,1.85,3.8a2.8,2.8,0,0,1-1.91,1.45,3,3,0,0,1-2.64-1.79C179.86,392.4,182,392.26,182.57,390.73Z" transform="translate(-81.4 -31)"/>
      <path class="cls-2" d="M173.58,368.37c1-1.18,1.88,0,2.81.3a2,2,0,0,1-.73,2.5A1.75,1.75,0,0,1,173.58,368.37Z" transform="translate(-81.4 -31)"/>
      <path class="cls-2" d="M202.24,387.2c.78-.54,2.45.64,1.79,1.66l-2.22.32C201.89,388.43,201.46,387.74,202.24,387.2Z" transform="translate(-81.4 -31)"/>
      <path class="cls-2" d="M135.57,230.48c.06-.19.29-.1.51,0l-.49.34C135.36,230.72,135.65,230.62,135.57,230.48Z" transform="translate(-81.4 -31)"/>
      <path class="cls-2" d="M193.3,319.91c2.18-.06,6.24,2.26,6.2-.73-1.41-3.82,2.91-4.6,3.31-7.78a2,2,0,0,0,3.26-1,1.44,1.44,0,0,0-.35-1.61c1.21.19,4.35,2.22,6.65,1.44,2.16,1.91,4.89,4.82,6.42,5.58.89,0-.19-1,.94-.92-1.16,1.53-.43,4.4-.65,6.59l.91,0c.91,2.24-1,3.94-2.18,5.13-.42.87,1.09,1.28,1.19,1.76-.36.34-3.78-.85-4.2,1.27L216,331.7c-1.22-.53-1.38-2.4-3.08-1.85-.72.66-1.21,1.4-1.64,1.59-1.82-1.87-5.15.63-7-1.59.33-2.27-2.28-2-3.63-2.15l1.76-.76c-2.35-.58-3.1-2.21-4.22-3.85l1-.44C198.27,320.24,194.78,321.22,193.3,319.91Z" transform="translate(-81.4 -31)"/>
      <path class="cls-2" d="M196.5,322.6l.07.15-1.72-.14C195.13,322.13,196,322.66,196.5,322.6Z" transform="translate(-81.4 -31)"/>
      <path class="cls-2" d="M204.54,331.17c.22.08.66-.11.91.32C205,331.68,204.57,331.87,204.54,331.17Z" transform="translate(-81.4 -31)"/>
      <path class="cls-2" d="M240.15,426.69c1.46,1.07-.45,1.26-.84,1.79C238.77,427.68,238.94,426.54,240.15,426.69Z" transform="translate(-81.4 -31)"/>
      <path class="cls-2" d="M209.27,331.42l.29-.12-.19.62C209.14,331.84,209.2,331.63,209.27,331.42Z" transform="translate(-81.4 -31)"/>
      <path class="cls-2" d="M202.12,308.85c0,.35.85.88.1.85C201.69,309.39,202.05,309.06,202.12,308.85Z" transform="translate(-81.4 -31)"/>
      <path class="cls-2" d="M203.56,301.89c.15-.06.45-.19.53,0l-.52.39C203.34,302.16,203.5,302.1,203.56,301.89Z" transform="translate(-81.4 -31)"/>
      <path class="cls-2" d="M213,307.46l.3-.12-.27.82C212.9,307.87,212.82,307.73,213,307.46Z" transform="translate(-81.4 -31)"/>
      <path class="cls-2" d="M222.17,299.67c-1.77-1.56,1.65-2.59,1.08-4.63-.22.26,1.69,2.11,2.41.77.87-1.05-1.09-1.31.33-1.71-.57,1.28,1.2,2.84,2,3l.64-1.13c.14,2.57.76,5.64-1.83,6.86-2.22.9-2.36-1.32-4.52-1C223.93,301.23,221.21,300.24,222.17,299.67Z" transform="translate(-81.4 -31)"/>
      <path class="cls-2" d="M239.77,329.3c.34-.66,1.54-.46,1.8.3C241.49,331,239.62,330.93,239.77,329.3Z" transform="translate(-81.4 -31)"/>
      <path class="cls-2" d="M217.44,286.69c.36-.32.87-1.05,1.64-.31.4,1.07-.49,1.43-1.32,1.24A1.06,1.06,0,0,0,217.44,286.69Z" transform="translate(-81.4 -31)"/>
      <path class="cls-2" d="M252.06,271c-2-1.27-.32-4.81-3.33-6.52.57,1,2.68,1.15,2,2.16-.54-1.9,3.83-1.65,3.92-4.38a25.43,25.43,0,0,0,6.72,2,4.1,4.1,0,0,0,1.59,3.79l.51-.41c-.6,2.24-1.62,3.06.25,5.1l.53,0c-1.2.52-1-.46-2.35-.58.24.79-1.32,1.29-.4,2-1.85.63-4.12.52-5.42,2.14C257,273,250.11,273.44,252.06,271Z" transform="translate(-81.4 -31)"/>
      <path class="cls-2" d="M259.37,280c.54.31,1.08,1,.41,1.42a1.24,1.24,0,0,1-1.58-.57A1.45,1.45,0,0,1,259.37,280Z" transform="translate(-81.4 -31)"/>
      <polygon class="cls-2" points="173.03 230.31 172.66 230.64 172.34 230.08 173.03 230.31"/>
      <polygon class="cls-2" points="183.23 234.5 182.95 234.99 182.94 234.63 183.23 234.5"/>
      <path class="cls-2" d="M264.4,255.41c.7-.71,1.34,1,1.86.93C265.66,256.26,265.08,255.63,264.4,255.41Z" transform="translate(-81.4 -31)"/>
      <path class="cls-2" d="M270.44,260.56c-.34-.58-1.24-.51-1.91-.37,2-1.36-1-2.64-1.66-3.78,2.21-2,1.57-5.37,2.78-8.28-.33-.2-.53.09-.66.16,2.71.07,3.37-2.56,5.21-3.93-.12,1.95,1.78.34,2.5-.05-1-1.33-.31-3.24.06-4.2l.2,2.15c1.12.52,1.78,1.87,3.12,1.5a1.07,1.07,0,0,1,.72-1.35,1.59,1.59,0,0,1,0,1.3,2.72,2.72,0,0,0,3.47-1.38c.41,2.84,2.85,4.53,4.84,6.5l1.16-.67c-1.28.16-.66,2.14-1.22,2.86,2.71,1.57-1,5.1,1.05,7-2.86.79-2.5,3.12-4.09,5.09l.23.07c-2.83,3.57-7.61,1.83-10.86,3.77-.55-2.32-3.39-1.68-4-4.35l-2.27,0C269.13,261.56,271.2,262.21,270.44,260.56Z" transform="translate(-81.4 -31)"/>
      <path class="cls-2" d="M267.86,248.32l-.31-.78Z" transform="translate(-81.4 -31)"/>
      <path class="cls-2" d="M267.66,245.61l-.8-1.26Z" transform="translate(-81.4 -31)"/>
      <polygon class="cls-2" points="235.61 295.47 235.53 295.33 236.86 294.8 236.94 294.94 235.61 295.47"/>
      <path class="cls-2" d="M312,315.27c.38,0,.84.55.92,1C312.21,316.78,311.82,315.69,312,315.27Z" transform="translate(-81.4 -31)"/>
      <path class="cls-2" d="M270.82,235.32l-.2-.85Z" transform="translate(-81.4 -31)"/>
      <path class="cls-2" d="M277.39,235.73c.55.83-.87,1.88-.49,2.79C277.27,237.55,276.25,236.39,277.39,235.73Z" transform="translate(-81.4 -31)"/>
      <polygon class="cls-2" points="198.74 208.54 198.57 209.2 198.31 208.79 198.74 208.54"/>
      <path class="cls-2" d="M271.8,225.23c1.22-.53,1.14.47.77,1.06C272.09,226.19,271.2,225.78,271.8,225.23Z" transform="translate(-81.4 -31)"/>
      <polygon class="cls-2" points="196.16 200.38 196.12 201.76 195.97 201.27 196.16 200.38"/>
      <path class="cls-2" d="M303,229.25c.15-1.54,1.65-1.74,2.93-2,1.09.08,1.46,2.11,2.62,1.1-.31,1-.11,4.28-2.73,4.74C303.51,233.61,302.36,231.17,303,229.25Z" transform="translate(-81.4 -31)"/>
      <path class="cls-2" d="M299.62,218.68c-1.79.4-.26-2.06-2-1.06-1.24-2,.79-3.76-1.07-6.39,1.47.81,2.33-1.86,1-2.17,2.86-.39,4.14-1.73,6.8-1.59.94,1.2,1.3,3.87,3.5,2.89-.43,1.36-.65,3.84.91,4-1.87,2.23-2.75,3.65-5.27,5.38-1,.3-3.43-2.13-4.31.09C299.26,219.33,299.78,219.18,299.62,218.68Z" transform="translate(-81.4 -31)"/>
      <path class="cls-2" d="M352.53,291.87c1.33-.62,2-.59,3.61-1.43,1.71.62.49,2.46,2.2,3.1-1,2.73-1.33,4.23-3.91,4.71-1,0-1.46-1-2.22-1.37C350.68,295.3,352.66,293.46,352.53,291.87Z" transform="translate(-81.4 -31)"/>
      <polygon class="cls-2" points="216.86 174.67 217.12 175.52 216.59 174.86 216.86 174.67"/>
      <path class="cls-2" d="M340.88,250.82c.73-.52,1.35-.53,1.94-1,1.55.86,3,1.57,2.26,4.29-.65.68-.76,2.3-2.15,2.4-.8-.3-2.19-.2-2.48-1.08C340.33,253.81,339.73,252.06,340.88,250.82Z" transform="translate(-81.4 -31)"/>
      <path class="cls-2" d="M333,232.65c-1.29-1-.83-2.85-1.32-4.21,1.46-1.29,1.65-2.29,3.55-2.63,3.34-.77,1.14,3.92,3.1,5.3a16.8,16.8,0,0,1-5.61,1.76Z" transform="translate(-81.4 -31)"/>
      <path class="cls-2" d="M278.5,165.44a1.05,1.05,0,0,1,.6.15l-.74.39C278.26,165.64,278.38,165.55,278.5,165.44Z" transform="translate(-81.4 -31)"/>
      <path class="cls-2" d="M362.1,267.39c1-1.37,3-2.21,3.74-.48,1,1.08.22,2.53,0,3.8a2.75,2.75,0,0,1-4,.4C361.68,269.9,360.94,268.44,362.1,267.39Z" transform="translate(-81.4 -31)"/>
      <path class="cls-2" d="M303.9,177.57l1.13-.49Z" transform="translate(-81.4 -31)"/>
      <path class="cls-2" d="M316.24,185.94c.56.64,2.07,1.61,1.11,2.83-.63,1.36-2.08.15-2.94.19C315.15,188,314.53,186,316.24,185.94Z" transform="translate(-81.4 -31)"/>
      <path class="cls-2" d="M219,373.9c-.68-1.11-.84-2.27-2.33-3.19.73-.33,1.9.38,1.82-.64-.12-2.6,1.11-5.42-1.45-7.82.94.65,1.35,2.22,2.94,2.41a4.81,4.81,0,0,0,1.87-3.29c.09,1.36,1.64,0,2.11.14,2.27-1.7.89-5.49,2.52-7.07.1,1.7-1.73,4.44.23,5.86,2.36.56,3.54-1.71,4.94-2.13.23.07-.48.72-.6,1.12,1.9.41,3.84,2.72,5.44.82,3,2,4.86,7.69,6.57,11.65-1.1,2.38-2.88,4.54-4.18,6.87a4.9,4.9,0,0,0,1.17.7c-3.19.18-6.67,2.58-7.48,4.52-1.76.43-.28-1.63-2.21-1.48-1.32-.63-2.37.35-3.55.53a47.22,47.22,0,0,0-7.93-4.72C222.23,377.92,217.27,374.68,219,373.9Z" transform="translate(-81.4 -31)"/>
      <path class="cls-2" d="M282.82,151.61c.36.12.37-.09.49-.2L279.25,148l1,0c-.82-2.51-1.16-4.13-1.85-6.93,1.07-3.94,5.71-5.71,7.14-9.18,2.28-.75.25,1.09,1.35,2.07.72-.22,2.55.78,1.8-.75,1.1,1.2,2.43,1.32,3.54,2.31l.94-1.09c1,1.55.88,2.75,3.06,3.44.84-1-.49-1.77.7-2.65-1.43,2.64,1.41,5,.18,7.86l1.57-.3c-.38,1.43-2.81,2-1.62,3.85l.85-.1c-1.48,2.42-4,3.78-5.88,6C288.7,155,286,152.59,282.82,151.61Z" transform="translate(-81.4 -31)"/>
      <path class="cls-2" d="M326.91,193.91a1.56,1.56,0,0,1,1.51-.58,1.43,1.43,0,0,1,0,2.44C327.15,196.13,326.69,194.74,326.91,193.91Z" transform="translate(-81.4 -31)"/>
      <path class="cls-2" d="M321.83,187.28c.17-.59.61-.07.86,0a.69.69,0,0,1-.93,1C321.3,188,321.69,187.63,321.83,187.28Z" transform="translate(-81.4 -31)"/>
      <path class="cls-3" d="M307.23,160.42l-.46-.48Z" transform="translate(-81.4 -31)"/>
      <path class="cls-2" d="M305.58,155.7c1.21-.18,1.07,1.06.57,1.72A1.59,1.59,0,0,1,305.58,155.7Z" transform="translate(-81.4 -31)"/>
      <polygon class="cls-3" points="203.52 103.01 203.4 102.9 204.23 102.15 204.36 102.26 203.52 103.01"/>
      <polygon class="cls-2" points="219.28 113.77 217.09 115.06 218.43 113.86 219.28 113.77"/>
      <path class="cls-2" d="M283.53,129.58a.79.79,0,0,1,1.09.32C284.26,130.22,283.54,130,283.53,129.58Z" transform="translate(-81.4 -31)"/>
      <path class="cls-2" d="M288.13,129.79l.33-1.42Z" transform="translate(-81.4 -31)"/>
      <path class="cls-2" d="M293,130.44c1.09.32.22-.89.35-1.21,1.82,1.2-.83,1.86.28,3.51C293.11,132.08,292.37,131.21,293,130.44Z" transform="translate(-81.4 -31)"/>
      <path class="cls-2" d="M264.67,68.77c1.69-2.34-1-5.31.55-7.14.21.15.18.75.74.53-.87-3.22,4-1.48,3-4.68l.94,1.26c1.25-.21,1.33-1.06,1.71-1.87.15.41-.36,1,.09,1.44a7.69,7.69,0,0,1,4.73.56c-.19,0-.28.12-.45.3,1.66.87,2.38,1.23,3.16,3,.68,0,.91-.6,1-1-2.48,2.11,1.52,6.56-2.29,8.95,1.15,1.62-1.43,1.92-2.21,2.92-.86,1.26-1.92,1.26-3.39,1.12C269,73.14,266,71.7,264.67,68.77Z" transform="translate(-81.4 -31)"/>
      <path class="cls-2" d="M341.33,176.16c.54-.95,1.5-.65,2.2-.36.56,1.13-.34,1.94-1.22,2.25C341.47,177.88,341.44,176.77,341.33,176.16Z" transform="translate(-81.4 -31)"/>
      <path class="cls-2" d="M280.81,113.06l-.55-1.06Z" transform="translate(-81.4 -31)"/>
      <path class="cls-2" d="M322.49,149l.25-.22-.14.81C322.24,149.44,322.49,149.21,322.49,149Z" transform="translate(-81.4 -31)"/>
      <path class="cls-2" d="M324.11,146.1h.25l-.74.69C323.5,146.43,324,146.21,324.11,146.1Z" transform="translate(-81.4 -31)"/>
      <path class="cls-2" d="M329.28,147.7l.77-2.11c1.29,2,2,1.32,3.69,3-.86.81-.05,2.6-2,3.5a2.81,2.81,0,0,1-2.89-.77C328.76,150,326.88,147.19,329.28,147.7Z" transform="translate(-81.4 -31)"/>
      <polygon class="cls-2" points="180.53 27.41 180.87 27.8 180.55 27.58 180.53 27.41"/>
      <polygon class="cls-2" points="247.17 116.45 247.04 116.56 246.69 116.21 247.17 116.45"/>
      <polygon class="cls-2" points="104.12 6.67 104.72 7.4 104.16 6.87 104.12 6.67"/>
      <path class="cls-2" d="M334.79,150.86l.26-.7Z" transform="translate(-81.4 -31)"/>
      <path class="cls-2" d="M266.63,58.63l-.2-1.51Z" transform="translate(-81.4 -31)"/>
      <polygon class="cls-2" points="182.84 24.14 183.03 24.88 182.9 24.64 182.84 24.14"/>
      <path class="cls-2" d="M263.33,52.69c.15-.35.39,0,.6.11C263.65,52.91,263.48,53.1,263.33,52.69Z" transform="translate(-81.4 -31)"/>
      <path class="cls-2" d="M274.56,57.43c.7.18-.16.35-.32.54C274.11,57.73,274.49,57.69,274.56,57.43Z" transform="translate(-81.4 -31)"/>
      <path class="cls-2" d="M278.77,58.56c-.49.73.59,1.66,0,1.88C278.53,59.78,277.15,58.8,278.77,58.56Z" transform="translate(-81.4 -31)"/>
      <path class="cls-2" d="M268.87,53.31l.23-1.21Z" transform="translate(-81.4 -31)"/>
      <polygon class="cls-2" points="192.73 25.36 193.66 25.87 193.33 26.25 192.47 25.64 192.73 25.36"/>
      <path class="cls-2" d="M337.88,139.18c1.69-1,1.7,1.89.49,1.66A1.19,1.19,0,0,1,337.88,139.18Z" transform="translate(-81.4 -31)"/>
      <path class="cls-2" d="M335.93,136.35c1.21,0,.74,1.65-.23,1.42C335.57,137.18,335.33,136.71,335.93,136.35Z" transform="translate(-81.4 -31)"/>
      <path class="cls-2" d="M341.74,138.23c1.09.11.25.71,0,1.19C341.75,138.94,340.9,138.82,341.74,138.23Z" transform="translate(-81.4 -31)"/>
      <path class="cls-2" d="M354.56,139.88c.37,1.57,2.78,1.81,1.58,3.52A4.08,4.08,0,0,1,354.56,139.88Z" transform="translate(-81.4 -31)"/>
      <path class="cls-2" d="M356.86,140.72c-.36.12,1.09.37.24.73Z" transform="translate(-81.4 -31)"/>
      <polygon class="cls-2" points="274.49 108.27 274.74 109 274.5 108.51 274.49 108.27"/>
      <polygon class="cls-2" points="275.7 107.78 276.19 108.75 275.57 107.9 275.7 107.78"/>
      <path class="cls-2" d="M356.28,129.57c.72-.25,1.1.59.39.84C356.3,130.3,356.41,129.93,356.28,129.57Z" transform="translate(-81.4 -31)"/>
      <path class="cls-2" d="M279.52,32.14,281,31c1.79.63,1.27,3,.64,3.69C279.83,35.22,279.54,33.11,279.52,32.14Z" transform="translate(-81.4 -31)"/>
      <path class="cls-2" d="M319.62,53.44c.62,0,.46.73.41,1.3C319.28,55.6,317.94,53.62,319.62,53.44Z" transform="translate(-81.4 -31)"/>
      <polygon class="cls-2" points="224.77 6.85 224.21 8.02 224.16 6.82 224.77 6.85"/>
    </g>
  </g>
</svg>
