<svg id="Layer_1" data-name="Layer 1" xmlns="http://www.w3.org/2000/svg" viewBox="0 0 142 514.76">
  <defs>
    <style>
      .cls-1 {
        opacity: 0.85;
      }

      .cls-2, .cls-5 {
        fill: #f3f3f3;
      }

      .cls-3, .cls-4, .cls-6 {
        fill: #fff;
      }

      .cls-4, .cls-5 {
        opacity: 0.3;
      }

      .cls-6 {
        opacity: 0.4;
      }
    </style>
  </defs>
  <title>slash-nice</title>
  <g class="cls-1">
    <g>
      <path class="cls-2" d="M276.75,496.05c-4.86-.58-9.8.85-14.42-2.55-4.64-4.21-7.19-11-11.28-13.89-.49-1.11,3.91-.85,2.24-3.56-.91-1.25-3-1.1-2.15-3,.71.48,1.74-.09,2.36,0-.17-2.17,1.18-4.58-1-6.22,3.18.88,3.85-3.42,6.68-3.88.74-1.71-1.91-2.08-1.55-3.74,1.71-.26,4.05,4.33,5.44.52.13-1-.78-2.27-.22-3.15,1.61.14,1.6,3.92,3.41,1.84.75-.92-.54-3.7,1.21-3,2.48,3.59,5.5-3.07,9.43.08,1.18-.79,1.17-2.38,2.44-2.78,1.1,1.22.07,2.57-.26,3.61,3.42,1.84,7.67,2.34,10.83,2.42l-1.44,2.81c.86,1,1.91,2.86,3.37,3.22,1.66.32,1.64-2.84,3.44-2,1.56.74-3.38,2.93-1.63,4.44,1.82,1.68,1.46,4.9,4.43,5,.83,2.43-1.53,3.22-2.31,4.73.67,1.07,2.41,1,2.44,2.57-4,5-4.43,7.87-8.61,12.93C284.87,492.48,279.51,497.57,276.75,496.05Z" transform="translate(-166.56 3)"/>
      <path class="cls-2" d="M225.7,482.19c-2.47-2-1.56-5.37-.59-7.74,2.17.05,5.08-2.43,6.51.14a13.43,13.43,0,0,1,1.66,6.54C231.76,483.58,228.48,485.33,225.7,482.19Z" transform="translate(-166.56 3)"/>
      <path class="cls-3" d="M237.76,489.15l-.47-.32Z" transform="translate(-166.56 3)"/>
      <path class="cls-3" d="M262.14,511.74c0,.08,0-.14-.06-.21a1.74,1.74,0,0,0-.32-.55,1.68,1.68,0,0,1,.31.55c.05.05.07.29.07.21Z" transform="translate(-166.56 3)"/>
      <path class="cls-3" d="M262.14,511.74h0s0-.07,0-.1a2.05,2.05,0,0,0-.08-.2l0-.06,0,.11,0,0a1,1,0,0,1,0,.1s0,.07,0,.11Z" transform="translate(-166.56 3)"/>
      <path class="cls-3" d="M264.45,508.92c-.14.1-.27.23-.41.33a9.05,9.05,0,0,1,1.06-.76C264.9,508.62,264.66,508.76,264.45,508.92Z" transform="translate(-166.56 3)"/>
      <path class="cls-2" d="M241.32,431.59c-1.42,3.65-5.43-1.54-6.54,2.34-3.25-3.2-10.21-2-11.19-5.92.34-.18,1-.29.71-.78-.59-1.88-1.8-.51-3.11-1.09,1.08-1.9-.57-3.9-2.41-4,.54-.48,1.75-.27,1.69-1.05,0-2.65-3.62-1.56-4.05-3.35.84-.26,2.63.66,2.9-.83.72-2.91-4.83-2.85-3.66-5.54.5-1.14,1.84,1.17,3,.06,1.93-1.61.32-4-.37-5.76.73-1.3,1.56.56,2.13.73,1-2.27,2.53-5.55,1.23-8.25,1.15,0,3.08,2.57,4.21,1.35,2.19-1.65,0-3.7,1-6,1.24.87-.07,2.4,1.37,2.44.77,0-.47-1.38.51-1.14.48,1,.67,2.82,2,2.48,1.56-.5-.06-2.89,1.29-3.22a3.52,3.52,0,0,1,.46,3c2.68,2,3.46-1.18,3.87-2.17.9.53.46,3,2,2.22.81-.39-.35-1.92.62-2.2,1.47,1.23-1.29,6.39,2.55,4.62,0-.65.58-.75,1.22-.84-.42,2,0,4.34,2.07,5.34s1-3.43,2.78-1.85c-.4,1.5-2.12,2.95-1,4.89.83,1.31,3.24-1.55,2.58,1.05-2.59,2.64,4.17,1.22.61,4.12.4,1.13,1.47-.36,2,.75-.56.88-2.12,1.9-1.59,3s2.56-.65,2.37,1.22c-1.7,1.05-1.23,3.48-2.57,4.86-.81.92,1.5,1.35,1,2.08s-2.22.47-2.19,1.66c.19,1.29,2.35.56,1.88,1.82-2-1.15-2.55.66-3.74,1.11l.44,1.77c-1.72-.13-3.5-.51-4.64.59l.53,1.64C242.38,432.74,242.22,431.57,241.32,431.59Z" transform="translate(-166.56 3)"/>
      <path class="cls-2" d="M228.3,361.45c-1.44,2.72-2.34-2.83-3.69-.26-.36-2.73-4.5-3.84-5.09-5.35.46-.2,2-1.33.71-2.48s-3.18-2.06-2.51-3.6c1.66-.63,1.18-4.4.74-6.31a2,2,0,0,0,2.74-2.1,14.79,14.79,0,0,0-5.08-8.68c.42-.45,1.82,1.21,2.16-.15-3.82-2.12,2.28-3.62-1.36-6,.62.44,1.45,1.25,2.3,1,.4-1.63-.4-4,1.46-4.95l.58.32c1-.54.3-2.15.19-3.19,1.59.18.38,3.38,2.41,2.7,1.32-.44,2.29-2.41,1.66-3.52.57.85.43,1.93,1,2.77,1.24-.16,3-1.19,2.6-2.73.33.89-.49,3,1.25,3.25,1.05.13.34-1.89,1.34-2,.28.61-.64,1.67.4,2.31.44-.33,1.27-1.23,1.82-.51,1.89,2.11.53,6.9,3.53,6.49-.23,4.76-2.65,10.49-2.82,13.68,1.25.35.34-1.89,1.74-.91,0,1.31-.71,3.13.53,4l1.2-.95c-1.31,4.92,2.82,8.81-.95,13.15-1.19,2.15-3.54,3.14-5.34,4.85C230.61,360.86,229.24,363.3,228.3,361.45Z" transform="translate(-166.56 3)"/>
      <polygon class="cls-4" points="62.91 326.21 62.78 326.22 62.64 325.59 62.77 325.56 62.91 326.21"/>
      <path class="cls-2" d="M209.7,307c-1.78.1-4,.4-5.46-.86a30.2,30.2,0,0,1-6-12.82c.52.59,1.92.53,2-.14.09-2.52-1.43-5.37-1.28-7.65.79.7,1.81,2.43,2.83,1.76.91-.51-.61-2.17-1.06-3,1.42-.57,1.17,2.36,2.85,1.22,1-.78-.55-1.91-.15-3,.71.3.79,2.41,2.33,1.82,2.14-.81-.15-3,1.06-4,.78,1.22.1,2.76,1,3.84,1.95-2.23,5.42,3,6.31-.56-1.26,4.78,7.69,2.18,5.75,6.25l.92-1.7c.11,3.42,1.66,6.38-.43,9.81-1.18,4-4.47,6.65-7.26,9.13C211.9,306.47,211,307,209.7,307Z" transform="translate(-166.56 3)"/>
      <path class="cls-2" d="M214.66,268.22c-1.94-1.85-4.52-3.11-6.15-5.29-2.24-3.28-.19-3.93-2.52-7.59l1.07.78c.06-2.11,1.05-4.08.84-6.3.9,0,1.53-1.9,2.47-.43,2.54-.18.3-2.94,1.37-4,.81.83-.32,2.81,1.23,2.88s1.15-2.51,2.69-1.9c.78,1.22,1.87,1.6,2.51.34,2.91,1.63,3.07,6.6,6.63,5.78.06.91-2,1.56-.86,2.6a2.34,2.34,0,0,1,1-.25c1.53,1.79-2.54,4.39.84,5.16-1.1,2.1-2,5.51-3.5,6.48C219.46,267.23,217.5,268.27,214.66,268.22Z" transform="translate(-166.56 3)"/>
      <polygon class="cls-4" points="55.16 260.35 55.23 261.26 55.06 260.49 55.16 260.35"/>
      <path class="cls-2" d="M167.75,254.47c-.05.4.85-.25.92.68Z" transform="translate(-166.56 3)"/>
      <path class="cls-2" d="M166.81,252.46c.85-.24-.2.28-.2.28C166.46,252.63,166.66,252.35,166.81,252.46Z" transform="translate(-166.56 3)"/>
      <path class="cls-2" d="M217.47,232.86c-3-.17-4-4.92-5.72-6.55-4.12-4.27-2.17-9.89-4.91-14.59l3.09.7c.64-1.92,2.21-3.68.89-5.75.75.56,1.82,2,2.91,1.11.66-.6-.1-1.82.63-2.05.72.45.2,1.69,1.14,1.84,1.28,0,.38-1.87,1.49-2.14-.29,2.4,2.7,3.24,4.17,4.12,1-.76-.09-1.69.23-2.65,1.57.75.16,2.75,1.46,3.4,1,.52.56-1.65,1.57-1.11,1.68.72.17,4.05,2.25,3.55.61-.21,0-1.44.9-1.29-.17,1.07.52,2.57-.17,3.57.51.6,1.93,0,2.66-.17.24,1.15-1.65,2-1.48,3.45s2.51,1,1.35,2.85c-.37,1.88-2.68,4.39-.7,5.86-3,.48-2.49,3.44-3.51,4.75A12.85,12.85,0,0,1,217.47,232.86Z" transform="translate(-166.56 3)"/>
      <polygon class="cls-4" points="52.19 233.34 52.07 233.36 51.92 232.71 52.06 232.71 52.19 233.34"/>
      <polygon class="cls-4" points="57.94 216.38 58.52 216.7 58.02 216.76 57.94 216.38"/>
      <path class="cls-4" d="M223.67,213.08c.9,0,.15-1.19.55.2C224,213.44,224,213.17,223.67,213.08Z" transform="translate(-166.56 3)"/>
      <path class="cls-2" d="M268.18,371.21c-5.16-1.58-5.69-8.7-8.56-13l1.25.45c.64-1.43-.77-3.35-1.09-4.21l2.19.85c0-2.74,1.16-5.28-.45-8.09,2.19.16,1.22,4.56,3.52,2.91.81-.65-.76-2-.32-2.91.63-.06,1.5-.59,2.43.09a18.62,18.62,0,0,1,.72-2.28l.69,1.45c.67-1,.1-2.5.39-3.82.26.33.16,1.45.71,1.83l.79-1.05c-.14,2.37,1.37,4.25,2.77,6.15a2.06,2.06,0,0,0,1.25-2.28c.55,1.74-.42,3.41.48,5.05.41.7,1.13-.2,1.22-.64.31,3.19.82,6.59,1,9.82.4,3.44-1.23,6.41-3.16,8.64C272.68,371.48,269.85,371.39,268.18,371.21Z" transform="translate(-166.56 3)"/>
      <polygon class="cls-4" points="52.32 213.34 52.19 213.36 52.09 212.84 52.21 212.83 52.32 213.34"/>
      <polygon class="cls-4" points="102.17 372.54 102.04 372.57 101.81 371.96 101.92 371.92 102.17 372.54"/>
      <path class="cls-4" d="M265.37,366.43c0,1,.77-.09,1,.81C265.81,367.54,265.57,366.93,265.37,366.43Z" transform="translate(-166.56 3)"/>
      <polygon class="cls-4" points="98.99 367.87 99.11 368.52 98.19 367.85 98.99 367.87"/>
      <path class="cls-4" d="M264.15,365.71c-.86-.84.91-.42.65-.06C264.51,365.6,264.37,365.92,264.15,365.71Z" transform="translate(-166.56 3)"/>
      <path class="cls-4" d="M266.13,364.29l-.35.1c1.25-.53.27-1.32.9-2.47l1.1,2.13C267.59,364.25,266.2,363.44,266.13,364.29Z" transform="translate(-166.56 3)"/>
      <path class="cls-4" d="M273.69,361.44c.29.05.5.26.35.57Z" transform="translate(-166.56 3)"/>
      <path class="cls-4" d="M262.86,363.77c.07-1.53-.92-4.11-2-4.2,2.77-.43.29-3.37,2.21-5.33-.29.64.46.13.64.63.81-.66-.55-.38-.43-1.11l.51.26c.71-.9-1.1-2.14-.35-2.63,1.92.52.6,4.35,2.8,2.45-.46,1.92-2.78-.67-2.6,1.88,1.09.77,1-1.67,1.43-.43.38,1-1.58.06-1.39,1.24.77-.78,1.22,1.4,1.55.22l-.64-.64c2.05,1.17-.62,1.84,1.26,2.91,0-.28-.69-.75-.62-.22,1.19,1,.54.38.78,1.69-.05-.81-1.81.13-1.81-1.25-.1,1.13,1.47,2.44.25,3.09l-.76-.6c-.87,1.91,2.79,2,.49,3.3A1.11,1.11,0,0,0,262.86,363.77Z" transform="translate(-166.56 3)"/>
      <path class="cls-4" d="M275,360.24c-.14.32-.73.21-.32.91C274.79,360.83,274,359.84,275,360.24Z" transform="translate(-166.56 3)"/>
      <path class="cls-4" d="M268.11,362.17c.05-.56.09.24.22.21C268.13,362.57,268.14,362.3,268.11,362.17Z" transform="translate(-166.56 3)"/>
      <polygon class="cls-4" points="108.02 362.26 108.38 362.15 108.33 362.71 107.93 362 108.02 362.26"/>
      <path class="cls-4" d="M267.26,360c.45.13,0,.68-.27,1.05C266.66,360.83,267.1,360.28,267.26,360Z" transform="translate(-166.56 3)"/>
      <path class="cls-5" d="M263.41,362.08l-.16-.76Z" transform="translate(-166.56 3)"/>
      <polygon class="cls-5" points="97 363.4 98.05 364.04 97.06 363.92 97 363.4"/>
      <path class="cls-2" d="M219.15,199c-4.7-1.7-7.47-6.41-10.63-10.12,1-5.51,3.09-11.66,7-16,1-.36,1.39.51,1.69,1.41a6.34,6.34,0,0,0,3.73-5.14c-.57,3,1.84,4.13,2.83,6.52,1.88.45,1.22-1.58,2.25-2.21.41,1.4-1,2.86-.19,4.22.75-.07.4-1.22,1.21-1,1.54,2.72,2.16,3.83,1.46,6.79,1,.55,2.51-.26,2.89-.31-2,1.65-1.35,4.21-1.42,6.45l1.51-.17c-3.12,2.43-1.4,8.94-7,9.3C222,198,221.37,199.82,219.15,199Z" transform="translate(-166.56 3)"/>
      <polygon class="cls-5" points="96.5 363.82 96.21 364.46 95.89 364 96.5 363.82"/>
      <path class="cls-4" d="M274,356.57c-1.28-3.31-1.51-1.47-2.35-5,.71.46,1.45.66,1.36-.27l-1.39-.13.14-.32c-.25,1-1.52-.5-2,1l.33.17c-1.33,0-.14-1-.32-1.54l.18.5c.82-.66-.52-1.35.15-2.39-.93,0-2-.07-1.93.86,0-.8-.09-3,.58-2.64-.51,1.12.24.61,1.52,1.88.71-.22.29-1.32-.4-1.39,1.57.62,1.86,1.36,2.78,2.73l-.12,0c0,.8,1.29.57,1,0,0,.81-.41.68-.95.29,2.21,1.26,2.68,6.6,3.25,4.63.33,2.23-1.07,1-1.3,2.86C274,357.38,274.25,357,274,356.57Z" transform="translate(-166.56 3)"/>
      <path class="cls-4" d="M273.28,357.6c-.44,1,.31-.91.78.3C273.82,358,273.65,357.21,273.28,357.6Z" transform="translate(-166.56 3)"/>
      <path class="cls-4" d="M271.85,356c-.34.51-.34-.17-.36-.57.38.29.85,1.52,1.38,2.17C272,358,272.27,356.38,271.85,356Z" transform="translate(-166.56 3)"/>
      <path class="cls-5" d="M262.1,359.74c.22-.48.51.26.67.35C262.53,360.16,262.72,359.28,262.1,359.74Z" transform="translate(-166.56 3)"/>
      <polygon class="cls-5" points="96.76 362.1 96.59 362.69 96.43 361.93 96.76 362.1"/>
      <path class="cls-4" d="M272.3,355.42c-.08.16,1.19.33.54,1.08C272.53,356,272,355.94,272.3,355.42Z" transform="translate(-166.56 3)"/>
      <path class="cls-5" d="M273.28,355.54c.08-.84.62.22,1.14.2C273.84,356.32,273.76,355.4,273.28,355.54Z" transform="translate(-166.56 3)"/>
      <polygon class="cls-4" points="98.99 360.61 99.46 361.13 99.37 360.91 98.99 360.61"/>
      <polygon class="cls-5" points="107.92 356.13 108.4 356.67 108.16 356.74 107.92 356.13"/>
      <polygon class="cls-5" points="107.58 356.64 107.32 356.99 107.13 356.49 107.58 356.64"/>
      <path class="cls-4" d="M270.52,353.9l-1-.8,1.12.49C270.8,352.59,272,354.56,270.52,353.9Z" transform="translate(-166.56 3)"/>
      <path class="cls-4" d="M269.25,353.74c-.71-.47.5.26.69.75C269.81,354.13,269,354.38,269.25,353.74Z" transform="translate(-166.56 3)"/>
      <path class="cls-4" d="M265.88,355.72l0-.4Z" transform="translate(-166.56 3)"/>
      <path class="cls-5" d="M274,353.16l-.53-.68Z" transform="translate(-166.56 3)"/>
      <path class="cls-4" d="M271.45,353.21l.07-.84Z" transform="translate(-166.56 3)"/>
      <path class="cls-4" d="M267.94,352.76l-.09-.25,1,.66C268.51,353.55,268.39,352.9,267.94,352.76Z" transform="translate(-166.56 3)"/>
      <path class="cls-4" d="M270.33,352.05c-.21-.21-.07-.53.34-.51C270.41,351.89,271.16,352.48,270.33,352.05Z" transform="translate(-166.56 3)"/>
      <path class="cls-5" d="M271.44,350.08c.57.09-.1-.94-.22-1.59.86.83,0,1.65,1,2.17C272.25,350.1,271.77,350.25,271.44,350.08Z" transform="translate(-166.56 3)"/>
      <polygon class="cls-4" points="101.63 353.64 101.65 354.73 101.49 353.95 101.63 353.64"/>
      <polygon class="cls-5" points="103.89 352.27 104.35 353.09 103.61 352.9 103.89 352.27"/>
      <polygon class="cls-4" points="102.89 353.12 102.77 353.15 102.59 352.67 102.7 352.63 102.89 353.12"/>
      <polygon class="cls-4" points="101.23 352.93 101.22 353.62 101.09 353.25 101.23 352.93"/>
      <polygon class="cls-4" points="97.5 353.65 97.74 354.25 97.51 354.34 97.5 353.65"/>
      <path class="cls-4" d="M227.72,188.08c0,.13.76.57.18.9Z" transform="translate(-166.56 3)"/>
      <path class="cls-4" d="M266.52,349.08c.31-.23.62.22.72.47C267.07,349.46,266.62,349.33,266.52,349.08Z" transform="translate(-166.56 3)"/>
      <polygon class="cls-4" points="99.87 352.53 99.6 352.88 99.27 352.7 99.87 352.53"/>
      <path class="cls-4" d="M270.87,347.22l-.55-.37Z" transform="translate(-166.56 3)"/>
      <path class="cls-4" d="M269.32,346.32c.19-.19.22-.48.62-.46C269.7,345.93,269.89,347.12,269.32,346.32Z" transform="translate(-166.56 3)"/>
      <path class="cls-2" d="M240.48,163l-4.09-3.85c-1.86-2.78.08-4.37-2.19-7.18,2.06-.54.88-5.54.14-8.09.95.85,1.38,2.51,2.67,2.45a6.08,6.08,0,0,0,.68-5.34c1.4-.1-.09,2.46,1.68,2.27.66,0,1.61-.67,1.19-1.52,1.09-.29.76,1.84,2.05,1.37.8-.34.25-1.56.85-2.13.62.67-.61,2.07.81,2.38.59-1,.89-2.4,2.17-2.87-2.17,5.18,3.63,4.49,3.56,8.86.58,3.23-.13,6.13-.81,9.16-.53,2.32-2.67,3.69-2.89,5C244.14,164,242.71,163.33,240.48,163Z" transform="translate(-166.56 3)"/>
      <polygon class="cls-6" points="76.4 185.75 76.75 186.24 75.57 186.11 76.4 185.75"/>
      <path class="cls-6" d="M243.2,182.06c.78-.6-.44.32.21.38C243.23,182.2,242.88,182.36,243.2,182.06Z" transform="translate(-166.56 3)"/>
      <path class="cls-4" d="M246.11,160.66c.74-.19.61-.16.13.38Z" transform="translate(-166.56 3)"/>
      <polygon class="cls-6" points="72.95 184.55 72.7 185.23 72.75 184.83 72.95 184.55"/>
      <path class="cls-4" d="M226.56,182.83l-.37.7C226.38,183.25,226.16,182.75,226.56,182.83Z" transform="translate(-166.56 3)"/>
      <path class="cls-4" d="M246,159.48l.16-.72a2.2,2.2,0,0,1-.38,1.59l-.11-1Z" transform="translate(-166.56 3)"/>
      <path class="cls-6" d="M239.91,181c.21.36.69.17.38.6C240.14,181.49,239.84,181.26,239.91,181Z" transform="translate(-166.56 3)"/>
      <path class="cls-6" d="M238.91,181.76l-.33-.36Z" transform="translate(-166.56 3)"/>
      <path class="cls-6" d="M237.33,181.53c.92-.48-.25-1.28-.38-1.92,1.51.49.93.82.65,2Z" transform="translate(-166.56 3)"/>
      <path class="cls-4" d="M247,158.13c.22.62-.4.38-.42,1.06C246.28,158.44,246.07,158.22,247,158.13Z" transform="translate(-166.56 3)"/>
      <path class="cls-6" d="M238.46,179.45c.77,0,.8.82,1.28,1.29C239.46,180,238.31,180,238.46,179.45Z" transform="translate(-166.56 3)"/>
      <polygon class="cls-6" points="76.24 181.71 76.12 181.73 75.99 181.09 76.12 181.07 76.24 181.71"/>
      <polygon class="cls-6" points="69.91 181.49 69.75 182.03 69.48 181.92 69.91 181.49"/>
      <path class="cls-6" d="M238.83,177.44c.25-.68.55.2.83.31A.57.57,0,0,1,238.83,177.44Z" transform="translate(-166.56 3)"/>
      <path class="cls-6" d="M236.34,177.19c-.3-.22-.55.45-.77.61.47-.83,1.18-1.19-.51-1.92.43.88,1.38.51,1.53.62v-.65c-.09,1.46.66,1.38-.47,2.15C236.07,177.74,236.26,177.46,236.34,177.19Z" transform="translate(-166.56 3)"/>
      <path class="cls-6" d="M240.61,175.43c.4.73,1.68.07.76,1.22C241.17,176.27,241.16,175.61,240.61,175.43Z" transform="translate(-166.56 3)"/>
      <path class="cls-6" d="M238.23,176.33c.82-.36,0-1.31.54-1.76-.5.05-1.67.58-.83,1-.74-.57.51-1.36-.6-1.77.46,1,1.71.22,2,1-.31-.23-.5.05-.58.31.55.87,1.43.11,1.11,1.07l-.06-.26C239.15,176.49,239.23,176.88,238.23,176.33Z" transform="translate(-166.56 3)"/>
      <path class="cls-4" d="M248.14,152c1.73,1.18-1.06-.4-.14,1.12C248.07,152.54,247.66,152.11,248.14,152Z" transform="translate(-166.56 3)"/>
      <polygon class="cls-6" points="75.61 177.87 75.48 177.87 75.36 177.24 75.48 177.22 75.61 177.87"/>
      <path class="cls-4" d="M248.54,151.61c-.41-.44.37.3.65.37C248.75,152.22,248.74,151.82,248.54,151.61Z" transform="translate(-166.56 3)"/>
      <path class="cls-6" d="M235.12,174.83c.6-.19.24-.68-.24-.5.25-.68.7-.34,1-.11C235.36,174.15,235.51,174.93,235.12,174.83Z" transform="translate(-166.56 3)"/>
      <path class="cls-6" d="M242.51,173.38l-.65,0Z" transform="translate(-166.56 3)"/>
      <polygon class="cls-6" points="73.08 176.7 72.95 176.71 72.79 175.94 72.92 175.94 73.08 176.7"/>
      <path class="cls-4" d="M246.67,151.13l-.09-.64Z" transform="translate(-166.56 3)"/>
      <path class="cls-6" d="M236.69,172.44c.2.37,1.08.28.78.7Z" transform="translate(-166.56 3)"/>
      <path class="cls-4" d="M246.55,148.86c.62.66,1.43.73.59,1.75Z" transform="translate(-166.56 3)"/>
      <path class="cls-4" d="M248,150c.33.19.48-.53.53,0Z" transform="translate(-166.56 3)"/>
      <polygon class="cls-6" points="70.91 174.83 70.78 174.85 70.7 174.46 70.83 174.44 70.91 174.83"/>
      <path class="cls-4" d="M246.87,146.33c.32.19.72-.19,1,.16l-.53,1.9C246.45,147.8,248.25,146.93,246.87,146.33Z" transform="translate(-166.56 3)"/>
      <path class="cls-6" d="M237.46,170.52c.22-1.45-.83-1,.38-2C236.91,169,238.72,170.39,237.46,170.52Z" transform="translate(-166.56 3)"/>
      <path class="cls-4" d="M246,146.83l.24-.06.18,1.31C246,147.64,246.48,147.11,246,146.83Z" transform="translate(-166.56 3)"/>
      <path class="cls-6" d="M240.75,168.35l-.22-.51Z" transform="translate(-166.56 3)"/>
      <path class="cls-6" d="M236.25,168.3l.15-.55Z" transform="translate(-166.56 3)"/>
      <path class="cls-6" d="M240.89,167.14l0-.51Z" transform="translate(-166.56 3)"/>
      <polygon class="cls-6" points="73.25 168.57 73.19 169.49 73.03 168.72 73.25 168.57"/>
      <path class="cls-2" d="M224.84,141.43c-2.73-.66-2-2.76-4.24-4.36-1.9-4-.14-8.56-1.11-12.26.78.76,0,2,1.24,2.53,1.13-1-1-2.6.17-3.44.09.66.54,2,1.54,1.52,0-1.23-.64-3.11,0-4,.05.94-.42,2.29.6,3,1-.94,2.45-1.72,2.84-2.5.62,1.07-.54,2.32.88,3,1.33-.76-.88-2.64.7-3a49.8,49.8,0,0,0,2.51,7.11l1.2-.72c.69,4,1.7,8.14,0,11.71-.63,1.24-1.91,3.23-3.68,2.32C226.47,142,225.55,142.75,224.84,141.43Z" transform="translate(-166.56 3)"/>
      <polygon class="cls-6" points="64.31 154.06 64.55 154.69 64.4 154.57 64.31 154.06"/>
      <polygon class="cls-6" points="64.91 153.21 64.21 153.55 64.15 153.29 64.91 153.21"/>
      <path class="cls-2" d="M263.76,120.71c-.35.9.82,1.29,1.35,1.29l-1.78-.24Z" transform="translate(-166.56 3)"/>
      <path class="cls-2" d="M265.19,121.84c0-.29.31-.22.56-.28C265.47,121.49,265.48,121.9,265.19,121.84Z" transform="translate(-166.56 3)"/>
      <polygon class="cls-2" points="94.97 122.51 96.2 124.64 95.17 123.14 94.97 122.51"/>
      <polygon class="cls-6" points="64.11 151.72 63.99 152.38 63.54 152.04 64.11 151.72"/>
      <path class="cls-2" d="M266.3,120.47l0-.68Z" transform="translate(-166.56 3)"/>
      <polygon class="cls-2" points="94.88 119.16 94.76 121.91 94.68 119.35 94.88 119.16"/>
      <polygon class="cls-2" points="99.94 119.77 99.83 119.81 99.53 118.93 99.64 118.91 99.94 119.77"/>
      <polygon class="cls-6" points="62.24 148.65 62.11 148.66 62 148.01 62.12 148 62.24 148.65"/>
      <polygon class="cls-6" points="61.57 147.13 61.14 147.58 61.07 147.18 61.57 147.13"/>
      <polygon class="cls-2" points="99.23 117.66 99.11 117.69 99.03 117.43 99.14 117.4 99.23 117.66"/>
      <polygon class="cls-2" points="94.89 117.66 94.63 118.02 94.5 117.64 94.89 117.66"/>
      <polygon class="cls-2" points="96.9 115.81 96.46 116.45 96.54 115.89 96.9 115.81"/>
      <path class="cls-2" d="M232.73,113.81c-1.19-.8-3.49-1-4.92-2.16-3.16-4-1.59-6.67-2.79-10.73,2.38.48.92-1.6.83-2.65l1.58.83c1.66-1,1.23-3.85,1.82-4.82.25.75.14,2,1.27,2.27.68-.72-.13-2,0-3.13.54,1.63,2.49,2.77,3.78,1.9.32-.62-.22-1.42.39-1.58.81.88-.68,2.74.58,3,1.66.27-.22-2.25,1.16-2.46.34,1.81-.22,3.72,1,5.33.61-.16.64-.84,1.25-1,.27,4.82,1.6,10.32-2.52,13.67C235.11,113.48,233.84,112.85,232.73,113.81Z" transform="translate(-166.56 3)"/>
      <polygon class="cls-4" points="68.8 110.56 68.72 111.13 68.67 110.59 68.8 110.56"/>
      <path class="cls-4" d="M235.15,107.34l.12-.43Z" transform="translate(-166.56 3)"/>
      <path class="cls-4" d="M230.83,104.22c-.36.5,2.07.7.86,1.42Z" transform="translate(-166.56 3)"/>
      <polygon class="cls-4" points="68.32 103.21 68.73 103.65 68.24 103.77 68.32 103.21"/>
      <polygon class="cls-2" points="76.97 98.47 76.69 98.82 76.44 98.86 76.97 98.47"/>
      <polygon class="cls-2" points="76.83 95.66 77.16 97.89 77 96.15 76.83 95.66"/>
      <polygon class="cls-2" points="74.96 94.37 75.07 93.92 75.85 94.27 75.07 93.92 74.96 94.37"/>
      <path class="cls-2" d="M266.4,74c.57.54.56-.67,1.1.14C267.09,74.1,266.65,74.33,266.4,74Z" transform="translate(-166.56 3)"/>
      <path class="cls-2" d="M264.74,72.52c.17.5.41,1.24,1,1.37C264.82,74,265.15,73,264.74,72.52Z" transform="translate(-166.56 3)"/>
      <polygon class="cls-2" points="101.89 72.85 102.22 73.45 102.02 73.23 101.89 72.85"/>
      <path class="cls-2" d="M264.42,70.3l-.08-.65Z" transform="translate(-166.56 3)"/>
      <path class="cls-2" d="M268.29,69l-.29-.47Z" transform="translate(-166.56 3)"/>
      <polygon class="cls-4" points="75.25 78.16 75.13 78.18 75 77.81 75.12 77.78 75.25 78.16"/>
      <polygon class="cls-4" points="77.14 76.74 77.06 76.9 75.92 77.04 77.14 76.74"/>
      <polygon class="cls-2" points="98.62 70.41 98.1 71.63 98.18 70.65 98.62 70.41"/>
      <path class="cls-4" d="M243.66,72.81c.4-.37.56.12.68.5Z" transform="translate(-166.56 3)"/>
      <polygon class="cls-4" points="67.97 76.68 68.49 77.09 68.05 76.94 67.97 76.68"/>
      <polygon class="cls-4" points="76.29 74.11 76.17 74.14 76 73.63 76.12 73.61 76.29 74.11"/>
      <polygon class="cls-4" points="66.96 76.38 66.83 76.43 66.6 75.66 66.71 75.64 66.96 76.38"/>
      <path class="cls-4" d="M239.2,69.15c.29-1.16.53.41.69.52C239.45,69.91,239.57,69.47,239.2,69.15Z" transform="translate(-166.56 3)"/>
      <polygon class="cls-4" points="74.02 71.14 74.58 71.67 74.14 71.52 74.02 71.14"/>
      <polygon class="cls-4" points="71.31 70.46 70.63 71.97 70.79 70.85 71.31 70.46"/>
      <path class="cls-3" d="M241.15,49.31c0-.53-.25-1.57.32-1.83.93.46.09,1.46.65,2C242.21,50.14,241.15,49.72,241.15,49.31Z" transform="translate(-166.56 3)"/>
      <path class="cls-2" d="M227.33,49.79l-.28-.88c.24.77,1.5,1,1.34,2.12l-1.7-1.62Z" transform="translate(-166.56 3)"/>
      <path class="cls-2" d="M225.27,47.43c.88-.47.57,1,1.08,1.38C225.88,48.51,225.67,47.88,225.27,47.43Z" transform="translate(-166.56 3)"/>
      <path class="cls-4" d="M237.18,34.85c.29.07-.08.56-.16.72C236.81,35.34,237,35.16,237.18,34.85Z" transform="translate(-166.56 3)"/>
      <polygon class="cls-4" points="71.38 80.19 71.1 80.94 71.26 80.23 71.38 80.19"/>
      <polygon class="cls-4" points="70.18 80.09 70.25 80.33 69.84 80.3 70.18 80.09"/>
      <polygon class="cls-4" points="71.68 76.74 72.29 76.99 72.05 77.05 71.68 76.74"/>
      <path class="cls-4" d="M230,73.72c.28-.34.85.61.81.89C230.69,74.22,230.49,73.6,230,73.72Z" transform="translate(-166.56 3)"/>
      <polygon class="cls-4" points="62.15 76.36 62.11 77.05 61.91 76.41 62.15 76.36"/>
      <path class="cls-4" d="M230.53,71.7l.15.5c-1-1-.73-1-.2-1.86-.28,1.15.4,1.26.9,2.36C230.89,72.41,231.25,71.92,230.53,71.7Z" transform="translate(-166.56 3)"/>
      <path class="cls-4" d="M230.92,71.32v0Z" transform="translate(-166.56 3)"/>
      <path class="cls-2" d="M236.19,52.82a3.49,3.49,0,0,1,1.4-4.55c1.74-1.09,3.59-3.43,5.42-1-.52,2-1.2,4.76-3.06,5.89C239,53.77,237,54.79,236.19,52.82Z" transform="translate(-166.56 3)"/>
      <path class="cls-2" d="M286.21,14a3.52,3.52,0,0,1-.57-3c.39-1.86,3.85-1.29,3.6-2.91.61,1.79,1.69,4.72-.76,6.25A1.66,1.66,0,0,1,286.21,14Z" transform="translate(-166.56 3)"/>
      <path class="cls-2" d="M308.56,19.57l-.32-.17Z" transform="translate(-166.56 3)"/>
      <path class="cls-2" d="M292.06,13c.13,0,.16-.06.21-.12C292.16,12.9,292.31,13.14,292.06,13Z" transform="translate(-166.56 3)"/>
      <path class="cls-2" d="M292,12.34l0-.11Z" transform="translate(-166.56 3)"/>
      <path class="cls-4" d="M287.64,12.49c.08,0,0,.1-.05.06-.32-.23.38-.21.29-.31l0,.11c.06-.6.79.07.88-.43C288.28,12.52,288.59,12.49,287.64,12.49Z" transform="translate(-166.56 3)"/>
      <path class="cls-4" d="M289,12.06c.25,0,.25,0,.12.19A.31.31,0,0,1,289,12.06Z" transform="translate(-166.56 3)"/>
      <path class="cls-4" d="M286.42,12.05c.43-.22-.22-.69.19-1l.4.44c-.28.13-.27-.46-.56-.1.77.18.41.65.62.74C286.81,12.7,286.92,12,286.42,12.05Z" transform="translate(-166.56 3)"/>
      <polygon class="cls-4" points="122.14 14.6 122.17 14.71 121.98 14.74 122.14 14.6"/>
      <path class="cls-4" d="M288.28,11.5c-.11-.15-.25,0-.34-.07.09.1.41-.31.52,0C288.34,11.32,288.13,11.83,288.28,11.5Z" transform="translate(-166.56 3)"/>
      <path class="cls-4" d="M287.4,11.12c.13,0-.08.16-.13.23S287.29,11.19,287.4,11.12Z" transform="translate(-166.56 3)"/>
      <path class="cls-4" d="M288.5,11c-.15-.3.07,0,.14,0S288.54,10.93,288.5,11Z" transform="translate(-166.56 3)"/>
      <path class="cls-4" d="M289.06,10.77l.11-.27Z" transform="translate(-166.56 3)"/>
      <path class="cls-4" d="M288.34,10.48c.2-.18.09.09.13.2Z" transform="translate(-166.56 3)"/>
      <path class="cls-4" d="M287.91,10l0-.16Z" transform="translate(-166.56 3)"/>
      <path class="cls-2" d="M269.53,9.46c0-.23.08-.41-.19-.67,0,.75-.75.27-1.19.5A2.68,2.68,0,0,1,269,5.55c.26.55.41,1.33.68,1.81.48-.57.84-1.35,1.8-1.5a7.94,7.94,0,0,1,.77-2.19l.14-.26.07-.13,0-.06L247.63.67l-2-.24c-.63-.1-1.08-.15-1.6-.25A18.57,18.57,0,0,1,239.78-1,3.94,3.94,0,0,1,238.2-2l0-.05s0,0,0,.05v0h0L238-2.82h0v0c0-.21,0-.1-.09,0a1.4,1.4,0,0,1-.51.46c-.14.09-.12,0,.15,0a1.63,1.63,0,0,1,1,.11s.08.08.07.06l0-.06a1.09,1.09,0,0,1,0-.51.85.85,0,0,0,0,.39.4.4,0,0,0,0,.18.82.82,0,0,0-.25-.14,2,2,0,0,0-1,0,1.72,1.72,0,0,0,.44-.32c.24-.22.22-.46.22-.27V-3s0,0,0,0a.2.2,0,0,1,0,.08.5.5,0,0,1-.08.12,1.21,1.21,0,0,1-.19.2,1.1,1.1,0,0,0,.33-.44h0a.31.31,0,0,0,0,.1v0l.22.81h0v0l0-.05V-2h0L238-2.82h0c-.06-.15.05-.19-.14.1a1.53,1.53,0,0,1-.54.44,2,2,0,0,1,1,0,1.83,1.83,0,0,0-.77,0,.78.78,0,0,0-.21,0s-.07,0,0,0,.64-.45.65-.64,0,0,0,0v.09l0,0h0c-.19-.72.27,1,.22.81h0c0-.08,0-.11,0,0a3,3,0,0,0,1.05.8,12.87,12.87,0,0,0,2.89,1,40,40,0,0,0,5.16.85l32.1,3.29V4l0,.22,0,.44a6.46,6.46,0,0,1,0,.88A4.77,4.77,0,0,1,275,10.19c-.81.05-1.38-.79-2.15-1.26-.15.81-.62,1.84-1.61,1.92C270.51,10.89,269.84,10.12,269.53,9.46Z" transform="translate(-166.56 3)"/>
      <path class="cls-2" d="M248.33,36.29c-1.36-2.22-.85-4.94-.22-7.1.16,1.15-.31,2.37-.21,3.29l-.14,0c.07.64-.48,1.16.29,1.59-.09.09-.19,0-.28-.08a3.25,3.25,0,0,0,1.1,2.62c1.42.6,0-.8,1.07-.91l.46.63c-.05-.39.56-.73.16-1l.07,0c1-1.64,0-4.16-.69-6.11l-.12,0,0-.92c.73,2.79,2.77,6.55.18,8.62C249.55,37.28,248.74,37,248.33,36.29Z" transform="translate(-166.56 3)"/>
      <path class="cls-2" d="M248.81,36.19c-.18-.36,0-.08.15,0A.34.34,0,0,0,248.81,36.19Z" transform="translate(-166.56 3)"/>
      <path class="cls-2" d="M250.64,34.57l-.47-.22Z" transform="translate(-166.56 3)"/>
      <polygon class="cls-2" points="82.22 32.7 82.34 32.87 82.27 32.83 82.22 32.7"/>
      <polygon class="cls-2" points="82.59 32.43 82.73 32.66 82.55 32.69 82.59 32.43"/>
      <path class="cls-2" d="M248.62,29.4v0Z" transform="translate(-166.56 3)"/>
      <path class="cls-2" d="M308.21,17.17l-.44-.39Z" transform="translate(-166.56 3)"/>
      <path class="cls-2" d="M305.55,17.11l.29-.51Z" transform="translate(-166.56 3)"/>
      <path class="cls-2" d="M306.5,16l.43.3-.85.2C306.05,16.3,306.42,16.21,306.5,16Z" transform="translate(-166.56 3)"/>
    </g>
  </g>
</svg>
