<svg id="Layer_1" data-name="Layer 1" xmlns="http://www.w3.org/2000/svg" viewBox="0 0 427.88 387.47">
  <defs>
    <style>
      .cls-1 {
        fill: none;
      }

      .cls-2 {
        opacity: 0.8;
      }

      .cls-3 {
        fill: #f5f5f5;
      }

      .cls-4 {
        fill: #fff;
        opacity: 0.3;
      }
    </style>
  </defs>
  <title>slash-blob</title>
  <g>
    <rect class="cls-1" x="118.76" y="58.91" width="280.25" height="350.63" transform="translate(-97.63 351.23) rotate(-68.95)"/>
    <g class="cls-2">
      <g>
        <path class="cls-3" d="M335.26,113.47c-2.41,1.26-5.13,2.68-6.52,4.88,0,2.17,2.67,1.57,3.09,1.19,4.3,6.57,2.18,14.22,8.41,19.35a12,12,0,0,0-3.45,1.13c.79,5.77-1.79,11.06-2,16.46-5.65,1.92-2.78,7.94-7.34,10.56l-2.11-1.63c-2.67,2-4.13,5.79-6.09,8,2.38,4.46,1,8.84-.39,13.78a62.14,62.14,0,0,0-6,6.43,2.57,2.57,0,0,0-.18-3.08c-3.33-1.28-4.12,3.61-7.81,3.28-.81-3.59,2.87-8.18-2.61-10.29-1.7,3.72-.38,10.23-3.2,11.88a9.9,9.9,0,0,0,0-5.73c-5.26.16-4.45,7.3-5.92,11.11-2.12,4.1,1.56,10.17-3.33,12.93-3.07-14-5.63-28.67-4.32-43.46-.25-15.67,5.14-31.09,10.5-44.33,7.51-12.41,22.07-7.63,32.41-13.21C330.81,110.12,332.8,114.17,335.26,113.47Z" transform="translate(-44.94 -40.49)"/>
        <path class="cls-4" d="M305.07,129.45c-.7,1.1-1.91-.73-.68-1.08Z" transform="translate(-44.94 -40.49)"/>
        <path class="cls-4" d="M300.85,133.3c-2.69.6-1.41-2.73-1.51-3.87l.78,2.22,3.15-1.8C303.2,131.47,300.21,131.41,300.85,133.3Z" transform="translate(-44.94 -40.49)"/>
        <path class="cls-4" d="M303.54,132.69l-.8,0C303.07,132.51,303.34,131.79,303.54,132.69Z" transform="translate(-44.94 -40.49)"/>
        <path class="cls-4" d="M302,136.73l.86.61Z" transform="translate(-44.94 -40.49)"/>
        <path class="cls-4" d="M301.61,139.87c.38.42-.52.62-.94,1C301.09,140.49,300.89,139.59,301.61,139.87Z" transform="translate(-44.94 -40.49)"/>
        <path class="cls-4" d="M298.35,140.53a1,1,0,0,1-.4-1.8C298.56,139.25,298.71,139.58,298.35,140.53Z" transform="translate(-44.94 -40.49)"/>
        <polygon class="cls-4" points="248.7 98.78 248.78 97.16 249.25 97.34 248.7 98.78"/>
        <path class="cls-4" d="M298.93,152.5l-.69,1.1Z" transform="translate(-44.94 -40.49)"/>
        <path class="cls-4" d="M296.44,154c-1,1.81.16,1.71-2.24,3,2.61-.37-.05-4.12,2.42-3.45C296.53,153.76,296.68,154.09,296.44,154Z" transform="translate(-44.94 -40.49)"/>
        <polygon class="cls-4" points="253.95 116.37 254.41 115.18 254.28 116.23 253.95 116.37"/>
        <path class="cls-4" d="M296.88,155l1.15,1.26Z" transform="translate(-44.94 -40.49)"/>
        <path class="cls-4" d="M289.17,152.3l1.25,1Z" transform="translate(-44.94 -40.49)"/>
        <path class="cls-3" d="M446,236.13c-.41-1.79.5-4.17-.83-5C448.05,231.46,447.67,234.6,446,236.13Z" transform="translate(-44.94 -40.49)"/>
        <path class="cls-3" d="M443.24,236.17c1-.44,1.26-1.15,1.75.4-2.54.94-5-2.73-2.47-4.23C442.93,234.14,440.86,235.25,443.24,236.17Z" transform="translate(-44.94 -40.49)"/>
        <path class="cls-3" d="M353.22,208.09c-.25,9.19-7.36,12.74-10.33,21.16-3.38-1.85-3.25-6.44-8.14-3.68-1.56.5.4,1.8-.44,2.56-.7-2.45-4.27-.27-6.36-.53-.49,2-.45,4.74-1.72,5.9-2.7-.77-1.92-9.22-6.17-4.56l-.84,4.32c-3.63-1.94,2.69-7.71-1.88-10l-4.51,3.18c.16-1.85,4.16-4.41.92-5.93s-1.9,2.81-4.7,2.29c-1-3.92,7.08-8.48,1-10.53-2-1.06-2.3,4.58-3,.75,5.69-2.73.79-8.44,6.72-11.08,6.19-1.17,3.71-9,11.08-7.48,1.93-3.63,6.39-.28,8.75-.74,3.49,10.09,10.23.39,16.05,7.28C352.44,202.32,352.43,205.87,353.22,208.09Z" transform="translate(-44.94 -40.49)"/>
        <rect class="cls-4" x="323.98" y="201.98" width="1.79" height="0.5" transform="translate(-25.48 392.32) rotate(-68.95)"/>
        <path class="cls-4" d="M318,202.44c-.8,0,0-.56,0-.8C318.48,201.83,318.05,202.21,318,202.44Z" transform="translate(-44.94 -40.49)"/>
        <polygon class="cls-4" points="275.18 164.16 275.78 163.29 276.37 164.61 275.18 164.16"/>
        <path class="cls-4" d="M321.09,206.39c-.75.52-.8,0-1.1-.7C320.47,205.87,321,205.82,321.09,206.39Z" transform="translate(-44.94 -40.49)"/>
        <path class="cls-4" d="M317.82,209.23c-3,2.12-.79-2.23-3.32-3.47.68,1.08,2.42.11,2.31-1C316.68,205.78,316.81,208.29,317.82,209.23Z" transform="translate(-44.94 -40.49)"/>
        <path class="cls-4" d="M342.68,216.33c-.26-1.46-1.1-.7-1.81-1C342.27,214.54,342.75,214.72,342.68,216.33Z" transform="translate(-44.94 -40.49)"/>
        <path class="cls-4" d="M315.29,204.43c-.09.23-.28.71-.6.85C314.87,204.81,314.9,204,315.29,204.43Z" transform="translate(-44.94 -40.49)"/>
        <polygon class="cls-4" points="267.57 164.78 268.73 163.86 268.04 164.96 267.57 164.78"/>
        <path class="cls-4" d="M320.94,209.61c-.05-.57-1.95-1.31-.64-1.89C320.27,208.52,320.93,208.23,320.94,209.61Z" transform="translate(-44.94 -40.49)"/>
        <path class="cls-4" d="M340.5,216.31l.11,1.14Z" transform="translate(-44.94 -40.49)"/>
        <polygon class="cls-4" points="273.99 170.8 274.54 169.38 274.74 170.27 273.99 170.8"/>
        <path class="cls-4" d="M339.42,220.54c-.75-3-1.3,2-1.72-1.21C339.2,218.27,339.36,220,339.42,220.54Z" transform="translate(-44.94 -40.49)"/>
        <path class="cls-4" d="M315.71,211.14c.26,1.47.79,2.22,2.07,2.44-1.63-1.44-4.38-1.41-4.06-2.93C314.33,211.16,314.33,211.16,315.71,211.14Z" transform="translate(-44.94 -40.49)"/>
        <polygon class="cls-4" points="265.7 170.34 266.78 169.67 266.17 170.52 265.7 170.34"/>
        <rect class="cls-4" x="334.05" y="222.21" width="3.06" height="0.25" transform="translate(-37.38 415.2) rotate(-68.95)"/>
        <path class="cls-4" d="M316.22,217.62c-1.42-.55-.86-.6-2.1-1.63l.13,2.52-.15-.34-1,1.25c-.18-3.08,2-3.86,4.25-4.65C315.82,215.83,316.88,217.33,316.22,217.62Z" transform="translate(-44.94 -40.49)"/>
        <path class="cls-4" d="M319.35,218c-.57.05-.86-.61-1-.93-1.62-.08-.41,1.75-.64,1.66-2-.49.69-1.1-.22-2.27C318.11,217,320.38,216.77,319.35,218Z" transform="translate(-44.94 -40.49)"/>
        <path class="cls-4" d="M322.13,220.72c.07-1.62-2.23-.59-.78-2.22C321.6,220,323.13,220.28,322.13,220.72Z" transform="translate(-44.94 -40.49)"/>
        <path class="cls-4" d="M317.71,222.29c1.15-2.28-2.82-1.9.38-3.13C318.62,219.91,319.64,222.22,317.71,222.29Z" transform="translate(-44.94 -40.49)"/>
        <polygon class="cls-4" points="274.72 183.11 274.94 181.82 275.09 182.15 274.72 183.11"/>
        <rect class="cls-4" x="315.86" y="222.11" width="1.28" height="0.25" transform="translate(-49.51 397.33) rotate(-68.95)"/>
        <path class="cls-3" d="M428.26,267.29a5.11,5.11,0,0,1-3,3.5c.21-1.28,2.68-.61,1.81-2.59l-1,.45c-1.75-2.59,3-2.13-.25-3.65-1.57-.88-2.21.79-3.29,1.46-.65,1.67-.59,5.79,1.57,4.44l-2.59.37c-1.46-1.93.2-4.84,1.47-6C425.18,263.92,428.5,263.83,428.26,267.29Z" transform="translate(-44.94 -40.49)"/>
        <path class="cls-3" d="M290.19,229.19l-.78,2.71Z" transform="translate(-44.94 -40.49)"/>
        <path class="cls-3" d="M286.47,231l-.55,5Z" transform="translate(-44.94 -40.49)"/>
        <polygon class="cls-3" points="242.36 199.06 243.01 198.77 243.45 199.76 242.36 199.06"/>
        <path class="cls-3" d="M284.38,241.44c.53.75-.7,1.09-.88,1.57C283.68,242.53,283.9,241.26,284.38,241.44Z" transform="translate(-44.94 -40.49)"/>
        <path class="cls-3" d="M329,266.8c-.84,4.32.79,9.32-3.77,11.94-2.51,7.23-8.81,14.37-16,14.61-5.28,9.44,1.09,22-5.61,30.9-4.61-1.5-6.35,3-10.71,3-1,1.82-1.7,3.72-3.68,4.6-.93-2.55,5.4-6.94,1.3-9.07l-2.8,6.57c-.35-1.22,1.37-3.57,1.3-5.51-2.69-2.94-6.48.52-7.49,3.13-1.83-2.34,1.65-4.28,2.47-6.42-2.31-2.53-2.61,2.54-5.29,1,3.12,6.11,1.63,12.1-2.8,17.23-3.53,1.37-6.68,6.71-10.64,4.92-1.77-1.78-.22-5.82-3.72-5.26-4.19,1.67-6,3.45-7.85,7.64-2,1.68-2.76-1.34-3.53-2.18.07-1.61.18-4-1-5.29-.22,4.83-4.11,8.53-7.71,11.51-2.39-.92-3.86-5.58-3.57-8.47.77-2.71,2.34-5.39,5-6.56,2.82-1.65,4.1,2.13,6.1,2.62-1.49-4.67-2.64-9.48.56-14.26,2.24-3,4.44-5.13,8.44-6.32,4.16-.86,5.39,2.35,7.93,5,2.62-2.55,5.77-4.34,9.77-3.35l2.48,2.05c3.17-7.53,3.57-16.39,9.79-21.92,3.1-2.36,5.65-6.84,10.26-5.34,2.64-1.17,5.48,2.1,7.07,4.36,1.39-2.2,3.48-5.49,1.17-8-.66.29-.7,4.65-2.74,3.59-1.1-4.25-.88-9.08,1.3-12.62-2-1.3-2.73,1.41-4.55.44,4.27-6.82,1.67-17.12,10.48-20.83.71-3.28,5.64-3.3,7.71-4.41C324.12,256.73,328.27,261.6,329,266.8Z" transform="translate(-44.94 -40.49)"/>
        <rect class="cls-3" x="282.8" y="244.45" width="1.02" height="0.25" transform="translate(-91.64 380.67) rotate(-68.95)"/>
        <path class="cls-4" d="M317.15,259.24c-1.19-.46-.11-1.14.31-1.52C316.56,257.92,316.73,259.62,317.15,259.24Z" transform="translate(-44.94 -40.49)"/>
        <path class="cls-4" d="M315.59,259.73c-1.24-1-.79,1.34-1.29,2,1.07-.67,1.29,1.59,2.56.44-.93,1,0,1.37-1.91,2.82-.95-.37-3.5-3-5.07-.32,3.75-2.65,2.62-2.54,5.36-6.13Z" transform="translate(-44.94 -40.49)"/>
        <path class="cls-3" d="M285.79,247.72l-1.08.67Z" transform="translate(-44.94 -40.49)"/>
        <path class="cls-4" d="M325,264.44c-.64,1.66,1.61.07.49,1.55l-.65-1.88C324.74,264.35,326.12,264.33,325,264.44Z" transform="translate(-44.94 -40.49)"/>
        <path class="cls-4" d="M322.71,264.66l1.19.45Z" transform="translate(-44.94 -40.49)"/>
        <path class="cls-3" d="M315.15,262.3c-.8,0-.6.86-.93,1l0-1.37Z" transform="translate(-44.94 -40.49)"/>
        <path class="cls-4" d="M324.58,273.3l-2-3.24.48.18c.73-1.9-.87-2,.81-3.51C324.41,268.05,324.33,271.84,324.58,273.3Z" transform="translate(-44.94 -40.49)"/>
        <polygon class="cls-4" points="271.62 224.53 271.9 223.82 272.85 224.19 271.62 224.53"/>
        <path class="cls-4" d="M322,267.94c.35,1.22-1.19,3.09-2.65,3.34-1.68-.64-4.46-3.35-5.26.17l.64-1.67-.66.29c1.43-3-2.38-.91-3.28-.71,1.89-.64-.42-3.17,1.49-2.43l-.09.24c.27-.72,2.19,1.39,2.84-.28-2.46,4.25,1.88-.64,1.94,3.48.07-1.61,2.17,0,1.87-2,1.27.22,0,4.36,2.24,2-1.92-2.1,1.63-2.1-.2-4.44Z" transform="translate(-44.94 -40.49)"/>
        <path class="cls-4" d="M313.83,266.43c-1.41.83-1.53-1.68-1.91-2.1C312,265.46,314,265.39,313.83,266.43Z" transform="translate(-44.94 -40.49)"/>
        <path class="cls-4" d="M317.35,267.24c-.47-.19-.81,0-1.52-.31A3.08,3.08,0,0,1,317.35,267.24Z" transform="translate(-44.94 -40.49)"/>
        <path class="cls-4" d="M324.73,270.07l1,.94Z" transform="translate(-44.94 -40.49)"/>
        <path class="cls-4" d="M307.5,267.27l-.75.53.79-1.33C307.78,266.56,307.59,267,307.5,267.27Z" transform="translate(-44.94 -40.49)"/>
        <path class="cls-4" d="M310,268c-1.42-.55-1.45,1.63-2,.88C307.79,267.93,309.62,266.73,310,268Z" transform="translate(-44.94 -40.49)"/>
        <path class="cls-4" d="M322.89,274.84c1.3,1.59-1.2-1.84-2.27.21-.39-1.78,1.4-2.19,2.68-2Z" transform="translate(-44.94 -40.49)"/>
        <path class="cls-4" d="M319.52,274.36l-.8,0c.42-.38.94-1,1.42-.82C320,273.74,320,274.55,319.52,274.36Z" transform="translate(-44.94 -40.49)"/>
        <path class="cls-4" d="M316.14,272.51c-.51.62-.68,2.47-1.94,3.63,1.26-1.16-.75-3,.75-4.09l-.22,1.28Z" transform="translate(-44.94 -40.49)"/>
        <path class="cls-4" d="M311.4,272.05c-2,.31-.14,3.23-2.53,2.31-.88-2-3.48-1.61-3.31-3.46C308.54,274.5,307.84,268.5,311.4,272.05Z" transform="translate(-44.94 -40.49)"/>
        <path class="cls-3" d="M309.51,272.69c-1.09-.69-.58-1.32.46-1.19C309.55,271.88,310.08,272.64,309.51,272.69Z" transform="translate(-44.94 -40.49)"/>
        <polygon class="cls-4" points="271.24 234.77 272.4 233.85 271.8 234.71 271.24 234.77"/>
        <polygon class="cls-4" points="266.71 233.03 267.8 232.35 268.08 233.01 266.71 233.03"/>
        <polygon class="cls-4" points="274.11 237.24 274.62 236.62 274.67 237.18 274.11 237.24"/>
        <path class="cls-4" d="M316.22,278c-.86-.6.73-1.9,1-1.24Z" transform="translate(-44.94 -40.49)"/>
        <path class="cls-4" d="M322.07,280.53c-.8,0-1.57-.88-2.33-.35C320.54,278.85,321.43,278.65,322.07,280.53Z" transform="translate(-44.94 -40.49)"/>
        <path class="cls-4" d="M304.45,277.31c.1-.24.91-.21.85-.77-1.17.91.44,4.54-1.76,3.15.22-1.29,1.07-2.05.34-3.7Z" transform="translate(-44.94 -40.49)"/>
        <rect class="cls-4" x="308.53" y="278.4" width="1.02" height="0.25" transform="translate(-106.82 426.44) rotate(-68.95)"/>
        <path class="cls-3" d="M293.77,278.11l-.26,2.09a7.12,7.12,0,0,0-.53-4.31c-3.07.19-.33.15-2.49-2.05-3.77,1.29-3.5,4.12-4.74,6.65,2.7.77.2,4.45,3.13,3.94,1-1.25,3-2.13,3.79-3.46-1,1.81-2.8,3-4.87,4.13a6.65,6.65,0,0,1-1.7-6.93,5.64,5.64,0,0,1,5-4.38C292.82,274.19,293.84,276.5,293.77,278.11Z" transform="translate(-44.94 -40.49)"/>
        <path class="cls-4" d="M311.4,282.71c-.22,1.28-.15-.33-.3-.66A.55.55,0,0,1,311.4,282.71Z" transform="translate(-44.94 -40.49)"/>
        <path class="cls-4" d="M317.29,284.43l-.13,1Z" transform="translate(-44.94 -40.49)"/>
        <path class="cls-3" d="M396.12,329.51c4,4.55-.55,12.09-1.67,17.12-3.13,6.72-8.2,13.52-15.16,17.39-7.56,1.19-15,7.64-23.58,7.32-.87,3-3.46,3.32-3.75,6.21-2.28.22-3.37,3.08-5.21.73-2.69-6.5,6.84-6.39,5.81-12.25-.85-6.33-3.35-13.31-.53-18.5a23.21,23.21,0,0,0,8.82-5.9c1.28-4.7,3.67-9.52,3.71-13.88,2-5.23,9.13-3.86,12.41-6.7,3.82-.71,6.79,1.52,10.56.24C391,324.28,395.2,324.79,396.12,329.51Z" transform="translate(-44.94 -40.49)"/>
        <path class="cls-3" d="M139.78,233.07a11.94,11.94,0,0,1-6.2,6.9c-2-1.87-3.93-4-2.83-6.83,1.44-1.63,2.59-3.92,4.95-4.37A4.06,4.06,0,0,1,139.78,233.07Z" transform="translate(-44.94 -40.49)"/>
        <path class="cls-4" d="M134,230.3,132.81,232Z" transform="translate(-44.94 -40.49)"/>
        <path class="cls-4" d="M137.49,235.46l-.05-.56a11,11,0,0,1-3.85,2.89c-1.51-.31-.23-3.64-2.15-2.2-.5-1.55,2.86-2.44,4-3.93.73.28,1.4,1.36,2.06,1.06l.13-1C139.34,232.08,137.39,234.34,137.49,235.46Z" transform="translate(-44.94 -40.49)"/>
        <polygon class="cls-4" points="253.62 263.51 255.03 262.69 255.94 263.86 253.62 263.51"/>
        <path class="cls-4" d="M298.05,304.62l-1.31,2Z" transform="translate(-44.94 -40.49)"/>
        <path class="cls-4" d="M302,313.52c-.77-.84,0-1.37.73-1.9Z" transform="translate(-44.94 -40.49)"/>
        <path class="cls-4" d="M292.06,310.24c-.06-.57-2.12.55-1.57-.88Z" transform="translate(-44.94 -40.49)"/>
        <path class="cls-4" d="M298.83,313.94a.67.67,0,0,0,1.1.7c-.82,2.14-2.67-1.58-3.11,1,1.35-1.39,2.72,2.14,2.16,2.2-1.76-.4-4.63-2.88-4.45.2-.18.47,2-3-.6-2.69l-.28.71c-.22-2.26.93-1,2.79-.84l-.77-.84C297,313.77,297.61,314.29,298.83,313.94Z" transform="translate(-44.94 -40.49)"/>
        <path class="cls-4" d="M292.3,313.88c-.86-.6.55-1.42,1.21-1.71Z" transform="translate(-44.94 -40.49)"/>
        <path class="cls-4" d="M290.26,314.19a1.34,1.34,0,0,1-2-.49C288.84,313.65,290.57,312.68,290.26,314.19Z" transform="translate(-44.94 -40.49)"/>
        <polygon class="cls-4" points="242.45 274.79 242.4 274.22 243.49 274.91 242.45 274.79"/>
        <polygon class="cls-4" points="250.65 279.04 251.73 278.36 251.51 279.64 250.65 279.04"/>
        <path class="cls-4" d="M290.74,317.93c-.18.48-.66.29-1.08.67l1.93-1.44C291.55,318,291.42,319,290.74,317.93Z" transform="translate(-44.94 -40.49)"/>
        <rect class="cls-4" x="298.5" y="320.31" width="1.02" height="0.51" transform="translate(-152.49 444.03) rotate(-68.95)"/>
        <path class="cls-4" d="M292.79,319l1.1.7Z" transform="translate(-44.94 -40.49)"/>
        <path class="cls-4" d="M287.19,317.93l0,.81Z" transform="translate(-44.94 -40.49)"/>
        <path class="cls-4" d="M288.6,320.66l-.13,1c-1.05-.13-.88-2-2.1-1.63C288,318,287.28,321.24,288.6,320.66Z" transform="translate(-44.94 -40.49)"/>
        <path class="cls-4" d="M291.69,321.85l.35,1.22Z" transform="translate(-44.94 -40.49)"/>
        <polygon class="cls-4" points="224.34 287.76 225.57 287.42 225.05 288.04 224.34 287.76"/>
        <rect class="cls-4" x="254.6" y="324.5" width="1.28" height="0.25" transform="translate(-184.33 405.77) rotate(-68.95)"/>
        <polygon class="cls-4" points="213.28 289.52 213.59 288 213.94 289.23 213.28 289.52"/>
        <path class="cls-3" d="M220.4,316.82c4.82,5.95,3.37,14.69.33,21.16a61.09,61.09,0,0,1-12.6,10.73c-3.54,1.37-5.65-1.63-8.91-1-1.22-1.83-.17-5.25-2.94-6.59.24-7-2.24-16.17,4.55-21.75C204.47,312.06,214.32,312,220.4,316.82Z" transform="translate(-44.94 -40.49)"/>
        <path class="cls-3" d="M72,286.48c-1.15,5.84-2.67,12.64-7.44,16.54-3.38,3.07-8.77,2.91-12.92,1.59.66-3.85-3.87-7-3.45-10.9.13-4.59,3.35-8,6.33-11.49,4.85-2,11.61-6.74,16.28-1.12Z" transform="translate(-44.94 -40.49)"/>
        <polygon class="cls-4" points="160.26 301.63 160.39 300.59 160.63 300.68 160.26 301.63"/>
        <path class="cls-4" d="M60.63,289c-1,.44-2.65-.2-2.16,1.36C58.25,288,58.82,288,60.63,289Z" transform="translate(-44.94 -40.49)"/>
        <path class="cls-4" d="M58.14,294l.59,1.32Z" transform="translate(-44.94 -40.49)"/>
      </g>
    </g>
  </g>
</svg>
