<svg id="Layer_1" data-name="Layer 1" xmlns="http://www.w3.org/2000/svg" viewBox="0 0 328.73 332.51">
  <defs>
    <style>
      .cls-1 {
        fill: none;
      }

      .cls-2 {
        opacity: 0.8;
      }

      .cls-3 {
        fill: #fff5ec;
      }

      .cls-4 {
        fill: #fff;
        opacity: 0.2;
      }
    </style>
  </defs>
  <title>splash-small</title>
  <g>
    <rect class="cls-1" x="82.69" y="148.8" width="274.6" height="193.23" transform="translate(-165.13 159.1) rotate(-46.88)"/>
    <g class="cls-2">
      <g>
        <path class="cls-3" d="M172.83,182l.47.44c-1.41-.73-1.5,1.29-2,.84C171.45,182.53,171.89,181.74,172.83,182Z" transform="translate(-55.62 -79.16)"/>
        <g>
          <path class="cls-3" d="M82.15,255.76l1.28,1.2c-.55,2.19-2.91,1.18-4,1.37-.8-.75-2.65-.37-1.93-2.11C78.69,254.32,80.56,254.88,82.15,255.76Z" transform="translate(-55.62 -79.16)"/>
          <path class="cls-3" d="M117.51,250.41c.37-3,4.26,2.19,5-2.49-.19-1.08-2.66-.69-1.94-2.42,5.7-6.09,6.59-16.67,7.71-25.24.68,1.84,3.95,2.2,4,4.68.44,4-4.15,10.53,2.4,11.56,5.67,2.6,9.89,8.36,11.8,14.35,8.64,3.29,10.87-9,19.8-6.39a5.66,5.66,0,0,1,.34,5.42c-2,4.72-8.21,5.23-9.12,10.38,1.89,1.19,4.4,1.72,5.4,3.86,1.76,6.46,5.08,13.18,6,18.58-2.93.56-5.95-1.67-8.39-.35,1,2.15-2.35,4.12.5,5.88-.39,2.34-3.34,2.28-5.2,2.35-.83,3.13,8.91,6.84,3.21,7.8-1.17,2.22-2.84-1.45-3.79-1.73a5.29,5.29,0,0,0,.25-2.18c-6.89-1.64-12.16-6.28-18.89-8.07-3.89,4.47-.88,10.89-3.34,16.4-1.28-1.2-.14-4.34-1.14-6.17l-3.83-3.29c-5,3.74-8.27-1.43-12.73-.2.43-1.1,2.25-2.4,2.51-4,3-2.89-2.78-4.1-1.16-7.1-1.93-1.8-5.3-.44-7.79-1-1.64,2.39-4.59,2-5.75,4.54-2.28,1.47-1.33-2.44-2.74-2.86,4.4-3.09,10.55-4.85,13.34-9.75-2.87-2.08,2.87-2.42-.29-4.18l-3-.06a1.68,1.68,0,0,0,.07-2.64,26,26,0,0,0-6.07-.26c.6-.95,2.26-2.1,1.74-3.78l-3.47-1.75a11.53,11.53,0,0,0,9.68-3c-.21-1.7-3-1.3-2.86-2.08.78.13,2.66.69,3.41-.11-1.52-3.83-5.25-8.52-9-9.63,1.26.58.43-1.1.88-1.59C109.29,246,113.27,249.15,117.51,250.41Z" transform="translate(-55.62 -79.16)"/>
          <path class="cls-3" d="M193,173.29c5.54-1.42,8.29,2.05,11.84,6-.37,3,1,6.64-.33,9-3.91-1-4.45,6.35-7.84,2.27-1.58,3.62-4.67-.47-6.72-1.49-2.23-1.79-2.64-4.88-2.72-7.36.56-1.57,1.76-2.85,1.23-4.85C190,175.87,193.58,176.22,193,173.29Z" transform="translate(-55.62 -79.16)"/>
          <path class="cls-4" d="M192.41,178.43c-.09,1.71-1.36.82-2,.22C191.29,177.38,191.7,180.16,192.41,178.43Z" transform="translate(-55.62 -79.16)"/>
          <path class="cls-4" d="M192.49,180.6c-1.94,2.39,1.48,2.59,2.33,4.89-.52-1.69-.2-1.39,1-2.36.83,1.68-1.32,2.37,1,2.76-.16-.15,2-1.46.38-2.65,2.79-.1.78,4.94,2.33,4.88-1.13-1.36-2.21-1.16-3.63-1.89-1.09-.12-1,1.43-1.8,1.92.1-1.71-.69-2.15-2.72-2.55.32.3,1.25.27,1.39-.2-.46.17-1-.59-1.27-.89.14-.47.32.3.77.13.7-2.66-1.74-1.34-2.84-1.46.31-.32,1.87-.06,2.13-1.62.41-1.41-1.11-.74-1.45-1.35Z" transform="translate(-55.62 -79.16)"/>
          <path class="cls-4" d="M193.87,180.09c-.48-.45-.19-1.08-.67-1.22,1.76,1.34,1.79-2.23,2.5.23-.38-1.85,2.24-2.4,1.58-3.62l1.75,1.34c-.29.32-.45.17-.93,0-.11,1.4,2.52,1.15,2.64.07l-.06,2.94c.18.46.11-1.71-1-.9-.68,2.66,2.37,1,3.15,1.46-1.34,1.75-2.34,4.11-.12,5.58-1.75-1.34-2.07-1.64-4-3.12-.22-2,2.35,1,1.82-1.3l-1.11-.43c.32,0,.48.14.63,0-1.41-.42-1.63-2.12-3.31-1.29.52,1.69-.41,1.41-.67,3,2.41-2.25-2-3.35-3.83-3C193.23,179.49,192.82,181.21,193.87,180.09Z" transform="translate(-55.62 -79.16)"/>
          <path class="cls-3" d="M196.71,177.05l.19,1.08Z" transform="translate(-55.62 -79.16)"/>
          <polygon class="cls-3" points="139.54 107.25 137.65 106.39 138.1 105.9 139.54 107.25"/>
          <path class="cls-3" d="M98.54,287l2,.4Z" transform="translate(-55.62 -79.16)"/>
          <path class="cls-4" d="M196.13,187.62c-.21,3.11.24-2.18,1.89.87-1.86.06-1.16,2.52-2.79.09Z" transform="translate(-55.62 -79.16)"/>
          <path class="cls-3" d="M109.29,288.39c1.57.57.28,3.86-1.16,2.51C107.17,290,107.56,287.67,109.29,288.39Z" transform="translate(-55.62 -79.16)"/>
          <path class="cls-3" d="M255.73,136.16c2.48-.08,5.15-3.89,7.21-2.57-.42,1.42.54,2.32,1.94,2.43,1.38-.52,1.63-2.38,3.34-2.29,2.8,5,4.57,2.18,8.58,5.93,2.16-.39,2.68-3.19,3.55-5.08,1.11.73-.58,1.26-.39,2,4.37-3.71,5.73-9.65,9.77-14-.42,1.1,1.78,2,1.93,1.8l-5.41,10.26c4.81,9.31,12.71,13.7,22.45,17.42,2.68,1.31,4.67-4.34,6-.35-1.52,5.47-10.1,4.05-10.56,9.34,1.75,5.84,2,13,2.61,17.76-1.12,3.76-6.12-2.13-6.1,3.3.8.75,2.21,1.18,2.41,2.56-1.83,1-4.73-2.32-6.18.83-.09,1.7,2.86,2.08,1.07,4-2.14,1-2.75-3.16-5.16-1.22-4.94.78.29,4.18-1.82,6.11-1.4-.11-2.69-1.62-3.35-2.84-1.7.22-5.11.32-7.08,1.79a7.52,7.52,0,0,1,.61,4.48c-2.53-1.47-4.36-5.29-8-6-3.24.26.44,3.71-2.82,3.67-1-1.53-.3-4.5-2.21-5.68l-4.45,1.24c-6.88-6.14-8.86-14.61-16.64-19.78-.33-5.42-3-10.3-5.45-14.72,2.15-.69,4-1.06,4.7-3.41-.51-1.38-.87-2.92-1.38-4.3.73-1.11,2.3-.54,2.73-2l-1.05-3.38c2.31-.86,5-.79,6.28-2.85,1.65-1.45-.11-3.1-.47-4.64C253.53,135.3,254.8,135.88,255.73,136.16Z" transform="translate(-55.62 -79.16)"/>
          <path class="cls-3" d="M97.74,314.83a3.19,3.19,0,0,1-1.61,2.7C95.16,316.63,96.35,314.72,97.74,314.83Z" transform="translate(-55.62 -79.16)"/>
          <path class="cls-3" d="M240,189.59c.85-2.51,3.26,0,4.29-1.69,2.87,2.39,6.48-1.15,8.63,3,4.43,2.33-.73,5.92,3.39,8.57-2.68,3.5-2.91,10.49-10,10.73-3.51,1.82-4.34-4.36-7.15-.39,0-1.24.05-2.95-1.23-4.15-.8-.75-2.79.1-3.14-1.14.24-2.17,1.39-5-1.43-5.84,2.3-.86,1.92-3,.93-4.84C238.75,195.37,235.41,188.34,240,189.59Z" transform="translate(-55.62 -79.16)"/>
          <rect class="cls-4" x="238.49" y="195.14" width="0.22" height="1.1" transform="translate(-122.95 156.95) rotate(-46.88)"/>
          <path class="cls-4" d="M238.53,198.18c3,.36-.74,1.1,1.17,2.59-1.48-2.59-.27,1.25-2.31.54-.37-1.84,1.23-.34,1.65-1.76l-1.77-2,1.41.42Z" transform="translate(-55.62 -79.16)"/>
          <polygon class="cls-4" points="187.13 115.16 186.05 115.35 186.5 114.87 187.13 115.16"/>
          <path class="cls-4" d="M247.2,192.77c.49.76,0,.62-.75.8Z" transform="translate(-55.62 -79.16)"/>
          <polygon class="cls-4" points="184.15 123.79 184.88 122.37 184.77 123.77 184.15 123.79"/>
          <polygon class="cls-4" points="187.57 123.98 186.01 123.72 187.25 123.68 187.57 123.98"/>
          <path class="cls-4" d="M243.23,204.38l1.09.12Z" transform="translate(-55.62 -79.16)"/>
          <path class="cls-4" d="M246.69,201l.2,1.39Z" transform="translate(-55.62 -79.16)"/>
          <path class="cls-4" d="M247.68,202.84l1.25.27Z" transform="translate(-55.62 -79.16)"/>
          <path class="cls-3" d="M253.11,264.11c-.42,1.41-.19,3.73-2.22,3.33a2.25,2.25,0,0,1-1.35-3.37C250.59,263,252.6,262.73,253.11,264.11Z" transform="translate(-55.62 -79.16)"/>
          <path class="cls-3" d="M262.9,269.37c4.94,4,10.47-2.52,16.42-.85,2.67,1-.5,3.74,1.73,5.22.9-1,2.28-1.47,2.86-2.42.36,1.23-1.58,3.62.78,4.63,2.05,1,5,.76,7.16.7,3.08,4.08-4.37,13.64,5.06,12.55-1.52,1-4,.14-4.74,1.87-.07,2.64,7.24,3.17,3.31,6.4-.93,0-2,.23-1.66,1.45-.06,3,4.72,2,4.19,4.52-3.71.43-6.4,3.62-10.19,1.89-2.61.86-1.4,4.39-2.29,5.66-2.54,3-5.65-2-8.68.28-.06,3-1.34,6.56-3.92,8.36-.9-3.85-4.23-1.26-5.93-1.05-1.13-6.17-8.74-1.58-10.14-6.49-.59,1-.69,2.66-2.1,2.24-.54-2.31,3.45-3.68.43-5.91-1.57-.57-1.21-3.53-3.53-3.3-1.09-.12-1.77,2.54-2.76,1,1.29-3.3-.71-7.58-1.45-11.28-.23-2.32,3.67-1.67,1.88-4.25-1.11-.74-3,.25-3.78-1.43,3.55-5.39,10.82-10.9,11.17-19A6.42,6.42,0,0,1,262.9,269.37Z" transform="translate(-55.62 -79.16)"/>
          <g>
            <path class="cls-3" d="M218,225.67c2.36,1,3.79,2.05,4.34,4.67.53,2-1.91,3-.76,5-1.58-.88-2.27,1.78-3.67,1.67-2-.08-4.34.15-5.8-1.82-.7-2.46-2.38-6.13.2-7.92C213.92,225.5,216.11,226.05,218,225.67Z" transform="translate(-55.62 -79.16)"/>
            <path class="cls-4" d="M214.43,231.69a1.23,1.23,0,0,1-2.31.23c2-1.15-1-2.14,1-3.29C214.35,229.21,214.57,231.22,214.43,231.69Z" transform="translate(-55.62 -79.16)"/>
            <path class="cls-4" d="M214.65,228.89l.34.92Z" transform="translate(-55.62 -79.16)"/>
            <path class="cls-4" d="M220.28,230.25,219,230l.17.45c.3-.32-1.29-1.5-1.32-2.44C218.68,228.75,222.23,228.17,220.28,230.25Z" transform="translate(-55.62 -79.16)"/>
            <path class="cls-4" d="M217.64,235c-.32-.3-1-3.69,1.11-4.07-3.35,1.66,2.07,1.63,1.37,3.67l-1.12-1c1,2.77-2.13,1.32-3.2,1.82.15-.16.31,0,.46-.17a1.38,1.38,0,0,0-1.59-1.19c-.16-.15.13-.78-.48-.45C215.67,231.65,215.93,234.58,217.64,235Z" transform="translate(-55.62 -79.16)"/>
            <path class="cls-4" d="M214.56,235.41l-.77.49c.3-.63-.81-1.06,0-1.55Z" transform="translate(-55.62 -79.16)"/>
          </g>
        </g>
      </g>
    </g>
  </g>
</svg>
