<svg id="Layer_1" data-name="Layer 1" xmlns="http://www.w3.org/2000/svg" viewBox="0 0 368.9 368.9">
  <defs>
    <style>
    .logo {
      
    }
    </style>
  </defs>
  <title>text-logo2</title>
  <path class="logo" d="M60,63V431.9H428.9V63ZM280.27,247.67l61.86-41.38v15.57l-48.06,31.6v.89l48.06,31.59v15.58l-61.86-41.39ZM84.92,288.61h21.36v-65H84.92V212.52H141v11.12H119.63v65H141v11.13H84.92ZM113.4,406.54h-28V319.32h25.81c17.8,0,30.71,5.78,30.71,21.36a19.91,19.91,0,0,1-15.13,19.13v.45c12.9,2.22,20,8.9,20,20.91C146.33,398.08,133,406.54,113.4,406.54Zm93,0H150.33V319.32h55.18v11.12H163.68v24.92h35.16v11.13H163.68V395h43.17v11.57Zm64.53,0H215.3V319.32h13.35v76.09h42.28Zm-10.24-106.8-7.56-24.92H222.87l-7.12,24.92H144.1v-8l46.73-68.09H148.11V212.52h59.18v8l-46.72,68.08h44.94l25.37-76.09h15.57l28.93,87.22Zm73,106.8H278.05V319.32H291.4v76.09h42.27Zm61,0H338.57V319.32h55.18v11.12H351.92v24.92h35.15v11.13H351.92V395h43.16v11.57Zm17.8-146.41-61.86,41.39V285.94l48.06-31.59v-.89L351,221.86V206.29l61.85,41.38Z" transform="translate(-60 -63)"/>
  <path class="logo" d="M60,63V431.9H428.9V63ZM280.27,247.67l61.86-41.38v15.57l-48.06,31.6v.89l48.06,31.59v15.58l-61.86-41.39ZM84.92,288.61h21.36v-65H84.92V212.52H141v11.12H119.63v65H141v11.13H84.92ZM113.4,406.54h-28V319.32h25.81c17.8,0,30.71,5.78,30.71,21.36a19.91,19.91,0,0,1-15.13,19.13v.45c12.9,2.22,20,8.9,20,20.91C146.33,398.08,133,406.54,113.4,406.54Zm93,0H150.33V319.32h55.18v11.12H163.68v24.92h35.16v11.13H163.68V395h43.17v11.57Zm64.53,0H215.3V319.32h13.35v76.09h42.28Zm-10.24-106.8-7.56-24.92H222.87l-7.12,24.92H144.1v-8l46.73-68.09H148.11V212.52h59.18v8l-46.72,68.08h44.94l25.37-76.09h15.57l28.93,87.22Zm73,106.8H278.05V319.32H291.4v76.09h42.27Zm61,0H338.57V319.32h55.18v11.12H351.92v24.92h35.15v11.13H351.92V395h43.16v11.57Zm17.8-146.41-61.86,41.39V285.94l48.06-31.59v-.89L351,221.86V206.29l61.85,41.38Z" transform="translate(-60 -63)"/>
</svg>
