<svg id="Layer_1" data-name="Layer 1" xmlns="http://www.w3.org/2000/svg" viewBox="0 0 449.33 106.28">
  <defs>
    <style>
   
    </style>
  </defs>
  <title>what-i-do</title>
  <g>
    <g class="what-i-do">
      <g>
        <path class="what-i-do" d="M66.52,186.38l-.76,1.9a4.45,4.45,0,0,1,.68-.85C66.7,187.05,66.58,186.76,66.52,186.38Z" transform="translate(-12.32 -166.61)"/>
        <path class="what-i-do" d="M65.06,190l-.14.33,0,.32Z" transform="translate(-12.32 -166.61)"/>
        <path class="what-i-do" d="M64.07,193.47a10,10,0,0,0,.58-1.72A5.77,5.77,0,0,0,64.07,193.47Z" transform="translate(-12.32 -166.61)"/>
        <path class="what-i-do" d="M65.25,190.88c-.21.16-.38.21-.36-.17v0l-.24,1.06A4,4,0,0,1,65.25,190.88Z" transform="translate(-12.32 -166.61)"/>
        <path class="what-i-do" d="M65.25,190.88c.21-.15.45-.42.56-.5A4.2,4.2,0,0,0,65.25,190.88Z" transform="translate(-12.32 -166.61)"/>
        <path class="what-i-do" d="M68.13,192.89c0,.37-.89,0-.93.7a31.23,31.23,0,0,1-.89,4.58c0,.74-1.39,1.44-1.42,2.17-.28,1.67-.37,6.07.35,3.69,1-3.58,1.59-6,2.56-9.19.56-2.7,1-5.33,1.72-8.08a13.85,13.85,0,0,1,.89-2.08c-.49.85-1,1.72-1.5,2.7C68.16,188.64,68.7,190.7,68.13,192.89Z" transform="translate(-12.32 -166.61)"/>
        <path class="what-i-do" d="M73.7,172.54a1.52,1.52,0,0,0-.94.61,1.82,1.82,0,0,0-.24.46,3.24,3.24,0,0,0-.9,1,6.25,6.25,0,0,0-.52,1.11,17.17,17.17,0,0,0-.63,2.42l.71-.52c.29-.91.08-1.11-.42-.39a14.13,14.13,0,0,0,1.54-2.46,4.34,4.34,0,0,1,.73-1.2,1.11,1.11,0,0,1,.61-.35.74.74,0,0,1,.36,0,.44.44,0,0,1,.22.31.61.61,0,0,0,.3-.36.57.57,0,0,0-.18-.42A1.08,1.08,0,0,0,73.7,172.54Z" transform="translate(-12.32 -166.61)"/>
        <path class="what-i-do" d="M73.53,174.3a.31.31,0,0,0,.37.13.47.47,0,0,0,.24-.24.89.89,0,0,0,.08-.58l-.07,0a.89.89,0,0,1-.08.55.37.37,0,0,1-.24.21.33.33,0,0,1-.31-.17Z" transform="translate(-12.32 -166.61)"/>
        <path class="what-i-do" d="M62.41,200.88c-1.48,4.5-2.82,8.74-4.09,12.91.1.37.25.65,0,1.06a3.82,3.82,0,0,0-.59.89l-.54,1.83-.09.67v0c0,.37.19.3.38.12a5.6,5.6,0,0,1,.49-.56c-.1.1-.3.39-.49.56a3.87,3.87,0,0,0-.5.93,9.72,9.72,0,0,1-.39,1.77,5.65,5.65,0,0,1,.39-1.77l.12-1.07v-.32L56,222.1c-.05.34-.09.65-.12.91a4.13,4.13,0,0,1-.77,2.64l-.2.75.12-.13a1.19,1.19,0,0,1-.15.26l-.63,2.78c0,.73.13,1.56.15,2.37a4.31,4.31,0,0,1-.5.16,5.56,5.56,0,0,1,.23,1.64,2.85,2.85,0,0,0,.91-.67c.27-.14.12-.85,0-1.44s-.14-1.09.35-1.24c-.49.15-.45.64-.35,1.24s.25,1.3,0,1.44a2.85,2.85,0,0,1-.91.67c0,1.18-.33,2.28-.76,2.34a3.75,3.75,0,0,1,.1-1.74,1.46,1.46,0,0,1,.66-.6,5.56,5.56,0,0,0-.23-1.64,4.31,4.31,0,0,0,.5-.16c0-.81-.1-1.64-.15-2.37-.22.9-.38,1.75-.55,2.59s-.35,1.65-.47,2.47c-.18,1.12-.39,2.19-.51,3.18l-.19,1.61-.1.79c0,.06,0,.16,0,.18L52.2,240l-.32-.35a22.58,22.58,0,0,1-2.28-2.89,34,34,0,0,1-3.05-6.17L46,229l-.58-1.65c-.52-1.49-1-2.76-1.73-4.9-.35-1-.74-1.93-1.12-2.91l-.64-1.36a8.69,8.69,0,0,0-.68-1.26,12.74,12.74,0,0,0-1.54-2.08,2.44,2.44,0,0,0-1.22-.61,3.44,3.44,0,0,0-1.43.07,7.85,7.85,0,0,0-3,1.57,12.37,12.37,0,0,0-2.39,2.59,22.26,22.26,0,0,0-1.92,3.37c-.28.62-.55,1.24-.82,1.88-.17.38-.22.47-.29.61l-.2.42c-1.09,2.22-2.08,4.09-2.92,5.47a33.33,33.33,0,0,0-2.1,4.06l-.24.53a1,1,0,0,1-.11.23l-.06-.27-.24-1c-.14-.68-.29-1.33-.39-2s-.19-1.32-.25-2a14.89,14.89,0,0,1,0-1.89l0-.46,0-.11a1,1,0,0,0,0-.19v-3.34c.08-1.79.18-3.6.43-5.42.3-2.79.36-6.73.56-10.65s.43-7.82.77-10.46c-.27-3.65-1.49-4.78-2.75-4.92a3.88,3.88,0,0,0-2.64.87c-2.12,2-2.79,4-3.3,6.7s-.81,5.95-2,10.76c.31-1.64.66-2.15.87-1.89a6.7,6.7,0,0,1,.39,2.65,37.34,37.34,0,0,1-1.19,10.33,18.55,18.55,0,0,0-.82,3.64c-.07.63-.12,1.28-.16,1.93l0,1,.12,1.71a67.88,67.88,0,0,0,.92,7.29l.71,3.71c.25,1.22.57,2.31.86,3.46s.59,2.3.91,3.37l1,3.15,1.9,6.3,1,3.31.48,1.69.24.86.11.43.06.22s0,.1,0,.08l0-.09c.84-2,1.66-3.79,2.49-5.48,1.66-3.4,3.44-8,5.45-12.63,2.7-5.68,5.47-11.87,8.12-18.07l.17-.4h0v0a.39.39,0,0,1,.07-.24.14.14,0,0,1,.2,0,.47.47,0,0,1,.14.12v0l0,0,.06.16.28.72.58,1.47c.63,1.61,1.28,3.23,1.92,4.86l1.21,2.7c.4.89.86,1.68,1.29,2.52a36.13,36.13,0,0,0,5.66,7.92,66.5,66.5,0,0,0,5.3,4.69L55,253.18c.13.12.15.07.23.11l.19,0,.36.07a3.17,3.17,0,0,0,1.29-.13l.09-4.08c.08-1.45.2-2.81.33-4.14s.29-2.63.48-3.82l.52-3.58.23-1.74c.08-.55.13-1.17.22-1.6.25-1.47.47-2.9.66-4.28l.46-3.44c.21-1.57.3-3.09.46-4.58-.32,1.63-.47,3.05-.69,4.51l-1,7.28c-.16,1-.24,1.36-.33,1.11a3.22,3.22,0,0,1-.13-.69c0-.3,0-.68-.06-1.1-.07-1.7-.08-4,0-5.11a2.29,2.29,0,0,1,.18-.81,5.9,5.9,0,0,1,.42-.6,2,2,0,0,0,.57-1.15,38.91,38.91,0,0,0,.32-4.59c-.05-.74.87-.43.84-.79.3-2.22-.4-4.19.21-5.51.42-1,.85-1.91,1.26-2.79a13.28,13.28,0,0,0,.57-1.75l.12-1.24a2,2,0,0,1-1.13.24c.23-.56.68-1.29.91-1.85-.23.56-.68,1.29-.91,1.85a2,2,0,0,0,1.13-.24c.33-3,.91-6.4,1.56-9.55l-.1,0a16.61,16.61,0,0,1-2.33,5.15c.47-.73.69-.55.44.37l-.67.56a8.32,8.32,0,0,1,1.67-4.62l0-1.11c.3-.45.57-.33.85-.35l.29-1.07A18.61,18.61,0,0,0,62.41,200.88Z" transform="translate(-12.32 -166.61)"/>
        <path class="what-i-do" d="M57,219.35c0-.26.08-.57.14-.9l-1,3.51A4.07,4.07,0,0,0,57,219.35Z" transform="translate(-12.32 -166.61)"/>
      </g>
    </g>
    <g class="what-i-do">
      <g>
        <path class="what-i-do" d="M133,269.77a15.93,15.93,0,0,1-1.66-.27,3.16,3.16,0,0,1,.79.48C132.45,270.13,132.67,269.93,133,269.77Z" transform="translate(-12.32 -166.61)"/>
        <path class="what-i-do" d="M129.79,269.12l-.29-.08-.27,0Z" transform="translate(-12.32 -166.61)"/>
        <path class="what-i-do" d="M126.93,268.42a4.29,4.29,0,0,0,1.42.49A6.5,6.5,0,0,0,126.93,268.42Z" transform="translate(-12.32 -166.61)"/>
        <path class="what-i-do" d="M129.08,269.44c-.13-.2-.17-.36.14-.38h0l-.88-.15A2.92,2.92,0,0,1,129.08,269.44Z" transform="translate(-12.32 -166.61)"/>
        <path class="what-i-do" d="M129.08,269.44c.14.17.38.36.46.47A2.55,2.55,0,0,0,129.08,269.44Z" transform="translate(-12.32 -166.61)"/>
        <path class="what-i-do" d="M127.31,272.43c-.36,0,0-.89-.69-.9a13.07,13.07,0,0,1-4.34-1.33c-.75-.17-1-1.69-1.67-1.89-.35-.19-.86-.43-1.41-.67s-1.09-.51-1.56-.7c-.91-.39-1.43-.5-.53.37a24.72,24.72,0,0,0,4,2.86,26,26,0,0,0,4.26,1.92,25.94,25.94,0,0,0,8,.67c.75,0,1.44.09,2.14.12-.46,0-.92-.15-1.39-.23a13.62,13.62,0,0,1-1.46-.31C131.36,272,129.53,272.9,127.31,272.43Z" transform="translate(-12.32 -166.61)"/>
        <path class="what-i-do" d="M145,267.42l-.58.76a5.47,5.47,0,0,0-2,.59c-.63.26-1.21.7-1.86,1,.24.09.5.2.76.27.76-.36.73-.64,0-.57a6.94,6.94,0,0,0,4.53-1.82C145.58,267.51,145.41,267.26,145,267.42Z" transform="translate(-12.32 -166.61)"/>
        <path class="what-i-do" d="M146.53,267l-.71.65.08.05.67-.7Z" transform="translate(-12.32 -166.61)"/>
        <path class="what-i-do" d="M121,265.86a26.24,26.24,0,0,1-7.09-9.26c-.3-.17-.59-.26-.66-.67a4.23,4.23,0,0,0,0-1c-.21-.51-.42-1-.58-1.54l-.28-.52h0c-.22-.25-.32-.12-.39.11a2.76,2.76,0,0,1-.11.67c0-.13.05-.44.11-.67a4.24,4.24,0,0,0,0-.93,5.54,5.54,0,0,1-.52-1.5,5.49,5.49,0,0,1,.52,1.5,8.13,8.13,0,0,0,.43.83l.18.22a34.52,34.52,0,0,1-1-3.61c-.09-.27-.18-.53-.26-.74a2.9,2.9,0,0,1-.3-2.35l-.07-.67-.07.15a1.46,1.46,0,0,1,.05-.27c-.12-.93-.19-1.87-.24-2.82a14.39,14.39,0,0,1-.7-1.83l.44-.66a2,2,0,0,1-.52-1,13.41,13.41,0,0,0-.74,1.46c-.44.7,1,1.37.24,2.21.81-.84-.68-1.51-.24-2.21a13.41,13.41,0,0,1,.74-1.46,4.61,4.61,0,0,1,.44-3,3.74,3.74,0,0,1-.44,3,2,2,0,0,0,.52,1l-.44.66a14.39,14.39,0,0,0,.7,1.83,55.34,55.34,0,0,1,0-5.62c.05-.76.09-1.52.16-2.28l.21-2.46c.21-1.88.44-3.8.75-5.78a47.09,47.09,0,0,0,.53-5.4,33,33,0,0,0,0-4.32,7.07,7.07,0,0,0-.53-2.09,5.44,5.44,0,0,0-.58-1,3.86,3.86,0,0,0-.38-.5l-.39.36-3.14,2.8-1.59,1.38-.81.69c-.07.07-.12.09-.21.19l-.24.29-.5.58-4.1,4.77-2.33,2.66-1,1.14-.87,1-3.48,3.78-3.46,3.69-.87.91-.43.46-.24.21c-.3.26-.58.5-.85.71A7.07,7.07,0,0,1,84.81,240a1.38,1.38,0,0,1-.85.11,1,1,0,0,1-.62-.65,10.23,10.23,0,0,1-.31-1.75c0-.28,0-.56-.06-.84l0-1.18a55.35,55.35,0,0,1,3.18-18.3c1.56-5,2.42-14.42,3-19.32-.66-6.77-5.22-3.95-5.49-3.68-4,3.54-2.55,7-5.75,14.87,2-5.42,1.66,4.43-1.46,9.38-2.34,3.58-3.2,8.4-3.18,13.76,0,1.33.09,2.7.21,4.07l.14,1.57c.06.58.16,1.15.24,1.72l.24,1.7.34,1.63a15.4,15.4,0,0,0,2,5.49,7,7,0,0,0,1.5,1.8,7.63,7.63,0,0,0,2.15,1.34,7.12,7.12,0,0,0,5.06,0,13.13,13.13,0,0,0,5.16-3.57c1.17-1.23,2.32-2.58,3.5-3.91L95.85,242c1.21-1.36,2.39-2.72,3.54-4.1s2.29-2.77,3.41-4.18l.42-.52.1-.13.05-.07s0,0,0,0h0v0a.57.57,0,0,1,0-.12,3.73,3.73,0,0,1,.45-1c.06-.1.13-.26.2-.3a.17.17,0,0,1,.12.15,1.47,1.47,0,0,1-.09.58c0,.16.21.05.48.22a1.37,1.37,0,0,1,.41.42l.11.16c0,.08.07.05.08.36l.14,1.39c.06,2.66-.34,5.56-.14,7.79a27.33,27.33,0,0,0,2.45,9.18,42.21,42.21,0,0,1-2.24-9c-.26-2.37,1.34,1.56,1.87,3,.32.61-.56,1.83-.2,2.47a16,16,0,0,0,1.78,4.08c.42.57-.52.8-.31,1.09.94,2,2.72,3,3.09,4.31.34,1,.65,1.88,1,2.74a8.4,8.4,0,0,0,.92,1.53c.29.27.57.55.88.82a1.94,1.94,0,0,1,.51-1c.27.49.6,1.22.89,1.7-.29-.48-.62-1.21-.89-1.7a1.94,1.94,0,0,0-.51,1A34.14,34.14,0,0,0,121.8,268l0-.1a8.54,8.54,0,0,1-3.46-3.74c.37.68.12.81-.52.22,0-.26-.07-.54-.1-.81a9.16,9.16,0,0,1,3.09,3.13s.62.24.94.33c.31.37.12.61,0,.87.29.18.57.36.87.51a10.23,10.23,0,0,0-1-1.57Z" transform="translate(-12.32 -166.61)"/>
        <path class="what-i-do" d="M111.94,252l.33.72c-.32-1-.59-2-.83-3A2.92,2.92,0,0,0,111.94,252Z" transform="translate(-12.32 -166.61)"/>
      </g>
    </g>
    <g class="what-i-do">
      <g>
        <path class="what-i-do" d="M170,232.4c-.31.31-.64.6-1,.88a2.17,2.17,0,0,1,.72-.2C170.05,233,170,232.68,170,232.4Z" transform="translate(-12.32 -166.61)"/>
        <path class="what-i-do" d="M168.09,234.05l-.19.14-.11.19Z" transform="translate(-12.32 -166.61)"/>
        <path class="what-i-do" d="M166.38,235.61a3.69,3.69,0,0,0,.94-.71A2.77,2.77,0,0,0,166.38,235.61Z" transform="translate(-12.32 -166.61)"/>
        <path class="what-i-do" d="M168,234.71c-.2,0-.35-.1-.23-.32h0l-.47.52A2.61,2.61,0,0,1,168,234.71Z" transform="translate(-12.32 -166.61)"/>
        <path class="what-i-do" d="M168,234.71a5.17,5.17,0,0,0,.56,0A5.23,5.23,0,0,0,168,234.71Z" transform="translate(-12.32 -166.61)"/>
        <path class="what-i-do" d="M169.57,237.8c-.15.25-.67-.57-1-.09a9.29,9.29,0,0,1-2.71,2.41c-.43.45-1.66-.21-2.1.16s-1.64,1-2.46,1.44-1.25.76-.05.64a13,13,0,0,0,4.11-1.37,22.57,22.57,0,0,0,3.15-2,28.13,28.13,0,0,0,4-4.89,11,11,0,0,1,1.15-1.2c-.56.46-1.15.91-1.81,1.38C170.94,234.79,170.85,236.57,169.57,237.8Z" transform="translate(-12.32 -166.61)"/>
        <path class="what-i-do" d="M175.6,224.33l.06.78c-1,.74-1.19,1.82-1.51,2.93l.66-.21c.26-.61,0-.79-.41-.38a5.75,5.75,0,0,0,2-3.31C176.11,224.14,175.83,224,175.6,224.33Z" transform="translate(-12.32 -166.61)"/>
        <path class="what-i-do" d="M176.52,223.4l-.14.74h.09l.08-.76Z" transform="translate(-12.32 -166.61)"/>
        <path class="what-i-do" d="M162.26,238.45a7.5,7.5,0,0,1-4.5-.06,6.05,6.05,0,0,1-3.17-2.78c-.27-.09-.55-.13-.59-.45a2.46,2.46,0,0,0,0-.76,11.92,11.92,0,0,1-.37-1.2l-.2-.41h0c-.17-.2-.3-.1-.39.09a4.35,4.35,0,0,1-.22.54,5.63,5.63,0,0,1,.22-.54,2.88,2.88,0,0,0,.1-.74,3.47,3.47,0,0,1-.27-1.24,3.57,3.57,0,0,1,.27,1.24,6.58,6.58,0,0,0,.29.66l.14.18c-.11-.47-.19-.92-.27-1.43s-.12-1.07-.16-1.64c0-.24-.09-.47-.14-.64a2.87,2.87,0,0,1,.08-2.27v-.64l-.08.2a3,3,0,0,1,.08-.32c0-.91,0-1.85.1-2.84-.17-.34-.42-.53-.56-.83l.56-1.57c-.27.25-.44.26-.53.06l-.5,1.58-.33,1.12c-.21.61,0,.48.17.5s.3.15-.1,1c.4-.88.28-1,.1-1s-.38.11-.17-.5l.33-1.12.5-1.58a2.41,2.41,0,0,1,0-1.13,21.73,21.73,0,0,1,.48-2.48c.26-.12.34.23.25.9s-.45,1.79-.74,2.71c.09.2.26.19.53-.06l-.56,1.57c.14.3.39.49.56.83.09-1.71.26-3.6.46-5.61l-.06-.56a58.14,58.14,0,0,1-.25-6.35c0-.48,0-.94,0-1.4l0-.68,0-.34c-.07-.07-.29,0-.43-.06a3.43,3.43,0,0,0-2.68,1.48L147,214.8a75.49,75.49,0,0,0-4.37,7.87c-.86,1.59-1.73,3.19-2.65,4.8l-.69,1.22-.29.5-.26.43-1,1.69c-.7,1.12-1.41,2.23-2.12,3.32s-1.44,2.2-2.13,3.06a9.77,9.77,0,0,1-1.93,2,3.3,3.3,0,0,1-.79.43l-.13,0,.12.34.13.39a5.31,5.31,0,0,1,.18.64,3.83,3.83,0,0,1,.11.88,1.29,1.29,0,0,1,0,.31,3,3,0,0,1,1.11-1c.24-.17.49-.32.86-.54l.14-.07s0,0,0,0h0v0l-.09-.23a6,6,0,0,1-.33-1.11,10.78,10.78,0,0,1-.21-2.74,19.12,19.12,0,0,1,4.63-12c1.12-1.31,2.4-3.28,3.88-5.08a33.55,33.55,0,0,1,2.22-2.55c.36-.4.74-.73,1.08-1.07.18-.18.31-.29.32-.31s0,0,0,0a3.45,3.45,0,0,1-.13-1.21c0-.35-.14-.7-.2-1.16s-.09-1-.2-1.51a3.87,3.87,0,0,0-.32-1,3.08,3.08,0,0,0-1.37-1.55,2.66,2.66,0,0,0-1.63-.2,5,5,0,0,0-1.48.57c-.39.22-.78.48-1.18.76-1.59,1.19-3.29,2.82-6.21,5.1,1.94-1.6,1.8-.53.74,1.17a26.32,26.32,0,0,1-4.86,5.9c-3,2.34-4.51,6.58-4.76,11.05a25.43,25.43,0,0,0,.55,7.39,18,18,0,0,0,.59,2q.18.51.39,1l.23.51c.07.17.15.34.27.57a8.29,8.29,0,0,0,1.17,1.72,6.78,6.78,0,0,0,2.88,1.88,7,7,0,0,0,3.17.25,9.72,9.72,0,0,0,1.91-.48,11,11,0,0,0,4.21-2.78,21.23,21.23,0,0,0,2.67-3.52c.53-.72,1-1.41,1.39-2s.77-1.22,1.14-1.84c.74-1.24,1.44-2.48,2.11-3.74l1-1.89c.06-.12,0-.05,0-.07h0v0a.56.56,0,0,1,0-.19,3.9,3.9,0,0,1,.16-1c.12-.39.22-1,.45-.75a9.86,9.86,0,0,0,.47-1.17,3.57,3.57,0,0,1,.75-1.32,2.79,2.79,0,0,1-.06.84,12.2,12.2,0,0,0-.24,1.38c0,.64.32.87.85,1.57-.3-.86-.53-1.22-.68-1.79,0-.2.24-.61.56-.83a.6.6,0,0,1,.82,0c.1,0-.09.41-.27.75s-.38.62-.27.65c0,.47.46.6.86,1.31.13.11,0,.33-.19.45s-.37.23-.29.36a6.39,6.39,0,0,0,1.47,2.2,5.21,5.21,0,0,1,1.27,1.68,10,10,0,0,0,1.43,2.43,5.13,5.13,0,0,0,1.42,1.13,9.21,9.21,0,0,0,1.17.33,1.86,1.86,0,0,1,0-1.14,7.39,7.39,0,0,0,1.54.9,7.39,7.39,0,0,1-1.54-.9,1.86,1.86,0,0,0,0,1.14,9.39,9.39,0,0,0,4.23-.12,13.11,13.11,0,0,0,3.51-1.48l-.06-.07a5,5,0,0,1-4.09.23c.6.2.57.48-.17.53a6.14,6.14,0,0,1-.51-.51c1.24-.16,2.24-.6,3.5-.22,0,0,.43-.35.62-.53.39,0,.48.29.65.5.25-.11.48-.24.72-.37a9.64,9.64,0,0,0-1.53-.19C162.7,238.51,162.26,238.45,162.26,238.45Z" transform="translate(-12.32 -166.61)"/>
        <path class="what-i-do" d="M153.18,232.09l.21.57a20.16,20.16,0,0,1-.33-2.57A2.1,2.1,0,0,0,153.18,232.09Z" transform="translate(-12.32 -166.61)"/>
      </g>
    </g>
    <g class="what-i-do">
      <g>
        <path class="what-i-do" d="M190.87,232c-.2.1-.4.2-.61.28a1.39,1.39,0,0,1,.46.14C190.9,232.43,190.87,232.2,190.87,232Z" transform="translate(-12.32 -166.61)"/>
        <path class="what-i-do" d="M189.69,232.45a.19.19,0,0,1-.1,0l-.07.12Z" transform="translate(-12.32 -166.61)"/>
        <path class="what-i-do" d="M188.69,233a.82.82,0,0,0,.55-.17A.77.77,0,0,0,188.69,233Z" transform="translate(-12.32 -166.61)"/>
        <path class="what-i-do" d="M189.64,233c-.11-.11-.19-.24-.12-.38h0l-.28.23A.94.94,0,0,1,189.64,233Z" transform="translate(-12.32 -166.61)"/>
        <path class="what-i-do" d="M189.64,233a2.38,2.38,0,0,0,.34.25A2.7,2.7,0,0,0,189.64,233Z" transform="translate(-12.32 -166.61)"/>
        <path class="what-i-do" d="M190.36,236.31c-.14.16-.36-.76-.62-.48a4.2,4.2,0,0,1-2.21,1c-.41.21-.89-.87-1.24-.74l-1.87.41c-.6.12-1,.27-.3.56a8.73,8.73,0,0,0,5.38-.15,10.93,10.93,0,0,0,3.12-2.55,3.37,3.37,0,0,1,.87-.48c-.43.12-.86.25-1.34.36C191.51,234.29,191.41,235.76,190.36,236.31Z" transform="translate(-12.32 -166.61)"/>
        <path class="what-i-do" d="M194.79,228.75a3.83,3.83,0,0,1,.09.49c-.88.12-1,.7-1.16,1.33l.54.11c.18-.32,0-.51-.36-.4a2,2,0,0,0,1.6-1.4C195.25,228.8,195,228.65,194.79,228.75Z" transform="translate(-12.32 -166.61)"/>
        <path class="what-i-do" d="M195.62,228.48a3,3,0,0,1-.12.4l.09,0,.06-.42Z" transform="translate(-12.32 -166.61)"/>
        <path class="what-i-do" d="M186.19,233.86c-.26-.09-.53-.15-.78-.25s-.47-.22-.69-.34a5.79,5.79,0,0,1-2.14-2.38c-.22,0-.45,0-.43-.2a1.27,1.27,0,0,0,.14-.48l-.21-.64-.15-.21h0c-.14-.09-.27,0-.38.12a2,2,0,0,1-.24.35c.06-.07.14-.23.24-.35a1,1,0,0,0,.14-.45,1.21,1.21,0,0,1-.21-.63.83.83,0,0,1,.21.63c.08.12.17.23.25.33l.12.08a11.77,11.77,0,0,1-.29-1.53,3.11,3.11,0,0,0-.14-.31c-.19-.35-.39-.71,0-1v-.28l-.08.06.07-.11c0-.4,0-.79,0-1.19a5.25,5.25,0,0,1-.58-.78l.48-.28a.84.84,0,0,1-.48-.44,7.49,7.49,0,0,0-.8.62c-.48.3,1,.59.09.95.89-.36-.57-.65-.09-.95a7.49,7.49,0,0,1,.8-.62,1.12,1.12,0,0,1,.49-1.28c.39.5,0,.91-.49,1.28a.84.84,0,0,0,.48.44l-.48.28a5.25,5.25,0,0,0,.58.78c0-.78.11-1.56.22-2.38.74-5.26,1.11-10.09,2.43-15.45a60.22,60.22,0,0,1,2.78-8.26c2.2-5.26,2.09-10.52,5.65-15.67a12,12,0,0,0,1.34-4.11c.15-.78.25-1.57.34-2.3l.28-2.2a8.46,8.46,0,0,0-.45-2.6,6.67,6.67,0,0,0-1.05-1.91,5.62,5.62,0,0,0-1.84-1.5,6.52,6.52,0,0,0-.92-.4,5.43,5.43,0,0,0-1-.24,5.22,5.22,0,0,0-1.92.11,3.77,3.77,0,0,0-.72.25,3.72,3.72,0,0,0-.6.3,4.76,4.76,0,0,0-.81.63,4.53,4.53,0,0,0-1.26,2.37,6,6,0,0,0-.09.65,4.32,4.32,0,0,0,0,.72,3.87,3.87,0,0,0,.13.87,4.86,4.86,0,0,0,.35.93,3.86,3.86,0,0,0,1.24,1.4,3.28,3.28,0,0,0,1.14.44,1.3,1.3,0,0,0,.94-.23c.19-.14.15-.31.17-.46a1.42,1.42,0,0,0-.23-.51c-.1-.19-.22-.37-.4-.65a1.74,1.74,0,0,1-.26-.89.82.82,0,0,1,1.17-.77.34.34,0,0,1,.21.16c0-.05,0-.08,0,0l-.13.19h0l-.1.06a2,2,0,0,1-.71.12h-.34l-.14,0a2.55,2.55,0,0,0-.83,1.19,9.74,9.74,0,0,1-2,3.64c1.62-2.12,1.87,2.19-1,3.91-4.26,2.44-2.41,7.63-4.18,11.47a22,22,0,0,0-.82,3.27c-2.48,6.08-2,12.36-2.86,19.26-.11,1.86.66,3.53,1.12,5.09a5.88,5.88,0,0,1-.13,1.72,8.21,8.21,0,0,0-.19,1.71,9.54,9.54,0,0,0,1.35,4.37,20.32,20.32,0,0,1-1.16-4.28c-.1-1.09,1.25.71,1.6,1.37.26.28-.75.89-.48,1.19a5.1,5.1,0,0,0,1.12,1.92c.29.25-.64.48-.49.62.55,1,2.05,1.27,2.12,2a12.14,12.14,0,0,0,.5,1.51,2.54,2.54,0,0,0,.63.8,6.14,6.14,0,0,0,.64.27,2.57,2.57,0,0,1,.46-.94c.18.21.34.65.55.85-.21-.2-.37-.64-.55-.85a2.57,2.57,0,0,0-.46.94,12.55,12.55,0,0,0,1.54.48,9.34,9.34,0,0,0,3.2.05v-.09a2.15,2.15,0,0,1-2.05-1.21c.2.34.07.57-.33.44,0-.18,0-.36,0-.54v0h0a4.08,4.08,0,0,1,1,.17,1.3,1.3,0,0,1,.79.68l.47-.25c.19.17.14.47.16.73a2.63,2.63,0,0,0,.48-.06c-.16-.24-.46-.52-.69-.79S186.19,233.86,186.19,233.86Z" transform="translate(-12.32 -166.61)"/>
        <path class="what-i-do" d="M181.7,229a2.45,2.45,0,0,1,.18.29,11.55,11.55,0,0,1-.22-1.31C181.24,228.32,181.48,228.68,181.7,229Z" transform="translate(-12.32 -166.61)"/>
      </g>
    </g>
    <g class="what-i-do">
      <g>
        <path class="what-i-do" d="M204.17,193.7l-.31.23a.91.91,0,0,1,.37.12C204.37,194.07,204.26,193.88,204.17,193.7Z" transform="translate(-12.32 -166.61)"/>
        <path class="what-i-do" d="M203.56,194.13l-.06,0v.1A.78.78,0,0,1,203.56,194.13Z" transform="translate(-12.32 -166.61)"/>
        <path class="what-i-do" d="M203.22,194.76a.38.38,0,0,0,.23-.26A.26.26,0,0,0,203.22,194.76Z" transform="translate(-12.32 -166.61)"/>
        <path class="what-i-do" d="M203.78,194.58a.52.52,0,0,1-.27-.3h0a1.55,1.55,0,0,1-.06.23A.78.78,0,0,1,203.78,194.58Z" transform="translate(-12.32 -166.61)"/>
        <path class="what-i-do" d="M203.78,194.58l.32.17A2,2,0,0,0,203.78,194.58Z" transform="translate(-12.32 -166.61)"/>
        <path class="what-i-do" d="M205.92,197.21c0,.13-.61-.6-.57-.35-.06.42,0,.93-.2,1.13,0,.26-.83-.39-.8-.14-.06.41.15,1.93.49,1.57a18.71,18.71,0,0,0,1-1.69c.15-.65.22-1.33.39-2a.64.64,0,0,1,.39-.24l-.74.09C205.53,195.61,206.11,196.75,205.92,197.21Z" transform="translate(-12.32 -166.61)"/>
        <path class="what-i-do" d="M206.65,192.16l.08.37c-.7-.28-.74.13-.78.54l.43.25c.09-.16-.08-.37-.34-.41.67.17,1,0,1.18-.33C207,192.41,206.82,192.19,206.65,192.16Z" transform="translate(-12.32 -166.61)"/>
        <path class="what-i-do" d="M207.32,192.38l-.1.2.06,0,.06-.24Z" transform="translate(-12.32 -166.61)"/>
        <path class="what-i-do" d="M202.73,196.38a14.9,14.9,0,0,1-2,1.6c.08.19.18.38,0,.35a1.08,1.08,0,0,0-.37-.14l-.31.2-.05.14h0a.5.5,0,0,0,.25.31l.32.19-.32-.19a.71.71,0,0,0-.32-.08.41.41,0,0,1-.25.25c0-.18.12-.25.25-.25s0-.16.07-.23v-.11l-.72.42a.7.7,0,0,0-.09.17c-.07.22-.15.45-.53.17l-.14.07.08,0a.29.29,0,0,1-.1,0l-.57.29a5.35,5.35,0,0,1,0,.68l-.41-.29a.89.89,0,0,1,.11.52c.27.16.54.35.74.44.41.29-.35-1,.35-.34-.7-.61.06.63-.35.34-.2-.09-.47-.28-.74-.44,0,.26-.36.29-.8,0-.05-.47.36-.3.8,0a.89.89,0,0,0-.11-.52l.41.29a5.35,5.35,0,0,0,0-.68l-1.12.57c-2.51,1.17-4.45,2.71-7,3.89a18.81,18.81,0,0,1-4.33,1.31,15.89,15.89,0,0,0-3.82,1.53c-.56.27-1.31.54-2.28.92a17.88,17.88,0,0,0-1.68.74,20.6,20.6,0,0,0-1.87,1,5.15,5.15,0,0,0-1.94,3.51,5.54,5.54,0,0,0,.36,2.86.75.75,0,0,0,.42,0,1.46,1.46,0,0,0,.49-.09,4.27,4.27,0,0,1,.56-.11,5.29,5.29,0,0,1,.6-.13,9.45,9.45,0,0,1,2.7.09c1.77.29,3.11.57,3.21.58.47.21.51.12.38,0s-.36-.55.49-.6a1,1,0,0,1-1.1-.54c-.13-.37.45-.77,1.5-.12.81.48,1.11.89,1.4,1s.55-.05.93-.36c.85-.67,1.64-1.69,2.8-1.85.59-.07,1-.52,1.58-.8,3.54-.73,5.3-3.78,8.29-5.64.75-.56.87-1.78,1.19-2.63.36-.48,1.12-.49,1.49-.78a3.37,3.37,0,0,0,1-1.82,18.72,18.72,0,0,1-1.13,1.65c-.35.35-.49-1.18-.4-1.6,0-.25.81.44.78.18.24-.19.19-.7.27-1.12,0-.25.57.5.56.37.21-.45-.32-1.62.06-1.6s.5,0,.74-.05a.48.48,0,0,0,.32-.19l0-.34a6.74,6.74,0,0,1-.74-.7c.12,0,.38,0,.5,0-.12,0-.38,0-.5,0a6.74,6.74,0,0,0,.74.7,14.18,14.18,0,0,1,.44-2.35l-.06,0c-.21.31-.54.47-1.2.28.26,0,.42.26.32.43l-.42-.27c.06-.42.12-.83.81-.51l-.06-.38c.17,0,.36.27.55.45l.11-.2A4.59,4.59,0,0,0,202.73,196.38Z" transform="translate(-12.32 -166.61)"/>
        <path class="what-i-do" d="M199.9,198.74a1,1,0,0,1,.09-.17l-.62.34C199.76,199.19,199.83,199,199.9,198.74Z" transform="translate(-12.32 -166.61)"/>
      </g>
    </g>
    <g class="what-i-do">
      <g>
        <path class="what-i-do" d="M281,235.29l.15-.65a1.15,1.15,0,0,1-.39.28C280.67,235,280.87,235.15,281,235.29Z" transform="translate(-12.32 -166.61)"/>
        <path class="what-i-do" d="M281.34,234.05l0-.11-.06-.12A1.81,1.81,0,0,1,281.34,234.05Z" transform="translate(-12.32 -166.61)"/>
        <path class="what-i-do" d="M281.29,232.87a1.08,1.08,0,0,0-.05.59A.68.68,0,0,0,281.29,232.87Z" transform="translate(-12.32 -166.61)"/>
        <path class="what-i-do" d="M280.91,233.74c.15-.05.31-.06.39.08h0a2.29,2.29,0,0,1-.07-.36A1,1,0,0,1,280.91,233.74Z" transform="translate(-12.32 -166.61)"/>
        <path class="what-i-do" d="M280.91,233.74c-.15,0-.29.13-.38.15A1.88,1.88,0,0,0,280.91,233.74Z" transform="translate(-12.32 -166.61)"/>
        <path class="what-i-do" d="M277.61,232.89c-.08-.14.86.05.69-.21a4.07,4.07,0,0,1-.44-1.61c-.18-.26.93-.44.76-.7-.17-.58-1.2-2.17-1.29-1.36-.07,1.24.05,2.07,0,3.19.23,1,.54,1.87.74,2.83a1.6,1.6,0,0,1-.22.71c.2-.28.4-.58.6-.91S277.71,233.65,277.61,232.89Z" transform="translate(-12.32 -166.61)"/>
        <path class="what-i-do" d="M280,238.72c0-.05,0,.11-.05.15a.49.49,0,0,1-.09.1.53.53,0,0,1,.06-.21s-.05.05-.06.05h0s.37-.24.19-.13h0l0,0a.09.09,0,0,0,0,0,3.17,3.17,0,0,1-.26-.53,4.2,4.2,0,0,0-.5.17c0,.31.31.29.52.1a.69.69,0,0,0-.35.78.51.51,0,0,0,.73.22A1.64,1.64,0,0,1,280,238.72Z" transform="translate(-12.32 -166.61)"/>
        <path class="what-i-do" d="M280.35,239.08a.26.26,0,0,1-.13.24l0,.07a.37.37,0,0,0,.11-.31Z" transform="translate(-12.32 -166.61)"/>
        <path class="what-i-do" d="M280.84,230.32c.23-1.52.52-2.94.86-4.31-.17-.14-.37-.25-.23-.37a1.16,1.16,0,0,0,.4-.27l.15-.59,0-.23h0c-.08-.13-.24-.12-.39-.08a1.88,1.88,0,0,1-.38.15c.09,0,.23-.1.38-.15a.83.83,0,0,0,.33-.28.91.91,0,0,1,.07-.58.66.66,0,0,1-.07.58c0,.13,0,.25.07.37l.07.11.38-1.35c0-.11,0-.22,0-.31-.07-.35-.14-.71.36-.83l.07-.24-.09,0,.11-.08.31-1a6,6,0,0,1-.41-.79l.52-.15a.87.87,0,0,1-.4-.47c-.32.13-.66.25-.89.37-.51.15.85.7-.09.81.94-.11-.42-.66.09-.81.23-.12.57-.24.89-.37-.11-.36.14-.76.66-1,.32.5-.13.79-.66,1a.87.87,0,0,0,.4.47l-.52.15a6,6,0,0,0,.41.79c.21-.67.42-1.34.63-2,1.45-4.41,2.15-8.59,3.55-13.18a59.77,59.77,0,0,1,2.75-7.08c2.11-4.5,1.81-9.11,5.27-13.33a5.7,5.7,0,0,0,.78-1.52,12.07,12.07,0,0,0,.56-2.48,13.19,13.19,0,0,0,0-3.27,9.46,9.46,0,0,0-.35-1.76,8.74,8.74,0,0,0-.51-1.4,3.09,3.09,0,0,0-2.51-1.23,3.43,3.43,0,0,0-1.89.73,10.88,10.88,0,0,0-1.74,1.71c-1,1.4-1.31,1.85-1.41,2.41a3.52,3.52,0,0,1-1.44,2.34c.73-.72,1.25-.36,1.2.45a3.74,3.74,0,0,1-2.1,2.83c-4.21,2-2.25,6.61-3.91,9.85a15.36,15.36,0,0,0-.74,2.78c-2.36,5.1-1.86,10.39-3.23,16-.27,1.5.34,3,.59,4.33a13.16,13.16,0,0,1-.8,2.59,8.22,8.22,0,0,0,.18,3.3c0-1.11-.08-1.95,0-3.19.09-.81,1.1.79,1.27,1.37.17.27-.94.43-.77.7-.09.5.25,1,.42,1.61.17.27-.77.07-.69.2.09.77,1.2,1.55.86,2s-.41.62-.61.91a1.43,1.43,0,0,0-.16.58l.17.44a4.43,4.43,0,0,1,1,0c-.09.18-.34.41-.43.6.09-.19.34-.42.43-.6a4.43,4.43,0,0,0-1,0,24.3,24.3,0,0,1,.92,3.34h.09a2,2,0,0,1,.88-1.71c-.26.24-.51.16-.51-.16l.51-.15c.17.58.35,1.16-.42,1.54l.26.4c-.16.15-.46.09-.72.08,0,.12,0,.24,0,.37A4.9,4.9,0,0,0,280.84,230.32Z" transform="translate(-12.32 -166.61)"/>
        <path class="what-i-do" d="M282,224.17a1.51,1.51,0,0,1,0,.31l.34-1.14C281.82,223.46,281.88,223.82,282,224.17Z" transform="translate(-12.32 -166.61)"/>
      </g>
    </g>
    <g class="what-i-do">
      <g>
        <path class="what-i-do" d="M306.13,169.06l-.43.07a1.15,1.15,0,0,1,.31.27C306.13,169.48,306.11,169.26,306.13,169.06Z" transform="translate(-12.32 -166.61)"/>
        <path class="what-i-do" d="M305.31,169.2h-.08l0,.1A.57.57,0,0,1,305.31,169.2Z" transform="translate(-12.32 -166.61)"/>
        <path class="what-i-do" d="M304.67,169.65a.47.47,0,0,0,.35-.15A.29.29,0,0,0,304.67,169.65Z" transform="translate(-12.32 -166.61)"/>
        <path class="what-i-do" d="M305.3,169.7a.48.48,0,0,1-.11-.39h0l-.18.19A.7.7,0,0,1,305.3,169.7Z" transform="translate(-12.32 -166.61)"/>
        <path class="what-i-do" d="M305.3,169.7c.08.12.19.22.23.29A1.73,1.73,0,0,0,305.3,169.7Z" transform="translate(-12.32 -166.61)"/>
        <path class="what-i-do" d="M306.1,173c0,.13-.3-.8-.38-.55-.26.36-.42.86-.73,1-.08.25-.61-.7-.69-.45-.26.35-.74,1.85-.25,1.64.71-.36,1.13-.76,1.76-1.13.44-.54.83-1.14,1.3-1.64a.78.78,0,0,1,.48,0c-.24-.08-.48-.16-.74-.23S306.49,172.66,306.1,173Z" transform="translate(-12.32 -166.61)"/>
        <path class="what-i-do" d="M309.3,168.71l-.12.37c-.51-.57-.77-.21-1,.15l.28.42c.18-.11.12-.38-.11-.53.56.44.95.42,1.3.21C309.53,169.09,309.45,168.8,309.3,168.71Z" transform="translate(-12.32 -166.61)"/>
        <path class="what-i-do" d="M309.83,169.19l-.2.14,0,.08.18-.2Z" transform="translate(-12.32 -166.61)"/>
        <path class="what-i-do" d="M303.41,170.94a21.38,21.38,0,0,1-2.74.72c0,.19,0,.42-.12.34a1,1,0,0,0-.3-.27l-.4.07-.11.11h0a.46.46,0,0,0,.11.39,1.73,1.73,0,0,1,.23.29c-.05-.07-.15-.17-.23-.29a.77.77,0,0,0-.28-.2.43.43,0,0,1-.36.14.3.3,0,0,1,.36-.14l.17-.19,0-.1-.91.12-.16.13c-.17.19-.34.38-.6,0l-.17,0,.06.07-.09-.07-.69.08a4.38,4.38,0,0,1-.28.65l-.28-.41a.86.86,0,0,1-.11.53c.2.24.4.51.56.67.28.41.05-1,.48-.21-.43-.81-.2.62-.48.21-.16-.16-.36-.43-.56-.67-.16.23-.47.14-.82-.24.15-.47.49-.16.82.24a.86.86,0,0,0,.11-.53l.28.41a4.38,4.38,0,0,0,.28-.65l-1.37.15c-3,.27-5.62,1.16-8.7,1.62a28,28,0,0,1-5,.19c-3.33-.17-5.7,1.89-9.43.48a2.78,2.78,0,0,0-.53-.11.73.73,0,0,1-.27-.09q0-.12,0-.09a.65.65,0,0,1,0,.16,16.08,16.08,0,0,0-.22,2.17,5.22,5.22,0,0,1-.43,1.61c-.92,2.48-1.17,3.17-.87,3.82s1.19,1.11,2.83,1.93c-.57-.23-.73-.53-.68-.76s.34-.4.72-.52a3,3,0,0,1,1.37-.11,2.93,2.93,0,0,1,1.38.84c2.8,3,4.47-.57,6.9-.33a6.27,6.27,0,0,0,1.81-.39c3.71.19,6.38-2.23,10-3,.93-.29,1.5-1.39,2.14-2.09.53-.33,1.28-.07,1.75-.21a3.81,3.81,0,0,0,1.75-1.32c-.62.37-1.05.76-1.76,1.13-.49.21,0-1.29.25-1.65.08-.24.61.71.7.46.31-.1.47-.59.72-.95.08-.25.34.67.38.55.4-.34.39-1.63.76-1.46s.5.15.74.23a.59.59,0,0,0,.39-.05l.17-.31a7,7,0,0,1-.4-.94c.14,0,.37.17.5.18-.13,0-.36-.16-.5-.18a7,7,0,0,0,.4.94,14,14,0,0,1,1.51-2l0-.08c-.34.21-.73.23-1.29-.21.23.15.28.41.11.53l-.29-.42c.26-.36.51-.72,1-.15l.12-.37c.15.09.23.38.32.62l.2-.14A4.41,4.41,0,0,0,303.41,170.94Z" transform="translate(-12.32 -166.61)"/>
        <path class="what-i-do" d="M299.55,172.07a1.11,1.11,0,0,1,.16-.12l-.77.09C299.2,172.45,299.38,172.26,299.55,172.07Z" transform="translate(-12.32 -166.61)"/>
      </g>
    </g>
    <g class="what-i-do">
      <g>
        <path class="what-i-do" d="M307.24,224.69l-.53.12a1,1,0,0,1,.36.24C307.22,225.12,307.22,224.9,307.24,224.69Z" transform="translate(-12.32 -166.61)"/>
        <path class="what-i-do" d="M306.21,224.91l-.1,0-.05.11Z" transform="translate(-12.32 -166.61)"/>
        <path class="what-i-do" d="M305.37,225.43a.72.72,0,0,0,.45-.18A.45.45,0,0,0,305.37,225.43Z" transform="translate(-12.32 -166.61)"/>
        <path class="what-i-do" d="M306.17,225.42a.36.36,0,0,1-.12-.38h0l-.24.21A.81.81,0,0,1,306.17,225.42Z" transform="translate(-12.32 -166.61)"/>
        <path class="what-i-do" d="M306.17,225.42a3.85,3.85,0,0,0,.27.28A3.63,3.63,0,0,0,306.17,225.42Z" transform="translate(-12.32 -166.61)"/>
        <path class="what-i-do" d="M307,228.73c-.06.13-.33-.79-.44-.53-.35.39-.57.92-1,1.05-.11.26-.72-.66-.83-.4-.35.39-1,2-.41,1.71.91-.45,1.45-.9,2.26-1.34.58-.58,1.11-1.23,1.73-1.79a1.1,1.1,0,0,1,.6-.09c-.29-.07-.59-.13-.91-.18S307.47,228.34,307,228.73Z" transform="translate(-12.32 -166.61)"/>
        <path class="what-i-do" d="M311.27,224.06l-.18.39c-.6-.54-.95-.15-1.3.24l.33.4c.23-.13.18-.39-.1-.53a1.48,1.48,0,0,0,1.61.12C311.53,224.43,311.45,224.15,311.27,224.06Z" transform="translate(-12.32 -166.61)"/>
        <path class="what-i-do" d="M311.89,224.51l-.26.17,0,.07.24-.22Z" transform="translate(-12.32 -166.61)"/>
        <path class="what-i-do" d="M303.71,226.89c-1.19.42-2.34.75-3.47,1,0,.21,0,.43-.17.36a.91.91,0,0,0-.37-.23l-.49.11-.15.13h0a.34.34,0,0,0,.12.38,2.46,2.46,0,0,1,.28.28,3.66,3.66,0,0,1-.28-.28.81.81,0,0,0-.35-.17.74.74,0,0,1-.45.2.48.48,0,0,1,.45-.2l.23-.21.05-.11-1.14.24a1.16,1.16,0,0,0-.21.16c-.22.21-.44.42-.76,0l-.2,0,.06.06a.33.33,0,0,1-.1-.06l-.87.17a5.9,5.9,0,0,1-.37.71l-.35-.39a.82.82,0,0,1-.15.56c.25.22.49.47.68.61.34.39.1-1,.61-.27-.51-.78-.27.66-.61.27-.19-.14-.43-.39-.68-.61-.2.25-.6.21-1-.13.21-.5.62-.24,1,.13a.82.82,0,0,0,.15-.56l.35.39a5.9,5.9,0,0,0,.37-.71l-1.73.35c-3.81.69-7.08,2-11,3a51.35,51.35,0,0,1-6.27,1.14c-4.19.49-7.09,3.1-11.82,2.54-1.79-.14-4.29,1.48-5.63,2.22-1.19,2.29,1.51,5.59,1.69,5.76,2.59,2.68,2.64.49,5.78,1.36-2-.37.23-2.59,2.67-1,3.58,2.43,5.45-1.55,8.46-1.77a10.89,10.89,0,0,0,2.21-.75c4.55-.49,7.81-3.41,12.28-4.74,1.15-.43,1.87-1.64,2.69-2.44.66-.41,1.59-.24,2.17-.44a5.69,5.69,0,0,0,2.22-1.57c-.79.45-1.33.91-2.23,1.37-.61.27,0-1.31.37-1.71.11-.27.74.64.84.38.39-.14.61-.67.94-1.07.11-.26.4.65.46.52.5-.39.55-1.71,1-1.58s.62.1.91.16a.89.89,0,0,0,.48-.1l.24-.34a4.83,4.83,0,0,1-.46-.91c.17,0,.45.13.62.13-.17,0-.45-.13-.62-.13a4.83,4.83,0,0,0,.46.91,18.92,18.92,0,0,1,2-2.2l0-.08a1.46,1.46,0,0,1-1.61-.08c.28.13.34.39.11.53l-.33-.4c.34-.39.68-.79,1.29-.26l.18-.39c.17.08.26.37.36.6a1.4,1.4,0,0,0,.26-.16A4.41,4.41,0,0,0,303.71,226.89Z" transform="translate(-12.32 -166.61)"/>
        <path class="what-i-do" d="M298.81,228.48a1.73,1.73,0,0,1,.2-.15l-1,.19C298.36,228.91,298.59,228.69,298.81,228.48Z" transform="translate(-12.32 -166.61)"/>
      </g>
    </g>
    <g class="what-i-do">
      <g>
        <path class="what-i-do" d="M429.53,236.79a22.39,22.39,0,0,1-2.1,2.84c.41-.43.9-.79,1.37-1.2A2.87,2.87,0,0,0,429.53,236.79Z" transform="translate(-12.32 -166.61)"/>
        <path class="what-i-do" d="M425.09,241.88l-.47.4-.36.37C424.54,242.42,424.82,242.15,425.09,241.88Z" transform="translate(-12.32 -166.61)"/>
        <path class="what-i-do" d="M420,244.93a9.87,9.87,0,0,0,2.83-1.21C422,244.05,421.1,244.49,420,244.93Z" transform="translate(-12.32 -166.61)"/>
        <path class="what-i-do" d="M424.42,243c-.38.1-.6.08-.18-.36l0,0a11.32,11.32,0,0,1-1.45,1.07C423.4,243.45,424,243.24,424.42,243Z" transform="translate(-12.32 -166.61)"/>
        <path class="what-i-do" d="M424.42,243a7.17,7.17,0,0,0,1.12-.45Z" transform="translate(-12.32 -166.61)"/>
        <path class="what-i-do" d="M424.79,246.82c-.64.44-.9-.46-2.13.32a18.24,18.24,0,0,1-4.62,1.69,11.49,11.49,0,0,1-5.05-.05,3.27,3.27,0,0,1-.64-.15,6.94,6.94,0,0,1-.68-.32,6.52,6.52,0,0,1-1.32-1c-.85-.73-1.47-1.61-2.09-2.16-.35-.34-.68-.82-1.09-1.32a11.61,11.61,0,0,1-1-1.78,15.27,15.27,0,0,1-1-3.73,16.45,16.45,0,0,0-.33-2c-.09-.16-.25.25-.29,1.68a12.34,12.34,0,0,0,1.49,6.28,10.11,10.11,0,0,0,4.49,4.17,12.38,12.38,0,0,0,5.33,1.12,17.27,17.27,0,0,0,5.23-.84,18.52,18.52,0,0,0,3.92-2l.89-.63.84-.71c.55-.47,1-1,1.49-1.47a25.31,25.31,0,0,0,4.52-6.85l1-2,.85-2a29.61,29.61,0,0,1-2.9,5.22,14.56,14.56,0,0,0-1.21,1.86c-.44.65-.8,1.42-1.32,2.16l-.8,1.16c-.29.38-.62.76-1,1.15A11.34,11.34,0,0,1,424.79,246.82Z" transform="translate(-12.32 -166.61)"/>
        <path class="what-i-do" d="M430.12,211a8.1,8.1,0,0,0,.41,1.27c.18.4.33.71.33.71a16.71,16.71,0,0,0,1.21,4.32c.3.66.47,1.38.74,2.07s.42,1.42.61,2.14c.1-.45.15-.91.23-1.39a2.54,2.54,0,0,0-.53-1.34c-.13,0-.12.3-.06,1.06a16.38,16.38,0,0,0-1.16-5,12.07,12.07,0,0,1-1.07-5C430.57,210,430.19,209.93,430.12,211Z" transform="translate(-12.32 -166.61)"/>
        <path class="what-i-do" d="M431.64,208a3.53,3.53,0,0,0-.81,1.88l.1-.06a3.3,3.3,0,0,1,.77-1.87Z" transform="translate(-12.32 -166.61)"/>
        <path class="what-i-do" d="M408.75,241.81a11.82,11.82,0,0,1-.31-6.19,33.09,33.09,0,0,1,1.73-6,33.78,33.78,0,0,1,6.35-10.17,3.31,3.31,0,0,1,1.06-1.55c.55-.33,1.08-.67,1.58-1,.87-.76,1.78-1.46,2.7-2.12.31-.25.62-.49.95-.72l0,0c.5-.39.28-.44-.15-.37l-1.22.38a10.07,10.07,0,0,1,1.22-.38,11.47,11.47,0,0,1,1.79-.43,2.59,2.59,0,0,1,2.78.78,3.38,3.38,0,0,0-2.78-.78,5.85,5.85,0,0,0-1.66.82l-.42.36a4.63,4.63,0,0,1,3.34-.92,2.68,2.68,0,0,1,1.95,2.35,7.88,7.88,0,0,1,.19,1.51,8.37,8.37,0,0,1-.34,2.63,5.22,5.22,0,0,1-1.1,1.91c-.19.41-.36.85-.59,1.26l.2-.21c-.12.18-.23.32-.32.44A29.31,29.31,0,0,1,424.3,226c-.48.86-1,1.67-1.6,2.48-.27.59-.57,1.17-.89,1.75a16.55,16.55,0,0,1-1,1.72l-1.22.71a6,6,0,0,1-1.15,2,21.29,21.29,0,0,0,2.6-1.69,3.51,3.51,0,0,0,1.25-1.86,3.48,3.48,0,0,1,1.51-1.88,3.48,3.48,0,0,0-1.51,1.88,3.51,3.51,0,0,1-1.25,1.86,21.29,21.29,0,0,1-2.6,1.69,13.57,13.57,0,0,1-2.23,2.17,14.82,14.82,0,0,1-2.74,1.64,21,21,0,0,1,5-3.81,6,6,0,0,0,1.15-2l1.22-.71a16.55,16.55,0,0,0,1-1.72c.32-.58.62-1.16.89-1.75a40.72,40.72,0,0,1-8,8.48,41.32,41.32,0,0,1-16.61,8.12,10.24,10.24,0,0,1-4.09.27,4.87,4.87,0,0,1-2.93-1.85c-1.45-2-1.82-5.09-1.68-8a39.34,39.34,0,0,1,.51-4.55c.21-1.57.46-3.13.72-4.69.51-3.13,1.12-6.25,1.78-9.4,1.35-6.28,3-12.6,5-19a196,196,0,0,1,11.2-27.49l-5.46-2.12-4.48,11.74c-2.48,6.43-4.76,12.75-7,19s-4.48,12.43-7,18.34A84.37,84.37,0,0,1,375.43,234a54.54,54.54,0,0,1-6.22,7.07,17.57,17.57,0,0,1-3.29,2.5,6.47,6.47,0,0,1-2.88.94,4.71,4.71,0,0,1-1.67-.27c-.53-.2-.74-.51-.65-.48s-.06-.06,0-.89a11.19,11.19,0,0,1,1.23-3.31,28.36,28.36,0,0,1,5.35-7.23,26.83,26.83,0,0,1,6.06-4.48l.41-.3.22-.19.44-.34a5,5,0,0,0,.62-.51c.15-.15.13-.27.17-.42a3.06,3.06,0,0,1,.39-.34A4.17,4.17,0,0,0,377,224.6a2.52,2.52,0,0,0,.23-2,2.43,2.43,0,0,0-.81-1.25,5.61,5.61,0,0,0-3.36-.95,8,8,0,0,0-1.76.19c-.29,0-.58.14-.87.22l-.79.26a22.2,22.2,0,0,0-6.24,3.45,37.49,37.49,0,0,0-6.39,6.29,42.56,42.56,0,0,0-3.23,4.59,19.63,19.63,0,0,0-2.78,6.75,10.84,10.84,0,0,1,1.23-3.62c.35-.57.52-.65.54-.37a12.69,12.69,0,0,1-.28,1.88,15.22,15.22,0,0,0-.24,3.9,9.28,9.28,0,0,0,2.08,5.27,10.55,10.55,0,0,0,5.38,3.29,13.33,13.33,0,0,0,6.31.14,23.11,23.11,0,0,0,5.31-1.91,25.22,25.22,0,0,0,6-4.16c.88-.81,1.79-1.64,2.62-2.56s1.68-1.86,2.47-2.86a67.47,67.47,0,0,0,8.19-13.49c2.27-4.87,4.18-9.95,6-14.93.88-2.48,1.76-4.95,2.64-7.39s1.71-4.82,2.63-7.15c1.83-4.65,3.38-9.73,5.37-15.36q2.31-6,4.44-12l-11.09-4.3a189.48,189.48,0,0,0-13.2,37.65c-1.57,6.5-2.88,13.12-3.9,19.9-.24,1.7-.52,3.4-.72,5.12-.12.86-.23,1.72-.34,2.58s-.21,2-.25,3a27.21,27.21,0,0,0,.43,6.44,18,18,0,0,0,1.08,3.59,13.33,13.33,0,0,0,2.34,3.73,11.5,11.5,0,0,0,4.92,3.23,12.31,12.31,0,0,0,5.23.55,27.1,27.1,0,0,0,7-1.93,47.49,47.49,0,0,0,10.75-6.19,69.43,69.43,0,0,0,6.86-5.41,39.88,39.88,0,0,0,5.39-5.87,38.66,38.66,0,0,0,5-9.24l.43-1.16c.12-.34.31-.93.42-1.38a14.7,14.7,0,0,0,.44-3,11.7,11.7,0,0,0-.28-3.21,7.87,7.87,0,0,0-1.85-3.6,7.88,7.88,0,0,1,1.81,3.87,12.49,12.49,0,0,1,.14,3.18,14.06,14.06,0,0,1-.5,2.78c-.27,1-.54,1.6-.81,2.34a42.13,42.13,0,0,1-4.65,8.88c-1.5,2.06-1.2,1.15-.34-.59.39-.9.92-2,1.39-3.09s.92-2.15,1.2-2.92a9.43,9.43,0,0,1,1.36-2.14c.27-.38.54-.76.77-1.13a5.09,5.09,0,0,0,.3-.56,3,3,0,0,0,.2-.64,11.41,11.41,0,0,0,.41-5.57,8,8,0,0,0-1.35-3.24,5.86,5.86,0,0,0-3.55-2.29,8.86,8.86,0,0,1-2.13-.43,1.39,1.39,0,0,0-1.21-.14,9,9,0,0,0-3.53,2.13,28.71,28.71,0,0,0-2,2.14,41.89,41.89,0,0,1-3.12,3.63,39.67,39.67,0,0,0-4,4.52,20.65,20.65,0,0,0-1.88,3.18c-.3.74-.55,1.53-.82,2.31a2.11,2.11,0,0,1,1.38-.58,34.07,34.07,0,0,0-1.75,3.53,34.07,34.07,0,0,1,1.75-3.53,2.11,2.11,0,0,0-1.38.58,41.79,41.79,0,0,0-1.12,4.41,29.83,29.83,0,0,0-.57,4.74,13.12,13.12,0,0,0,.77,5,8.4,8.4,0,0,0,3.18,4l0-.12a7.5,7.5,0,0,1-2.95-4.77,10.86,10.86,0,0,1,.57-5.43c-.44,1.52-.71,1.31-.45-.51.24-.43.51-.84.77-1.24a27.61,27.61,0,0,0-.37,4.6,17.67,17.67,0,0,0,.54,4.54l.14.19.37.42.46.5.49.37a2.9,2.9,0,0,1,.44.83,4.09,4.09,0,0,1,0,.5l.46.33.51.26a4.92,4.92,0,0,0,1,.44c-.34-.22-.8-.64-1.31-1.07l-.7-.77c-.22-.27-.39-.58-.59-.85a5.06,5.06,0,0,1-.42-.84,4.26,4.26,0,0,1-.29-.71C408.81,242.07,408.75,241.81,408.75,241.81Z" transform="translate(-12.32 -166.61)"/>
        <path class="what-i-do" d="M424.55,213.26a6.18,6.18,0,0,0-1.43.61,3.73,3.73,0,0,1,2.88-.41,2.72,2.72,0,0,1,1.73,2.1,2.08,2.08,0,0,0-.74-1.86A2.66,2.66,0,0,0,424.55,213.26Z" transform="translate(-12.32 -166.61)"/>
      </g>
    </g>
    <g class="what-i-do">
      <g>
        <path class="what-i-do" d="M455.33,248.51h-.05l.31.15Z" transform="translate(-12.32 -166.61)"/>
        <path class="what-i-do" d="M455.23,248.49h0l.08,0Z" transform="translate(-12.32 -166.61)"/>
        <path class="what-i-do" d="M455.44,248.62c.05,0,0,0,0,0S455.34,248.57,455.44,248.62Z" transform="translate(-12.32 -166.61)"/>
        <path class="what-i-do" d="M455.66,248.71l-.36-.18h0l.11.06Z" transform="translate(-12.32 -166.61)"/>
        <path class="what-i-do" d="M455.66,248.71l.31.15Z" transform="translate(-12.32 -166.61)"/>
        <path class="what-i-do" d="M458.69,250.24l-.58-.28c.24.13.62.33.62.34.19.1-.77-.37-.58-.27s1.38.74,1.33.7-.34-.22-.49-.32l-1-.59s0,0,.1,0l-.41-.18C457.4,249.56,458.5,250.13,458.69,250.24Z" transform="translate(-12.32 -166.61)"/>
        <path class="what-i-do" d="M455.9,248.68l.28.15c-.62-.3-.38-.17-.15,0l.43.21-.47-.24c.52.25.61.28.53.23Z" transform="translate(-12.32 -166.61)"/>
        <path class="what-i-do" d="M456.45,249l.07,0,.07,0-.12-.07Z" transform="translate(-12.32 -166.61)"/>
        <path class="what-i-do" d="M456.2,249.06c0,.05,0,.06-.13,0,.17.09.36.18.26.14l-.31-.15h0l.06,0h0l.35.18.32.15-.32-.15-.24-.12c.05,0,.08,0,0,0s-.1-.06,0,0l-.12-.06-.07,0-.14,0,.07,0c.11.06.22.13-.2-.08h0l.08,0-.08,0-.12,0,.48.26-.43-.21.42.22.72.35c.44.21-.85-.44,0,0-.81-.4.48.25,0,0l-.72-.35c.15.08,0,0-.42-.19s0,0,.42.19l-.42-.22.43.21-.48-.26-.24-.07a7.51,7.51,0,0,0-1-.18,10.58,10.58,0,0,1-1.19-.42c-1.05-.41.06.25-2.15-.74-.78-.35-.4-.08-.33,0,1.4.76,5.1,2.59,5.31,2.69,3.15,1.55,1.42.65,3.29,1.52-1.07-.49-2-1,.16,0,3.3,1.59.72.2,1.59.56.22.09.08,0,.16,0,1.16.45-.18-.34.13-.32,0,0-.78-.45-1.2-.7-.14-.09.29.11.3.09a3.63,3.63,0,0,0-.66-.4l.49.31c0,.05-1.1-.56-1.33-.69s.76.37.57.27c0,0-.37-.21-.61-.34s.67.33.57.28-1.28-.68-1-.57l.4.18c.05,0,.09,0,.06,0l-.21-.11-.91-.45.29.13-.29-.13.91.45c-.5-.27-.94-.52-1.3-.73l-.08,0c.08.06,0,0-.53-.22l.48.24-.43-.21c-.24-.13-.47-.26.15,0l-.29-.15.62.3-.06,0Z" transform="translate(-12.32 -166.61)"/>
        <path class="what-i-do" d="M456.12,249.17l-.06,0-.13,0C456.35,249.3,456.23,249.23,456.12,249.17Z" transform="translate(-12.32 -166.61)"/>
      </g>
    </g>
  </g>
</svg>
