<svg id="Layer_1" data-name="Layer 1" xmlns="http://www.w3.org/2000/svg" viewBox="0 0 986.52 502.14">
  <defs>
    <style>
      .cls-1 {
        fill: #fff;
      }

      .cls-2, .cls-4 {
        opacity: 0.67;
      }

      .cls-3, .cls-4, .cls-5, .cls-7 {
        stroke: #fff;
        stroke-miterlimit: 10;
      }

      .cls-5 {
        font-size: 110px;
        font-family: BarlowCondensed-Light, Barlow Condensed;
      }

      .cls-5, .cls-7 {
        font-weight: 300;
      }

      .cls-6 {
        letter-spacing: -0.01em;
      }

      .cls-7 {
        font-size: 47px;
        font-family: Quicksand-Light, Quicksand;
        letter-spacing: 0.02em;
      }

      .cls-8 {
        letter-spacing: 0em;
      }
    </style>
  </defs>
  <title>what-i-do</title>
  <g>
    <g>
      <path d="M986.16,613.27" transform="translate(-1.09 -243.46)"/>
      <path class="cls-1" d="M986.16,614.77a1.5,1.5,0,0,0,0-3,1.5,1.5,0,0,0,0,3Z" transform="translate(-1.09 -243.46)"/>
    </g>
    <g class="cls-2">
      <path class="cls-3" d="M376.84,287a5.2,5.2,0,0,0-1.94-.11A51.67,51.67,0,0,0,360,294.63c-5.06,4-9.56,8.7-12.24,14.94-.87,2.05-2.27,3.91-2.78,6.13-1.1,4.73-1.88,9.59-2.59,14.46-.27,2-1.19,4,.72,6.51,1.93-.33,3.81-.56,5.62-1,5.93-1.41,10.31-5.15,13.93-9.32,4.47-5.16,8.91-10.59,10.6-17.9a31.54,31.54,0,0,1,1.67-5.28c1.66-3.8,1.72-8.18,2.22-12.45a18.9,18.9,0,0,0-.32-3.72Z" transform="translate(-1.09 -243.46)"/>
      <path class="cls-3" d="M380.2,281.46a19.05,19.05,0,0,1,.36,3.65c-.47,4.24-.57,8.63-2.2,12.45a31.83,31.83,0,0,0-1.67,5.28c-1.68,7.32-6.12,12.76-10.58,17.92-3.62,4.18-8,7.92-13.91,9.34-1.83.42-3.7.66-5.62,1-1.89-2.46-1-4.52-.73-6.51.68-4.91,1.44-9.75,2.57-14.47.52-2.22,1.89-4.05,2.78-6.14,2.67-6.24,7.13-10.86,12.22-15a51.42,51.42,0,0,1,14.88-7.75A7.8,7.8,0,0,1,380.2,281.46Z" transform="translate(-1.09 -243.46)"/>
    </g>
    <path class="cls-4" d="M423.38,319.61c-1.42,4.09-2.48,8.38-5,11.89a33.41,33.41,0,0,0-2.9,4.95c-3.36,6.94-9.2,11.65-15,16.11-4.7,3.6-10.12,6.66-16.62,7.25-2,.16-4,.14-6.11.21-1.44-2.67,0-4.56.66-6.47,1.78-4.71,3.63-9.34,5.85-13.81,1-2.11,2.87-3.72,4.25-5.64,4.17-5.74,9.85-9.67,16.08-13a61.55,61.55,0,0,1,17.28-5.56" transform="translate(-1.09 -243.46)"/>
    <g class="cls-2">
      <path class="cls-3" d="M28.08,411.81a6.91,6.91,0,0,0,.86,2,74.29,74.29,0,0,0,14.36,13c6.15,4,12.59,7.32,19.55,8.3,2.28.31,4.65,1.21,6.92,1.11,4.8-.22,9.58-.79,14.33-1.45,1.91-.28,4.22.08,5.52-2.57-1.26-1.88-2.4-3.74-3.68-5.47-4.21-5.66-9.76-9.08-15.32-11.6-6.88-3.11-14-6.12-21.42-5.78a29.89,29.89,0,0,1-5.59-.22c-4.25-.62-8.24.56-12.33,1.25a15.35,15.35,0,0,0-3.2,1.39Z" transform="translate(-1.09 -243.46)"/>
      <path class="cls-3" d="M21.4,409.94a14.69,14.69,0,0,1,3.11-1.4c4.07-.71,8.08-1.86,12.34-1.27a30.76,30.76,0,0,0,5.59.21c7.44-.35,14.54,2.65,21.42,5.75,5.56,2.52,11.11,5.94,15.33,11.58,1.27,1.75,2.42,3.59,3.68,5.46-1.29,2.63-3.6,2.28-5.52,2.59A132.05,132.05,0,0,1,63,434.32c-2.27.11-4.6-.78-6.92-1.1-7-1-13.35-4.22-19.56-8.27a74.52,74.52,0,0,1-14.37-13A11.1,11.1,0,0,1,21.4,409.94Z" transform="translate(-1.09 -243.46)"/>
    </g>
    <g class="cls-2">
      <path class="cls-3" d="M349.76,720.42a6.73,6.73,0,0,0,1.1-1.89,63.61,63.61,0,0,0,1.29-18.3c-.74-6.85-2.29-13.41-6.09-18.86-1.26-1.78-2.09-4-3.67-5.5-3.37-3.19-7-6.13-10.7-9-1.51-1.14-2.75-3-5.81-2.17-.71,2.08-1.51,4.07-2.09,6.06-1.9,6.55-1.06,12.58.54,18,2,6.75,4.2,13.6,9.41,18.54a25.81,25.81,0,0,1,3.53,4c2.31,3.34,5.92,5.35,9.22,7.74a16,16,0,0,0,3.27,1.32Z" transform="translate(-1.09 -243.46)"/>
      <path class="cls-3" d="M352.64,726.25a15.49,15.49,0,0,1-3.23-1.26c-3.28-2.36-6.89-4.4-9.23-7.73a26.4,26.4,0,0,0-3.54-4c-5.22-4.93-7.44-11.77-9.44-18.52-1.6-5.46-2.44-11.5-.55-18,.6-2,1.37-4,2.08-6.06,3-.79,4.28,1,5.81,2.16a120.39,120.39,0,0,1,10.71,9c1.59,1.5,2.4,3.69,3.68,5.49,3.81,5.44,5.35,12,6.11,18.85a62.89,62.89,0,0,1-1.26,18.3A10.69,10.69,0,0,1,352.64,726.25Z" transform="translate(-1.09 -243.46)"/>
    </g>
    <path class="cls-4" d="M397.75,697.2a15.84,15.84,0,0,1-3.43-.75c-3.66-1.82-7.59-3.28-10.45-6.19a26.85,26.85,0,0,0-4.17-3.39c-6-4-9.3-10.39-12.35-16.69-2.46-5.1-4.24-10.87-3.38-17.53.29-2,.74-4.09,1.14-6.22,2.91-1.23,4.43.38,6.14,1.25a125.49,125.49,0,0,1,12.14,7.2c1.82,1.23,3,3.24,4.53,4.82,4.67,4.75,7.23,10.88,9.08,17.5a60.92,60.92,0,0,1,1.6,18A10.22,10.22,0,0,1,397.75,697.2Z" transform="translate(-1.09 -243.46)"/>
    <g class="cls-2">
      <path class="cls-3" d="M40.72,613.51c.66.51,1.08,1,1.58,1.14A50.89,50.89,0,0,0,59,616.16c6.43-.67,12.71-2.18,18.31-6,1.83-1.26,4-2.08,5.62-3.67,3.45-3.4,6.7-7.08,9.9-10.8,1.28-1.52,3.16-2.76,2.87-5.89-1.8-.75-3.52-1.58-5.27-2.19-5.75-2-11.44-1.22-16.73.34-6.52,1.94-13.16,4.12-18.5,9.38A30.62,30.62,0,0,1,51,600.89c-3.43,2.31-5.82,6-8.52,9.31a19.14,19.14,0,0,0-1.71,3.31Z" transform="translate(-1.09 -243.46)"/>
      <path class="cls-3" d="M34.91,616.38a19.73,19.73,0,0,1,1.65-3.28c2.67-3.32,5.09-7,8.51-9.31a30.73,30.73,0,0,0,4.22-3.56c5.34-5.26,12-7.45,18.5-9.41,5.28-1.57,11-2.35,16.72-.36,1.77.64,3.47,1.44,5.28,2.19.28,3.1-1.6,4.34-2.87,5.89-3.19,3.77-6.41,7.44-9.89,10.81-1.62,1.6-3.76,2.4-5.62,3.68-5.59,3.82-11.82,5.32-18.29,6a51.23,51.23,0,0,1-16.69-1.49C36,617.42,35.58,616.88,34.91,616.38Z" transform="translate(-1.09 -243.46)"/>
    </g>
    <path class="cls-4" d="M11.86,563.88c3.38-2.68,6.57-5.73,10.59-7.32A31.76,31.76,0,0,0,27.54,554c6.54-4,14-4.86,21.25-5.49,5.89-.49,12.1-.16,17.9,2.86,1.78.95,3.47,2,5.27,3.12-.21,3-2.41,3.86-4,5.1A145.57,145.57,0,0,1,55.63,568c-2,1.23-4.4,1.59-6.59,2.47-6.58,2.59-13.47,2.83-20.49,2.27A61.85,61.85,0,0,1,11,568.13" transform="translate(-1.09 -243.46)"/>
    <g class="cls-2">
      <path class="cls-3" d="M289,738.05c.83-.48,1.6-.71,1.9-1.17a52.42,52.42,0,0,0,8.29-16.33c1.8-6.76,2.59-13.69.53-20.79-.69-2.32-.75-4.82-1.9-7.07-2.44-4.76-5.27-9.44-8.18-14.07-1.2-1.87-1.85-4.23-5.46-5.11-1.56,1.54-3.17,3-4.55,4.51-4.53,5.07-5.89,11.13-6.23,17.06-.4,7.34-.58,14.88,3.2,22.26a32.33,32.33,0,0,1,2.3,5.61c1.24,4.34,4.39,8.14,7.06,12.12a22.61,22.61,0,0,0,3,3Z" transform="translate(-1.09 -243.46)"/>
      <path class="cls-3" d="M289.92,745a21.94,21.94,0,0,1-3-2.9c-2.67-3.94-5.8-7.77-7.08-12.11a32.38,32.38,0,0,0-2.31-5.61c-3.79-7.37-3.62-14.92-3.23-22.25.33-5.94,1.7-12,6.2-17.08,1.41-1.54,3-3,4.54-4.51,3.59.88,4.24,3.24,5.47,5.1a159.85,159.85,0,0,1,8.21,14.08c1.15,2.24,1.2,4.71,1.9,7.07,2.07,7.09,1.28,14-.49,20.78a52.19,52.19,0,0,1-8.27,16.34A9.92,9.92,0,0,1,289.92,745Z" transform="translate(-1.09 -243.46)"/>
    </g>
    <g class="cls-2">
      <path class="cls-3" d="M196.63,679.21c-.77.13-1.4,0-1.8.35A52.56,52.56,0,0,0,182.55,691c-3.92,5.3-7.2,11.12-8.53,18.09-.43,2.3-1.37,4.52-1.44,6.9-.14,5.06,0,10.2.26,15.31.11,2.08-.36,4.39,1.85,6.46,1.7-.8,3.4-1.48,5-2.34,5.2-2.84,8.54-7.68,11.11-12.78,3.17-6.31,6.26-12.88,6.49-20.72a36.63,36.63,0,0,1,.57-5.77c.83-4.25.09-8.72-.23-13.18a20.74,20.74,0,0,0-1-3.71Z" transform="translate(-1.09 -243.46)"/>
      <path class="cls-3" d="M198.72,672.77a21.48,21.48,0,0,1,1,3.63c.34,4.42,1,8.91.25,13.18a36.63,36.63,0,0,0-.57,5.77c-.22,7.84-3.3,14.42-6.46,20.73-2.57,5.11-5.92,9.94-11.1,12.79-1.6.86-3.27,1.55-5,2.35-2.19-2.06-1.72-4.37-1.86-6.45-.27-5.15-.45-10.25-.27-15.32.07-2.38,1-4.57,1.43-6.9,1.33-7,4.58-12.74,8.52-18.1A52.15,52.15,0,0,1,196.93,673,7.28,7.28,0,0,1,198.72,672.77Z" transform="translate(-1.09 -243.46)"/>
    </g>
    <path class="cls-4" d="M2.65,521.06c3.65-2.3,7.14-5,11.31-6.13a31.78,31.78,0,0,0,5.34-2c6.94-3.3,14.42-3.32,21.72-3.16,5.91.14,12,1.15,17.49,4.77,1.66,1.14,3.22,2.42,4.9,3.67-.53,3-2.8,3.59-4.53,4.65-4.32,2.56-8.64,5-13.15,7.11-2.11,1-4.55,1.1-6.82,1.73-6.82,1.87-13.7,1.37-20.62.05a61.87,61.87,0,0,1-16.95-6.51" transform="translate(-1.09 -243.46)"/>
    <text class="cls-5" transform="translate(186.25 258.12)">IZA<tspan class="cls-6" x="109.23" y="0">B</tspan><tspan x="157.08" y="0">ELLE WILDING</tspan></text>
    <text class="cls-7" transform="translate(189.42 325.59)">FREELANCE WEB DEVE<tspan class="cls-8" x="517.22" y="0">L</tspan><tspan x="541.99" y="0">OPER</tspan></text>
    <g class="cls-2">
      <path d="M146.62,366.51" transform="translate(-1.09 -243.46)"/>
      <path class="cls-1" d="M146.62,371.51c6.43,0,6.44-10,0-10s-6.45,10,0,10Z" transform="translate(-1.09 -243.46)"/>
    </g>
    <g class="cls-2">
      <path d="M113.4,401.58" transform="translate(-1.09 -243.46)"/>
      <path class="cls-1" d="M113.4,406.58c6.43,0,6.45-10,0-10s-6.45,10,0,10Z" transform="translate(-1.09 -243.46)"/>
    </g>
    <g class="cls-2">
      <path d="M101.73,441.07l-.44-.43" transform="translate(-1.09 -243.46)"/>
      <path class="cls-1" d="M105.26,437.54l-.43-.44a5.16,5.16,0,0,0-3.54-1.46,5.06,5.06,0,0,0-3.53,1.46,5,5,0,0,0-1.47,3.54,5.21,5.21,0,0,0,1.47,3.53l.43.44a5.21,5.21,0,0,0,3.54,1.46,5.07,5.07,0,0,0,3.53-1.46,5,5,0,0,0,1.47-3.54,5.19,5.19,0,0,0-1.47-3.53Z" transform="translate(-1.09 -243.46)"/>
    </g>
    <g class="cls-2">
      <path d="M83.2,474.29" transform="translate(-1.09 -243.46)"/>
      <path class="cls-1" d="M83.2,479.29c6.43,0,6.45-10,0-10s-6.45,10,0,10Z" transform="translate(-1.09 -243.46)"/>
    </g>
    <g class="cls-2">
      <path d="M82.76,514" transform="translate(-1.09 -243.46)"/>
      <path class="cls-1" d="M82.76,519c6.44,0,6.45-10,0-10s-6.44,10,0,10Z" transform="translate(-1.09 -243.46)"/>
    </g>
    <g class="cls-2">
      <path d="M93.75,548.18" transform="translate(-1.09 -243.46)"/>
      <path class="cls-1" d="M93.75,553.18c6.43,0,6.44-10,0-10s-6.45,10,0,10Z" transform="translate(-1.09 -243.46)"/>
    </g>
    <g class="cls-2">
      <path d="M110.15,585" transform="translate(-1.09 -243.46)"/>
      <path class="cls-1" d="M110.15,590c6.43,0,6.44-10,0-10s-6.45,10,0,10Z" transform="translate(-1.09 -243.46)"/>
    </g>
    <g class="cls-2">
      <path d="M133.38,621.69" transform="translate(-1.09 -243.46)"/>
      <path class="cls-1" d="M133.38,626.69c6.44,0,6.45-10,0-10s-6.44,10,0,10Z" transform="translate(-1.09 -243.46)"/>
    </g>
    <g class="cls-2">
      <path d="M164.87,647.2" transform="translate(-1.09 -243.46)"/>
      <path class="cls-1" d="M164.87,652.2c6.44,0,6.45-10,0-10s-6.44,10,0,10Z" transform="translate(-1.09 -243.46)"/>
    </g>
    <g class="cls-2">
      <path d="M205.05,658.53h.44" transform="translate(-1.09 -243.46)"/>
      <path class="cls-1" d="M205.05,663.53h.44a5.17,5.17,0,0,0,3.54-1.47,5,5,0,0,0,0-7.07,5.19,5.19,0,0,0-3.54-1.46h-.44a5.18,5.18,0,0,0-3.53,1.46,5,5,0,0,0,0,7.07,5.19,5.19,0,0,0,3.53,1.47Z" transform="translate(-1.09 -243.46)"/>
    </g>
    <g class="cls-2">
      <path d="M240.76,663.64l.44.43" transform="translate(-1.09 -243.46)"/>
      <path class="cls-1" d="M237.23,667.17l.43.44a5.21,5.21,0,0,0,3.54,1.46,5,5,0,0,0,5-5,5.23,5.23,0,0,0-1.46-3.53l-.44-.44a5.14,5.14,0,0,0-3.54-1.46,5.07,5.07,0,0,0-3.53,1.46,5,5,0,0,0-1.47,3.54,5.21,5.21,0,0,0,1.47,3.53Z" transform="translate(-1.09 -243.46)"/>
    </g>
    <g class="cls-2">
      <path d="M279.18,659.25l.44.44" transform="translate(-1.09 -243.46)"/>
      <path class="cls-1" d="M275.65,662.79l.43.44a5.21,5.21,0,0,0,3.54,1.46,5,5,0,0,0,5-5,5.17,5.17,0,0,0-1.47-3.53l-.43-.44a5.17,5.17,0,0,0-3.54-1.47,5.08,5.08,0,0,0-3.53,1.47,5,5,0,0,0-1.47,3.53,5.22,5.22,0,0,0,1.47,3.54Z" transform="translate(-1.09 -243.46)"/>
    </g>
    <g class="cls-2">
      <path d="M320.09,652.27" transform="translate(-1.09 -243.46)"/>
      <path class="cls-1" d="M320.09,657.27c6.44,0,6.45-10,0-10s-6.44,10,0,10Z" transform="translate(-1.09 -243.46)"/>
    </g>
    <g class="cls-2">
      <path d="M358.62,633.69" transform="translate(-1.09 -243.46)"/>
      <path class="cls-1" d="M358.62,638.69c6.43,0,6.44-10,0-10s-6.45,10,0,10Z" transform="translate(-1.09 -243.46)"/>
    </g>
    <g class="cls-2">
      <path d="M182.24,346.67" transform="translate(-1.09 -243.46)"/>
      <path class="cls-1" d="M182.24,351.67c6.43,0,6.44-10,0-10s-6.45,10,0,10Z" transform="translate(-1.09 -243.46)"/>
    </g>
    <g class="cls-2">
      <path d="M222.89,334.16" transform="translate(-1.09 -243.46)"/>
      <path class="cls-1" d="M222.89,339.16c6.44,0,6.45-10,0-10s-6.44,10,0,10Z" transform="translate(-1.09 -243.46)"/>
    </g>
    <g class="cls-2">
      <path d="M262.16,331.11" transform="translate(-1.09 -243.46)"/>
      <path class="cls-1" d="M262.16,336.11c6.44,0,6.45-10,0-10s-6.44,10,0,10Z" transform="translate(-1.09 -243.46)"/>
    </g>
    <g class="cls-2">
      <path d="M297.07,334.16" transform="translate(-1.09 -243.46)"/>
      <path class="cls-1" d="M297.07,339.16c6.44,0,6.45-10,0-10s-6.44,10,0,10Z" transform="translate(-1.09 -243.46)"/>
    </g>
    <g class="cls-2">
      <path d="M337.22,346v.87" transform="translate(-1.09 -243.46)"/>
      <path class="cls-1" d="M332.22,346v.87a5.16,5.16,0,0,0,1.46,3.53,5.11,5.11,0,0,0,3.54,1.47,5,5,0,0,0,3.53-1.47,5.17,5.17,0,0,0,1.47-3.53V346a5.15,5.15,0,0,0-1.47-3.54,5,5,0,0,0-7.07,0,5.19,5.19,0,0,0-1.46,3.54Z" transform="translate(-1.09 -243.46)"/>
    </g>
    <g class="cls-2">
      <path d="M369.52,370.46a.52.52,0,0,1,.43.8" transform="translate(-1.09 -243.46)"/>
      <path class="cls-1" d="M369.52,375.46h.1l-1.33-.17.1,0-1.2-.5.09.05-1-.78a.62.62,0,0,1,.14.14l-.78-1,.05.09-.51-1.19a.46.46,0,0,1,.05.2L365,371v.1l.18-1.33,0,.09.5-1.19-.05.09a5,5,0,1,0,8.63,5,5.48,5.48,0,0,0,0-5.57,5.66,5.66,0,0,0-4.77-2.75,5.13,5.13,0,0,0-3.54,1.47,5,5,0,0,0,3.54,8.53Z" transform="translate(-1.09 -243.46)"/>
    </g>
    <path class="cls-4" d="M264.77,245.58c1.85,3.91,4.1,7.71,4.74,12a32.81,32.81,0,0,0,1.4,5.56c2.46,7.31,1.6,14.77.57,22C270.65,291,268.93,297,264.7,302c-1.32,1.52-2.76,2.92-4.21,4.43-2.9-.89-3.22-3.23-4.06-5.08-2-4.61-4-9.22-5.5-14-.75-2.22-.56-4.66-.92-7-1-7,.26-13.81,2.39-20.53a61.71,61.71,0,0,1,8.43-16.08" transform="translate(-1.09 -243.46)"/>
    <path class="cls-4" d="M195.92,252.49c3.23,2.87,6.79,5.49,9.06,9.19a33.13,33.13,0,0,0,3.47,4.57c5.12,5.76,7.25,12.95,9.15,20,1.53,5.72,2.29,11.89.35,18.13-.62,1.91-1.4,3.77-2.14,5.72-3,.32-4.22-1.71-5.73-3.08-3.67-3.44-7.24-6.93-10.53-10.69-1.55-1.75-2.33-4.06-3.58-6.07-3.72-6-5.17-12.8-5.85-19.82a61.73,61.73,0,0,1,1.46-18.1" transform="translate(-1.09 -243.46)"/>
    <path class="cls-4" d="M9.13,461.26c4.1-1.42,8.11-3.25,12.45-3.44a32.35,32.35,0,0,0,5.68-.79c7.53-1.67,14.85,0,21.94,1.77,5.74,1.46,11.5,3.8,16,8.54,1.37,1.48,2.61,3.06,4,4.66-1.2,2.78-3.56,2.85-5.49,3.5-4.8,1.52-9.58,2.94-14.46,4-2.29.5-4.69,0-7.06.16-7.09.3-13.69-1.73-20.15-4.56A61.5,61.5,0,0,1,6.91,465" transform="translate(-1.09 -243.46)"/>
    <path class="cls-4" d="M138,280.42c3.85,2,8,3.63,11.08,6.64a32.37,32.37,0,0,0,4.49,3.56c6.4,4.31,10.26,10.74,13.86,17.11,2.9,5.16,5.18,10.95,4.86,17.47-.13,2-.42,4-.64,6.08-2.85,1.06-4.52-.6-6.32-1.56A149.33,149.33,0,0,1,152.51,322c-1.95-1.31-3.28-3.36-5-5-5.11-4.93-8.2-11.11-10.61-17.73a61.79,61.79,0,0,1-3.1-17.9" transform="translate(-1.09 -243.46)"/>
    <path class="cls-4" d="M88.49,307.1c4,1.58,8.28,2.79,11.7,5.47a32.7,32.7,0,0,0,4.83,3.08c6.81,3.62,11.31,9.63,15.54,15.6,3.42,4.83,6.28,10.35,6.63,16.88.08,2,0,4,0,6.11-2.72,1.34-4.56-.14-6.45-.9A147.51,147.51,0,0,1,107.14,347c-2.07-1.1-3.6-3-5.47-4.45-5.58-4.38-9.29-10.21-12.37-16.55a61.86,61.86,0,0,1-4.92-17.48" transform="translate(-1.09 -243.46)"/>
    <path class="cls-4" d="M48.32,357.81c4.26.79,8.65,1.2,12.51,3.19a33.82,33.82,0,0,0,5.33,2.12c7.36,2.29,12.9,7.35,18.17,12.42,4.27,4.11,8.11,9,9.67,15.34.46,2,.74,3.95,1.13,6-2.42,1.83-4.5.72-6.5.32-4.93-1-9.78-2.19-14.54-3.71-2.23-.7-4.1-2.28-6.2-3.36-6.31-3.26-11-8.29-15.25-13.95a61.47,61.47,0,0,1-8.1-16.25" transform="translate(-1.09 -243.46)"/>
    <path class="cls-4" d="M111.71,709.74c.82-4.25,1.24-8.64,3.24-12.49a32.35,32.35,0,0,0,2.15-5.32c2.32-7.35,7.4-12.87,12.5-18.12,4.12-4.25,9-8.07,15.38-9.6,2-.45,4-.73,6-1.1,1.82,2.43.7,4.5.3,6.5-1.08,4.92-2.24,9.77-3.78,14.52-.71,2.23-2.29,4.09-3.38,6.19-3.29,6.29-8.34,11-14,15.18a61.68,61.68,0,0,1-16.29,8" transform="translate(-1.09 -243.46)"/>
    <path class="cls-4" d="M68,662.47c1.69-4.15,3-8.6,5.88-11.87a28.69,28.69,0,0,0,3.32-4.76C81.09,639,87.55,635.16,94,631.58c5.19-2.89,11.13-5,18.15-4.24,2.16.27,4.32.73,6.56,1.12,1.45,3.23-.15,5-1,6.92a137,137,0,0,1-6.85,13.78c-1.18,2.07-3.23,3.42-4.79,5.21-4.71,5.34-11,8.37-17.79,10.61a59.18,59.18,0,0,1-18.8,2.25" transform="translate(-1.09 -243.46)"/>
    <path class="cls-4" d="M326.16,259.38c.47,4.3,1.36,8.62.58,12.89a33,33,0,0,0-.49,5.72c-.05,7.71-3.28,14.48-6.6,21-2.7,5.28-6.26,10.37-11.88,13.71-1.74,1-3.56,1.86-5.42,2.82-2.45-1.78-2-4.1-2.19-6.13a147.46,147.46,0,0,1-.67-15c0-2.34,1-4.59,1.41-6.91,1.28-7,4.72-13,8.92-18.64A61.21,61.21,0,0,1,323,256.38" transform="translate(-1.09 -243.46)"/>
    <path class="cls-4" d="M227,741.69c-1.24-4.14-2.89-8.24-2.89-12.58a32.47,32.47,0,0,0-.55-5.71c-1.33-7.59.64-14.83,2.73-21.84,1.71-5.67,4.3-11.32,9.23-15.61,1.54-1.3,3.18-2.47,4.83-3.75,2.73,1.32,2.7,3.67,3.26,5.63,1.31,4.86,2.52,9.7,3.34,14.63.4,2.3-.15,4.69-.14,7,0,7.1-2.33,13.61-5.44,19.94a61.51,61.51,0,0,1-10.75,14.63" transform="translate(-1.09 -243.46)"/>
  </g>
</svg>
